<?xml version="1.0" encoding="UTF-8" standalone="no"?>
<!-- Created with Inkscape (http://www.inkscape.org/) -->

<svg
   xmlns:dc="http://purl.org/dc/elements/1.1/"
   xmlns:cc="http://creativecommons.org/ns#"
   xmlns:rdf="http://www.w3.org/1999/02/22-rdf-syntax-ns#"
   xmlns:svg="http://www.w3.org/2000/svg"
   xmlns="http://www.w3.org/2000/svg"
   xmlns:sodipodi="http://sodipodi.sourceforge.net/DTD/sodipodi-0.dtd"
   xmlns:inkscape="http://www.inkscape.org/namespaces/inkscape"
   width="20"
   height="20"
   id="svg2"
   version="1.1"
   inkscape:version="0.48.5 r10040"
   sodipodi:docname="army_operational.svg">
  <defs
     id="defs4" />
  <sodipodi:namedview
     id="base"
     pagecolor="#ffffff"
     bordercolor="#666666"
     borderopacity="1.0"
     inkscape:pageopacity="0.0"
     inkscape:pageshadow="2"
     inkscape:zoom="31.678384"
     inkscape:cx="12.386996"
     inkscape:cy="9.3698836"
     inkscape:document-units="px"
     inkscape:current-layer="layer1"
     showgrid="false"
     fit-margin-top="0"
     fit-margin-left="0"
     fit-margin-right="0"
     fit-margin-bottom="0"
     inkscape:window-width="1920"
     inkscape:window-height="1018"
     inkscape:window-x="-8"
     inkscape:window-y="-8"
     inkscape:window-maximized="1" />
  <metadata
     id="metadata7">
    <rdf:RDF>
      <cc:Work
         rdf:about="">
        <dc:format>image/svg+xml</dc:format>
        <dc:type
           rdf:resource="http://purl.org/dc/dcmitype/StillImage" />
        <dc:title />
      </cc:Work>
    </rdf:RDF>
  </metadata>
  <g
     inkscape:label="Layer 1"
     inkscape:groupmode="layer"
     id="layer1"
     transform="translate(-438.02958,-399.32648)">
    <g
       id="g3102"
       transform="translate(441.46094,402.5854)"
       style="stroke:#ffffff;stroke-opacity:0.49019607999999998;stroke-width:0.3;stroke-miterlimit:4;stroke-dasharray:none" />
    <g
       id="g3104"
       transform="translate(441.46094,402.5854)"
       style="stroke:#ffffff;stroke-opacity:0.49019607999999998;stroke-width:0.3;stroke-miterlimit:4;stroke-dasharray:none" />
    <g
       id="g3106"
       transform="translate(441.46094,402.5854)"
       style="stroke:#ffffff;stroke-opacity:0.49019607999999998;stroke-width:0.3;stroke-miterlimit:4;stroke-dasharray:none" />
    <g
       id="g3108"
       transform="translate(441.46094,402.5854)"
       style="stroke:#ffffff;stroke-opacity:0.49019607999999998;stroke-width:0.3;stroke-miterlimit:4;stroke-dasharray:none" />
    <g
       id="g3110"
       transform="translate(441.46094,402.5854)"
       style="stroke:#ffffff;stroke-opacity:0.49019607999999998;stroke-width:0.3;stroke-miterlimit:4;stroke-dasharray:none" />
    <g
       id="g3112"
       transform="translate(441.46094,402.5854)"
       style="stroke:#ffffff;stroke-opacity:0.49019607999999998;stroke-width:0.3;stroke-miterlimit:4;stroke-dasharray:none" />
    <g
       id="g3114"
       transform="translate(441.46094,402.5854)"
       style="stroke:#ffffff;stroke-opacity:0.49019607999999998;stroke-width:0.3;stroke-miterlimit:4;stroke-dasharray:none" />
    <g
       id="g3116"
       transform="translate(441.46094,402.5854)"
       style="stroke:#ffffff;stroke-opacity:0.49019607999999998;stroke-width:0.3;stroke-miterlimit:4;stroke-dasharray:none" />
    <g
       id="g3118"
       transform="translate(441.46094,402.5854)"
       style="stroke:#ffffff;stroke-opacity:0.49019607999999998;stroke-width:0.3;stroke-miterlimit:4;stroke-dasharray:none" />
    <g
       id="g3120"
       transform="translate(441.46094,402.5854)"
       style="stroke:#ffffff;stroke-opacity:0.49019607999999998;stroke-width:0.3;stroke-miterlimit:4;stroke-dasharray:none" />
    <g
       id="g3122"
       transform="translate(441.46094,402.5854)"
       style="stroke:#ffffff;stroke-opacity:0.49019607999999998;stroke-width:0.3;stroke-miterlimit:4;stroke-dasharray:none" />
    <g
       id="g3124"
       transform="translate(441.46094,402.5854)"
       style="stroke:#ffffff;stroke-opacity:0.49019607999999998;stroke-width:0.3;stroke-miterlimit:4;stroke-dasharray:none" />
    <g
       id="g3126"
       transform="translate(441.46094,402.5854)"
       style="stroke:#ffffff;stroke-opacity:0.49019607999999998;stroke-width:0.3;stroke-miterlimit:4;stroke-dasharray:none" />
    <g
       id="g3128"
       transform="translate(441.46094,402.5854)"
       style="stroke:#ffffff;stroke-opacity:0.49019607999999998;stroke-width:0.3;stroke-miterlimit:4;stroke-dasharray:none" />
    <g
       id="g3130"
       transform="translate(441.46094,402.5854)"
       style="stroke:#ffffff;stroke-opacity:0.49019607999999998;stroke-width:0.3;stroke-miterlimit:4;stroke-dasharray:none" />
    <path
       style="fill:#333333;fill-opacity:1;stroke:#ffffff;stroke-width:0.30000001;stroke-linecap:square;stroke-linejoin:round;stroke-miterlimit:4;stroke-opacity:0.49206351;stroke-dasharray:none"
       d="m 446.05181,416.21473 c -2.4e-4,-0.0108 -0.0295,-0.9193 -0.065,-2.01894 -0.0586,-1.81269 -0.0895,-2.33086 -0.15768,-2.64353 l -0.0151,-0.0692 -0.37093,-0.0153 c -0.20401,-0.008 -1.24122,-0.0243 -2.30492,-0.0353 l -1.934,-0.0201 -0.14849,-0.0729 c -0.33919,-0.16657 -0.5069,-0.53269 -0.40446,-0.88298 0.0287,-0.0982 0.0958,-0.21013 0.21799,-0.36393 0.0971,-0.12218 0.21269,-0.27507 0.25689,-0.33975 0.0925,-0.13541 3.76817,-4.6736 3.89048,-4.80345 0.13305,-0.14123 0.33587,-0.22558 0.53728,-0.22343 0.21112,0.002 0.33337,0.0531 0.49826,0.20737 0.17801,0.16651 0.24493,0.33406 0.22949,0.57459 -0.009,0.14547 -0.0289,0.2158 -0.088,0.31618 -0.0418,0.071 -0.65641,0.84956 -1.36577,1.73013 -0.70936,0.88056 -1.28556,1.60521 -1.28044,1.61033 0.0241,0.0241 2.92529,-0.40614 3.07982,-0.45668 0.19236,-0.0629 0.57395,-0.1396 0.94087,-0.1891 0.34395,-0.0464 2.1479,-0.046 2.46977,5.2e-4 1.36909,0.19798 2.13598,0.62717 2.73444,1.53033 0.22827,0.34448 0.32767,0.56776 0.38644,0.868 0.1226,0.62643 0.31231,2.19275 0.51099,4.21904 0.05,0.51029 0.0965,0.96617 0.10316,1.01308 l 0.0122,0.0853 -0.87963,-0.007 -0.87962,-0.007 -0.17575,-1.80332 c -0.0967,-0.99178 -0.17763,-1.84444 -0.17993,-1.89475 l -0.004,-0.0915 -0.0217,0.0784 c -0.0119,0.0431 -0.0456,0.89437 -0.0748,1.89166 -0.0292,0.9973 -0.0575,1.81769 -0.0629,1.8231 -0.005,0.005 -0.881,0.007 -1.94577,0.003 l -1.93593,-0.007 1.97142,-3.52559 c 1.08428,-1.93908 1.96827,-3.52831 1.96441,-3.53163 -0.0792,-0.0682 -0.63902,-0.27721 -0.90191,-0.33662 l -0.16312,-0.0369 -0.1125,0.20017 c -0.0619,0.1101 -0.99831,1.78495 -2.08098,3.72189 l -1.96848,3.5217 -0.14073,0 c -0.0774,0 -0.14091,-0.009 -0.14114,-0.0196 z"
       id="path4556"
       inkscape:connector-curvature="0" />
    <path
       style="fill:#333333;fill-opacity:1;stroke:#ffffff;stroke-width:0.30000001;stroke-linecap:square;stroke-linejoin:round;stroke-miterlimit:4;stroke-opacity:0.49206351;stroke-dasharray:none"
       d="m 448.61346,407.82769 c -0.95329,-0.07 -1.81788,-0.68942 -2.19072,-1.56944 l -0.0799,-0.18848 0.0794,-0.15881 c 0.15163,-0.30344 0.12833,-0.69297 -0.0583,-0.97474 -0.0748,-0.11295 -0.0808,-0.13683 -0.0653,-0.26106 0.009,-0.0752 0.0262,-0.1514 0.0372,-0.16932 0.0159,-0.0257 0.53427,-0.0312 2.46098,-0.0259 l 2.44084,0.007 0.0515,0.18295 c 0.0767,0.2727 0.0744,0.93808 -0.004,1.2227 -0.0704,0.25478 -0.22696,0.59126 -0.38406,0.82541 -0.21521,0.32077 -0.62341,0.67372 -0.99366,0.85917 -0.34348,0.17204 -0.89934,0.27983 -1.29369,0.25086 z"
       id="path4558"
       inkscape:connector-curvature="0" />
    <path
       style="fill:#333333;fill-opacity:1;stroke:#ffffff;stroke-width:0.30000001;stroke-linecap:square;stroke-linejoin:round;stroke-miterlimit:4;stroke-opacity:0.49206351;stroke-dasharray:none"
       d="m 446.35363,403.97043 c 0.009,-0.0467 0.10652,-0.53185 0.2168,-1.07807 l 0.20051,-0.99314 2.0124,0 2.01241,0 0.2005,0.99314 c 0.11028,0.54622 0.20784,1.03136 0.2168,1.07807 l 0.0163,0.0849 -2.446,0 -2.446,0 0.0163,-0.0849 z"
       id="path4560"
       inkscape:connector-curvature="0" />
    <path
       style="fill:#333333;fill-opacity:1;stroke:#ffffff;stroke-width:0.30000001;stroke-linecap:square;stroke-linejoin:round;stroke-miterlimit:4;stroke-opacity:0.49206351;stroke-dasharray:none"
       d="m 452.45199,409.29139 c -0.0701,-0.0846 -0.40431,-0.33668 -0.603,-0.45486 -0.18418,-0.10955 -0.19815,-0.12361 -0.16032,-0.16144 0.036,-0.036 0.0543,-0.0369 0.13888,-0.007 l 0.0974,0.0344 0.59798,-0.5984 0.59797,-0.5984 -0.20209,-0.20329 -0.2021,-0.20329 0.0845,-0.0845 0.0845,-0.0845 0.33374,0.33301 0.33375,0.333 0.6248,-0.6244 c 0.34365,-0.34342 0.61983,-0.63738 0.61375,-0.65324 -0.006,-0.0159 0.10674,-0.14619 0.25072,-0.28963 l 0.26178,-0.26081 0.13672,0.13672 0.13672,0.13672 -0.25843,0.25941 c -0.24328,0.2442 -0.26171,0.25727 -0.31412,0.22293 -0.0529,-0.0346 -0.0873,-0.005 -0.68063,0.58887 -0.59512,0.59552 -0.62286,0.62766 -0.58134,0.67354 0.0415,0.0458 0.0125,0.085 -0.58944,0.79654 -0.34818,0.41159 -0.64043,0.74916 -0.64945,0.75013 -0.009,9.8e-4 -0.0325,-0.0177 -0.0523,-0.0415 l 0,0 z"
       id="path4562"
       inkscape:connector-curvature="0" />
    <path
       style="fill:#333333;fill-opacity:1;stroke:#ffffff;stroke-width:0.30000001;stroke-linecap:square;stroke-linejoin:round;stroke-miterlimit:4;stroke-opacity:0.49206351;stroke-dasharray:none"
       d="m 444.64601,416.1886 c 0.0216,-0.0252 0.28112,-0.32414 0.57665,-0.6644 l 0.53733,-0.61865 0.0147,0.26583 c 0.008,0.14621 0.02,0.44518 0.0265,0.66439 l 0.0119,0.39856 -0.60319,0 c -0.57202,0 -0.60116,-0.002 -0.56387,-0.0457 z"
       id="path4564"
       inkscape:connector-curvature="0" />
  </g>
</svg>
