<?xml version="1.0" encoding="UTF-8" standalone="no"?>
<!-- Created with Inkscape (http://www.inkscape.org/) -->

<svg
   xmlns:dc="http://purl.org/dc/elements/1.1/"
   xmlns:cc="http://creativecommons.org/ns#"
   xmlns:rdf="http://www.w3.org/1999/02/22-rdf-syntax-ns#"
   xmlns:svg="http://www.w3.org/2000/svg"
   xmlns="http://www.w3.org/2000/svg"
   xmlns:sodipodi="http://sodipodi.sourceforge.net/DTD/sodipodi-0.dtd"
   xmlns:inkscape="http://www.inkscape.org/namespaces/inkscape"
   width="20"
   height="20"
   id="svg2"
   version="1.1"
   inkscape:version="0.48.5 r10040"
   sodipodi:docname="bar_operational.svg">
  <defs
     id="defs4" />
  <sodipodi:namedview
     id="base"
     pagecolor="#ffffff"
     bordercolor="#666666"
     borderopacity="1.0"
     inkscape:pageopacity="0.0"
     inkscape:pageshadow="2"
     inkscape:zoom="11.2"
     inkscape:cx="-1.5415753"
     inkscape:cy="9.3698836"
     inkscape:document-units="px"
     inkscape:current-layer="layer1"
     showgrid="false"
     fit-margin-top="0"
     fit-margin-left="0"
     fit-margin-right="0"
     fit-margin-bottom="0"
     inkscape:window-width="1920"
     inkscape:window-height="1018"
     inkscape:window-x="-8"
     inkscape:window-y="-8"
     inkscape:window-maximized="1" />
  <metadata
     id="metadata7">
    <rdf:RDF>
      <cc:Work
         rdf:about="">
        <dc:format>image/svg+xml</dc:format>
        <dc:type
           rdf:resource="http://purl.org/dc/dcmitype/StillImage" />
        <dc:title />
      </cc:Work>
    </rdf:RDF>
  </metadata>
  <g
     inkscape:label="Layer 1"
     inkscape:groupmode="layer"
     id="layer1"
     transform="translate(-438.02958,-399.32648)">
    <g
       id="g3102"
       transform="translate(441.46094,402.5854)"
       style="stroke:#ffffff;stroke-opacity:0.49019607999999998;stroke-width:0.3;stroke-miterlimit:4;stroke-dasharray:none" />
    <g
       id="g3104"
       transform="translate(441.46094,402.5854)"
       style="stroke:#ffffff;stroke-opacity:0.49019607999999998;stroke-width:0.3;stroke-miterlimit:4;stroke-dasharray:none" />
    <g
       id="g3106"
       transform="translate(441.46094,402.5854)"
       style="stroke:#ffffff;stroke-opacity:0.49019607999999998;stroke-width:0.3;stroke-miterlimit:4;stroke-dasharray:none" />
    <g
       id="g3108"
       transform="translate(441.46094,402.5854)"
       style="stroke:#ffffff;stroke-opacity:0.49019607999999998;stroke-width:0.3;stroke-miterlimit:4;stroke-dasharray:none" />
    <g
       id="g3110"
       transform="translate(441.46094,402.5854)"
       style="stroke:#ffffff;stroke-opacity:0.49019607999999998;stroke-width:0.3;stroke-miterlimit:4;stroke-dasharray:none" />
    <g
       id="g3112"
       transform="translate(441.46094,402.5854)"
       style="stroke:#ffffff;stroke-opacity:0.49019607999999998;stroke-width:0.3;stroke-miterlimit:4;stroke-dasharray:none" />
    <g
       id="g3114"
       transform="translate(441.46094,402.5854)"
       style="stroke:#ffffff;stroke-opacity:0.49019607999999998;stroke-width:0.3;stroke-miterlimit:4;stroke-dasharray:none" />
    <g
       id="g3116"
       transform="translate(441.46094,402.5854)"
       style="stroke:#ffffff;stroke-opacity:0.49019607999999998;stroke-width:0.3;stroke-miterlimit:4;stroke-dasharray:none" />
    <g
       id="g3118"
       transform="translate(441.46094,402.5854)"
       style="stroke:#ffffff;stroke-opacity:0.49019607999999998;stroke-width:0.3;stroke-miterlimit:4;stroke-dasharray:none" />
    <g
       id="g3120"
       transform="translate(441.46094,402.5854)"
       style="stroke:#ffffff;stroke-opacity:0.49019607999999998;stroke-width:0.3;stroke-miterlimit:4;stroke-dasharray:none" />
    <g
       id="g3122"
       transform="translate(441.46094,402.5854)"
       style="stroke:#ffffff;stroke-opacity:0.49019607999999998;stroke-width:0.3;stroke-miterlimit:4;stroke-dasharray:none" />
    <g
       id="g3124"
       transform="translate(441.46094,402.5854)"
       style="stroke:#ffffff;stroke-opacity:0.49019607999999998;stroke-width:0.3;stroke-miterlimit:4;stroke-dasharray:none" />
    <g
       id="g3126"
       transform="translate(441.46094,402.5854)"
       style="stroke:#ffffff;stroke-opacity:0.49019607999999998;stroke-width:0.3;stroke-miterlimit:4;stroke-dasharray:none" />
    <g
       id="g3128"
       transform="translate(441.46094,402.5854)"
       style="stroke:#ffffff;stroke-opacity:0.49019607999999998;stroke-width:0.3;stroke-miterlimit:4;stroke-dasharray:none" />
    <g
       id="g3130"
       transform="translate(441.46094,402.5854)"
       style="stroke:#ffffff;stroke-opacity:0.49019607999999998;stroke-width:0.3;stroke-miterlimit:4;stroke-dasharray:none" />
    <path
       style="fill:#ab38ab;fill-opacity:1;stroke:#ffffff;stroke-width:0.30000001;stroke-linecap:round;stroke-linejoin:round;stroke-miterlimit:4;stroke-opacity:0.49019608;stroke-dasharray:none"
       d="m 445.28337,417.3774 c -0.70132,-0.62663 -0.82716,-2.70445 -0.38935,-6.42889 0.21099,-1.79504 0.25869,-2.46978 0.18543,-2.62318 -0.0542,-0.11366 -0.38373,-0.42534 -0.73217,-0.69272 -0.73622,-0.56498 -0.96146,-0.95585 -1.01544,-1.7623 -0.034,-0.50874 0.13341,-4.5446 0.19066,-4.59494 0.0132,-0.0115 0.20315,-0.0507 0.42214,-0.0869 l 0.39815,-0.0657 0,1.97763 0,1.97765 0.23423,0.10668 c 0.1752,0.0799 0.29321,0.0799 0.46843,0 l 0.23421,-0.10668 0,-1.95848 c 0,-1.95182 5.4e-4,-1.95868 0.21078,-2.01498 0.11597,-0.031 0.32083,-0.057 0.45529,-0.0578 l 0.2445,-10e-4 0.0467,2.02393 c 0.0494,2.1425 0.0599,2.18726 0.50676,2.19048 0.10967,5.5e-4 0.24446,-0.0529 0.2996,-0.11932 0.0589,-0.0711 0.12769,-0.92412 0.16668,-2.07071 l 0.0664,-1.94989 0.37999,0.0607 c 0.20896,0.0335 0.38992,0.0708 0.4021,0.083 0.0115,0.0115 0.0517,1.16272 0.0879,2.55678 l 0.0657,2.53461 -0.25358,0.46029 c -0.16755,0.30417 -0.46632,0.62102 -0.88075,0.9341 l -0.62719,0.47381 5.5e-4,0.60358 c 4.3e-4,0.33196 0.12318,1.65754 0.27269,2.94571 0.2505,2.15786 0.26366,2.43059 0.16723,3.46636 -0.0575,0.61832 -0.15062,1.28226 -0.20678,1.47538 -0.13596,0.46755 -0.44931,0.80753 -0.80754,0.87619 -0.23591,0.0452 -0.35089,0.004 -0.59374,-0.21303 l 0,0 z"
       id="path3000"
       inkscape:connector-curvature="0" />
    <path
       style="fill:#ab38ab;fill-opacity:1;stroke:#ffffff;stroke-width:0.30000001;stroke-linecap:round;stroke-linejoin:round;stroke-miterlimit:4;stroke-opacity:0.49019608;stroke-dasharray:none"
       d="m 450.28523,417.44815 c -0.26957,-0.1152 -0.45775,-0.43464 -0.61157,-1.03821 -0.2117,-0.83071 -0.16377,-3.82711 0.0914,-5.71175 0.25902,-1.91331 0.38015,-4.2134 0.38361,-7.28477 l 0.002,-2.36321 0.30448,0.0513 c 1.02141,0.17208 1.73679,0.70235 2.13625,1.58352 0.36165,0.79776 0.47944,1.48466 0.49594,2.89219 0.0176,1.50156 -0.0966,1.89194 -0.8268,2.82356 -0.84145,1.0737 -1.00081,1.38226 -1.00237,1.94094 -5.4e-4,0.27166 0.10966,0.91552 0.24536,1.4308 0.49126,1.86521 0.38172,4.75505 -0.20754,5.47594 -0.18052,0.22084 -0.71489,0.32636 -1.01138,0.1997 l 0,0 z"
       id="path3002"
       inkscape:connector-curvature="0" />
  </g>
</svg>
