<svg version="1.1" id="svg2" inkscape:version="0.48.5 r10040" sodipodi:docname="bladder_operational.svg" xmlns:cc="http://creativecommons.org/ns#" xmlns:dc="http://purl.org/dc/elements/1.1/" xmlns:inkscape="http://www.inkscape.org/namespaces/inkscape" xmlns:rdf="http://www.w3.org/1999/02/22-rdf-syntax-ns#" xmlns:sodipodi="http://sodipodi.sourceforge.net/DTD/sodipodi-0.dtd" xmlns:svg="http://www.w3.org/2000/svg" xmlns="http://www.w3.org/2000/svg" xlink="http://www.w3.org/1999/xlink" x="0px" y="0px" viewBox="0 0 20 20" style="enable-background:new 0 0 20 20;" space="preserve" width="20" height="20">
<style type="text/css">
	.st0{fill:#2C5AA0;stroke:#FFFFFF;stroke-width:0.3546;stroke-opacity:0.4902;}
</style>
<sodipodi:namedview bordercolor="#666666" borderopacity="1.0" fit-margin-bottom="0" fit-margin-left="0" fit-margin-right="0" fit-margin-top="0" id="base" inkscape:current-layer="layer1" inkscape:cx="-1.5415753" inkscape:cy="9.8392633" inkscape:document-units="px" inkscape:pageopacity="0.0" inkscape:pageshadow="2" inkscape:window-height="1018" inkscape:window-maximized="1" inkscape:window-width="1920" inkscape:window-x="-8" inkscape:window-y="-8" inkscape:zoom="31.678384" pagecolor="#ffffff" showgrid="false">
	</sodipodi:namedview>
<g>
	<path class="st0" d="M15.1,2H4.9C3,2,1.5,3.5,1.5,5.4v10.2C1.5,17.4,3,19,4.9,19h10.2c1.9,0,3.4-1.5,3.4-3.4V5.4
		C18.5,3.5,17,2,15.1,2z M15.2,6.9C15,7.4,14.7,8,14.3,8.6c0.3,0.4,0.5,1,0.5,1.5c0,1.6-1.4,2.6-3.4,3.1c-0.4,0.1-0.6,0.2-0.6,0.7
		v0.8c0,0.1,0,0.1,0,0.2c0,0.5-0.4,0.9-0.8,0.9s-0.8-0.4-0.8-0.9c0-0.1,0-0.1,0-0.2v-0.9c0-0.4-0.2-0.6-0.6-0.7
		c-2-0.4-3.4-1.5-3.4-3c0-0.6,0.2-1.1,0.5-1.6C5.3,8,5,7.4,4.8,6.8C4.7,6.4,4.7,6.1,4.7,5.8c0-0.4,0.3-0.7,0.7-0.7S6,5.4,6,5.8
		C6,6,6,6.2,6.1,6.5c0.1,0.4,0.3,0.8,0.6,1.2c1.8-1.1,4.8-1,6.6,0c0.3-0.4,0.5-0.8,0.6-1.2C14,6.3,14,6,14,5.8c0-0.9,1.3-0.9,1.3,0
		C15.3,6.1,15.3,6.4,15.2,6.9z"/>
	<path class="st0" d="M13.2,8.3c-1.6-1.1-4.7-1.2-6.4-0.1C6.7,8.3,6.4,8.6,6.3,8.7C6,9.1,5.7,9.7,5.7,10.2c0,1.2,7.5-1,8.5,0
		c0-0.5-0.2-1-0.5-1.4C13.7,8.7,13.3,8.4,13.2,8.3z"/>
</g>
</svg>
