<?xml version="1.0" encoding="UTF-8" standalone="no"?>
<!-- Created with Inkscape (http://www.inkscape.org/) -->

<svg
   xmlns:dc="http://purl.org/dc/elements/1.1/"
   xmlns:cc="http://creativecommons.org/ns#"
   xmlns:rdf="http://www.w3.org/1999/02/22-rdf-syntax-ns#"
   xmlns:svg="http://www.w3.org/2000/svg"
   xmlns="http://www.w3.org/2000/svg"
   xmlns:sodipodi="http://sodipodi.sourceforge.net/DTD/sodipodi-0.dtd"
   xmlns:inkscape="http://www.inkscape.org/namespaces/inkscape"
   width="20"
   height="20"
   id="svg2"
   version="1.1"
   inkscape:version="0.48.5 r10040"
   sodipodi:docname="borehole_operational.svg">
  <defs
     id="defs4" />
  <sodipodi:namedview
     id="base"
     pagecolor="#ffffff"
     bordercolor="#666666"
     borderopacity="1.0"
     inkscape:pageopacity="0.0"
     inkscape:pageshadow="2"
     inkscape:zoom="31.678384"
     inkscape:cx="-1.5415753"
     inkscape:cy="9.8392633"
     inkscape:document-units="px"
     inkscape:current-layer="layer1"
     showgrid="false"
     fit-margin-top="0"
     fit-margin-left="0"
     fit-margin-right="0"
     fit-margin-bottom="0"
     inkscape:window-width="1920"
     inkscape:window-height="1018"
     inkscape:window-x="-8"
     inkscape:window-y="-8"
     inkscape:window-maximized="1" />
  <metadata
     id="metadata7">
    <rdf:RDF>
      <cc:Work
         rdf:about="">
        <dc:format>image/svg+xml</dc:format>
        <dc:type
           rdf:resource="http://purl.org/dc/dcmitype/StillImage" />
        <dc:title />
      </cc:Work>
    </rdf:RDF>
  </metadata>
  <g
     inkscape:label="Layer 1"
     inkscape:groupmode="layer"
     id="layer1"
     transform="translate(-438.02958,-399.32648)">
    <g
       id="g3102"
       transform="translate(441.46094,402.5854)"
       style="stroke:#ffffff;stroke-opacity:0.49019607999999998;stroke-width:0.3;stroke-miterlimit:4;stroke-dasharray:none" />
    <g
       id="g3104"
       transform="translate(441.46094,402.5854)"
       style="stroke:#ffffff;stroke-opacity:0.49019607999999998;stroke-width:0.3;stroke-miterlimit:4;stroke-dasharray:none" />
    <g
       id="g3106"
       transform="translate(441.46094,402.5854)"
       style="stroke:#ffffff;stroke-opacity:0.49019607999999998;stroke-width:0.3;stroke-miterlimit:4;stroke-dasharray:none" />
    <g
       id="g3108"
       transform="translate(441.46094,402.5854)"
       style="stroke:#ffffff;stroke-opacity:0.49019607999999998;stroke-width:0.3;stroke-miterlimit:4;stroke-dasharray:none" />
    <g
       id="g3110"
       transform="translate(441.46094,402.5854)"
       style="stroke:#ffffff;stroke-opacity:0.49019607999999998;stroke-width:0.3;stroke-miterlimit:4;stroke-dasharray:none" />
    <g
       id="g3112"
       transform="translate(441.46094,402.5854)"
       style="stroke:#ffffff;stroke-opacity:0.49019607999999998;stroke-width:0.3;stroke-miterlimit:4;stroke-dasharray:none" />
    <g
       id="g3114"
       transform="translate(441.46094,402.5854)"
       style="stroke:#ffffff;stroke-opacity:0.49019607999999998;stroke-width:0.3;stroke-miterlimit:4;stroke-dasharray:none" />
    <g
       id="g3116"
       transform="translate(441.46094,402.5854)"
       style="stroke:#ffffff;stroke-opacity:0.49019607999999998;stroke-width:0.3;stroke-miterlimit:4;stroke-dasharray:none" />
    <g
       id="g3118"
       transform="translate(441.46094,402.5854)"
       style="stroke:#ffffff;stroke-opacity:0.49019607999999998;stroke-width:0.3;stroke-miterlimit:4;stroke-dasharray:none" />
    <g
       id="g3120"
       transform="translate(441.46094,402.5854)"
       style="stroke:#ffffff;stroke-opacity:0.49019607999999998;stroke-width:0.3;stroke-miterlimit:4;stroke-dasharray:none" />
    <g
       id="g3122"
       transform="translate(441.46094,402.5854)"
       style="stroke:#ffffff;stroke-opacity:0.49019607999999998;stroke-width:0.3;stroke-miterlimit:4;stroke-dasharray:none" />
    <g
       id="g3124"
       transform="translate(441.46094,402.5854)"
       style="stroke:#ffffff;stroke-opacity:0.49019607999999998;stroke-width:0.3;stroke-miterlimit:4;stroke-dasharray:none" />
    <g
       id="g3126"
       transform="translate(441.46094,402.5854)"
       style="stroke:#ffffff;stroke-opacity:0.49019607999999998;stroke-width:0.3;stroke-miterlimit:4;stroke-dasharray:none" />
    <g
       id="g3128"
       transform="translate(441.46094,402.5854)"
       style="stroke:#ffffff;stroke-opacity:0.49019607999999998;stroke-width:0.3;stroke-miterlimit:4;stroke-dasharray:none" />
    <g
       id="g3130"
       transform="translate(441.46094,402.5854)"
       style="stroke:#ffffff;stroke-opacity:0.49019607999999998;stroke-width:0.3;stroke-miterlimit:4;stroke-dasharray:none" />
    <g
       id="g3979"
       transform="matrix(0.85542995,0,0,0.85542995,439.17968,400.71949)"
       style="fill:#214478;stroke:#ffffff;stroke-width:0;stroke-miterlimit:4;stroke-opacity:0.49019608;stroke-dasharray:none">
      <path
         id="path3941"
         d="M 16,0 H 4 C 1.8,0 0,1.8 0,4 v 12 c 0,2.2 1.8,4 4,4 h 12 c 2.2,0 4,-1.8 4,-4 V 4 C 20,1.8 18.2,0 16,0 z M 7.973,19.5 h -1.5 V 6.969 H 0.5 v -1.5 H 7.973 V 19.5 z M 10,18.935 c -0.829,0 -1.5,-0.671 -1.5,-1.5 0,-0.488 0.237,-0.919 0.6,-1.192 V 3.254 h 1.8 v 12.988 c 0.362,0.274 0.6,0.704 0.6,1.192 0,0.83 -0.672,1.501 -1.5,1.501 z M 19.5,6.969 H 13.527 V 19.5 h -1.5 V 5.469 H 19.5 v 1.5 z"
         style="fill:#214478;stroke:#ffffff;stroke-width:0;stroke-miterlimit:4;stroke-opacity:0.49019608;stroke-dasharray:none"
         inkscape:connector-curvature="0" />
      <g
         id="g3943"
         style="fill:#214478;stroke:#ffffff;stroke-width:0;stroke-miterlimit:4;stroke-opacity:0.49019608;stroke-dasharray:none" />
      <g
         id="g3945"
         style="fill:#214478;stroke:#ffffff;stroke-width:0;stroke-miterlimit:4;stroke-opacity:0.49019608;stroke-dasharray:none" />
      <g
         id="g3947"
         style="fill:#214478;stroke:#ffffff;stroke-width:0;stroke-miterlimit:4;stroke-opacity:0.49019608;stroke-dasharray:none" />
      <g
         id="g3949"
         style="fill:#214478;stroke:#ffffff;stroke-width:0;stroke-miterlimit:4;stroke-opacity:0.49019608;stroke-dasharray:none" />
      <g
         id="g3951"
         style="fill:#214478;stroke:#ffffff;stroke-width:0;stroke-miterlimit:4;stroke-opacity:0.49019608;stroke-dasharray:none" />
      <g
         id="g3953"
         style="fill:#214478;stroke:#ffffff;stroke-width:0;stroke-miterlimit:4;stroke-opacity:0.49019608;stroke-dasharray:none" />
      <g
         id="g3955"
         style="fill:#214478;stroke:#ffffff;stroke-width:0;stroke-miterlimit:4;stroke-opacity:0.49019608;stroke-dasharray:none" />
      <g
         id="g3957"
         style="fill:#214478;stroke:#ffffff;stroke-width:0;stroke-miterlimit:4;stroke-opacity:0.49019608;stroke-dasharray:none" />
      <g
         id="g3959"
         style="fill:#214478;stroke:#ffffff;stroke-width:0;stroke-miterlimit:4;stroke-opacity:0.49019608;stroke-dasharray:none" />
      <g
         id="g3961"
         style="fill:#214478;stroke:#ffffff;stroke-width:0;stroke-miterlimit:4;stroke-opacity:0.49019608;stroke-dasharray:none" />
      <g
         id="g3963"
         style="fill:#214478;stroke:#ffffff;stroke-width:0;stroke-miterlimit:4;stroke-opacity:0.49019608;stroke-dasharray:none" />
      <g
         id="g3965"
         style="fill:#214478;stroke:#ffffff;stroke-width:0;stroke-miterlimit:4;stroke-opacity:0.49019608;stroke-dasharray:none" />
      <g
         id="g3967"
         style="fill:#214478;stroke:#ffffff;stroke-width:0;stroke-miterlimit:4;stroke-opacity:0.49019608;stroke-dasharray:none" />
      <g
         id="g3969"
         style="fill:#214478;stroke:#ffffff;stroke-width:0;stroke-miterlimit:4;stroke-opacity:0.49019608;stroke-dasharray:none" />
      <g
         id="g3971"
         style="fill:#214478;stroke:#ffffff;stroke-width:0;stroke-miterlimit:4;stroke-opacity:0.49019608;stroke-dasharray:none" />
    </g>
    <path
       style="fill:#2c5aa0;fill-opacity:1;stroke:#ffffff;stroke-width:0.30000001;stroke-linecap:square;stroke-linejoin:round;stroke-miterlimit:4;stroke-opacity:0.49019608;stroke-dasharray:none"
       d="m 441.92066,417.73536 c -1.27907,-0.2761 -2.28727,-1.24866 -2.62755,-2.53467 l -0.0859,-0.32461 -0.0133,-5.30825 c -0.0139,-5.55353 -0.006,-5.88093 0.14989,-6.38692 0.40486,-1.31199 1.52971,-2.25 2.89574,-2.41476 0.45154,-0.0545 10.49459,-0.0531 10.98416,0.002 1.36058,0.15171 2.45883,1.0606 2.90427,2.40353 l 0.10767,0.32461 0.0113,5.63285 c 0.0125,6.26008 0.0254,5.91227 -0.24326,6.56149 -0.17328,0.41866 -0.41821,0.78405 -0.74391,1.10976 -0.31229,0.31229 -0.57236,0.4921 -1.00151,0.69244 -0.66253,0.30929 -0.0871,0.28314 -6.42304,0.29189 -4.87451,0.007 -5.68807,1e-5 -5.91454,-0.0489 l 0,0 z"
       id="path4007"
       inkscape:connector-curvature="0"
       sodipodi:nodetypes="cccscccscscsscccc" />
    <path
       style="fill:#ffffff;fill-opacity:1;stroke:#ffffff;stroke-width:0;stroke-linecap:square;stroke-linejoin:round;stroke-miterlimit:4;stroke-opacity:0.49019608;stroke-dasharray:none"
       d="m 445.1955,410.74868 0,-4.7198 -2.2419,0 -2.2419,0 0,-0.55064 0,-0.55064 2.79254,0 2.79255,0 0,5.27044 0,5.27044 -0.55064,0 -0.55065,0 0,-4.7198 z"
       id="path4009"
       inkscape:connector-curvature="0" />
    <path
       style="fill:#ffffff;fill-opacity:1;stroke:#ffffff;stroke-width:0;stroke-linecap:square;stroke-linejoin:round;stroke-miterlimit:4;stroke-opacity:0.49019608;stroke-dasharray:none"
       d="m 447.49281,414.96643 c -0.77521,-0.27724 -0.99362,-1.18842 -0.43348,-1.80844 l 0.14209,-0.15727 0,-4.88219 0,-4.88219 0.64898,0 0.64896,0 0,4.90264 0,4.90266 0.13102,0.12724 c 0.18757,0.18216 0.27574,0.39145 0.29446,0.6989 0.0117,0.19267 -0.004,0.3182 -0.0529,0.44852 -0.20511,0.53706 -0.848,0.84011 -1.3792,0.65013 l 0,0 z"
       id="path4011"
       inkscape:connector-curvature="0" />
    <path
       style="fill:#ffffff;fill-opacity:1;stroke:#ffffff;stroke-width:0;stroke-linecap:square;stroke-linejoin:round;stroke-miterlimit:4;stroke-opacity:0.49019608;stroke-dasharray:none"
       d="m 449.404,410.19804 0,-5.27044 2.79255,0 2.79255,0 0,0.55064 0,0.55064 -2.26157,0 -2.26157,0 0,4.7198 0,4.7198 -0.53098,0 -0.53098,0 0,-5.27044 z"
       id="path4013"
       inkscape:connector-curvature="0" />
  </g>
</svg>
