<?xml version="1.0" encoding="UTF-8" standalone="no"?>
<!-- Created with Inkscape (http://www.inkscape.org/) -->

<svg
   xmlns:dc="http://purl.org/dc/elements/1.1/"
   xmlns:cc="http://creativecommons.org/ns#"
   xmlns:rdf="http://www.w3.org/1999/02/22-rdf-syntax-ns#"
   xmlns:svg="http://www.w3.org/2000/svg"
   xmlns="http://www.w3.org/2000/svg"
   xmlns:sodipodi="http://sodipodi.sourceforge.net/DTD/sodipodi-0.dtd"
   xmlns:inkscape="http://www.inkscape.org/namespaces/inkscape"
   width="20"
   height="20"
   id="svg2"
   version="1.1"
   inkscape:version="0.48.5 r10040"
   sodipodi:docname="buddhist_operational.svg">
  <defs
     id="defs4" />
  <sodipodi:namedview
     id="base"
     pagecolor="#ffffff"
     bordercolor="#666666"
     borderopacity="1.0"
     inkscape:pageopacity="0.0"
     inkscape:pageshadow="2"
     inkscape:zoom="11.2"
     inkscape:cx="-1.5415753"
     inkscape:cy="9.3698836"
     inkscape:document-units="px"
     inkscape:current-layer="layer1"
     showgrid="false"
     fit-margin-top="0"
     fit-margin-left="0"
     fit-margin-right="0"
     fit-margin-bottom="0"
     inkscape:window-width="1920"
     inkscape:window-height="1018"
     inkscape:window-x="-8"
     inkscape:window-y="-8"
     inkscape:window-maximized="1" />
  <metadata
     id="metadata7">
    <rdf:RDF>
      <cc:Work
         rdf:about="">
        <dc:format>image/svg+xml</dc:format>
        <dc:type
           rdf:resource="http://purl.org/dc/dcmitype/StillImage" />
        <dc:title />
      </cc:Work>
    </rdf:RDF>
  </metadata>
  <g
     inkscape:label="Layer 1"
     inkscape:groupmode="layer"
     id="layer1"
     transform="translate(-438.02958,-399.32648)">
    <g
       id="g3102"
       transform="translate(441.46094,402.5854)"
       style="stroke:#ffffff;stroke-opacity:0.49019607999999998;stroke-width:0.3;stroke-miterlimit:4;stroke-dasharray:none" />
    <g
       id="g3104"
       transform="translate(441.46094,402.5854)"
       style="stroke:#ffffff;stroke-opacity:0.49019607999999998;stroke-width:0.3;stroke-miterlimit:4;stroke-dasharray:none" />
    <g
       id="g3106"
       transform="translate(441.46094,402.5854)"
       style="stroke:#ffffff;stroke-opacity:0.49019607999999998;stroke-width:0.3;stroke-miterlimit:4;stroke-dasharray:none" />
    <g
       id="g3108"
       transform="translate(441.46094,402.5854)"
       style="stroke:#ffffff;stroke-opacity:0.49019607999999998;stroke-width:0.3;stroke-miterlimit:4;stroke-dasharray:none" />
    <g
       id="g3110"
       transform="translate(441.46094,402.5854)"
       style="stroke:#ffffff;stroke-opacity:0.49019607999999998;stroke-width:0.3;stroke-miterlimit:4;stroke-dasharray:none" />
    <g
       id="g3112"
       transform="translate(441.46094,402.5854)"
       style="stroke:#ffffff;stroke-opacity:0.49019607999999998;stroke-width:0.3;stroke-miterlimit:4;stroke-dasharray:none" />
    <g
       id="g3114"
       transform="translate(441.46094,402.5854)"
       style="stroke:#ffffff;stroke-opacity:0.49019607999999998;stroke-width:0.3;stroke-miterlimit:4;stroke-dasharray:none" />
    <g
       id="g3116"
       transform="translate(441.46094,402.5854)"
       style="stroke:#ffffff;stroke-opacity:0.49019607999999998;stroke-width:0.3;stroke-miterlimit:4;stroke-dasharray:none" />
    <g
       id="g3118"
       transform="translate(441.46094,402.5854)"
       style="stroke:#ffffff;stroke-opacity:0.49019607999999998;stroke-width:0.3;stroke-miterlimit:4;stroke-dasharray:none" />
    <g
       id="g3120"
       transform="translate(441.46094,402.5854)"
       style="stroke:#ffffff;stroke-opacity:0.49019607999999998;stroke-width:0.3;stroke-miterlimit:4;stroke-dasharray:none" />
    <g
       id="g3122"
       transform="translate(441.46094,402.5854)"
       style="stroke:#ffffff;stroke-opacity:0.49019607999999998;stroke-width:0.3;stroke-miterlimit:4;stroke-dasharray:none" />
    <g
       id="g3124"
       transform="translate(441.46094,402.5854)"
       style="stroke:#ffffff;stroke-opacity:0.49019607999999998;stroke-width:0.3;stroke-miterlimit:4;stroke-dasharray:none" />
    <g
       id="g3126"
       transform="translate(441.46094,402.5854)"
       style="stroke:#ffffff;stroke-opacity:0.49019607999999998;stroke-width:0.3;stroke-miterlimit:4;stroke-dasharray:none" />
    <g
       id="g3128"
       transform="translate(441.46094,402.5854)"
       style="stroke:#ffffff;stroke-opacity:0.49019607999999998;stroke-width:0.3;stroke-miterlimit:4;stroke-dasharray:none" />
    <g
       id="g3130"
       transform="translate(441.46094,402.5854)"
       style="stroke:#ffffff;stroke-opacity:0.49019607999999998;stroke-width:0.3;stroke-miterlimit:4;stroke-dasharray:none" />
    <g
       id="g4676"
       transform="translate(443.14972,401.73719)"
       style="stroke:#ffffff;stroke-width:0.30000001;stroke-miterlimit:4;stroke-opacity:0.49019608;stroke-dasharray:none">
      <path
         id="path4638"
         d="M 8.928,15 H 1.547 V 11.384 H 8.928 V 15 z M 9.952,5.756 C 9.749,5.756 9.586,5.65 9.464,5.433 9.416,6.446 9.049,7.328 8.363,8.077 8.463,8.054 8.538,8.041 8.589,8.041 c 0.339,0 0.507,0.175 0.507,0.522 0,0.351 -0.175,0.522 -0.525,0.522 -0.352,0 -0.528,-0.166 -0.528,-0.501 0,-0.05 0.013,-0.124 0.035,-0.219 -0.748,0.68 -1.628,1.042 -2.64,1.09 0.218,0.126 0.326,0.291 0.326,0.489 0,0.348 -0.176,0.522 -0.526,0.522 -0.352,0 -0.526,-0.175 -0.526,-0.522 0,-0.205 0.106,-0.366 0.319,-0.489 -0.954,0 -1.832,-0.367 -2.634,-1.098 0.024,0.101 0.038,0.177 0.038,0.234 0,0.331 -0.176,0.493 -0.528,0.493 -0.352,0 -0.525,-0.172 -0.525,-0.522 0,-0.348 0.167,-0.522 0.504,-0.522 0.052,0 0.126,0.013 0.222,0.036 C 1.424,7.312 1.059,6.432 1.012,5.433 0.895,5.649 0.732,5.756 0.523,5.756 0.175,5.756 0,5.582 0,5.233 0,4.887 0.175,4.715 0.523,4.715 c 0.209,0 0.371,0.108 0.488,0.32 0.047,-1 0.412,-1.882 1.095,-2.646 C 2.01,2.412 1.936,2.424 1.884,2.424 1.547,2.424 1.38,2.25 1.38,1.9 1.38,1.55 1.555,1.38 1.906,1.38 2.259,1.38 2.434,1.546 2.434,1.881 2.434,1.934 2.42,2.01 2.396,2.107 3.198,1.373 4.076,1.004 5.03,1.004 4.817,0.883 4.711,0.721 4.711,0.519 4.711,0.172 4.886,0 5.237,0 5.588,0 5.763,0.172 5.763,0.519 5.763,0.716 5.655,0.878 5.437,1.004 6.449,1.05 7.329,1.417 8.077,2.107 8.055,2.014 8.042,1.939 8.042,1.888 8.042,1.549 8.219,1.38 8.57,1.38 c 0.351,0 0.525,0.171 0.525,0.521 0,0.35 -0.167,0.525 -0.506,0.525 -0.051,0 -0.126,-0.012 -0.226,-0.035 0.686,0.749 1.053,1.63 1.101,2.645 0.122,-0.212 0.285,-0.32 0.488,-0.32 0.35,0 0.522,0.172 0.522,0.518 10e-4,0.348 -0.172,0.522 -0.522,0.522 l 0,0 z M 3.752,4.71 c 0.056,0 0.133,0.017 0.232,0.042 L 4.006,4.694 C 3.817,4.585 3.712,4.42 3.688,4.201 3.373,4.169 3.199,3.996 3.168,3.68 2.946,3.652 2.783,3.545 2.68,3.354 2.395,3.781 2.203,4.246 2.099,4.752 2.196,4.727 2.277,4.71 2.34,4.71 2.436,4.71 2.545,4.762 2.671,4.866 2.805,4.762 2.929,4.71 3.046,4.71 3.162,4.71 3.287,4.762 3.413,4.866 3.54,4.762 3.651,4.71 3.752,4.71 l 0,0 z M 3.984,5.713 C 3.884,5.741 3.807,5.756 3.752,5.756 3.658,5.756 3.545,5.704 3.413,5.602 3.287,5.704 3.162,5.756 3.046,5.756 2.929,5.756 2.805,5.704 2.671,5.602 2.545,5.704 2.432,5.756 2.332,5.756 2.277,5.756 2.196,5.747 2.099,5.723 2.203,6.222 2.395,6.685 2.68,7.106 2.784,6.918 2.947,6.807 3.168,6.782 3.198,6.467 3.372,6.293 3.688,6.26 3.712,6.042 3.818,5.88 4.007,5.779 L 3.984,5.713 z M 4.21,3.681 C 4.424,3.702 4.586,3.813 4.689,4.006 L 4.746,3.977 C 4.722,3.88 4.711,3.801 4.711,3.745 4.711,3.65 4.761,3.538 4.86,3.404 4.76,3.278 4.711,3.157 4.711,3.04 4.711,2.923 4.761,2.796 4.86,2.665 4.76,2.539 4.711,2.426 4.711,2.334 4.711,2.272 4.722,2.194 4.746,2.1 4.248,2.2 3.787,2.391 3.364,2.68 3.548,2.78 3.655,2.937 3.687,3.159 3.992,3.196 4.168,3.368 4.21,3.681 l 0,0 z M 4.689,6.464 C 4.586,6.653 4.424,6.758 4.21,6.782 4.168,7.095 3.992,7.27 3.688,7.307 3.656,7.529 3.548,7.688 3.365,7.793 3.788,8.077 4.249,8.269 4.747,8.366 4.722,8.271 4.711,8.197 4.711,8.139 4.711,8.041 4.761,7.927 4.86,7.801 4.76,7.67 4.711,7.542 4.711,7.426 4.711,7.307 4.761,7.186 4.86,7.059 4.76,6.925 4.711,6.814 4.711,6.718 4.711,6.663 4.722,6.584 4.746,6.485 L 4.689,6.464 z M 5.941,5.229 C 5.941,5.036 5.873,4.87 5.734,4.735 5.598,4.603 5.433,4.532 5.237,4.532 5.041,4.532 4.878,4.603 4.74,4.735 4.604,4.87 4.534,5.036 4.534,5.229 c 0,0.195 0.069,0.362 0.206,0.499 0.138,0.138 0.302,0.204 0.497,0.204 0.195,0 0.36,-0.066 0.497,-0.204 C 5.873,5.592 5.941,5.425 5.941,5.229 z M 5.764,3.745 c 0,0.056 -0.013,0.135 -0.042,0.231 L 5.786,3.997 C 5.889,3.807 6.05,3.701 6.265,3.673 6.303,3.361 6.477,3.189 6.786,3.151 6.815,2.941 6.924,2.779 7.112,2.672 6.688,2.391 6.225,2.2 5.722,2.1 c 0.029,0.095 0.042,0.172 0.042,0.234 0,0.09 -0.052,0.199 -0.155,0.331 0.104,0.131 0.155,0.25 0.155,0.359 0,0.127 -0.052,0.254 -0.155,0.38 0.103,0.134 0.155,0.246 0.155,0.341 l 0,0 z M 5.722,6.49 c 0.029,0.096 0.042,0.175 0.042,0.234 0,0.09 -0.052,0.2 -0.155,0.334 0.104,0.127 0.155,0.248 0.155,0.367 0,0.123 -0.052,0.249 -0.155,0.375 0.104,0.131 0.155,0.243 0.155,0.338 0,0.059 -0.013,0.133 -0.042,0.228 C 6.225,8.268 6.689,8.077 7.113,7.793 6.924,7.684 6.815,7.526 6.786,7.312 6.477,7.276 6.304,7.102 6.265,6.79 6.05,6.761 5.889,6.653 5.786,6.464 L 5.722,6.49 z M 6.794,4.201 C 6.767,4.42 6.659,4.582 6.471,4.689 L 6.49,4.751 C 6.59,4.727 6.667,4.71 6.724,4.71 6.819,4.71 6.929,4.762 7.055,4.866 7.192,4.762 7.315,4.71 7.43,4.71 7.547,4.71 7.67,4.762 7.803,4.866 7.935,4.762 8.048,4.71 8.143,4.71 8.199,4.71 8.275,4.727 8.371,4.752 8.27,4.246 8.08,3.781 7.794,3.354 7.691,3.545 7.529,3.65 7.309,3.674 7.276,3.986 7.104,4.163 6.794,4.201 l 0,0 z M 6.471,5.778 C 6.659,5.888 6.767,6.05 6.794,6.264 7.105,6.301 7.276,6.475 7.309,6.789 7.53,6.813 7.692,6.918 7.794,7.106 8.08,6.685 8.27,6.222 8.37,5.723 8.274,5.75 8.198,5.763 8.142,5.763 8.047,5.763 7.934,5.711 7.802,5.609 7.67,5.706 7.549,5.756 7.436,5.756 7.32,5.756 7.193,5.706 7.055,5.609 6.929,5.706 6.818,5.756 6.724,5.756 6.667,5.756 6.59,5.747 6.49,5.723 L 6.471,5.778 z"
         style="fill:#010002;stroke:#ffffff;stroke-width:0.30000001;stroke-miterlimit:4;stroke-opacity:0.49019608;stroke-dasharray:none"
         inkscape:connector-curvature="0" />
      <g
         id="g4640"
         style="stroke:#ffffff;stroke-width:0.30000001;stroke-miterlimit:4;stroke-opacity:0.49019608;stroke-dasharray:none" />
      <g
         id="g4642"
         style="stroke:#ffffff;stroke-width:0.30000001;stroke-miterlimit:4;stroke-opacity:0.49019608;stroke-dasharray:none" />
      <g
         id="g4644"
         style="stroke:#ffffff;stroke-width:0.30000001;stroke-miterlimit:4;stroke-opacity:0.49019608;stroke-dasharray:none" />
      <g
         id="g4646"
         style="stroke:#ffffff;stroke-width:0.30000001;stroke-miterlimit:4;stroke-opacity:0.49019608;stroke-dasharray:none" />
      <g
         id="g4648"
         style="stroke:#ffffff;stroke-width:0.30000001;stroke-miterlimit:4;stroke-opacity:0.49019608;stroke-dasharray:none" />
      <g
         id="g4650"
         style="stroke:#ffffff;stroke-width:0.30000001;stroke-miterlimit:4;stroke-opacity:0.49019608;stroke-dasharray:none" />
      <g
         id="g4652"
         style="stroke:#ffffff;stroke-width:0.30000001;stroke-miterlimit:4;stroke-opacity:0.49019608;stroke-dasharray:none" />
      <g
         id="g4654"
         style="stroke:#ffffff;stroke-width:0.30000001;stroke-miterlimit:4;stroke-opacity:0.49019608;stroke-dasharray:none" />
      <g
         id="g4656"
         style="stroke:#ffffff;stroke-width:0.30000001;stroke-miterlimit:4;stroke-opacity:0.49019608;stroke-dasharray:none" />
      <g
         id="g4658"
         style="stroke:#ffffff;stroke-width:0.30000001;stroke-miterlimit:4;stroke-opacity:0.49019608;stroke-dasharray:none" />
      <g
         id="g4660"
         style="stroke:#ffffff;stroke-width:0.30000001;stroke-miterlimit:4;stroke-opacity:0.49019608;stroke-dasharray:none" />
      <g
         id="g4662"
         style="stroke:#ffffff;stroke-width:0.30000001;stroke-miterlimit:4;stroke-opacity:0.49019608;stroke-dasharray:none" />
      <g
         id="g4664"
         style="stroke:#ffffff;stroke-width:0.30000001;stroke-miterlimit:4;stroke-opacity:0.49019608;stroke-dasharray:none" />
      <g
         id="g4666"
         style="stroke:#ffffff;stroke-width:0.30000001;stroke-miterlimit:4;stroke-opacity:0.49019608;stroke-dasharray:none" />
      <g
         id="g4668"
         style="stroke:#ffffff;stroke-width:0.30000001;stroke-miterlimit:4;stroke-opacity:0.49019608;stroke-dasharray:none" />
    </g>
  </g>
</svg>
