<svg version="1.1" id="svg2" inkscape:version="0.48.5 r10040" sodipodi:docname="army_operational.svg" xmlns:cc="http://creativecommons.org/ns#" xmlns:dc="http://purl.org/dc/elements/1.1/" xmlns:inkscape="http://www.inkscape.org/namespaces/inkscape" xmlns:rdf="http://www.w3.org/1999/02/22-rdf-syntax-ns#" xmlns:sodipodi="http://sodipodi.sourceforge.net/DTD/sodipodi-0.dtd" xmlns:svg="http://www.w3.org/2000/svg" xmlns="http://www.w3.org/2000/svg" xlink="http://www.w3.org/1999/xlink" x="0px" y="0px" viewBox="0 0 20 20" style="enable-background:new 0 0 20 20;" space="preserve" width="20" height="20">
<style type="text/css">
	.st0{fill:#333333;stroke:#FFFFFF;stroke-width:0.3;stroke-linecap:square;stroke-linejoin:round;stroke-opacity:0.4921;}
</style>
<sodipodi:namedview bordercolor="#666666" borderopacity="1.0" fit-margin-bottom="0" fit-margin-left="0" fit-margin-right="0" fit-margin-top="0" id="base" inkscape:current-layer="layer1" inkscape:cx="12.386996" inkscape:cy="9.3698836" inkscape:document-units="px" inkscape:pageopacity="0.0" inkscape:pageshadow="2" inkscape:window-height="1018" inkscape:window-maximized="1" inkscape:window-width="1920" inkscape:window-x="-8" inkscape:window-y="-8" inkscape:zoom="31.678384" pagecolor="#ffffff" showgrid="false">
	</sodipodi:namedview>
<g>
	<g>
		<g>
			<path class="st0" d="M14.1,17h1c0.2,0,0.4-0.2,0.4-0.4v-1.7c0.8,0,1.4-0.7,1.4-1.4V4c0-0.8-0.6-1.4-1.4-1.4H6
				C5.2,2.6,4.6,3.2,4.6,4v9.6c0,0.8,0.6,1.4,1.4,1.4c0,0,0,0,0,0h0v1.7C6,16.8,6.2,17,6.4,17h1c0.2,0,0.4-0.2,0.4-0.4v-1.7h5.8v1.7
				C13.6,16.8,13.8,17,14.1,17z M14.6,13.3c-0.5,0-0.9-0.4-0.9-0.9c0-0.5,0.4-0.9,0.9-0.9c0.5,0,0.9,0.4,0.9,0.9
				C15.5,12.9,15.1,13.3,14.6,13.3C14.6,13.3,14.6,13.3,14.6,13.3z M6.9,13.3c-0.5,0-0.9-0.4-0.9-0.9c0-0.5,0.4-0.9,0.9-0.9
				c0.5,0,0.9,0.4,0.9,0.9C7.9,12.9,7.5,13.3,6.9,13.3C6.9,13.3,6.9,13.3,6.9,13.3z M6.6,9.8C6.3,9.8,6,9.5,6,9.2V4.6
				C6,4.3,6.3,4,6.6,4h8.3c0.3,0,0.6,0.3,0.6,0.6v4.5c0,0.3-0.3,0.6-0.6,0.6H6.6z"/>
		</g>
	</g>
</g>
</svg>
