<?xml version="1.0" encoding="UTF-8" standalone="no"?>
<!-- Created with Inkscape (http://www.inkscape.org/) -->

<svg
   xmlns:dc="http://purl.org/dc/elements/1.1/"
   xmlns:cc="http://creativecommons.org/ns#"
   xmlns:rdf="http://www.w3.org/1999/02/22-rdf-syntax-ns#"
   xmlns:svg="http://www.w3.org/2000/svg"
   xmlns="http://www.w3.org/2000/svg"
   xmlns:sodipodi="http://sodipodi.sourceforge.net/DTD/sodipodi-0.dtd"
   xmlns:inkscape="http://www.inkscape.org/namespaces/inkscape"
   width="20"
   height="20"
   id="svg2"
   version="1.1"
   inkscape:version="0.48.5 r10040"
   sodipodi:docname="cccm_operational.svg">
  <defs
     id="defs4" />
  <sodipodi:namedview
     id="base"
     pagecolor="#ffffff"
     bordercolor="#666666"
     borderopacity="1.0"
     inkscape:pageopacity="0.0"
     inkscape:pageshadow="2"
     inkscape:zoom="31.678384"
     inkscape:cx="12.386996"
     inkscape:cy="9.3698836"
     inkscape:document-units="px"
     inkscape:current-layer="layer1"
     showgrid="false"
     fit-margin-top="0"
     fit-margin-left="0"
     fit-margin-right="0"
     fit-margin-bottom="0"
     inkscape:window-width="1920"
     inkscape:window-height="1018"
     inkscape:window-x="-8"
     inkscape:window-y="-8"
     inkscape:window-maximized="1" />
  <metadata
     id="metadata7">
    <rdf:RDF>
      <cc:Work
         rdf:about="">
        <dc:format>image/svg+xml</dc:format>
        <dc:type
           rdf:resource="http://purl.org/dc/dcmitype/StillImage" />
        <dc:title />
      </cc:Work>
    </rdf:RDF>
  </metadata>
  <g
     inkscape:label="Layer 1"
     inkscape:groupmode="layer"
     id="layer1"
     transform="translate(-438.02958,-399.32648)">
    <g
       id="g3102"
       transform="translate(441.46094,402.5854)"
       style="stroke:#ffffff;stroke-opacity:0.49019607999999998;stroke-width:0.3;stroke-miterlimit:4;stroke-dasharray:none" />
    <g
       id="g3104"
       transform="translate(441.46094,402.5854)"
       style="stroke:#ffffff;stroke-opacity:0.49019607999999998;stroke-width:0.3;stroke-miterlimit:4;stroke-dasharray:none" />
    <g
       id="g3106"
       transform="translate(441.46094,402.5854)"
       style="stroke:#ffffff;stroke-opacity:0.49019607999999998;stroke-width:0.3;stroke-miterlimit:4;stroke-dasharray:none" />
    <g
       id="g3108"
       transform="translate(441.46094,402.5854)"
       style="stroke:#ffffff;stroke-opacity:0.49019607999999998;stroke-width:0.3;stroke-miterlimit:4;stroke-dasharray:none" />
    <g
       id="g3110"
       transform="translate(441.46094,402.5854)"
       style="stroke:#ffffff;stroke-opacity:0.49019607999999998;stroke-width:0.3;stroke-miterlimit:4;stroke-dasharray:none" />
    <g
       id="g3112"
       transform="translate(441.46094,402.5854)"
       style="stroke:#ffffff;stroke-opacity:0.49019607999999998;stroke-width:0.3;stroke-miterlimit:4;stroke-dasharray:none" />
    <g
       id="g3114"
       transform="translate(441.46094,402.5854)"
       style="stroke:#ffffff;stroke-opacity:0.49019607999999998;stroke-width:0.3;stroke-miterlimit:4;stroke-dasharray:none" />
    <g
       id="g3116"
       transform="translate(441.46094,402.5854)"
       style="stroke:#ffffff;stroke-opacity:0.49019607999999998;stroke-width:0.3;stroke-miterlimit:4;stroke-dasharray:none" />
    <g
       id="g3118"
       transform="translate(441.46094,402.5854)"
       style="stroke:#ffffff;stroke-opacity:0.49019607999999998;stroke-width:0.3;stroke-miterlimit:4;stroke-dasharray:none" />
    <g
       id="g3120"
       transform="translate(441.46094,402.5854)"
       style="stroke:#ffffff;stroke-opacity:0.49019607999999998;stroke-width:0.3;stroke-miterlimit:4;stroke-dasharray:none" />
    <g
       id="g3122"
       transform="translate(441.46094,402.5854)"
       style="stroke:#ffffff;stroke-opacity:0.49019607999999998;stroke-width:0.3;stroke-miterlimit:4;stroke-dasharray:none" />
    <g
       id="g3124"
       transform="translate(441.46094,402.5854)"
       style="stroke:#ffffff;stroke-opacity:0.49019607999999998;stroke-width:0.3;stroke-miterlimit:4;stroke-dasharray:none" />
    <g
       id="g3126"
       transform="translate(441.46094,402.5854)"
       style="stroke:#ffffff;stroke-opacity:0.49019607999999998;stroke-width:0.3;stroke-miterlimit:4;stroke-dasharray:none" />
    <g
       id="g3128"
       transform="translate(441.46094,402.5854)"
       style="stroke:#ffffff;stroke-opacity:0.49019607999999998;stroke-width:0.3;stroke-miterlimit:4;stroke-dasharray:none" />
    <g
       id="g3130"
       transform="translate(441.46094,402.5854)"
       style="stroke:#ffffff;stroke-opacity:0.49019607999999998;stroke-width:0.3;stroke-miterlimit:4;stroke-dasharray:none" />
    <g
       id="g4662"
       transform="matrix(0.82097447,0,0,0.82097447,439.98449,401.10991)"
       style="fill:#004455;stroke:#ffffff;stroke-width:0.36541939;stroke-miterlimit:4;stroke-opacity:0.49019608;stroke-dasharray:none">
      <path
         id="path4624"
         d="M 16,0 4,0 C 1.8,0 0,1.8 0,4 l 0,12 c 0,2.2 1.8,4 4,4 l 12,0 c 2.2,0 4,-1.8 4,-4 L 20,4 C 20,1.8 18.2,0 16,0 z"
         style="fill:#004455;stroke:#ffffff;stroke-width:0.36541939;stroke-miterlimit:4;stroke-opacity:0.49019608;stroke-dasharray:none"
         inkscape:connector-curvature="0"
         sodipodi:nodetypes="sssssssss" />
      <g
         id="g4626"
         style="fill:#004455;stroke:#ffffff;stroke-width:0.36541939;stroke-miterlimit:4;stroke-opacity:0.49019608;stroke-dasharray:none" />
      <g
         id="g4628"
         style="fill:#004455;stroke:#ffffff;stroke-width:0.36541939;stroke-miterlimit:4;stroke-opacity:0.49019608;stroke-dasharray:none" />
      <g
         id="g4630"
         style="fill:#004455;stroke:#ffffff;stroke-width:0.36541939;stroke-miterlimit:4;stroke-opacity:0.49019608;stroke-dasharray:none" />
      <g
         id="g4632"
         style="fill:#004455;stroke:#ffffff;stroke-width:0.36541939;stroke-miterlimit:4;stroke-opacity:0.49019608;stroke-dasharray:none" />
      <g
         id="g4634"
         style="fill:#004455;stroke:#ffffff;stroke-width:0.36541939;stroke-miterlimit:4;stroke-opacity:0.49019608;stroke-dasharray:none" />
      <g
         id="g4636"
         style="fill:#004455;stroke:#ffffff;stroke-width:0.36541939;stroke-miterlimit:4;stroke-opacity:0.49019608;stroke-dasharray:none" />
      <g
         id="g4638"
         style="fill:#004455;stroke:#ffffff;stroke-width:0.36541939;stroke-miterlimit:4;stroke-opacity:0.49019608;stroke-dasharray:none" />
      <g
         id="g4640"
         style="fill:#004455;stroke:#ffffff;stroke-width:0.36541939;stroke-miterlimit:4;stroke-opacity:0.49019608;stroke-dasharray:none" />
      <g
         id="g4642"
         style="fill:#004455;stroke:#ffffff;stroke-width:0.36541939;stroke-miterlimit:4;stroke-opacity:0.49019608;stroke-dasharray:none" />
      <g
         id="g4644"
         style="fill:#004455;stroke:#ffffff;stroke-width:0.36541939;stroke-miterlimit:4;stroke-opacity:0.49019608;stroke-dasharray:none" />
      <g
         id="g4646"
         style="fill:#004455;stroke:#ffffff;stroke-width:0.36541939;stroke-miterlimit:4;stroke-opacity:0.49019608;stroke-dasharray:none" />
      <g
         id="g4648"
         style="fill:#004455;stroke:#ffffff;stroke-width:0.36541939;stroke-miterlimit:4;stroke-opacity:0.49019608;stroke-dasharray:none" />
      <g
         id="g4650"
         style="fill:#004455;stroke:#ffffff;stroke-width:0.36541939;stroke-miterlimit:4;stroke-opacity:0.49019608;stroke-dasharray:none" />
      <g
         id="g4652"
         style="fill:#004455;stroke:#ffffff;stroke-width:0.36541939;stroke-miterlimit:4;stroke-opacity:0.49019608;stroke-dasharray:none" />
      <g
         id="g4654"
         style="fill:#004455;stroke:#ffffff;stroke-width:0.36541939;stroke-miterlimit:4;stroke-opacity:0.49019608;stroke-dasharray:none" />
    </g>
    <path
       style="fill:#ffffff;fill-opacity:1;stroke:#ffffff;stroke-width:0.0093086;stroke-linecap:square;stroke-linejoin:round;stroke-miterlimit:4;stroke-opacity:0.49206351;stroke-dasharray:none"
       d="m 441.40657,409.02292 c -0.35538,-0.1917 -0.44246,-0.6814 -0.17157,-0.96493 0.0897,-0.094 5.63096,-4.05002 6.0683,-4.3324 0.2604,-0.16814 0.52382,-0.24942 0.86754,-0.26767 0.37623,-0.02 0.6087,0.0262 0.92825,0.1841 0.14877,0.0735 1.14113,0.75875 2.51717,1.73806 4.14461,2.94961 3.71708,2.63247 3.80992,2.82636 0.0686,0.14336 0.0786,0.19623 0.0626,0.33368 -0.0364,0.31449 -0.29959,0.55578 -0.60614,0.55578 -0.23937,0 0.24162,0.32345 -3.98768,-2.68166 -1.13957,-0.80971 -2.14413,-1.51662 -2.23236,-1.5709 -0.0882,-0.0543 -0.2138,-0.10741 -0.27907,-0.11808 -0.27326,-0.0446 -0.25909,-0.0536 -3.30584,2.11222 -1.58706,1.12823 -2.96072,2.09792 -3.05258,2.15487 -0.21081,0.13068 -0.41435,0.14073 -0.61859,0.0306 l 0,0 z"
       id="path4694-1"
       inkscape:connector-curvature="0" />
    <path
       style="fill:#ffffff;fill-opacity:1;stroke:#ffffff;stroke-width:0.0093086;stroke-linecap:square;stroke-linejoin:round;stroke-miterlimit:4;stroke-opacity:0.49206351;stroke-dasharray:none"
       d="m 445.1236,415.32136 c -0.0264,-0.0327 -0.0606,-0.44409 -0.10994,-1.32512 -0.0393,-0.70281 -0.0721,-1.28136 -0.0728,-1.28568 -7.1e-4,-0.005 -0.0976,-0.009 -0.2154,-0.009 l -0.21411,0 0.0165,-0.0863 c 0.009,-0.0474 0.11006,-0.67196 0.22433,-1.38784 0.18058,-1.13127 0.21923,-1.43364 0.16636,-1.30159 -0.0939,0.23442 -0.92956,1.85577 -0.96902,1.87994 -0.0726,0.0445 -0.15839,-0.0124 -0.17033,-0.11305 -0.005,-0.0424 0.13533,-0.46447 0.31193,-0.93773 0.55471,-1.48664 0.61289,-1.59913 0.90199,-1.74416 0.16633,-0.0834 0.19991,-0.0885 0.57569,-0.0885 0.77226,0 0.85318,0.0752 1.28268,1.19181 0.43771,1.138 0.5801,1.54785 0.56009,1.61222 -0.0212,0.0683 -0.10582,0.10825 -0.17311,0.0817 -0.0235,-0.01 -0.13249,-0.19644 -0.24223,-0.41597 -0.10971,-0.21952 -0.32146,-0.64402 -0.47047,-0.94332 -0.14901,-0.29931 -0.27703,-0.53795 -0.28451,-0.53031 -0.008,0.007 0.0834,0.61732 0.20186,1.35487 0.1185,0.73757 0.21544,1.36066 0.21544,1.38467 0,0.0332 -0.0518,0.0437 -0.21488,0.0437 l -0.21488,0 0,0.10645 c 0,0.20872 -0.12283,2.38828 -0.13847,2.45707 -0.0202,0.0889 -0.15549,0.12915 -0.21842,0.0648 -0.035,-0.0357 -0.0611,-0.32221 -0.11963,-1.31349 -0.0412,-0.6973 -0.0752,-1.2784 -0.0754,-1.29134 -3.1e-4,-0.0129 -0.0421,-0.0235 -0.0926,-0.0235 -0.0833,0 -0.0922,0.01 -0.0927,0.10189 -3e-4,0.0561 -0.0279,0.58886 -0.0611,1.18398 -0.0332,0.59512 -0.0606,1.12691 -0.0608,1.18174 -5.6e-4,0.16682 -0.15586,0.2621 -0.24611,0.15098 l 0,0 z"
       id="path4696-7"
       inkscape:connector-curvature="0" />
    <path
       style="fill:#ffffff;fill-opacity:1;stroke:#ffffff;stroke-width:0.0093086;stroke-linecap:square;stroke-linejoin:round;stroke-miterlimit:4;stroke-opacity:0.49206351;stroke-dasharray:none"
       d="m 445.30428,408.63189 c -0.38281,-0.20432 -0.47524,-0.68998 -0.19224,-1.01003 0.1412,-0.15968 0.32726,-0.23185 0.54923,-0.21304 0.65933,0.0559 0.78019,0.99811 0.16186,1.26201 -0.17081,0.0728 -0.33198,0.0608 -0.51885,-0.0389 z"
       id="path4698-4"
       inkscape:connector-curvature="0" />
    <path
       style="fill:#ffffff;fill-opacity:1;stroke:#ffffff;stroke-width:0.0093086;stroke-linecap:square;stroke-linejoin:round;stroke-miterlimit:4;stroke-opacity:0.49206351;stroke-dasharray:none"
       d="m 448.08136,412.26193 c -0.22031,-0.1442 -0.24443,-0.41598 -0.0542,-0.61035 0.0909,-0.0929 0.12803,-0.10933 0.24705,-0.10933 0.3422,0 0.52532,0.3891 0.29999,0.63739 -0.14375,0.1584 -0.32925,0.18936 -0.49285,0.0823 z"
       id="path4700-0"
       inkscape:connector-curvature="0" />
    <path
       style="fill:#ffffff;fill-opacity:1;stroke:#ffffff;stroke-width:0.0093086;stroke-linecap:square;stroke-linejoin:round;stroke-miterlimit:4;stroke-opacity:0.49206351;stroke-dasharray:none"
       d="m 447.84486,415.31082 c -0.0466,-0.0525 -0.0481,-0.11208 -0.0185,-0.65079 0.0364,-0.65835 0.0443,-1.64069 0.0139,-1.73841 -0.0106,-0.0346 -0.0717,-0.0902 -0.13546,-0.12352 -0.0637,-0.0333 -0.1894,-0.14236 -0.27929,-0.24254 -0.18789,-0.20941 -0.46684,-0.63136 -0.45052,-0.68146 0.0309,-0.0947 0.12794,-0.038 0.35617,0.20831 0.13371,0.14434 0.31078,0.30004 0.39348,0.34603 0.14257,0.0793 0.1606,0.0818 0.34803,0.0501 0.13621,-0.023 0.25972,-0.0237 0.39715,-0.002 0.28099,0.0446 0.39526,-0.0127 0.7401,-0.37186 0.25716,-0.26779 0.35521,-0.3261 0.38656,-0.2299 0.0155,0.0474 -0.25741,0.45726 -0.45263,0.67987 -0.0877,0.0998 -0.21267,0.20938 -0.27802,0.24344 -0.0714,0.0372 -0.12436,0.09 -0.13271,0.13212 -0.0394,0.19918 -0.0403,0.69114 -0.003,1.46621 0.0382,0.78196 0.0375,0.86679 -0.007,0.91682 -0.0269,0.0304 -0.0721,0.0551 -0.10066,0.0551 -0.11041,0 -0.1434,-0.10548 -0.23035,-0.73703 -0.0475,-0.34501 -0.0951,-0.63779 -0.10584,-0.65062 -0.0106,-0.0128 -0.0589,0.26944 -0.10688,0.62728 -0.0882,0.6569 -0.11985,0.76037 -0.23221,0.76037 -0.0285,0 -0.0749,-0.026 -0.10312,-0.0578 z"
       id="path4702-9"
       inkscape:connector-curvature="0" />
    <path
       style="fill:#ffffff;fill-opacity:1;stroke:#ffffff;stroke-width:0.0093086;stroke-linecap:square;stroke-linejoin:round;stroke-miterlimit:4;stroke-opacity:0.49206351;stroke-dasharray:none"
       d="m 450.26256,415.29552 c -0.0821,-0.0722 -0.0832,-0.0777 -0.0776,-0.43125 0.004,-0.19697 0.0268,-0.92268 0.0529,-1.61269 0.0478,-1.2685 0.0561,-2.72055 0.0179,-3.15205 l -0.0208,-0.23523 -0.42626,0.96368 c -0.27458,0.62075 -0.44509,0.96978 -0.47916,0.98083 -0.0781,0.0253 -0.15197,-0.0134 -0.17045,-0.0896 -0.017,-0.07 0.40037,-1.39561 0.63262,-2.00937 0.19295,-0.50996 0.37607,-0.68874 0.79078,-0.77211 0.25874,-0.0519 0.80452,-0.0241 0.9878,0.0505 0.30429,0.12387 0.41603,0.26521 0.60585,0.76632 0.17115,0.45181 0.6222,1.85143 0.62211,1.93045 -1.5e-4,0.13289 -0.13627,0.18502 -0.22119,0.0847 -0.0254,-0.0301 -0.22282,-0.45712 -0.43836,-0.94875 -0.21555,-0.49163 -0.40182,-0.90504 -0.41392,-0.9187 -0.0266,-0.0299 -0.0622,0.79001 -0.062,1.42052 1.1e-4,0.25012 0.0273,1.21631 0.0606,2.14709 0.0544,1.52279 0.0557,1.69968 0.0134,1.76564 -0.0996,0.15531 -0.30551,0.17013 -0.39634,0.0285 -0.0328,-0.0512 -0.0868,-0.46986 -0.18498,-1.4344 -0.14221,-1.39723 -0.16757,-1.60584 -0.1883,-1.54864 -0.007,0.0182 -0.0799,0.68848 -0.16287,1.48963 -0.15012,1.44873 -0.15137,1.457 -0.23142,1.52735 -0.10301,0.0906 -0.20545,0.0897 -0.31031,-0.002 l 0,0 z"
       id="path4704-4"
       inkscape:connector-curvature="0" />
    <path
       style="fill:#ffffff;fill-opacity:1;stroke:#ffffff;stroke-width:0.0093086;stroke-linecap:square;stroke-linejoin:round;stroke-miterlimit:4;stroke-opacity:0.49206351;stroke-dasharray:none"
       d="m 450.76096,408.6736 c -0.35841,-0.13054 -0.52654,-0.57173 -0.35084,-0.92056 0.26856,-0.5332 1.05373,-0.43273 1.19112,0.15242 0.0731,0.31182 -0.0798,0.61251 -0.38404,0.75514 -0.14536,0.0682 -0.29328,0.0724 -0.45624,0.0129 l 0,0 z"
       id="path4706-8"
       inkscape:connector-curvature="0" />
  </g>
</svg>
