<?xml version="1.0" encoding="UTF-8" standalone="no"?>
<!-- Created with Inkscape (http://www.inkscape.org/) -->

<svg
   xmlns:dc="http://purl.org/dc/elements/1.1/"
   xmlns:cc="http://creativecommons.org/ns#"
   xmlns:rdf="http://www.w3.org/1999/02/22-rdf-syntax-ns#"
   xmlns:svg="http://www.w3.org/2000/svg"
   xmlns="http://www.w3.org/2000/svg"
   xmlns:sodipodi="http://sodipodi.sourceforge.net/DTD/sodipodi-0.dtd"
   xmlns:inkscape="http://www.inkscape.org/namespaces/inkscape"
   width="20"
   height="20"
   id="svg2"
   version="1.1"
   inkscape:version="0.48.5 r10040"
   sodipodi:docname="high_school_operational.svg">
  <defs
     id="defs4" />
  <sodipodi:namedview
     id="base"
     pagecolor="#ffffff"
     bordercolor="#666666"
     borderopacity="1.0"
     inkscape:pageopacity="0.0"
     inkscape:pageshadow="2"
     inkscape:zoom="31.678384"
     inkscape:cx="-1.5415753"
     inkscape:cy="9.3698836"
     inkscape:document-units="px"
     inkscape:current-layer="layer1"
     showgrid="false"
     fit-margin-top="0"
     fit-margin-left="0"
     fit-margin-right="0"
     fit-margin-bottom="0"
     inkscape:window-width="1920"
     inkscape:window-height="1018"
     inkscape:window-x="-8"
     inkscape:window-y="-8"
     inkscape:window-maximized="1" />
  <metadata
     id="metadata7">
    <rdf:RDF>
      <cc:Work
         rdf:about="">
        <dc:format>image/svg+xml</dc:format>
        <dc:type
           rdf:resource="http://purl.org/dc/dcmitype/StillImage" />
        <dc:title />
      </cc:Work>
    </rdf:RDF>
  </metadata>
  <g
     inkscape:label="Layer 1"
     inkscape:groupmode="layer"
     id="layer1"
     transform="translate(-438.02958,-399.32648)">
    <g
       id="g3102"
       transform="translate(441.46094,402.5854)"
       style="stroke:#ffffff;stroke-opacity:0.49019607999999998;stroke-width:0.3;stroke-miterlimit:4;stroke-dasharray:none" />
    <g
       id="g3104"
       transform="translate(441.46094,402.5854)"
       style="stroke:#ffffff;stroke-opacity:0.49019607999999998;stroke-width:0.3;stroke-miterlimit:4;stroke-dasharray:none" />
    <g
       id="g3106"
       transform="translate(441.46094,402.5854)"
       style="stroke:#ffffff;stroke-opacity:0.49019607999999998;stroke-width:0.3;stroke-miterlimit:4;stroke-dasharray:none" />
    <g
       id="g3108"
       transform="translate(441.46094,402.5854)"
       style="stroke:#ffffff;stroke-opacity:0.49019607999999998;stroke-width:0.3;stroke-miterlimit:4;stroke-dasharray:none" />
    <g
       id="g3110"
       transform="translate(441.46094,402.5854)"
       style="stroke:#ffffff;stroke-opacity:0.49019607999999998;stroke-width:0.3;stroke-miterlimit:4;stroke-dasharray:none" />
    <g
       id="g3112"
       transform="translate(441.46094,402.5854)"
       style="stroke:#ffffff;stroke-opacity:0.49019607999999998;stroke-width:0.3;stroke-miterlimit:4;stroke-dasharray:none" />
    <g
       id="g3114"
       transform="translate(441.46094,402.5854)"
       style="stroke:#ffffff;stroke-opacity:0.49019607999999998;stroke-width:0.3;stroke-miterlimit:4;stroke-dasharray:none" />
    <g
       id="g3116"
       transform="translate(441.46094,402.5854)"
       style="stroke:#ffffff;stroke-opacity:0.49019607999999998;stroke-width:0.3;stroke-miterlimit:4;stroke-dasharray:none" />
    <g
       id="g3118"
       transform="translate(441.46094,402.5854)"
       style="stroke:#ffffff;stroke-opacity:0.49019607999999998;stroke-width:0.3;stroke-miterlimit:4;stroke-dasharray:none" />
    <g
       id="g3120"
       transform="translate(441.46094,402.5854)"
       style="stroke:#ffffff;stroke-opacity:0.49019607999999998;stroke-width:0.3;stroke-miterlimit:4;stroke-dasharray:none" />
    <g
       id="g3122"
       transform="translate(441.46094,402.5854)"
       style="stroke:#ffffff;stroke-opacity:0.49019607999999998;stroke-width:0.3;stroke-miterlimit:4;stroke-dasharray:none" />
    <g
       id="g3124"
       transform="translate(441.46094,402.5854)"
       style="stroke:#ffffff;stroke-opacity:0.49019607999999998;stroke-width:0.3;stroke-miterlimit:4;stroke-dasharray:none" />
    <g
       id="g3126"
       transform="translate(441.46094,402.5854)"
       style="stroke:#ffffff;stroke-opacity:0.49019607999999998;stroke-width:0.3;stroke-miterlimit:4;stroke-dasharray:none" />
    <g
       id="g3128"
       transform="translate(441.46094,402.5854)"
       style="stroke:#ffffff;stroke-opacity:0.49019607999999998;stroke-width:0.3;stroke-miterlimit:4;stroke-dasharray:none" />
    <g
       id="g3130"
       transform="translate(441.46094,402.5854)"
       style="stroke:#ffffff;stroke-opacity:0.49019607999999998;stroke-width:0.3;stroke-miterlimit:4;stroke-dasharray:none" />
    <path
       style="fill:#16502d;fill-opacity:1;stroke:#ffffff;stroke-width:0.30000001;stroke-linecap:square;stroke-linejoin:round;stroke-miterlimit:4;stroke-opacity:0.49019608;stroke-dasharray:none"
       d="m 440.98651,406.1056 c -0.1599,-0.31911 -0.2744,-0.59578 -0.25443,-0.61482 0.02,-0.019 1.69854,-0.85845 3.73016,-1.86534 l 3.69386,-1.83071 3.71972,1.84532 c 2.04584,1.01492 3.71971,1.85716 3.71971,1.87164 0,0.0456 -0.57405,1.17411 -0.59723,1.17411 -0.0121,0 -1.54659,-0.75572 -3.40988,-1.67937 -1.86328,-0.92366 -3.41442,-1.67938 -3.44696,-1.67938 -0.0325,0 -1.5705,0.75572 -3.41769,1.67938 -1.84719,0.92365 -3.37833,1.67937 -3.40252,1.67937 -0.0242,0 -0.17483,-0.26109 -0.33474,-0.5802 z"
       id="path6074"
       inkscape:connector-curvature="0" />
    <path
       style="fill:#16502d;fill-opacity:1;stroke:#ffffff;stroke-width:0.30000001;stroke-linecap:square;stroke-linejoin:round;stroke-miterlimit:4;stroke-opacity:0.49019608;stroke-dasharray:none"
       d="m 447.49627,416.6698 c -0.0915,-0.0216 -0.24487,-0.0792 -0.34075,-0.12815 -0.16896,-0.0862 -0.25609,-0.0889 -2.82774,-0.0889 l -2.65341,0 0,-4.14838 0,-4.14839 0.3646,-0.13437 c 0.82062,-0.30243 1.34992,-0.42425 2.15765,-0.49657 1.28758,-0.11528 2.76304,0.2128 3.68739,0.81991 0.165,0.10838 0.31491,0.19705 0.33313,0.19705 0.0182,0 0.16417,-0.0796 0.32433,-0.17691 0.64865,-0.39407 1.63184,-0.69994 2.56836,-0.79902 0.98806,-0.10453 2.1364,0.0601 3.16844,0.45418 l 0.34499,0.13174 0,4.15038 0,4.15039 -2.6753,0 c -2.26182,0 -2.69043,0.01 -2.77318,0.064 -0.26941,0.17627 -1.21425,0.26241 -1.67851,0.15303 z m 0.26724,-3.87415 -0.0124,-3.17093 -0.12423,-0.25298 c -0.15085,-0.3072 -0.39064,-0.521 -0.81253,-0.72448 -0.83749,-0.40391 -2.28928,-0.54758 -3.35008,-0.33153 -0.25768,0.0525 -0.7677,0.22465 -1.00541,0.33938 l -0.16573,0.08 0,3.54944 c 0,1.9522 0.0124,3.54945 0.0275,3.54945 0.0151,0 0.26867,-0.11844 0.56348,-0.26321 0.29486,-0.14478 0.73485,-0.31781 0.97796,-0.38459 0.40171,-0.11034 0.51235,-0.12158 1.21534,-0.12349 0.67273,-0.002 0.82229,0.0111 1.14905,0.0995 0.47361,0.12809 1.1239,0.4423 1.32582,0.64062 0.0851,0.0836 0.17023,0.15458 0.18923,0.15784 0.019,0.003 0.0289,-1.421 0.0221,-3.16501 z m 1.11437,2.93218 c 0.69404,-0.49862 1.53371,-0.71792 2.59449,-0.67763 0.83086,0.0316 1.50546,0.22381 2.23811,0.6378 0.1421,0.0803 0.27634,0.146 0.29831,0.146 0.0235,0 0.0399,-1.46384 0.0399,-3.54883 l 0,-3.54882 -0.20992,-0.10337 c -1.40543,-0.69207 -3.98166,-0.48866 -4.85353,0.38321 -0.39626,0.39626 -0.37083,0.13587 -0.36798,3.76841 0.001,1.76224 0.0122,3.1801 0.0242,3.15081 0.0119,-0.0293 0.11829,-0.12271 0.23641,-0.20758 l 0,0 z"
       id="path6076"
       inkscape:connector-curvature="0" />
  </g>
</svg>
