<?xml version="1.0" encoding="UTF-8" standalone="no"?>
<!-- Created with Inkscape (http://www.inkscape.org/) -->

<svg
   xmlns:dc="http://purl.org/dc/elements/1.1/"
   xmlns:cc="http://creativecommons.org/ns#"
   xmlns:rdf="http://www.w3.org/1999/02/22-rdf-syntax-ns#"
   xmlns:svg="http://www.w3.org/2000/svg"
   xmlns="http://www.w3.org/2000/svg"
   xmlns:sodipodi="http://sodipodi.sourceforge.net/DTD/sodipodi-0.dtd"
   xmlns:inkscape="http://www.inkscape.org/namespaces/inkscape"
   width="20"
   height="20"
   id="svg2"
   version="1.1"
   inkscape:version="0.48.5 r10040"
   sodipodi:docname="comm_center_operational.svg">
  <defs
     id="defs4" />
  <sodipodi:namedview
     id="base"
     pagecolor="#ffffff"
     bordercolor="#666666"
     borderopacity="1.0"
     inkscape:pageopacity="0.0"
     inkscape:pageshadow="2"
     inkscape:zoom="11.2"
     inkscape:cx="-1.5415753"
     inkscape:cy="9.3698836"
     inkscape:document-units="px"
     inkscape:current-layer="layer1"
     showgrid="false"
     fit-margin-top="0"
     fit-margin-left="0"
     fit-margin-right="0"
     fit-margin-bottom="0"
     inkscape:window-width="1920"
     inkscape:window-height="1018"
     inkscape:window-x="-8"
     inkscape:window-y="-8"
     inkscape:window-maximized="1" />
  <metadata
     id="metadata7">
    <rdf:RDF>
      <cc:Work
         rdf:about="">
        <dc:format>image/svg+xml</dc:format>
        <dc:type
           rdf:resource="http://purl.org/dc/dcmitype/StillImage" />
        <dc:title />
      </cc:Work>
    </rdf:RDF>
  </metadata>
  <g
     inkscape:label="Layer 1"
     inkscape:groupmode="layer"
     id="layer1"
     transform="translate(-438.02958,-399.32648)">
    <g
       id="g3102"
       transform="translate(441.46094,402.5854)"
       style="stroke:#ffffff;stroke-opacity:0.49019607999999998;stroke-width:0.3;stroke-miterlimit:4;stroke-dasharray:none" />
    <g
       id="g3104"
       transform="translate(441.46094,402.5854)"
       style="stroke:#ffffff;stroke-opacity:0.49019607999999998;stroke-width:0.3;stroke-miterlimit:4;stroke-dasharray:none" />
    <g
       id="g3106"
       transform="translate(441.46094,402.5854)"
       style="stroke:#ffffff;stroke-opacity:0.49019607999999998;stroke-width:0.3;stroke-miterlimit:4;stroke-dasharray:none" />
    <g
       id="g3108"
       transform="translate(441.46094,402.5854)"
       style="stroke:#ffffff;stroke-opacity:0.49019607999999998;stroke-width:0.3;stroke-miterlimit:4;stroke-dasharray:none" />
    <g
       id="g3110"
       transform="translate(441.46094,402.5854)"
       style="stroke:#ffffff;stroke-opacity:0.49019607999999998;stroke-width:0.3;stroke-miterlimit:4;stroke-dasharray:none" />
    <g
       id="g3112"
       transform="translate(441.46094,402.5854)"
       style="stroke:#ffffff;stroke-opacity:0.49019607999999998;stroke-width:0.3;stroke-miterlimit:4;stroke-dasharray:none" />
    <g
       id="g3114"
       transform="translate(441.46094,402.5854)"
       style="stroke:#ffffff;stroke-opacity:0.49019607999999998;stroke-width:0.3;stroke-miterlimit:4;stroke-dasharray:none" />
    <g
       id="g3116"
       transform="translate(441.46094,402.5854)"
       style="stroke:#ffffff;stroke-opacity:0.49019607999999998;stroke-width:0.3;stroke-miterlimit:4;stroke-dasharray:none" />
    <g
       id="g3118"
       transform="translate(441.46094,402.5854)"
       style="stroke:#ffffff;stroke-opacity:0.49019607999999998;stroke-width:0.3;stroke-miterlimit:4;stroke-dasharray:none" />
    <g
       id="g3120"
       transform="translate(441.46094,402.5854)"
       style="stroke:#ffffff;stroke-opacity:0.49019607999999998;stroke-width:0.3;stroke-miterlimit:4;stroke-dasharray:none" />
    <g
       id="g3122"
       transform="translate(441.46094,402.5854)"
       style="stroke:#ffffff;stroke-opacity:0.49019607999999998;stroke-width:0.3;stroke-miterlimit:4;stroke-dasharray:none" />
    <g
       id="g3124"
       transform="translate(441.46094,402.5854)"
       style="stroke:#ffffff;stroke-opacity:0.49019607999999998;stroke-width:0.3;stroke-miterlimit:4;stroke-dasharray:none" />
    <g
       id="g3126"
       transform="translate(441.46094,402.5854)"
       style="stroke:#ffffff;stroke-opacity:0.49019607999999998;stroke-width:0.3;stroke-miterlimit:4;stroke-dasharray:none" />
    <g
       id="g3128"
       transform="translate(441.46094,402.5854)"
       style="stroke:#ffffff;stroke-opacity:0.49019607999999998;stroke-width:0.3;stroke-miterlimit:4;stroke-dasharray:none" />
    <g
       id="g3130"
       transform="translate(441.46094,402.5854)"
       style="stroke:#ffffff;stroke-opacity:0.49019607999999998;stroke-width:0.3;stroke-miterlimit:4;stroke-dasharray:none" />
    <path
       style="fill:#ab38ab;fill-opacity:1;stroke:#ffffff;stroke-width:0.30000001;stroke-linecap:square;stroke-linejoin:round;stroke-miterlimit:4;stroke-opacity:0.49019608;stroke-dasharray:none"
       d="m 441.63985,415.73975 c -0.0107,-0.66895 -0.0198,-2.14952 -0.0198,-3.29017 l 0,-2.07388 -0.32153,-0.004 c -0.17686,-0.003 -0.63434,-0.0121 -1.01667,-0.0224 l -0.69511,-0.0184 4.29675,-4.317 4.29674,-4.31698 7.61145,7.61101 1.03787,1.03787 -0.43365,8e-5 c -0.23851,4e-5 -0.70622,0.009 -1.03934,0.0197 l -0.60569,0.0196 0,2.06914 c 0,1.13804 -0.009,2.61648 -0.0198,3.28543 l -0.0198,1.21628 -2.66732,0 -2.66733,0 c -2.36838,-0.0322 0.0823,-0.043 -2.35214,0 l -2.68228,0 -2.68228,0 -0.0198,-1.21629 z"
       id="path5566"
       inkscape:connector-curvature="0"
       sodipodi:nodetypes="cscccccccccccsccccccccc" />
    <g
       id="g5487"
       transform="matrix(0.69328282,0,0,0.69328282,443.00737,406.92445)"
       style="fill:#ffffff">
      <path
         id="path5449"
         d="m 4.157,1.103 c 0,0.607 -0.494,1.099 -1.102,1.099 -0.608,0 -1.102,-0.492 -1.102,-1.099 0,-0.607 0.493,-1.1 1.102,-1.1 0.608,0 1.102,0.492 1.102,1.1 z m -0.986,7.533 0.238,4.06 c 0,0.141 0.115,0.258 0.257,0.258 0.143,0 0.259,-0.117 0.259,-0.258 l 0.22,-4.06 H 4.863 L 4.121,4.085 5.615,7.061 C 5.67,7.192 5.821,7.254 5.953,7.199 6.084,7.143 6.146,6.993 6.091,6.86 6.091,6.86 4.996,3.899 4.725,3.347 4.454,2.795 4.188,2.459 3.16,2.459 H 2.95 C 1.925,2.459 1.656,2.794 1.387,3.347 1.117,3.899 0.021,6.86 0.021,6.86 -0.036,6.993 0.026,7.143 0.156,7.199 0.288,7.255 0.439,7.192 0.496,7.061 L 1.99,4.085 1.247,8.636 h 0.717 l 0.223,4.06 c 0,0.141 0.116,0.258 0.257,0.258 0.146,0 0.261,-0.117 0.261,-0.258 L 2.927,8.636 H 3.171 z M 11.944,0 c -0.608,0 -1.103,0.492 -1.103,1.1 0,0.608 0.494,1.1 1.103,1.1 0.606,0 1.099,-0.492 1.099,-1.1 0,-0.608 -0.492,-1.1 -1.099,-1.1 z m 1.141,6.475 0.073,-2.393 1.344,2.977 c 0.056,0.13 0.208,0.193 0.339,0.137 0.133,-0.057 0.194,-0.207 0.139,-0.34 0,0 -0.946,-2.961 -1.217,-3.512 C 13.492,2.792 13.075,2.457 12.049,2.457 h -0.211 c -1.026,0 -1.444,0.335 -1.715,0.887 C 9.854,3.895 8.908,6.856 8.908,6.856 8.852,6.989 8.913,7.139 9.045,7.196 9.177,7.253 9.329,7.189 9.382,7.059 l 1.346,-2.977 0.073,2.393 -0.212,6.016 c -0.015,0.238 0.164,0.445 0.4,0.461 0.012,0.002 0.022,0.002 0.031,0.002 0.226,0 0.416,-0.174 0.434,-0.402 l 0.487,-4.954 0.493,4.954 c 0.014,0.229 0.205,0.402 0.429,0.402 0.011,0 0.021,0 0.031,-0.002 0.239,-0.016 0.416,-0.223 0.401,-0.461 L 13.082,6.475 h 0.003 z M 7.499,6.688 c -0.374,0 -0.677,0.301 -0.677,0.674 0,0.373 0.303,0.674 0.677,0.674 0.373,0 0.676,-0.301 0.676,-0.674 0,-0.373 -0.303,-0.674 -0.676,-0.674 z m 0,3.975 c 0,0 0.304,2.111 0.304,2.113 0.042,0.104 0.139,0.178 0.257,0.178 0.121,0 0.223,-0.081 0.26,-0.191 0.002,-0.006 0.009,-0.131 0.002,-0.151 L 8.197,10.017 8.237,9.126 C 8.272,8.823 8.279,8.914 8.623,8.708 8.976,8.497 9.573,7.569 9.602,7.524 9.631,7.477 9.685,7.396 9.696,7.344 9.713,7.25 9.652,7.162 9.56,7.143 9.49,7.131 9.43,7.168 9.385,7.217 9.339,7.267 8.65,8.184 8.134,8.272 8.018,8.255 7.893,8.194 7.564,8.194 H 7.434 C 7.107,8.194 6.982,8.256 6.865,8.272 6.348,8.184 5.659,7.267 5.611,7.217 5.567,7.168 5.51,7.131 5.438,7.143 5.346,7.162 5.284,7.25 5.303,7.344 c 0.01,0.052 0.064,0.133 0.094,0.18 0.03,0.045 0.629,0.973 0.979,1.184 0.345,0.206 0.353,0.115 0.386,0.418 l 0.039,0.891 -0.124,2.595 c -0.007,0.021 0,0.146 0.005,0.151 0.036,0.11 0.136,0.191 0.258,0.191 0.116,0 0.216,-0.074 0.255,-0.178 -0.001,-0.002 0.304,-2.113 0.304,-2.113"
         style="fill:#ffffff"
         inkscape:connector-curvature="0" />
      <g
         id="g5451"
         style="fill:#ffffff" />
      <g
         id="g5453"
         style="fill:#ffffff" />
      <g
         id="g5455"
         style="fill:#ffffff" />
      <g
         id="g5457"
         style="fill:#ffffff" />
      <g
         id="g5459"
         style="fill:#ffffff" />
      <g
         id="g5461"
         style="fill:#ffffff" />
      <g
         id="g5463"
         style="fill:#ffffff" />
      <g
         id="g5465"
         style="fill:#ffffff" />
      <g
         id="g5467"
         style="fill:#ffffff" />
      <g
         id="g5469"
         style="fill:#ffffff" />
      <g
         id="g5471"
         style="fill:#ffffff" />
      <g
         id="g5473"
         style="fill:#ffffff" />
      <g
         id="g5475"
         style="fill:#ffffff" />
      <g
         id="g5477"
         style="fill:#ffffff" />
      <g
         id="g5479"
         style="fill:#ffffff" />
    </g>
  </g>
</svg>
