<?xml version="1.0" encoding="UTF-8" standalone="no"?>
<!-- Created with Inkscape (http://www.inkscape.org/) -->

<svg
   xmlns:dc="http://purl.org/dc/elements/1.1/"
   xmlns:cc="http://creativecommons.org/ns#"
   xmlns:rdf="http://www.w3.org/1999/02/22-rdf-syntax-ns#"
   xmlns:svg="http://www.w3.org/2000/svg"
   xmlns="http://www.w3.org/2000/svg"
   xmlns:sodipodi="http://sodipodi.sourceforge.net/DTD/sodipodi-0.dtd"
   xmlns:inkscape="http://www.inkscape.org/namespaces/inkscape"
   width="20"
   height="20"
   id="svg2"
   version="1.1"
   inkscape:version="0.48.5 r10040"
   sodipodi:docname="cooking_operational.svg">
  <defs
     id="defs4" />
  <sodipodi:namedview
     id="base"
     pagecolor="#ffffff"
     bordercolor="#666666"
     borderopacity="1.0"
     inkscape:pageopacity="0.0"
     inkscape:pageshadow="2"
     inkscape:zoom="11.2"
     inkscape:cx="-1.5415753"
     inkscape:cy="9.3698836"
     inkscape:document-units="px"
     inkscape:current-layer="layer1"
     showgrid="false"
     fit-margin-top="0"
     fit-margin-left="0"
     fit-margin-right="0"
     fit-margin-bottom="0"
     inkscape:window-width="1920"
     inkscape:window-height="1018"
     inkscape:window-x="-8"
     inkscape:window-y="-8"
     inkscape:window-maximized="1" />
  <metadata
     id="metadata7">
    <rdf:RDF>
      <cc:Work
         rdf:about="">
        <dc:format>image/svg+xml</dc:format>
        <dc:type
           rdf:resource="http://purl.org/dc/dcmitype/StillImage" />
        <dc:title />
      </cc:Work>
    </rdf:RDF>
  </metadata>
  <g
     inkscape:label="Layer 1"
     inkscape:groupmode="layer"
     id="layer1"
     transform="translate(-438.02958,-399.32648)">
    <g
       id="g3102"
       transform="translate(441.46094,402.5854)"
       style="stroke:#ffffff;stroke-opacity:0.49019607999999998;stroke-width:0.3;stroke-miterlimit:4;stroke-dasharray:none" />
    <g
       id="g3104"
       transform="translate(441.46094,402.5854)"
       style="stroke:#ffffff;stroke-opacity:0.49019607999999998;stroke-width:0.3;stroke-miterlimit:4;stroke-dasharray:none" />
    <g
       id="g3106"
       transform="translate(441.46094,402.5854)"
       style="stroke:#ffffff;stroke-opacity:0.49019607999999998;stroke-width:0.3;stroke-miterlimit:4;stroke-dasharray:none" />
    <g
       id="g3108"
       transform="translate(441.46094,402.5854)"
       style="stroke:#ffffff;stroke-opacity:0.49019607999999998;stroke-width:0.3;stroke-miterlimit:4;stroke-dasharray:none" />
    <g
       id="g3110"
       transform="translate(441.46094,402.5854)"
       style="stroke:#ffffff;stroke-opacity:0.49019607999999998;stroke-width:0.3;stroke-miterlimit:4;stroke-dasharray:none" />
    <g
       id="g3112"
       transform="translate(441.46094,402.5854)"
       style="stroke:#ffffff;stroke-opacity:0.49019607999999998;stroke-width:0.3;stroke-miterlimit:4;stroke-dasharray:none" />
    <g
       id="g3114"
       transform="translate(441.46094,402.5854)"
       style="stroke:#ffffff;stroke-opacity:0.49019607999999998;stroke-width:0.3;stroke-miterlimit:4;stroke-dasharray:none" />
    <g
       id="g3116"
       transform="translate(441.46094,402.5854)"
       style="stroke:#ffffff;stroke-opacity:0.49019607999999998;stroke-width:0.3;stroke-miterlimit:4;stroke-dasharray:none" />
    <g
       id="g3118"
       transform="translate(441.46094,402.5854)"
       style="stroke:#ffffff;stroke-opacity:0.49019607999999998;stroke-width:0.3;stroke-miterlimit:4;stroke-dasharray:none" />
    <g
       id="g3120"
       transform="translate(441.46094,402.5854)"
       style="stroke:#ffffff;stroke-opacity:0.49019607999999998;stroke-width:0.3;stroke-miterlimit:4;stroke-dasharray:none" />
    <g
       id="g3122"
       transform="translate(441.46094,402.5854)"
       style="stroke:#ffffff;stroke-opacity:0.49019607999999998;stroke-width:0.3;stroke-miterlimit:4;stroke-dasharray:none" />
    <g
       id="g3124"
       transform="translate(441.46094,402.5854)"
       style="stroke:#ffffff;stroke-opacity:0.49019607999999998;stroke-width:0.3;stroke-miterlimit:4;stroke-dasharray:none" />
    <g
       id="g3126"
       transform="translate(441.46094,402.5854)"
       style="stroke:#ffffff;stroke-opacity:0.49019607999999998;stroke-width:0.3;stroke-miterlimit:4;stroke-dasharray:none" />
    <g
       id="g3128"
       transform="translate(441.46094,402.5854)"
       style="stroke:#ffffff;stroke-opacity:0.49019607999999998;stroke-width:0.3;stroke-miterlimit:4;stroke-dasharray:none" />
    <g
       id="g3130"
       transform="translate(441.46094,402.5854)"
       style="stroke:#ffffff;stroke-opacity:0.49019607999999998;stroke-width:0.3;stroke-miterlimit:4;stroke-dasharray:none" />
    <path
       style="fill:#ab38ab;fill-opacity:1;stroke:#ffffff;stroke-width:0.30000001;stroke-linecap:square;stroke-linejoin:round;stroke-miterlimit:4;stroke-opacity:0.49019608;stroke-dasharray:none"
       d="m 446.48766,407.18745 c -0.37716,-0.18925 -0.57584,-0.37013 -0.71184,-0.6481 -0.16094,-0.32896 -0.12816,-0.56422 0.14421,-1.03512 0.47446,-0.82027 0.57766,-1.11144 0.53622,-1.51295 -0.0138,-0.13358 -0.009,-0.24287 0.01,-0.24287 0.0696,0 0.39223,0.26077 0.54834,0.44314 0.15352,0.17936 0.2587,0.45814 0.2587,0.68571 0,0.18191 -0.16872,0.60929 -0.36026,0.91258 -0.33744,0.53429 -0.39931,0.93544 -0.20385,1.32154 0.058,0.11465 0.0914,0.20845 0.0741,0.20845 -0.0173,0 -0.15016,-0.0596 -0.29527,-0.13238 z"
       id="path5625"
       inkscape:connector-curvature="0" />
    <path
       style="fill:#ab38ab;fill-opacity:1;stroke:#ffffff;stroke-width:0.30000001;stroke-linecap:square;stroke-linejoin:round;stroke-miterlimit:4;stroke-opacity:0.49019608;stroke-dasharray:none"
       d="m 448.70737,405.41135 c 0.0266,-0.0675 0.0477,-0.25335 0.0469,-0.41294 -0.001,-0.3123 -0.10141,-0.64455 -0.38272,-1.27233 -0.34638,-0.77297 -0.12864,-1.26191 0.71677,-1.60952 0.35925,-0.14771 0.39367,-0.14011 0.26329,0.0582 -0.13658,0.20772 -0.20903,0.52054 -0.17397,0.75117 0.0146,0.0963 0.11702,0.3849 0.22749,0.64125 0.26106,0.60576 0.29381,0.91279 0.13451,1.26075 -0.11644,0.25434 -0.31729,0.44411 -0.64664,0.61097 -0.23845,0.12081 -0.2437,0.12003 -0.18566,-0.0275 z"
       id="path5627"
       inkscape:connector-curvature="0" />
    <path
       style="fill:#ab38ab;fill-opacity:1;stroke:#ffffff;stroke-width:0.30000001;stroke-linecap:square;stroke-linejoin:round;stroke-miterlimit:4;stroke-opacity:0.49019608;stroke-dasharray:none"
       d="m 450.44295,407.09344 c -0.28775,-0.28332 -0.49024,-0.63889 -0.491,-0.86218 -0.001,-0.31506 0.10057,-0.48517 0.60802,-1.01761 0.53117,-0.55733 0.7139,-0.84871 0.76758,-1.224 l 0.0306,-0.21407 0.16699,0.19509 c 0.37954,0.4434 0.46637,0.88775 0.25754,1.31791 -0.0613,0.12628 -0.27403,0.39296 -0.48986,0.61409 -0.53075,0.54378 -0.66729,0.87623 -0.54087,1.31701 0.0228,0.0796 0.0246,0.1448 0.004,0.1448 -0.0207,0 -0.16151,-0.12197 -0.31292,-0.27104 l 0,0 z"
       id="path5629"
       inkscape:connector-curvature="0" />
    <path
       style="fill:#ab38ab;fill-opacity:1;stroke:#ffffff;stroke-width:0.30000001;stroke-linecap:square;stroke-linejoin:round;stroke-miterlimit:4;stroke-opacity:0.49019608;stroke-dasharray:none"
       d="m 447.25062,415.73069 c -2.08058,-0.20157 -3.68556,-0.69069 -4.87008,-1.48416 -0.40758,-0.27302 -0.90914,-0.74441 -1.11559,-1.04848 -0.99171,-1.46063 -0.22983,-3.07961 1.94063,-4.12385 1.53742,-0.73968 3.39662,-1.0852 5.51826,-1.02554 2.56358,0.0721 4.80062,0.79515 6.07621,1.964 1.82177,1.66932 0.98654,3.7501 -1.99139,4.96111 -0.66034,0.26853 -1.76957,0.54515 -2.7009,0.67354 -0.50668,0.0699 -2.42037,0.1257 -2.85714,0.0834 l 0,0 z m 2.89324,-1.08976 c 1.80723,-0.26934 3.14779,-0.82315 3.93712,-1.62649 1.48136,-1.50766 0.24137,-3.29456 -2.81667,-4.05899 -1.04628,-0.26154 -2.06142,-0.36264 -3.27708,-0.32637 -3.08142,0.0919 -5.48947,1.1658 -5.91638,2.63842 -0.39735,1.37066 1.19819,2.73031 3.81816,3.25366 0.30692,0.0613 0.76898,0.13383 1.02679,0.16117 0.25781,0.0273 0.53906,0.0577 0.625,0.0675 0.40329,0.0459 2.01761,-0.0216 2.60306,-0.10888 z"
       id="path5631"
       inkscape:connector-curvature="0" />
    <path
       style="fill:#ab38ab;fill-opacity:1;stroke:#ffffff;stroke-width:0.30000001;stroke-linecap:square;stroke-linejoin:round;stroke-miterlimit:4;stroke-opacity:0.49019608;stroke-dasharray:none"
       d="m 447.71937,414.32208 c -2.29632,-0.11311 -4.25452,-0.96787 -4.7657,-2.08025 -0.38915,-0.84682 0.15441,-1.75332 1.43283,-2.38957 1.08486,-0.53991 2.37199,-0.80408 3.93555,-0.80775 1.25678,-0.003 2.1495,0.12782 3.15273,0.46178 2.81466,0.93697 3.22231,2.8373 0.86091,4.01328 -1.24072,0.61789 -2.81353,0.89131 -4.61632,0.80251 z m 1.6976,-0.48675 c 2.43282,-0.30227 3.91425,-1.45352 3.37124,-2.61985 -0.42818,-0.91969 -1.93336,-1.58971 -3.82394,-1.70219 -1.78109,-0.10597 -3.39358,0.24527 -4.39886,0.95816 -0.64801,0.45953 -0.90009,1.11609 -0.64764,1.6868 0.34577,0.78168 1.61517,1.43802 3.19892,1.65402 0.54575,0.0744 1.78673,0.0869 2.30028,0.0231 z"
       id="path5633"
       inkscape:connector-curvature="0" />
    <path
       style="fill:#ab38ab;fill-opacity:1;stroke:#ffffff;stroke-width:0.30000001;stroke-linecap:square;stroke-linejoin:round;stroke-miterlimit:4;stroke-opacity:0.49019608;stroke-dasharray:none"
       d="m 447.63231,413.43521 c -1.12395,-0.11763 -2.03262,-0.44554 -2.54234,-0.91746 -0.14652,-0.13564 -0.30792,-0.33241 -0.35867,-0.43726 -0.55341,-1.14319 1.41773,-2.24525 3.85861,-2.15733 0.70024,0.0252 0.97836,0.0633 1.54894,0.212 0.71588,0.18658 1.27053,0.47256 1.59117,0.82042 0.33147,0.3596 0.40748,0.6127 0.29755,0.99084 -0.188,0.6467 -1.24427,1.2433 -2.55042,1.44054 -0.45906,0.0693 -1.4067,0.0941 -1.84484,0.0482 l 0,0 z m 1.91463,-0.62093 c 1.26355,-0.31972 1.77387,-1.07529 1.13876,-1.68603 -0.97837,-0.94083 -3.78957,-0.92188 -4.6814,0.0316 -0.64001,0.68422 0.007,1.44576 1.46246,1.72154 0.48052,0.091 1.59768,0.055 2.08018,-0.0671 z"
       id="path5635"
       inkscape:connector-curvature="0" />
    <path
       style="fill:#ab38ab;fill-opacity:1;stroke:#ffffff;stroke-width:0.30000001;stroke-linecap:square;stroke-linejoin:round;stroke-miterlimit:4;stroke-opacity:0.49019608;stroke-dasharray:none"
       d="m 447.87562,412.51191 c -0.40928,-0.0543 -0.9493,-0.27845 -1.12426,-0.46667 -0.17133,-0.18433 -0.20563,-0.33939 -0.11559,-0.5225 0.1855,-0.37726 0.75848,-0.62573 1.53208,-0.66438 1.06696,-0.0533 1.96224,0.3323 1.96224,0.84516 0,0.52793 -1.17971,0.95094 -2.25447,0.80839 z"
       id="path5637"
       inkscape:connector-curvature="0" />
  </g>
</svg>
