<svg version="1.1" id="svg2" inkscape:version="0.48.5 r10040" sodipodi:docname="clinic_operational.svg" xmlns:cc="http://creativecommons.org/ns#" xmlns:dc="http://purl.org/dc/elements/1.1/" xmlns:inkscape="http://www.inkscape.org/namespaces/inkscape" xmlns:rdf="http://www.w3.org/1999/02/22-rdf-syntax-ns#" xmlns:sodipodi="http://sodipodi.sourceforge.net/DTD/sodipodi-0.dtd" xmlns:svg="http://www.w3.org/2000/svg" xmlns="http://www.w3.org/2000/svg" xlink="http://www.w3.org/1999/xlink" x="0px" y="0px" viewBox="0 0 20 20" style="enable-background:new 0 0 20 20;" space="preserve" width="20" height="20">
<style type="text/css">
	.st0{fill:#AA0000;stroke:#FFFFFF;stroke-width:0.3;stroke-opacity:0.4902;}
</style>
<sodipodi:namedview bordercolor="#666666" borderopacity="1.0" fit-margin-bottom="0" fit-margin-left="0" fit-margin-right="0" fit-margin-top="0" id="base" inkscape:current-layer="layer1" inkscape:cx="-1.5415753" inkscape:cy="9.8392633" inkscape:document-units="px" inkscape:pageopacity="0.0" inkscape:pageshadow="2" inkscape:window-height="1018" inkscape:window-maximized="1" inkscape:window-width="1920" inkscape:window-x="-8" inkscape:window-y="-8" inkscape:zoom="31.678384" pagecolor="#ffffff" showgrid="false">
	</sodipodi:namedview>
<g id="layer1" transform="translate(-438.02958,-399.32648)" inkscape:groupmode="layer" inkscape:label="Layer 1">
	<g id="g3102" transform="translate(441.46094,402.5854)">
	</g>
	<g id="g3104" transform="translate(441.46094,402.5854)">
	</g>
	<g id="g3106" transform="translate(441.46094,402.5854)">
	</g>
	<g id="g3108" transform="translate(441.46094,402.5854)">
	</g>
	<g id="g3110" transform="translate(441.46094,402.5854)">
	</g>
	<g id="g3112" transform="translate(441.46094,402.5854)">
	</g>
	<g id="g3114" transform="translate(441.46094,402.5854)">
	</g>
	<g id="g3116" transform="translate(441.46094,402.5854)">
	</g>
	<g id="g3118" transform="translate(441.46094,402.5854)">
	</g>
	<g id="g3120" transform="translate(441.46094,402.5854)">
	</g>
	<g id="g3122" transform="translate(441.46094,402.5854)">
	</g>
	<g id="g3124" transform="translate(441.46094,402.5854)">
	</g>
	<g id="g3126" transform="translate(441.46094,402.5854)">
	</g>
	<g id="g3128" transform="translate(441.46094,402.5854)">
	</g>
	<g id="g3130" transform="translate(441.46094,402.5854)">
	</g>
	<g id="g4440" transform="translate(440.59955,401.37771)">
		<path id="path4402" inkscape:connector-curvature="0" class="st0" d="M14.4,5L7.5,1.6L0.6,5L0,3.7L7.5,0l0,0l0,0l0,0l0,0L15,3.7
			L14.4,5z"/>
		<g id="g4404">
		</g>
		<g id="g4406">
		</g>
		<g id="g4408">
		</g>
		<g id="g4410">
		</g>
		<g id="g4412">
		</g>
		<g id="g4414">
		</g>
		<g id="g4416">
		</g>
		<g id="g4418">
		</g>
		<g id="g4420">
		</g>
		<g id="g4422">
		</g>
		<g id="g4424">
		</g>
		<g id="g4426">
		</g>
		<g id="g4428">
		</g>
		<g id="g4430">
		</g>
		<g id="g4432">
		</g>
	</g>
</g>
<path class="st0" d="M9,16.1c0-0.3,0.3-0.6,0.6-0.6l0,0c0.3,0,0.6,0.3,0.6,0.6l0,0c0,0.5,0.4,0.8,0.8,0.8l0,0c0.5,0,0.8-0.4,0.8-0.8
	l0,0c0-0.5-0.4-0.8-0.8-0.8l0,0c-1.4,0-2.6-1-2.8-2.3l0,0C6,12.7,4.4,10.8,4.4,8.6l0,0l0,0c0-0.3,0.3-0.6,0.6-0.6l0,0
	c0.3,0,0.6,0.3,0.6,0.6l0,0c0,1.6,1.1,2.8,2.6,3.1l0,0c0.3-1.3,1.4-2.3,2.8-2.3l0,0c1.4,0,2.6,1,2.8,2.3l0,0h0.4
	c0.8,0,1.5,0.7,1.5,1.5l0,0c0,0.8-0.7,1.5-1.5,1.5l0,0c-0.8,0-1.5-0.7-1.5-1.5l0,0V13H9.4c0.2,0.7,0.9,1.1,1.6,1.1l0,0
	c1.1,0,2,0.9,2,2l0,0c0,1.1-0.9,2-2,2l0,0C9.9,18.1,9,17.2,9,16.1L9,16.1z M13.9,13.3c0,0.2,0.1,0.3,0.3,0.3l0,0
	c0.2,0,0.3-0.1,0.3-0.3l0,0c0-0.2-0.1-0.3-0.3-0.3l0,0h-0.3V13.3L13.9,13.3z M12.6,11.8c-0.2-0.7-0.9-1.1-1.6-1.1l0,0
	c-0.7,0-1.4,0.5-1.6,1.1l0,0H12.6L12.6,11.8z"/>
</svg>
