<?xml version="1.0" encoding="UTF-8" standalone="no"?>
<!-- Created with Inkscape (http://www.inkscape.org/) -->

<svg
   xmlns:dc="http://purl.org/dc/elements/1.1/"
   xmlns:cc="http://creativecommons.org/ns#"
   xmlns:rdf="http://www.w3.org/1999/02/22-rdf-syntax-ns#"
   xmlns:svg="http://www.w3.org/2000/svg"
   xmlns="http://www.w3.org/2000/svg"
   xmlns:sodipodi="http://sodipodi.sourceforge.net/DTD/sodipodi-0.dtd"
   xmlns:inkscape="http://www.inkscape.org/namespaces/inkscape"
   width="20"
   height="20"
   id="svg2"
   version="1.1"
   inkscape:version="0.48.5 r10040"
   sodipodi:docname="eating_operational.svg">
  <defs
     id="defs4" />
  <sodipodi:namedview
     id="base"
     pagecolor="#ffffff"
     bordercolor="#666666"
     borderopacity="1.0"
     inkscape:pageopacity="0.0"
     inkscape:pageshadow="2"
     inkscape:zoom="11.2"
     inkscape:cx="-1.5415753"
     inkscape:cy="5.798455"
     inkscape:document-units="px"
     inkscape:current-layer="layer1"
     showgrid="false"
     fit-margin-top="0"
     fit-margin-left="0"
     fit-margin-right="0"
     fit-margin-bottom="0"
     inkscape:window-width="1920"
     inkscape:window-height="1018"
     inkscape:window-x="-8"
     inkscape:window-y="-8"
     inkscape:window-maximized="1" />
  <metadata
     id="metadata7">
    <rdf:RDF>
      <cc:Work
         rdf:about="">
        <dc:format>image/svg+xml</dc:format>
        <dc:type
           rdf:resource="http://purl.org/dc/dcmitype/StillImage" />
        <dc:title />
      </cc:Work>
    </rdf:RDF>
  </metadata>
  <g
     inkscape:label="Layer 1"
     inkscape:groupmode="layer"
     id="layer1"
     transform="translate(-438.02958,-399.32648)">
    <g
       id="g3102"
       transform="translate(441.46094,402.5854)"
       style="stroke:#ffffff;stroke-opacity:0.49019607999999998;stroke-width:0.3;stroke-miterlimit:4;stroke-dasharray:none" />
    <g
       id="g3104"
       transform="translate(441.46094,402.5854)"
       style="stroke:#ffffff;stroke-opacity:0.49019607999999998;stroke-width:0.3;stroke-miterlimit:4;stroke-dasharray:none" />
    <g
       id="g3106"
       transform="translate(441.46094,402.5854)"
       style="stroke:#ffffff;stroke-opacity:0.49019607999999998;stroke-width:0.3;stroke-miterlimit:4;stroke-dasharray:none" />
    <g
       id="g3108"
       transform="translate(441.46094,402.5854)"
       style="stroke:#ffffff;stroke-opacity:0.49019607999999998;stroke-width:0.3;stroke-miterlimit:4;stroke-dasharray:none" />
    <g
       id="g3110"
       transform="translate(441.46094,402.5854)"
       style="stroke:#ffffff;stroke-opacity:0.49019607999999998;stroke-width:0.3;stroke-miterlimit:4;stroke-dasharray:none" />
    <g
       id="g3112"
       transform="translate(441.46094,402.5854)"
       style="stroke:#ffffff;stroke-opacity:0.49019607999999998;stroke-width:0.3;stroke-miterlimit:4;stroke-dasharray:none" />
    <g
       id="g3114"
       transform="translate(441.46094,402.5854)"
       style="stroke:#ffffff;stroke-opacity:0.49019607999999998;stroke-width:0.3;stroke-miterlimit:4;stroke-dasharray:none" />
    <g
       id="g3116"
       transform="translate(441.46094,402.5854)"
       style="stroke:#ffffff;stroke-opacity:0.49019607999999998;stroke-width:0.3;stroke-miterlimit:4;stroke-dasharray:none" />
    <g
       id="g3118"
       transform="translate(441.46094,402.5854)"
       style="stroke:#ffffff;stroke-opacity:0.49019607999999998;stroke-width:0.3;stroke-miterlimit:4;stroke-dasharray:none" />
    <g
       id="g3120"
       transform="translate(441.46094,402.5854)"
       style="stroke:#ffffff;stroke-opacity:0.49019607999999998;stroke-width:0.3;stroke-miterlimit:4;stroke-dasharray:none" />
    <g
       id="g3122"
       transform="translate(441.46094,402.5854)"
       style="stroke:#ffffff;stroke-opacity:0.49019607999999998;stroke-width:0.3;stroke-miterlimit:4;stroke-dasharray:none" />
    <g
       id="g3124"
       transform="translate(441.46094,402.5854)"
       style="stroke:#ffffff;stroke-opacity:0.49019607999999998;stroke-width:0.3;stroke-miterlimit:4;stroke-dasharray:none" />
    <g
       id="g3126"
       transform="translate(441.46094,402.5854)"
       style="stroke:#ffffff;stroke-opacity:0.49019607999999998;stroke-width:0.3;stroke-miterlimit:4;stroke-dasharray:none" />
    <g
       id="g3128"
       transform="translate(441.46094,402.5854)"
       style="stroke:#ffffff;stroke-opacity:0.49019607999999998;stroke-width:0.3;stroke-miterlimit:4;stroke-dasharray:none" />
    <g
       id="g3130"
       transform="translate(441.46094,402.5854)"
       style="stroke:#ffffff;stroke-opacity:0.49019607999999998;stroke-width:0.3;stroke-miterlimit:4;stroke-dasharray:none" />
    <g
       id="g3035"
       transform="translate(440.30799,402.02672)">
      <path
         id="path3037"
         d="M 6.0944881,15.696852 C 5.5984251,15.236222 5.4921259,13.748033 5.8110235,11.055119 5.9527558,9.7440952 5.9881889,9.2834653 5.9527558,9.177166 5.9173227,9.0708668 5.6692912,8.8582684 5.4212597,8.6456699 4.8897637,8.2559061 4.7125983,7.9724415 4.6771653,7.3700793 4.6417322,7.0157486 4.7834645,4.1102365 4.8188975,4.0748035 c 0,0 0.1417323,-0.035433 0.3188977,-0.070866 l 0.2834645,-0.035433 0,1.417323 0,1.4173229 0.1417323,0.070866 c 0.1417323,0.070866 0.2125984,0.070866 0.3543307,0 l 0.1771654,-0.070866 0,-1.4173229 c 0,-1.3818899 0,-1.417323 0.1417322,-1.452756 0.070866,0 0.2480315,-0.035433 0.3188977,-0.035433 l 0.1771653,0 0.035433,1.452756 c 0.035433,1.5590552 0.070866,1.5944883 0.3897638,1.5944883 0.070866,0 0.1771653,-0.035433 0.2125984,-0.070866 0.035433,-0.070866 0.070866,-0.6732284 0.1062992,-1.5236222 l 0.035433,-1.3818899 0.2834645,0.035433 c 0.1771654,0 0.2834646,0.035433 0.2834646,0.035433 0.035433,0.035433 0.070866,0.8503937 0.070866,1.8779529 L 8.2204723,7.72441 8.0078739,8.0787408 C 7.9015746,8.2913392 7.6889762,8.5039376 7.3700786,8.7519692 l -0.4251969,0.3188976 0,0.46063 c 0,0.2480315 0.070866,1.2047242 0.1771654,2.1259842 0.1771653,1.559055 0.2125984,1.736221 0.1417323,2.515748 -0.070866,0.425197 -0.1062992,0.92126 -0.1771654,1.062993 -0.070866,0.318897 -0.3188976,0.566929 -0.5669291,0.637795 -0.1771653,0.03543 -0.2480315,0 -0.4251968,-0.177165 l 0,0 z"
         style="fill:#ab38ab;fill-opacity:1;fill-rule:nonzero;stroke:#ffffff;stroke-width:0.21259843px;stroke-linecap:round;stroke-linejoin:round;stroke-opacity:1;stroke-dasharray:none"
         inkscape:connector-curvature="0" />
      <path
         id="path3039"
         d="M 9.7086612,15.767718 C 9.4960628,15.661419 9.3897636,15.44882 9.2480313,15.023623 9.106299,14.421261 9.1417321,12.22441 9.3188974,10.877954 9.5314959,9.4960637 9.602362,7.8307093 9.602362,5.5984256 l 0,-1.7007875 0.2125984,0.035433 c 0.7440946,0.1417323 1.2755906,0.5314961 1.5590556,1.1338583 0.248031,0.6023623 0.35433,1.0984253 0.35433,2.0905514 0,1.0984252 -0.07087,1.3818898 -0.602362,2.0551182 -0.602362,0.7795276 -0.708661,0.992126 -0.708661,1.417323 0,0.177165 0.07087,0.637795 0.177165,1.027559 0.354331,1.346457 0.283465,3.437008 -0.177165,3.968504 -0.1063,0.141733 -0.4960634,0.212599 -0.7086618,0.141733 l 0,0 z"
         style="fill:#ab38ab;fill-opacity:1;fill-rule:nonzero;stroke:#ffffff;stroke-width:0.21259843px;stroke-linecap:round;stroke-linejoin:round;stroke-opacity:1;stroke-dasharray:none"
         inkscape:connector-curvature="0" />
      <path
         id="path3041"
         d="M 8.07874,0.10629922 C 5.2795275,1.0984253 2.4803149,2.0551183 0.07086614,2.870079 L 0.31889763,3.5787404 8.0433069,0.85039376 15.838582,3.6141735 16.086614,2.905512 C 13.464567,1.948819 10.594488,1.1692914 8.07874,0.10629922 z"
         style="fill:#ab38ab;fill-opacity:1;fill-rule:nonzero;stroke:#ffffff;stroke-width:0.14173228px;stroke-linecap:butt;stroke-linejoin:miter;stroke-miterlimit:4;stroke-opacity:1;stroke-dasharray:none"
         inkscape:connector-curvature="0" />
    </g>
  </g>
</svg>
