<svg version="1.1" id="svg2" inkscape:version="0.48.5 r10040" sodipodi:docname="tent_operational.svg" xmlns:cc="http://creativecommons.org/ns#" xmlns:dc="http://purl.org/dc/elements/1.1/" xmlns:inkscape="http://www.inkscape.org/namespaces/inkscape" xmlns:rdf="http://www.w3.org/1999/02/22-rdf-syntax-ns#" xmlns:sodipodi="http://sodipodi.sourceforge.net/DTD/sodipodi-0.dtd" xmlns:svg="http://www.w3.org/2000/svg" xmlns="http://www.w3.org/2000/svg" xlink="http://www.w3.org/1999/xlink" x="0px" y="0px" viewBox="0 0 20 20" style="enable-background:new 0 0 20 20;" space="preserve" width="20" height="20">
<style type="text/css">
	.st0{fill:#FFFFFF;stroke:#000000;stroke-linecap:round;stroke-linejoin:round;stroke-opacity:0.7176;}
	.st1{fill:#2B2B2B;stroke:#FFFFFF;stroke-width:0.25;stroke-linecap:round;stroke-linejoin:round;stroke-opacity:0.7176;}
</style>
<sodipodi:namedview bordercolor="#666666" borderopacity="1.0" fit-margin-bottom="0" fit-margin-left="0" fit-margin-right="0" fit-margin-top="0" id="base" inkscape:current-layer="layer1" inkscape:cx="7.4625024" inkscape:cy="9.3698836" inkscape:document-units="px" inkscape:pageopacity="0.0" inkscape:pageshadow="2" inkscape:window-height="1018" inkscape:window-maximized="1" inkscape:window-width="1920" inkscape:window-x="-8" inkscape:window-y="-8" inkscape:zoom="31.678384" pagecolor="#ffffff" showgrid="false">
	<inkscape:grid id="grid3003" type="xygrid"/>
</sodipodi:namedview>
<g id="layer1" transform="translate(-438.02958,-399.32648)" inkscape:groupmode="layer" inkscape:label="Layer 1">
	<g id="g3102" transform="translate(441.46094,402.5854)">
	</g>
	<g id="g3104" transform="translate(441.46094,402.5854)">
	</g>
	<g id="g3106" transform="translate(441.46094,402.5854)">
	</g>
	<g id="g3108" transform="translate(441.46094,402.5854)">
	</g>
	<g id="g3110" transform="translate(441.46094,402.5854)">
	</g>
	<g id="g3112" transform="translate(441.46094,402.5854)">
	</g>
	<g id="g3114" transform="translate(441.46094,402.5854)">
	</g>
	<g id="g3116" transform="translate(441.46094,402.5854)">
	</g>
	<g id="g3118" transform="translate(441.46094,402.5854)">
	</g>
	<g id="g3120" transform="translate(441.46094,402.5854)">
	</g>
	<g id="g3122" transform="translate(441.46094,402.5854)">
	</g>
	<g id="g3124" transform="translate(441.46094,402.5854)">
	</g>
	<g id="g3126" transform="translate(441.46094,402.5854)">
	</g>
	<g id="g3128" transform="translate(441.46094,402.5854)">
	</g>
	<g id="g3130" transform="translate(441.46094,402.5854)">
	</g>
	<path id="path3002" inkscape:connector-curvature="0" class="st0" d="M440.6,416.1l7.1-14.7l7.7,14.9L440.6,416.1z"/>
</g>
<g>
	<path class="st1" d="M10.3,10.5c0,0.3-0.3,0.6-0.6,0.6S9,10.8,9,10.5c0-0.3,0.3-0.6,0.6-0.6C10,9.8,10.3,10.1,10.3,10.5"/>
	<path class="st1" d="M9.7,11.4c-0.3,0-0.5,0.2-0.5,0.4c-0.3,0.8-0.6,1.5-0.9,2.3c0,0.1,0,0.1,0,0.2c0,0.3,0.3,0.6,0.6,0.6
		c0.6,0,1.2,0,1.8,0c0.3,0,0.6-0.3,0.6-0.6c0-0.1,0-0.1,0-0.2c-0.3-0.8-0.6-1.5-0.9-2.3C10.1,11.5,9.9,11.4,9.7,11.4"/>
	<path class="st1" d="M12.4,9.3c0,0.3-0.3,0.6-0.6,0.6s-0.6-0.3-0.6-0.6c0-0.3,0.3-0.6,0.6-0.6C12.1,8.6,12.4,8.9,12.4,9.3"/>
	<path class="st1" d="M11.5,13.6c-0.3,0-0.5-0.2-0.5-0.4l-0.4-2.3c0-0.1,0-0.1,0-0.2c0-0.3,0.3-0.6,0.6-0.6c0.6,0,0.8,0,1.4,0
		c0.3,0,0.6,0.3,0.6,0.6c0,0.1,0,0.1,0,0.2l-0.4,2.3c-0.1,0.2-0.3,0.4-0.5,0.4"/>
	<path class="st1" d="M8.3,10c0,0.2-0.2,0.4-0.4,0.4S7.4,10.3,7.4,10c0-0.2,0.2-0.4,0.4-0.4S8.3,9.8,8.3,10"/>
	<path class="st1" d="M7.7,13.1c-0.2,0-0.3-0.1-0.4-0.3L7,11.2c0,0,0-0.1,0-0.1c0-0.2,0.2-0.4,0.4-0.4c0.4,0,0.6,0,1,0
		c0.2,0,0.4,0.2,0.4,0.4c0,0.1,0,0.1,0,0.1l-0.3,1.6C8.4,13,8.2,13.1,8,13.1"/>
</g>
</svg>
