<?xml version="1.0" encoding="UTF-8" standalone="no"?>
<!-- Created with Inkscape (http://www.inkscape.org/) -->

<svg
   xmlns:dc="http://purl.org/dc/elements/1.1/"
   xmlns:cc="http://creativecommons.org/ns#"
   xmlns:rdf="http://www.w3.org/1999/02/22-rdf-syntax-ns#"
   xmlns:svg="http://www.w3.org/2000/svg"
   xmlns="http://www.w3.org/2000/svg"
   xmlns:sodipodi="http://sodipodi.sourceforge.net/DTD/sodipodi-0.dtd"
   xmlns:inkscape="http://www.inkscape.org/namespaces/inkscape"
   width="20"
   height="20"
   id="svg2"
   version="1.1"
   inkscape:version="0.48.5 r10040"
   sodipodi:docname="farming_operational.svg">
  <defs
     id="defs4" />
  <sodipodi:namedview
     id="base"
     pagecolor="#ffffff"
     bordercolor="#666666"
     borderopacity="1.0"
     inkscape:pageopacity="0.0"
     inkscape:pageshadow="2"
     inkscape:zoom="11.2"
     inkscape:cx="-1.5415753"
     inkscape:cy="9.3698836"
     inkscape:document-units="px"
     inkscape:current-layer="layer1"
     showgrid="false"
     fit-margin-top="0"
     fit-margin-left="0"
     fit-margin-right="0"
     fit-margin-bottom="0"
     inkscape:window-width="1920"
     inkscape:window-height="1018"
     inkscape:window-x="-8"
     inkscape:window-y="-8"
     inkscape:window-maximized="1" />
  <metadata
     id="metadata7">
    <rdf:RDF>
      <cc:Work
         rdf:about="">
        <dc:format>image/svg+xml</dc:format>
        <dc:type
           rdf:resource="http://purl.org/dc/dcmitype/StillImage" />
        <dc:title />
      </cc:Work>
    </rdf:RDF>
  </metadata>
  <g
     inkscape:label="Layer 1"
     inkscape:groupmode="layer"
     id="layer1"
     transform="translate(-438.02958,-399.32648)">
    <g
       id="g3102"
       transform="translate(441.46094,402.5854)"
       style="stroke:#ffffff;stroke-opacity:0.49019607999999998;stroke-width:0.3;stroke-miterlimit:4;stroke-dasharray:none" />
    <g
       id="g3104"
       transform="translate(441.46094,402.5854)"
       style="stroke:#ffffff;stroke-opacity:0.49019607999999998;stroke-width:0.3;stroke-miterlimit:4;stroke-dasharray:none" />
    <g
       id="g3106"
       transform="translate(441.46094,402.5854)"
       style="stroke:#ffffff;stroke-opacity:0.49019607999999998;stroke-width:0.3;stroke-miterlimit:4;stroke-dasharray:none" />
    <g
       id="g3108"
       transform="translate(441.46094,402.5854)"
       style="stroke:#ffffff;stroke-opacity:0.49019607999999998;stroke-width:0.3;stroke-miterlimit:4;stroke-dasharray:none" />
    <g
       id="g3110"
       transform="translate(441.46094,402.5854)"
       style="stroke:#ffffff;stroke-opacity:0.49019607999999998;stroke-width:0.3;stroke-miterlimit:4;stroke-dasharray:none" />
    <g
       id="g3112"
       transform="translate(441.46094,402.5854)"
       style="stroke:#ffffff;stroke-opacity:0.49019607999999998;stroke-width:0.3;stroke-miterlimit:4;stroke-dasharray:none" />
    <g
       id="g3114"
       transform="translate(441.46094,402.5854)"
       style="stroke:#ffffff;stroke-opacity:0.49019607999999998;stroke-width:0.3;stroke-miterlimit:4;stroke-dasharray:none" />
    <g
       id="g3116"
       transform="translate(441.46094,402.5854)"
       style="stroke:#ffffff;stroke-opacity:0.49019607999999998;stroke-width:0.3;stroke-miterlimit:4;stroke-dasharray:none" />
    <g
       id="g3118"
       transform="translate(441.46094,402.5854)"
       style="stroke:#ffffff;stroke-opacity:0.49019607999999998;stroke-width:0.3;stroke-miterlimit:4;stroke-dasharray:none" />
    <g
       id="g3120"
       transform="translate(441.46094,402.5854)"
       style="stroke:#ffffff;stroke-opacity:0.49019607999999998;stroke-width:0.3;stroke-miterlimit:4;stroke-dasharray:none" />
    <g
       id="g3122"
       transform="translate(441.46094,402.5854)"
       style="stroke:#ffffff;stroke-opacity:0.49019607999999998;stroke-width:0.3;stroke-miterlimit:4;stroke-dasharray:none" />
    <g
       id="g3124"
       transform="translate(441.46094,402.5854)"
       style="stroke:#ffffff;stroke-opacity:0.49019607999999998;stroke-width:0.3;stroke-miterlimit:4;stroke-dasharray:none" />
    <g
       id="g3126"
       transform="translate(441.46094,402.5854)"
       style="stroke:#ffffff;stroke-opacity:0.49019607999999998;stroke-width:0.3;stroke-miterlimit:4;stroke-dasharray:none" />
    <g
       id="g3128"
       transform="translate(441.46094,402.5854)"
       style="stroke:#ffffff;stroke-opacity:0.49019607999999998;stroke-width:0.3;stroke-miterlimit:4;stroke-dasharray:none" />
    <g
       id="g3130"
       transform="translate(441.46094,402.5854)"
       style="stroke:#ffffff;stroke-opacity:0.49019607999999998;stroke-width:0.3;stroke-miterlimit:4;stroke-dasharray:none" />
    <g
       id="g3018"
       transform="translate(439.16626,401.47771)">
      <path
         id="path3020"
         d="M 8.1496066,12.649606 C 7.9724413,12.57874 7.7598429,12.330708 7.6535436,12.082677 7.5472444,11.905512 7.5472444,11.834645 7.5472444,11.444882 c 0,-0.531496 0.1062992,-0.850394 0.4251969,-1.5236224 C 8.2559059,9.3188974 8.787402,8.5039368 9.1417327,8.1850392 9.283465,8.07874 9.283465,8.07874 9.1771657,8.2913384 9.0354335,8.610236 8.9645673,8.8582675 8.9645673,9.2480313 c 0,0.4606299 0.035433,0.7086614 0.2480315,1.3464567 0.1771654,0.566929 0.2125985,0.885827 0.1771654,1.204724 -0.035433,0.318898 -0.1062992,0.46063 -0.2480315,0.637796 -0.1771654,0.212598 -0.3897638,0.283464 -0.6377953,0.283464 -0.1062992,0 -0.2480315,-0.03543 -0.3543308,-0.07087 l 0,0 z"
         style="fill:#217821;fill-opacity:1;fill-rule:nonzero;stroke:#ffffff;stroke-width:0.31889766px;stroke-linecap:square;stroke-linejoin:round;stroke-opacity:1;stroke-dasharray:none"
         inkscape:connector-curvature="0" />
      <path
         id="path3022"
         d="M 10.311024,10.700787 C 10.027559,10.629921 9.8149611,10.452756 9.6377957,10.098425 9.5314965,9.8149604 9.4960634,9.3188974 9.6023626,8.8582675 9.8149611,8.1141731 10.275591,7.2283463 10.877953,6.4842518 11.055119,6.2716534 11.30315,6.0236219 11.267717,6.0944881 c -0.03543,0.035433 -0.07087,0.1417322 -0.106299,0.2480315 -0.283465,0.5669291 -0.283465,1.2755905 0,2.1614172 0.248031,0.6732284 0.318897,1.1338583 0.177165,1.5236222 -0.141732,0.496063 -0.602362,0.779527 -1.027559,0.673228 z"
         style="fill:#217821;fill-opacity:1;fill-rule:nonzero;stroke:#ffffff;stroke-width:0.31889766px;stroke-linecap:square;stroke-linejoin:round;stroke-opacity:1;stroke-dasharray:none"
         inkscape:connector-curvature="0" />
      <path
         id="path3024"
         d="M 12.259843,8.7874014 C 11.940945,8.7165353 11.76378,8.5039368 11.586615,8.1850392 c -0.07087,-0.1771653 -0.1063,-0.2480315 -0.1063,-0.6377953 0,-0.4960629 0.07087,-0.7440944 0.318898,-1.3110236 0.177165,-0.4251968 0.425197,-0.8858267 0.744095,-1.3110236 0.212598,-0.3188976 0.602362,-0.7795275 0.637795,-0.7795275 0,0.035433 -0.03543,0.1062992 -0.07087,0.2480315 -0.141733,0.2834646 -0.177166,0.4251968 -0.212599,0.7795275 -0.03543,0.3897638 0.03543,0.8149607 0.212599,1.3818898 0.07087,0.2480315 0.177165,0.5669291 0.177165,0.6732283 0.07087,0.2834646 0.07087,0.6377953 0,0.8858268 C 13.14567,8.574803 12.68504,8.8937006 12.259843,8.7874014 z"
         style="fill:#217821;fill-opacity:1;fill-rule:nonzero;stroke:#ffffff;stroke-width:0.31889766px;stroke-linecap:square;stroke-linejoin:round;stroke-opacity:1;stroke-dasharray:none"
         inkscape:connector-curvature="0" />
      <path
         id="path3026"
         d="M 14.562993,8.1141731 C 14.42126,8.07874 14.244095,7.9370077 14.102363,7.7952754 13.854331,7.5472439 13.818898,7.1574802 13.960631,6.8385825 c 0.248031,-0.4606299 0.992126,-1.027559 1.913385,-1.523622 0.496063,-0.2480315 1.169292,-0.496063 1.169292,-0.4606299 0.03543,0 -0.248032,0.7440945 -0.531496,1.3464567 -0.708662,1.4173228 -1.38189,2.0905511 -1.948819,1.9133858 z"
         style="fill:#217821;fill-opacity:1;fill-rule:nonzero;stroke:#ffffff;stroke-width:0.31889766px;stroke-linecap:square;stroke-linejoin:round;stroke-opacity:1;stroke-dasharray:none"
         inkscape:connector-curvature="0" />
      <path
         id="path3028"
         d="m 13.854331,10.346456 c -0.496063,-0.177165 -0.779527,-0.4960625 -0.779527,-0.9212593 0,-0.3897638 0.248031,-0.7086614 0.673228,-0.8503937 0.318898,-0.070866 0.850394,-0.035433 1.240158,0.070866 0.673228,0.2125984 0.885826,0.2834646 1.204724,0.3188976 0.46063,0.070866 0.885827,0 1.240158,-0.1771653 0.141732,-0.070866 0.283464,-0.1062992 0.283464,-0.1062992 0.03543,0 -0.177165,0.1771653 -0.425197,0.3897638 -0.602362,0.4960629 -1.417323,0.9566931 -2.090551,1.1692911 -0.318898,0.106299 -0.425197,0.141733 -0.779528,0.141733 -0.283464,0 -0.460629,0 -0.566929,-0.03543 z"
         style="fill:#217821;fill-opacity:1;fill-rule:nonzero;stroke:#ffffff;stroke-width:0.31889766px;stroke-linecap:square;stroke-linejoin:round;stroke-opacity:1;stroke-dasharray:none"
         inkscape:connector-curvature="0" />
      <path
         id="path3030"
         d="m 11.940945,12.295275 c -0.637795,-0.212598 -0.921259,-0.673228 -0.779527,-1.169291 0.141732,-0.425197 0.46063,-0.637795 0.992126,-0.673228 0.389764,0 0.637795,0.03543 1.27559,0.248031 0.92126,0.283465 1.559056,0.283465 2.161418,0 0.07087,-0.07087 0.177165,-0.106299 0.177165,-0.07087 0.03543,0.03543 -0.566929,0.496063 -0.956693,0.779528 -0.46063,0.318897 -1.204724,0.673228 -1.629921,0.779527 -0.389764,0.141732 -1.027559,0.177165 -1.240158,0.106299 z"
         style="fill:#217821;fill-opacity:1;fill-rule:nonzero;stroke:#ffffff;stroke-width:0.31889766px;stroke-linecap:square;stroke-linejoin:round;stroke-opacity:1;stroke-dasharray:none"
         inkscape:connector-curvature="0" />
      <path
         id="path3032"
         d="M 9.9921264,14.279527 C 9.7440949,14.208661 9.6023626,14.137795 9.4251973,13.996063 8.9645673,13.570866 9.0708665,12.862204 9.6732288,12.57874 c 0.3897642,-0.212599 0.8503932,-0.177165 1.5944882,0.07087 0.637795,0.212598 0.885827,0.248032 1.311024,0.248032 0.425197,0 0.708661,-0.07087 0.992126,-0.212599 0.248031,-0.141732 0.283464,-0.141732 0.177165,0 -0.318898,0.318898 -1.204724,0.92126 -1.771654,1.204724 -0.81496,0.389764 -1.488189,0.531497 -1.9842516,0.389764 z"
         style="fill:#217821;fill-opacity:1;fill-rule:nonzero;stroke:#ffffff;stroke-width:0.31889766px;stroke-linecap:square;stroke-linejoin:round;stroke-opacity:1;stroke-dasharray:none"
         inkscape:connector-curvature="0" />
      <path
         id="path3034"
         d="M 6.0944884,15.909448 C 5.9173231,15.767716 5.8110239,15.555118 5.88189,15.448819 c 0.035433,-0.141733 1.5944883,-2.019685 1.6653544,-2.019685 0.035433,0 0.1062992,0.106299 0.2125985,0.248031 0.1062992,0.106299 0.2834645,0.283465 0.3897637,0.389764 0.2480316,0.177165 0.2834646,0.212598 0.2480316,0.248031 -0.035433,0.03543 -1.8070867,1.559055 -1.948819,1.629922 -0.1062992,0.106299 -0.2125985,0.106299 -0.3543308,-0.03543 l 0,0 z"
         style="fill:#217821;fill-opacity:1;fill-rule:nonzero;stroke:#ffffff;stroke-width:0.31889766px;stroke-linecap:square;stroke-linejoin:round;stroke-opacity:1;stroke-dasharray:none"
         inkscape:connector-curvature="0" />
      <path
         id="path3036"
         d="m 2.2322836,11.870078 c -0.2125985,0.03543 -0.5314961,0 -0.7795276,-0.141732 C 1.2755906,11.65748 1.2401575,11.622047 0.99212603,11.303149 0.67322838,10.877953 0.53149609,10.594488 0.35433072,9.8858266 0.21259843,9.1771652 0.14173229,8.2204723 0.21259843,7.7598424 c 0,-0.1771654 0.0354331,-0.1771654 0.0708662,0.070866 0.0708661,0.3543307 0.17716536,0.5669291 0.42519687,0.8858268 0.28346458,0.3543307 0.4960631,0.531496 1.0275591,0.8858267 0.5314961,0.3188976 0.7440946,0.5669291 0.9212599,0.8503941 0.1417323,0.248031 0.2125985,0.389763 0.1771653,0.637795 0,0.283465 -0.1062992,0.46063 -0.3188977,0.602362 -0.070866,0.07087 -0.2125984,0.141732 -0.2834645,0.177165 l 0,0 z"
         style="fill:#217821;fill-opacity:1;fill-rule:nonzero;stroke:#ffffff;stroke-width:0.31889766px;stroke-linecap:square;stroke-linejoin:round;stroke-opacity:1;stroke-dasharray:none"
         inkscape:connector-curvature="0" />
      <path
         id="path3038"
         d="M 2.6929135,8.9999998 C 2.4094489,9.1417321 2.1259843,9.106299 1.8070867,8.9291337 1.5236221,8.7874014 1.1692914,8.4330707 0.99212603,8.0078739 0.67322838,7.2992124 0.49606301,6.3425196 0.49606301,5.3858267 c 0,-0.3188977 0.0354331,-0.6377953 0.0354331,-0.5669292 0.0354331,0.035433 0.0354331,0.1417323 0.0708661,0.2480315 0.14173229,0.6377953 0.60236229,1.1692913 1.38188989,1.6653543 0.6023622,0.3897638 0.9212598,0.7086614 1.0984252,1.0984252 0.1771654,0.4606299 0,0.992126 -0.3897638,1.1692913 z"
         style="fill:#217821;fill-opacity:1;fill-rule:nonzero;stroke:#ffffff;stroke-width:0.31889766px;stroke-linecap:square;stroke-linejoin:round;stroke-opacity:1;stroke-dasharray:none"
         inkscape:connector-curvature="0" />
      <path
         id="path3040"
         d="M 2.9763781,6.2716534 C 2.7283466,6.4133857 2.444882,6.3779526 2.0905513,6.2362203 1.9133859,6.1299211 1.8779528,6.0944881 1.6299213,5.7755904 1.3110237,5.3858267 1.2047245,5.1732282 1.0275591,4.570866 0.92125988,4.1456692 0.81496066,3.6141732 0.81496066,3.0826771 c -0.0354331,-0.3543307 0,-0.992126 0,-0.992126 0.0354331,0 0.0708661,0.1062992 0.0708661,0.2480315 0.0708661,0.2834646 0.14173224,0.4606299 0.35433074,0.7440945 0.2125984,0.3188976 0.5314961,0.6023622 1.0275591,0.9212598 0.2480315,0.1771654 0.496063,0.3543307 0.5669292,0.4251969 0.2125984,0.1771653 0.4606299,0.4606299 0.5314961,0.6732283 0.2125984,0.4606299 0.035433,0.992126 -0.3897638,1.1692913 z"
         style="fill:#217821;fill-opacity:1;fill-rule:nonzero;stroke:#ffffff;stroke-width:0.31889766px;stroke-linecap:square;stroke-linejoin:round;stroke-opacity:1;stroke-dasharray:none"
         inkscape:connector-curvature="0" />
      <path
         id="path3042"
         d="M 4.393701,4.3228346 C 4.2519687,4.3937007 4.0039372,4.3937007 3.8267718,4.3582676 3.4724411,4.3228346 3.1889765,4.03937 3.1181104,3.6850393 3.0118112,3.1889763 3.2244096,2.2677165 3.6496065,1.3110236 3.897638,0.81496061 4.2165356,0.21259842 4.2874018,0.21259842 c 0.035433,0 0.2480315,0.74409447 0.3897638,1.41732278 0.3543307,1.523622 0.2480315,2.4803149 -0.2834646,2.6929134 z"
         style="fill:#217821;fill-opacity:1;fill-rule:nonzero;stroke:#ffffff;stroke-width:0.31889766px;stroke-linecap:square;stroke-linejoin:round;stroke-opacity:1;stroke-dasharray:none"
         inkscape:connector-curvature="0" />
      <path
         id="path3044"
         d="M 5.2440947,6.4842518 C 4.7125986,6.6968503 4.3228348,6.6259841 4.0393703,6.2716534 3.7913387,5.9881889 3.7913387,5.562992 4.0393703,5.1732282 4.2165356,4.9251967 4.6417325,4.6062991 5.0669294,4.4645668 5.7047247,4.2165353 5.9173231,4.1456692 6.2007877,3.9685039 6.5905515,3.7204724 6.874016,3.4370078 7.0511814,3.047244 7.1220475,2.9055118 7.1574806,2.7992125 7.1929137,2.7992125 c 0.035433,-0.035433 0,0.2480315 -0.070866,0.5669292 C 6.9448822,4.1456692 6.5905515,4.9606298 6.2007877,5.562992 6.0236223,5.8818896 5.9527562,5.9527558 5.6692916,6.1653542 5.4566931,6.3425196 5.3149609,6.4488188 5.2440947,6.4842518 z"
         style="fill:#217821;fill-opacity:1;fill-rule:nonzero;stroke:#ffffff;stroke-width:0.31889766px;stroke-linecap:square;stroke-linejoin:round;stroke-opacity:1;stroke-dasharray:none"
         inkscape:connector-curvature="0" />
      <path
         id="path3046"
         d="M 4.9251971,9.2125982 C 4.3228348,9.4606297 3.7913387,9.2834644 3.6141734,8.7874014 3.4724411,8.3976376 3.5787403,8.0078739 3.9685041,7.6535432 4.2519687,7.4055117 4.4645671,7.2992124 5.1023624,7.051181 6.0236223,6.6968503 6.5196853,6.3070865 6.7677168,5.7047243 6.838583,5.5984251 6.874016,5.5275589 6.874016,5.5275589 c 0.070866,0 -0.1062992,0.7440945 -0.2480315,1.2047244 C 6.4488192,7.2637794 6.0944884,8.0078739 5.8464569,8.3622046 5.6338585,8.7165353 5.1732286,9.1417321 4.9251971,9.2125982 z"
         style="fill:#217821;fill-opacity:1;fill-rule:nonzero;stroke:#ffffff;stroke-width:0.31889766px;stroke-linecap:square;stroke-linejoin:round;stroke-opacity:1;stroke-dasharray:none"
         inkscape:connector-curvature="0" />
      <path
         id="path3048"
         d="M 4.6771656,12.011811 C 4.429134,12.11811 4.2874018,12.11811 4.0393703,12.11811 3.437008,12.082677 3.0826773,11.444882 3.3307088,10.877953 3.5433072,10.452756 3.897638,10.204724 4.6417325,9.9212596 5.2440947,9.6732281 5.4921262,9.5669289 5.8110239,9.3188974 6.1299215,9.0354329 6.34252,8.7874014 6.4842522,8.5039368 6.5905515,8.2559053 6.5905515,8.2559053 6.5905515,8.3976376 6.5551184,8.8228345 6.2362207,9.8503935 5.9527562,10.452756 5.5629924,11.267716 5.1377955,11.799212 4.6771656,12.011811 z"
         style="fill:#217821;fill-opacity:1;fill-rule:nonzero;stroke:#ffffff;stroke-width:0.31889766px;stroke-linecap:square;stroke-linejoin:round;stroke-opacity:1;stroke-dasharray:none"
         inkscape:connector-curvature="0" />
      <path
         id="path3050"
         d="m 2.6574804,15.69685 c -0.2125984,0 -0.4606299,-0.106299 -0.4606299,-0.212598 -0.035433,-0.141733 0,-2.586614 0.035433,-2.622048 0,-0.03543 0.1417322,0 0.3188976,0.03543 0.1417323,0.03543 0.4251969,0.07087 0.5669292,0.07087 0.2834645,0 0.3188976,0 0.3188976,0.03543 0.035433,0.07087 -0.4251968,2.374015 -0.4606299,2.515748 -0.070866,0.141732 -0.1417323,0.212598 -0.3188977,0.177165 l 0,0 z"
         style="fill:#217821;fill-opacity:1;fill-rule:nonzero;stroke:#ffffff;stroke-width:0.31889766px;stroke-linecap:square;stroke-linejoin:round;stroke-opacity:1;stroke-dasharray:none"
         inkscape:connector-curvature="0" />
    </g>
  </g>
</svg>
