<?xml version="1.0" encoding="UTF-8" standalone="no"?>
<!-- Created with Inkscape (http://www.inkscape.org/) -->

<svg
   xmlns:dc="http://purl.org/dc/elements/1.1/"
   xmlns:cc="http://creativecommons.org/ns#"
   xmlns:rdf="http://www.w3.org/1999/02/22-rdf-syntax-ns#"
   xmlns:svg="http://www.w3.org/2000/svg"
   xmlns="http://www.w3.org/2000/svg"
   xmlns:sodipodi="http://sodipodi.sourceforge.net/DTD/sodipodi-0.dtd"
   xmlns:inkscape="http://www.inkscape.org/namespaces/inkscape"
   width="20"
   height="20"
   id="svg2"
   version="1.1"
   inkscape:version="0.48.5 r10040"
   sodipodi:docname="fire_station_operational.svg">
  <defs
     id="defs4" />
  <sodipodi:namedview
     id="base"
     pagecolor="#ffffff"
     bordercolor="#666666"
     borderopacity="1.0"
     inkscape:pageopacity="0.0"
     inkscape:pageshadow="2"
     inkscape:zoom="31.678384"
     inkscape:cx="12.386996"
     inkscape:cy="9.3698836"
     inkscape:document-units="px"
     inkscape:current-layer="layer1"
     showgrid="false"
     fit-margin-top="0"
     fit-margin-left="0"
     fit-margin-right="0"
     fit-margin-bottom="0"
     inkscape:window-width="1920"
     inkscape:window-height="1018"
     inkscape:window-x="-8"
     inkscape:window-y="-8"
     inkscape:window-maximized="1" />
  <metadata
     id="metadata7">
    <rdf:RDF>
      <cc:Work
         rdf:about="">
        <dc:format>image/svg+xml</dc:format>
        <dc:type
           rdf:resource="http://purl.org/dc/dcmitype/StillImage" />
        <dc:title />
      </cc:Work>
    </rdf:RDF>
  </metadata>
  <g
     inkscape:label="Layer 1"
     inkscape:groupmode="layer"
     id="layer1"
     transform="translate(-438.02958,-399.32648)">
    <g
       id="g3102"
       transform="translate(441.46094,402.5854)"
       style="stroke:#ffffff;stroke-opacity:0.49019607999999998;stroke-width:0.3;stroke-miterlimit:4;stroke-dasharray:none" />
    <g
       id="g3104"
       transform="translate(441.46094,402.5854)"
       style="stroke:#ffffff;stroke-opacity:0.49019607999999998;stroke-width:0.3;stroke-miterlimit:4;stroke-dasharray:none" />
    <g
       id="g3106"
       transform="translate(441.46094,402.5854)"
       style="stroke:#ffffff;stroke-opacity:0.49019607999999998;stroke-width:0.3;stroke-miterlimit:4;stroke-dasharray:none" />
    <g
       id="g3108"
       transform="translate(441.46094,402.5854)"
       style="stroke:#ffffff;stroke-opacity:0.49019607999999998;stroke-width:0.3;stroke-miterlimit:4;stroke-dasharray:none" />
    <g
       id="g3110"
       transform="translate(441.46094,402.5854)"
       style="stroke:#ffffff;stroke-opacity:0.49019607999999998;stroke-width:0.3;stroke-miterlimit:4;stroke-dasharray:none" />
    <g
       id="g3112"
       transform="translate(441.46094,402.5854)"
       style="stroke:#ffffff;stroke-opacity:0.49019607999999998;stroke-width:0.3;stroke-miterlimit:4;stroke-dasharray:none" />
    <g
       id="g3114"
       transform="translate(441.46094,402.5854)"
       style="stroke:#ffffff;stroke-opacity:0.49019607999999998;stroke-width:0.3;stroke-miterlimit:4;stroke-dasharray:none" />
    <g
       id="g3116"
       transform="translate(441.46094,402.5854)"
       style="stroke:#ffffff;stroke-opacity:0.49019607999999998;stroke-width:0.3;stroke-miterlimit:4;stroke-dasharray:none" />
    <g
       id="g3118"
       transform="translate(441.46094,402.5854)"
       style="stroke:#ffffff;stroke-opacity:0.49019607999999998;stroke-width:0.3;stroke-miterlimit:4;stroke-dasharray:none" />
    <g
       id="g3120"
       transform="translate(441.46094,402.5854)"
       style="stroke:#ffffff;stroke-opacity:0.49019607999999998;stroke-width:0.3;stroke-miterlimit:4;stroke-dasharray:none" />
    <g
       id="g3122"
       transform="translate(441.46094,402.5854)"
       style="stroke:#ffffff;stroke-opacity:0.49019607999999998;stroke-width:0.3;stroke-miterlimit:4;stroke-dasharray:none" />
    <g
       id="g3124"
       transform="translate(441.46094,402.5854)"
       style="stroke:#ffffff;stroke-opacity:0.49019607999999998;stroke-width:0.3;stroke-miterlimit:4;stroke-dasharray:none" />
    <g
       id="g3126"
       transform="translate(441.46094,402.5854)"
       style="stroke:#ffffff;stroke-opacity:0.49019607999999998;stroke-width:0.3;stroke-miterlimit:4;stroke-dasharray:none" />
    <g
       id="g3128"
       transform="translate(441.46094,402.5854)"
       style="stroke:#ffffff;stroke-opacity:0.49019607999999998;stroke-width:0.3;stroke-miterlimit:4;stroke-dasharray:none" />
    <g
       id="g3130"
       transform="translate(441.46094,402.5854)"
       style="stroke:#ffffff;stroke-opacity:0.49019607999999998;stroke-width:0.3;stroke-miterlimit:4;stroke-dasharray:none" />
    <path
       style="fill:#782121;fill-opacity:1;stroke:#ffffff;stroke-width:0.30000001;stroke-linecap:square;stroke-linejoin:round;stroke-miterlimit:4;stroke-opacity:0.49019608;stroke-dasharray:none"
       d="m 447.26543,416.06727 c -1.10986,-0.10567 -2.0743,-0.5412 -2.79745,-1.26331 -0.54664,-0.54585 -0.92839,-1.27932 -1.08299,-2.08078 -0.1164,-0.60339 -0.12761,-1.13409 -0.0391,-1.85186 0.0547,-0.44389 0.0595,-0.45364 0.15231,-0.31243 0.11859,0.18034 0.36002,0.46668 0.52854,0.62686 0.49084,0.46654 0.93089,0.53198 1.20972,0.17993 0.19676,-0.24843 0.26713,-0.54744 0.20966,-0.89088 -0.0446,-0.26658 -0.12171,-0.47233 -0.40979,-1.09352 -0.43018,-0.92764 -0.50357,-1.15503 -0.52398,-1.62365 -0.0149,-0.3412 0.0195,-0.52475 0.15111,-0.80701 0.29594,-0.63474 1.00207,-1.11923 1.73659,-1.19153 0.21043,-0.0207 0.23423,-0.002 0.18226,0.14547 -0.0225,0.0637 -0.0541,0.26277 -0.0702,0.44245 -0.0458,0.5093 0.0375,0.89694 0.27087,1.26061 0.16973,0.26449 0.55527,0.4659 0.89773,0.46897 0.18924,0.002 0.31762,-0.0496 0.4464,-0.17839 0.34329,-0.34329 0.35745,-1.03086 0.0356,-1.72754 -0.12794,-0.27693 -0.20969,-0.40948 -0.47205,-0.76537 -0.2238,-0.30358 -0.29701,-0.45036 -0.35156,-0.7048 -0.11632,-0.54256 0.0726,-1.34957 0.53543,-2.28682 l 0.15486,-0.31362 0.002,0.11761 c 0.004,0.193 0.0746,0.61178 0.13358,0.78865 0.12408,0.37212 0.34777,0.70769 0.69527,1.04302 0.37257,0.35954 0.82519,0.65897 1.61671,1.06954 0.57298,0.29722 0.71769,0.3926 0.90879,0.59901 0.41143,0.44439 0.5992,1.03872 0.59923,1.89668 2e-5,0.45526 -0.0402,0.80803 -0.16506,1.4468 -0.0431,0.22077 -0.0737,0.40615 -0.0679,0.41195 0.006,0.006 0.0629,-0.0356 0.12697,-0.0919 0.19978,-0.17586 0.54187,-0.3897 0.75468,-0.47177 0.23684,-0.0913 0.58693,-0.15817 0.82854,-0.15817 0.21422,0 0.6404,0.0862 0.85923,0.17382 l 0.16858,0.0675 -0.21103,0.14437 c -0.83662,0.57237 -1.44857,1.53385 -1.58092,2.48392 -0.0214,0.15383 -0.0515,0.36789 -0.0669,0.4757 -0.10445,0.73392 -0.4266,1.51491 -0.85705,2.07774 -0.16583,0.21682 -0.55502,0.61699 -0.7745,0.79635 -0.6731,0.55004 -1.57194,0.92934 -2.53511,1.0698 -0.27632,0.0403 -0.90837,0.0543 -1.19924,0.0266 l 0,0 z m 1.71393,-1.55246 c 0.51142,-0.13969 0.8665,-0.44102 1.03979,-0.88239 0.1949,-0.4964 0.15867,-1.07189 -0.10262,-1.63027 -0.36326,-0.77629 -1.04121,-1.28113 -2.10362,-1.56646 -0.12848,-0.0345 -0.23744,-0.0589 -0.24213,-0.0542 -0.005,0.005 0.0202,0.072 0.0553,0.14971 0.0928,0.20522 0.1084,0.35739 0.0539,0.52488 -0.0405,0.12451 -0.0938,0.18671 -0.5112,0.59637 -0.4252,0.41734 -0.47391,0.47456 -0.55656,0.6538 -0.17415,0.3777 -0.22114,0.91442 -0.11097,1.26765 0.13179,0.42256 0.51402,0.77267 0.98507,0.9023 0.39228,0.10795 1.16594,0.12797 1.49301,0.0386 l 0,0 z"
       id="path4855"
       inkscape:connector-curvature="0" />
    <path
       style="fill:#782121;fill-opacity:1;stroke:#ffffff;stroke-width:0.30000001;stroke-linecap:square;stroke-linejoin:round;stroke-miterlimit:4;stroke-opacity:0.49019608;stroke-dasharray:none"
       d="m 450.32179,404.18471 c -0.087,-0.27603 -0.24584,-0.56626 -0.44716,-0.81685 -0.11185,-0.13922 -0.24659,-0.34558 -0.30717,-0.47043 -0.0965,-0.19893 -0.10766,-0.24172 -0.10549,-0.40535 0.005,-0.35185 0.17834,-0.66262 0.6062,-1.08461 0.26756,-0.2639 0.27856,-0.27159 0.28669,-0.20065 0.005,0.0406 -0.012,0.19934 -0.037,0.35282 -0.025,0.15348 -0.0458,0.38491 -0.0462,0.51427 -9.3e-4,0.27223 0.0294,0.35697 0.25735,0.71817 0.22214,0.35206 0.28085,0.4985 0.27793,0.69321 -0.004,0.27434 -0.13542,0.56304 -0.34783,0.76476 l -0.0899,0.0853 -0.0475,-0.15066 0,0 z"
       id="path4857"
       inkscape:connector-curvature="0" />
  </g>
</svg>
