<?xml version="1.0" encoding="UTF-8" standalone="no"?>
<!-- Created with Inkscape (http://www.inkscape.org/) -->

<svg
   xmlns:dc="http://purl.org/dc/elements/1.1/"
   xmlns:cc="http://creativecommons.org/ns#"
   xmlns:rdf="http://www.w3.org/1999/02/22-rdf-syntax-ns#"
   xmlns:svg="http://www.w3.org/2000/svg"
   xmlns="http://www.w3.org/2000/svg"
   xmlns:sodipodi="http://sodipodi.sourceforge.net/DTD/sodipodi-0.dtd"
   xmlns:inkscape="http://www.inkscape.org/namespaces/inkscape"
   width="20"
   height="20"
   id="svg2"
   version="1.1"
   inkscape:version="0.48.5 r10040"
   sodipodi:docname="garbage_pit_operational.svg">
  <defs
     id="defs4" />
  <sodipodi:namedview
     id="base"
     pagecolor="#ffffff"
     bordercolor="#666666"
     borderopacity="1.0"
     inkscape:pageopacity="0.0"
     inkscape:pageshadow="2"
     inkscape:zoom="11.2"
     inkscape:cx="-1.5415753"
     inkscape:cy="9.3698836"
     inkscape:document-units="px"
     inkscape:current-layer="layer1"
     showgrid="false"
     fit-margin-top="0"
     fit-margin-left="0"
     fit-margin-right="0"
     fit-margin-bottom="0"
     inkscape:window-width="1920"
     inkscape:window-height="1018"
     inkscape:window-x="-8"
     inkscape:window-y="-8"
     inkscape:window-maximized="1" />
  <metadata
     id="metadata7">
    <rdf:RDF>
      <cc:Work
         rdf:about="">
        <dc:format>image/svg+xml</dc:format>
        <dc:type
           rdf:resource="http://purl.org/dc/dcmitype/StillImage" />
        <dc:title />
      </cc:Work>
    </rdf:RDF>
  </metadata>
  <g
     inkscape:label="Layer 1"
     inkscape:groupmode="layer"
     id="layer1"
     transform="translate(-438.02958,-399.32648)">
    <g
       id="g3102"
       transform="translate(441.46094,402.5854)"
       style="stroke:#ffffff;stroke-opacity:0.49019607999999998;stroke-width:0.3;stroke-miterlimit:4;stroke-dasharray:none" />
    <g
       id="g3104"
       transform="translate(441.46094,402.5854)"
       style="stroke:#ffffff;stroke-opacity:0.49019607999999998;stroke-width:0.3;stroke-miterlimit:4;stroke-dasharray:none" />
    <g
       id="g3106"
       transform="translate(441.46094,402.5854)"
       style="stroke:#ffffff;stroke-opacity:0.49019607999999998;stroke-width:0.3;stroke-miterlimit:4;stroke-dasharray:none" />
    <g
       id="g3108"
       transform="translate(441.46094,402.5854)"
       style="stroke:#ffffff;stroke-opacity:0.49019607999999998;stroke-width:0.3;stroke-miterlimit:4;stroke-dasharray:none" />
    <g
       id="g3110"
       transform="translate(441.46094,402.5854)"
       style="stroke:#ffffff;stroke-opacity:0.49019607999999998;stroke-width:0.3;stroke-miterlimit:4;stroke-dasharray:none" />
    <g
       id="g3112"
       transform="translate(441.46094,402.5854)"
       style="stroke:#ffffff;stroke-opacity:0.49019607999999998;stroke-width:0.3;stroke-miterlimit:4;stroke-dasharray:none" />
    <g
       id="g3114"
       transform="translate(441.46094,402.5854)"
       style="stroke:#ffffff;stroke-opacity:0.49019607999999998;stroke-width:0.3;stroke-miterlimit:4;stroke-dasharray:none" />
    <g
       id="g3116"
       transform="translate(441.46094,402.5854)"
       style="stroke:#ffffff;stroke-opacity:0.49019607999999998;stroke-width:0.3;stroke-miterlimit:4;stroke-dasharray:none" />
    <g
       id="g3118"
       transform="translate(441.46094,402.5854)"
       style="stroke:#ffffff;stroke-opacity:0.49019607999999998;stroke-width:0.3;stroke-miterlimit:4;stroke-dasharray:none" />
    <g
       id="g3120"
       transform="translate(441.46094,402.5854)"
       style="stroke:#ffffff;stroke-opacity:0.49019607999999998;stroke-width:0.3;stroke-miterlimit:4;stroke-dasharray:none" />
    <g
       id="g3122"
       transform="translate(441.46094,402.5854)"
       style="stroke:#ffffff;stroke-opacity:0.49019607999999998;stroke-width:0.3;stroke-miterlimit:4;stroke-dasharray:none" />
    <g
       id="g3124"
       transform="translate(441.46094,402.5854)"
       style="stroke:#ffffff;stroke-opacity:0.49019607999999998;stroke-width:0.3;stroke-miterlimit:4;stroke-dasharray:none" />
    <g
       id="g3126"
       transform="translate(441.46094,402.5854)"
       style="stroke:#ffffff;stroke-opacity:0.49019607999999998;stroke-width:0.3;stroke-miterlimit:4;stroke-dasharray:none" />
    <g
       id="g3128"
       transform="translate(441.46094,402.5854)"
       style="stroke:#ffffff;stroke-opacity:0.49019607999999998;stroke-width:0.3;stroke-miterlimit:4;stroke-dasharray:none" />
    <g
       id="g3130"
       transform="translate(441.46094,402.5854)"
       style="stroke:#ffffff;stroke-opacity:0.49019607999999998;stroke-width:0.3;stroke-miterlimit:4;stroke-dasharray:none" />
    <path
       style="fill:#000000;stroke:#ffffff;stroke-opacity:0.49019607999999998;stroke-width:0.3;stroke-miterlimit:4;stroke-dasharray:none"
       d="m 441.37168,416.22899 c 0,-0.24954 0.34681,-0.61173 0.77068,-0.80485 0.61483,-0.28014 0.74622,-0.51775 0.64975,-1.17503 -0.12515,-0.85274 0.20355,-1.14497 1.28789,-1.14497 0.31462,0 0.57204,-0.2013 0.57204,-0.44732 0,-0.31242 0.31478,-0.44732 1.04375,-0.44732 0.8301,0 1.04375,-0.1171 1.04375,-0.57204 0,-1.35346 0.98258,-2.11222 1.38323,-1.06814 0.0944,0.24602 0.49278,0.44732 0.88528,0.44732 0.56426,0 0.71363,0.15759 0.71363,0.75292 0,0.52871 0.22201,0.83732 0.74554,1.03636 0.41004,0.1559 0.74553,0.47077 0.74553,0.69972 0,0.22894 0.44058,0.71815 0.97906,1.08712 0.53848,0.36897 1.12973,0.99015 1.3139,1.38041 l 0.33486,0.70954 -6.23445,0 c -5.38196,0 -6.23444,-0.062 -6.23444,-0.45372 z m 14.08441,-0.19862 c 0.18406,-0.55218 0.73399,-0.61479 0.92931,-0.1058 0.12369,0.32234 -0.007,0.45993 -0.43543,0.45993 -0.33982,0 -0.55943,-0.15747 -0.49388,-0.35413 z m -1.54579,-0.97142 c -0.48318,-0.5822 -0.28486,-1.67053 0.37783,-2.07346 0.43935,-0.26714 0.64873,-0.19686 1.1183,0.37535 0.77175,0.94042 0.72811,1.36834 -0.18182,1.78293 -0.94217,0.42928 -0.88455,0.433 -1.31431,-0.0848 z m -1.50469,-2.42698 c 0,-0.2597 0.15936,-0.41906 0.35413,-0.35413 0.55295,0.18431 0.64467,0.8263 0.11804,0.8263 -0.25969,0 -0.47217,-0.21248 -0.47217,-0.47217 z m 2.68393,-0.8698 c 0,-0.24602 0.20129,-0.44732 0.44732,-0.44732 0.24603,0 0.44732,0.2013 0.44732,0.44732 0,0.24603 -0.20129,0.44733 -0.44732,0.44733 -0.24603,0 -0.44732,-0.2013 -0.44732,-0.44733 z m -2.56763,-0.57438 c -0.29682,-0.77351 0.0807,-1.33463 0.77575,-1.15288 0.43405,0.11351 0.60223,0.3607 0.54011,0.7939 -0.10866,0.7578 -1.06292,1.01813 -1.31586,0.35898 z m -1.60737,-0.17115 c 0,-0.16402 0.20129,-0.29822 0.44732,-0.29822 0.24603,0 0.44732,0.1342 0.44732,0.29822 0,0.16402 -0.20129,0.29821 -0.44732,0.29821 -0.24603,0 -0.44732,-0.13419 -0.44732,-0.29821 z m -8.00741,-1.03877 c -1.10204,-1.25516 -1.13396,-1.43787 -0.3462,-1.98155 0.58257,-0.40207 0.5774,-0.43366 -0.29876,-1.82566 -0.51829,-0.82344 -1.11332,-1.41652 -1.42119,-1.41652 -0.46163,0 -1.5568,-0.94381 -1.5568,-1.34163 0,-0.14546 2.27521,-1.64051 2.49657,-1.64051 0.21664,0 0.57964,1.61838 0.51321,2.28807 -0.0353,0.35634 0.28295,1.19792 0.70733,1.87018 0.65651,1.03998 0.85648,1.17687 1.34068,0.91773 0.81684,-0.43716 0.83121,-0.42836 1.52666,0.93483 0.49308,0.96651 0.5744,1.44252 0.36937,2.16205 -0.22295,0.78242 -0.42473,0.93634 -1.32739,1.01258 -0.90304,0.0763 -1.20686,-0.0723 -2.00348,-0.97957 z m -1.11956,-5.9949 c 0.0998,-0.26012 0.0758,-0.66188 -0.0535,-0.8928 -0.19838,-0.35449 -0.34444,-0.34317 -0.93818,0.0727 -0.67158,0.47039 -0.67859,0.51055 -0.15584,0.8928 0.70882,0.5183 0.92599,0.50454 1.14749,-0.0727 z m 8.82875,5.36864 c 0,-0.2597 0.15936,-0.41905 0.35413,-0.35413 0.55296,0.18432 0.64467,0.8263 0.11804,0.8263 -0.25969,0 -0.47217,-0.21248 -0.47217,-0.47217 z"
       id="path2989"
       inkscape:connector-curvature="0" />
  </g>
</svg>
