<?xml version="1.0" encoding="UTF-8" standalone="no"?>
<!-- Created with Inkscape (http://www.inkscape.org/) -->

<svg
   xmlns:dc="http://purl.org/dc/elements/1.1/"
   xmlns:cc="http://creativecommons.org/ns#"
   xmlns:rdf="http://www.w3.org/1999/02/22-rdf-syntax-ns#"
   xmlns:svg="http://www.w3.org/2000/svg"
   xmlns="http://www.w3.org/2000/svg"
   xmlns:sodipodi="http://sodipodi.sourceforge.net/DTD/sodipodi-0.dtd"
   xmlns:inkscape="http://www.inkscape.org/namespaces/inkscape"
   width="20"
   height="20"
   id="svg2"
   version="1.1"
   inkscape:version="0.48.5 r10040"
   sodipodi:docname="group_center_operational.svg">
  <defs
     id="defs4" />
  <sodipodi:namedview
     id="base"
     pagecolor="#ffffff"
     bordercolor="#666666"
     borderopacity="1.0"
     inkscape:pageopacity="0.0"
     inkscape:pageshadow="2"
     inkscape:zoom="11.2"
     inkscape:cx="-1.5415753"
     inkscape:cy="9.3698836"
     inkscape:document-units="px"
     inkscape:current-layer="layer1"
     showgrid="false"
     fit-margin-top="0"
     fit-margin-left="0"
     fit-margin-right="0"
     fit-margin-bottom="0"
     inkscape:window-width="1920"
     inkscape:window-height="1018"
     inkscape:window-x="-8"
     inkscape:window-y="-8"
     inkscape:window-maximized="1" />
  <metadata
     id="metadata7">
    <rdf:RDF>
      <cc:Work
         rdf:about="">
        <dc:format>image/svg+xml</dc:format>
        <dc:type
           rdf:resource="http://purl.org/dc/dcmitype/StillImage" />
        <dc:title />
      </cc:Work>
    </rdf:RDF>
  </metadata>
  <g
     inkscape:label="Layer 1"
     inkscape:groupmode="layer"
     id="layer1"
     transform="translate(-438.02958,-399.32648)">
    <g
       id="g3102"
       transform="translate(441.46094,402.5854)"
       style="stroke:#ffffff;stroke-opacity:0.49019607999999998;stroke-width:0.3;stroke-miterlimit:4;stroke-dasharray:none" />
    <g
       id="g3104"
       transform="translate(441.46094,402.5854)"
       style="stroke:#ffffff;stroke-opacity:0.49019607999999998;stroke-width:0.3;stroke-miterlimit:4;stroke-dasharray:none" />
    <g
       id="g3106"
       transform="translate(441.46094,402.5854)"
       style="stroke:#ffffff;stroke-opacity:0.49019607999999998;stroke-width:0.3;stroke-miterlimit:4;stroke-dasharray:none" />
    <g
       id="g3108"
       transform="translate(441.46094,402.5854)"
       style="stroke:#ffffff;stroke-opacity:0.49019607999999998;stroke-width:0.3;stroke-miterlimit:4;stroke-dasharray:none" />
    <g
       id="g3110"
       transform="translate(441.46094,402.5854)"
       style="stroke:#ffffff;stroke-opacity:0.49019607999999998;stroke-width:0.3;stroke-miterlimit:4;stroke-dasharray:none" />
    <g
       id="g3112"
       transform="translate(441.46094,402.5854)"
       style="stroke:#ffffff;stroke-opacity:0.49019607999999998;stroke-width:0.3;stroke-miterlimit:4;stroke-dasharray:none" />
    <g
       id="g3114"
       transform="translate(441.46094,402.5854)"
       style="stroke:#ffffff;stroke-opacity:0.49019607999999998;stroke-width:0.3;stroke-miterlimit:4;stroke-dasharray:none" />
    <g
       id="g3116"
       transform="translate(441.46094,402.5854)"
       style="stroke:#ffffff;stroke-opacity:0.49019607999999998;stroke-width:0.3;stroke-miterlimit:4;stroke-dasharray:none" />
    <g
       id="g3118"
       transform="translate(441.46094,402.5854)"
       style="stroke:#ffffff;stroke-opacity:0.49019607999999998;stroke-width:0.3;stroke-miterlimit:4;stroke-dasharray:none" />
    <g
       id="g3120"
       transform="translate(441.46094,402.5854)"
       style="stroke:#ffffff;stroke-opacity:0.49019607999999998;stroke-width:0.3;stroke-miterlimit:4;stroke-dasharray:none" />
    <g
       id="g3122"
       transform="translate(441.46094,402.5854)"
       style="stroke:#ffffff;stroke-opacity:0.49019607999999998;stroke-width:0.3;stroke-miterlimit:4;stroke-dasharray:none" />
    <g
       id="g3124"
       transform="translate(441.46094,402.5854)"
       style="stroke:#ffffff;stroke-opacity:0.49019607999999998;stroke-width:0.3;stroke-miterlimit:4;stroke-dasharray:none" />
    <g
       id="g3126"
       transform="translate(441.46094,402.5854)"
       style="stroke:#ffffff;stroke-opacity:0.49019607999999998;stroke-width:0.3;stroke-miterlimit:4;stroke-dasharray:none" />
    <g
       id="g3128"
       transform="translate(441.46094,402.5854)"
       style="stroke:#ffffff;stroke-opacity:0.49019607999999998;stroke-width:0.3;stroke-miterlimit:4;stroke-dasharray:none" />
    <g
       id="g3130"
       transform="translate(441.46094,402.5854)"
       style="stroke:#ffffff;stroke-opacity:0.49019607999999998;stroke-width:0.3;stroke-miterlimit:4;stroke-dasharray:none" />
    <path
       id="path5449"
       d="m 445.62439,407.68556 c 0,0.42082 -0.34248,0.76191 -0.764,0.76191 -0.42151,0 -0.76399,-0.34109 -0.76399,-0.76191 0,-0.42083 0.34178,-0.76262 0.76399,-0.76262 0.42152,0 0.764,0.3411 0.764,0.76262 z m -0.68358,5.2225 0.16501,2.81472 c 0,0.0977 0.0797,0.17887 0.17817,0.17887 0.0991,0 0.17956,-0.0811 0.17956,-0.17887 l 0.15252,-2.81472 h 0.49778 l -0.51442,-3.15513 1.03577,2.0632 c 0.0381,0.0908 0.14281,0.13381 0.23433,0.0957 0.0908,-0.0388 0.1338,-0.14282 0.0957,-0.23503 0,0 -0.75914,-2.05281 -0.94702,-2.4355 -0.18788,-0.38269 -0.3723,-0.61563 -1.08499,-0.61563 h -0.14559 c -0.71062,0 -0.89711,0.23225 -1.0836,0.61563 -0.18719,0.38269 -0.94703,2.43551 -0.94703,2.43551 -0.0395,0.0922 0.003,0.19619 0.0936,0.23502 0.0915,0.0388 0.1962,-0.005 0.23571,-0.0957 l 1.03577,-2.0632 -0.51511,3.15513 h 0.49708 l 0.1546,2.81472 c 0,0.0977 0.0804,0.17887 0.17818,0.17887 0.10122,0 0.18094,-0.0811 0.18094,-0.17887 l 0.15391,-2.81472 h 0.16916 z m 6.08217,-5.9872 c -0.42151,0 -0.76469,0.3411 -0.76469,0.76262 0,0.42151 0.34249,0.76261 0.76469,0.76261 0.42013,0 0.76192,-0.3411 0.76192,-0.76261 0,-0.42152 -0.34109,-0.76262 -0.76192,-0.76262 z m 0.79104,4.48901 0.0506,-1.65902 0.93177,2.0639 c 0.0388,0.0901 0.14421,0.1338 0.23503,0.095 0.0922,-0.0395 0.13449,-0.14351 0.0964,-0.23572 0,0 -0.65585,-2.05281 -0.84373,-2.43481 -0.18788,-0.38269 -0.47698,-0.61494 -1.18829,-0.61494 h -0.14628 c -0.71131,0 -1.0011,0.23225 -1.18898,0.61494 -0.1865,0.382 -0.84234,2.43481 -0.84234,2.43481 -0.0388,0.0922 0.003,0.1962 0.095,0.23572 0.0915,0.0395 0.19689,-0.005 0.23363,-0.095 l 0.93316,-2.06391 0.0506,1.65903 -0.14697,4.17079 c -0.0104,0.165 0.1137,0.30851 0.27731,0.3196 0.008,10e-4 0.0152,10e-4 0.0215,10e-4 0.15668,0 0.2884,-0.12063 0.30088,-0.2787 l 0.33763,-3.43452 0.34179,3.43452 c 0.01,0.15877 0.14212,0.2787 0.29742,0.2787 0.008,0 0.0146,0 0.0215,-10e-4 0.16569,-0.0111 0.28841,-0.1546 0.27801,-0.3196 l -0.14767,-4.17079 h 0.002 z m -3.87268,0.14767 c -0.25929,0 -0.46935,0.20868 -0.46935,0.46727 0,0.2586 0.21006,0.46728 0.46935,0.46728 0.2586,0 0.46866,-0.20868 0.46866,-0.46728 0,-0.25859 -0.21006,-0.46727 -0.46866,-0.46727 z m 0,2.7558 c 0,0 0.21076,1.46352 0.21076,1.46491 0.0291,0.0721 0.0964,0.1234 0.17817,0.1234 0.0839,0 0.15461,-0.0562 0.18026,-0.13242 10e-4,-0.004 0.006,-0.0908 10e-4,-0.10468 l -0.0867,-1.79907 0.0277,-0.61772 c 0.0243,-0.21006 0.0291,-0.14697 0.2676,-0.28979 0.24473,-0.14628 0.65862,-0.78965 0.67873,-0.82085 0.0201,-0.0326 0.0575,-0.0887 0.0652,-0.12479 0.0118,-0.0652 -0.0305,-0.12617 -0.0943,-0.13935 -0.0485,-0.008 -0.0901,0.0173 -0.12133,0.0513 -0.0319,0.0347 -0.50956,0.6704 -0.86729,0.73141 -0.0804,-0.0118 -0.16708,-0.0541 -0.39517,-0.0541 h -0.0901 c -0.2267,0 -0.31336,0.043 -0.39448,0.0541 -0.35843,-0.061 -0.8361,-0.69675 -0.86938,-0.73141 -0.0305,-0.034 -0.07,-0.0596 -0.11993,-0.0513 -0.0638,0.0132 -0.10677,0.0742 -0.0936,0.13935 0.007,0.0361 0.0444,0.0922 0.0652,0.12479 0.0208,0.0312 0.43608,0.67457 0.67873,0.82085 0.23918,0.14282 0.24473,0.0797 0.2676,0.28979 l 0.027,0.61772 -0.086,1.79907 c -0.005,0.0146 0,0.10122 0.003,0.10468 0.025,0.0763 0.0943,0.13242 0.17887,0.13242 0.0804,0 0.14975,-0.0513 0.17679,-0.1234 -6.9e-4,-0.001 0.21076,-1.46491 0.21076,-1.46491"
       style="fill:#ab38ab;fill-opacity:1;stroke:#ffffff;stroke-width:0.29999998;stroke-miterlimit:4;stroke-opacity:0.49019608;stroke-dasharray:none"
       inkscape:connector-curvature="0" />
    <path
       style="fill:#ab38ab;fill-opacity:1;stroke:#ffffff;stroke-width:0.17046969;stroke-linecap:butt;stroke-linejoin:miter;stroke-miterlimit:4;stroke-opacity:0.49019608;stroke-dasharray:none"
       d="m 448.19952,403.40082 c -2.78208,0.96861 -5.58544,1.93366 -7.98783,2.75962 l 0.23488,0.70463 7.72955,-2.71175 7.79362,2.75446 0.23487,-0.70463 c -2.61766,-0.9726 -5.46698,-1.74975 -8.00509,-2.80233 z"
       id="path3032"
       inkscape:connector-curvature="0"
       sodipodi:nodetypes="ccccccc" />
  </g>
</svg>
