<?xml version="1.0" encoding="UTF-8" standalone="no"?>
<!-- Created with Inkscape (http://www.inkscape.org/) -->

<svg
   xmlns:dc="http://purl.org/dc/elements/1.1/"
   xmlns:cc="http://creativecommons.org/ns#"
   xmlns:rdf="http://www.w3.org/1999/02/22-rdf-syntax-ns#"
   xmlns:svg="http://www.w3.org/2000/svg"
   xmlns="http://www.w3.org/2000/svg"
   xmlns:sodipodi="http://sodipodi.sourceforge.net/DTD/sodipodi-0.dtd"
   xmlns:inkscape="http://www.inkscape.org/namespaces/inkscape"
   width="20"
   height="20"
   id="svg2"
   version="1.1"
   inkscape:version="0.48.5 r10040"
   sodipodi:docname="health_post_operational.svg">
  <defs
     id="defs4" />
  <sodipodi:namedview
     id="base"
     pagecolor="#ffffff"
     bordercolor="#666666"
     borderopacity="1.0"
     inkscape:pageopacity="0.0"
     inkscape:pageshadow="2"
     inkscape:zoom="31.678384"
     inkscape:cx="-1.5415753"
     inkscape:cy="9.8392633"
     inkscape:document-units="px"
     inkscape:current-layer="layer1"
     showgrid="false"
     fit-margin-top="0"
     fit-margin-left="0"
     fit-margin-right="0"
     fit-margin-bottom="0"
     inkscape:window-width="1920"
     inkscape:window-height="1018"
     inkscape:window-x="-8"
     inkscape:window-y="-8"
     inkscape:window-maximized="1" />
  <metadata
     id="metadata7">
    <rdf:RDF>
      <cc:Work
         rdf:about="">
        <dc:format>image/svg+xml</dc:format>
        <dc:type
           rdf:resource="http://purl.org/dc/dcmitype/StillImage" />
        <dc:title />
      </cc:Work>
    </rdf:RDF>
  </metadata>
  <g
     inkscape:label="Layer 1"
     inkscape:groupmode="layer"
     id="layer1"
     transform="translate(-438.02958,-399.32648)">
    <g
       id="g3102"
       transform="translate(441.46094,402.5854)"
       style="stroke:#ffffff;stroke-opacity:0.49019607999999998;stroke-width:0.3;stroke-miterlimit:4;stroke-dasharray:none" />
    <g
       id="g3104"
       transform="translate(441.46094,402.5854)"
       style="stroke:#ffffff;stroke-opacity:0.49019607999999998;stroke-width:0.3;stroke-miterlimit:4;stroke-dasharray:none" />
    <g
       id="g3106"
       transform="translate(441.46094,402.5854)"
       style="stroke:#ffffff;stroke-opacity:0.49019607999999998;stroke-width:0.3;stroke-miterlimit:4;stroke-dasharray:none" />
    <g
       id="g3108"
       transform="translate(441.46094,402.5854)"
       style="stroke:#ffffff;stroke-opacity:0.49019607999999998;stroke-width:0.3;stroke-miterlimit:4;stroke-dasharray:none" />
    <g
       id="g3110"
       transform="translate(441.46094,402.5854)"
       style="stroke:#ffffff;stroke-opacity:0.49019607999999998;stroke-width:0.3;stroke-miterlimit:4;stroke-dasharray:none" />
    <g
       id="g3112"
       transform="translate(441.46094,402.5854)"
       style="stroke:#ffffff;stroke-opacity:0.49019607999999998;stroke-width:0.3;stroke-miterlimit:4;stroke-dasharray:none" />
    <g
       id="g3114"
       transform="translate(441.46094,402.5854)"
       style="stroke:#ffffff;stroke-opacity:0.49019607999999998;stroke-width:0.3;stroke-miterlimit:4;stroke-dasharray:none" />
    <g
       id="g3116"
       transform="translate(441.46094,402.5854)"
       style="stroke:#ffffff;stroke-opacity:0.49019607999999998;stroke-width:0.3;stroke-miterlimit:4;stroke-dasharray:none" />
    <g
       id="g3118"
       transform="translate(441.46094,402.5854)"
       style="stroke:#ffffff;stroke-opacity:0.49019607999999998;stroke-width:0.3;stroke-miterlimit:4;stroke-dasharray:none" />
    <g
       id="g3120"
       transform="translate(441.46094,402.5854)"
       style="stroke:#ffffff;stroke-opacity:0.49019607999999998;stroke-width:0.3;stroke-miterlimit:4;stroke-dasharray:none" />
    <g
       id="g3122"
       transform="translate(441.46094,402.5854)"
       style="stroke:#ffffff;stroke-opacity:0.49019607999999998;stroke-width:0.3;stroke-miterlimit:4;stroke-dasharray:none" />
    <g
       id="g3124"
       transform="translate(441.46094,402.5854)"
       style="stroke:#ffffff;stroke-opacity:0.49019607999999998;stroke-width:0.3;stroke-miterlimit:4;stroke-dasharray:none" />
    <g
       id="g3126"
       transform="translate(441.46094,402.5854)"
       style="stroke:#ffffff;stroke-opacity:0.49019607999999998;stroke-width:0.3;stroke-miterlimit:4;stroke-dasharray:none" />
    <g
       id="g3128"
       transform="translate(441.46094,402.5854)"
       style="stroke:#ffffff;stroke-opacity:0.49019607999999998;stroke-width:0.3;stroke-miterlimit:4;stroke-dasharray:none" />
    <g
       id="g3130"
       transform="translate(441.46094,402.5854)"
       style="stroke:#ffffff;stroke-opacity:0.49019607999999998;stroke-width:0.3;stroke-miterlimit:4;stroke-dasharray:none" />
    <path
       style="fill:#aa0000;fill-opacity:1;stroke:#ffffff;stroke-width:0.30000001;stroke-linecap:square;stroke-linejoin:round;stroke-miterlimit:4;stroke-opacity:0.49019608;stroke-dasharray:none"
       d="m 442.86443,411.00674 0,-3.4375 0.66964,0 0.66964,0 0,1.36161 0,1.3616 1.38393,0 1.38393,0 0,-1.3616 0,-1.36161 0.69197,0 0.69196,0 0,3.4375 0,3.4375 -0.69196,0 -0.69197,0 0,-1.51786 0,-1.51785 -1.38393,0 -1.38393,0 0,1.51785 0,1.51786 -0.66964,0 -0.66964,0 0,-3.4375 z"
       id="path4572"
       inkscape:connector-curvature="0" />
    <path
       style="fill:#aa0000;fill-opacity:1;stroke:#ffffff;stroke-width:0.30000001;stroke-linecap:square;stroke-linejoin:round;stroke-miterlimit:4;stroke-opacity:0.49019608;stroke-dasharray:none"
       d="m 440.63286,407.07934 c -0.108,-0.22034 -0.18718,-0.40981 -0.17595,-0.42104 0.0112,-0.0112 1.17666,-0.59117 2.58984,-1.28875 l 2.56942,-1.26834 2.57535,1.28783 2.57535,1.28782 -0.20167,0.40155 c -0.11092,0.22085 -0.21159,0.40154 -0.22371,0.40154 -0.0121,0 -1.06653,-0.52232 -2.34313,-1.16071 -1.2766,-0.63839 -2.34871,-1.16071 -2.38245,-1.16071 -0.0337,0 -1.12086,0.52232 -2.4158,1.16071 -1.29495,0.63839 -2.35815,1.16071 -2.36267,1.16071 -0.005,0 -0.0966,-0.18027 -0.20458,-0.40061 z"
       id="path4574"
       inkscape:connector-curvature="0" />
    <path
       style="fill:#aa0000;fill-opacity:1;stroke:#ffffff;stroke-width:0.30000001;stroke-linecap:square;stroke-linejoin:round;stroke-miterlimit:4;stroke-opacity:0.49019608;stroke-dasharray:none"
       d="m 451.88229,409.68978 0,-5.29018 0.20089,0 0.20089,0 0,0.16145 c 0,0.14616 0.01,0.15875 0.10045,0.13283 0.75713,-0.21585 0.99337,-0.22045 1.6704,-0.0325 0.60571,0.16813 0.92283,0.20935 1.14297,0.14857 l 0.16654,-0.046 0,0.92883 0,0.92883 -0.20462,0.0307 c -0.25024,0.0375 -0.43281,0.0105 -1.07761,-0.1596 -0.64463,-0.17003 -0.87006,-0.17086 -1.37402,-0.005 l -0.40179,0.13219 -0.0114,4.18007 -0.0114,4.18006 -0.20066,0 -0.20066,0 0,-5.29018 z"
       id="path4576"
       inkscape:connector-curvature="0" />
  </g>
</svg>
