<?xml version="1.0" encoding="UTF-8" standalone="no"?>
<!-- Created with Inkscape (http://www.inkscape.org/) -->

<svg
   xmlns:dc="http://purl.org/dc/elements/1.1/"
   xmlns:cc="http://creativecommons.org/ns#"
   xmlns:rdf="http://www.w3.org/1999/02/22-rdf-syntax-ns#"
   xmlns:svg="http://www.w3.org/2000/svg"
   xmlns="http://www.w3.org/2000/svg"
   xmlns:sodipodi="http://sodipodi.sourceforge.net/DTD/sodipodi-0.dtd"
   xmlns:inkscape="http://www.inkscape.org/namespaces/inkscape"
   width="20"
   height="20"
   id="svg2"
   version="1.1"
   inkscape:version="0.48.5 r10040"
   sodipodi:docname="helipad_operational.svg">
  <defs
     id="defs4" />
  <sodipodi:namedview
     id="base"
     pagecolor="#ffffff"
     bordercolor="#666666"
     borderopacity="1.0"
     inkscape:pageopacity="0.0"
     inkscape:pageshadow="2"
     inkscape:zoom="31.678384"
     inkscape:cx="12.386996"
     inkscape:cy="9.3698836"
     inkscape:document-units="px"
     inkscape:current-layer="layer1"
     showgrid="false"
     fit-margin-top="0"
     fit-margin-left="0"
     fit-margin-right="0"
     fit-margin-bottom="0"
     inkscape:window-width="1920"
     inkscape:window-height="1018"
     inkscape:window-x="-8"
     inkscape:window-y="-8"
     inkscape:window-maximized="1" />
  <metadata
     id="metadata7">
    <rdf:RDF>
      <cc:Work
         rdf:about="">
        <dc:format>image/svg+xml</dc:format>
        <dc:type
           rdf:resource="http://purl.org/dc/dcmitype/StillImage" />
        <dc:title />
      </cc:Work>
    </rdf:RDF>
  </metadata>
  <g
     inkscape:label="Layer 1"
     inkscape:groupmode="layer"
     id="layer1"
     transform="translate(-438.02958,-399.32648)">
    <g
       id="g3102"
       transform="translate(441.46094,402.5854)"
       style="stroke:#ffffff;stroke-opacity:0.49019607999999998;stroke-width:0.3;stroke-miterlimit:4;stroke-dasharray:none" />
    <g
       id="g3104"
       transform="translate(441.46094,402.5854)"
       style="stroke:#ffffff;stroke-opacity:0.49019607999999998;stroke-width:0.3;stroke-miterlimit:4;stroke-dasharray:none" />
    <g
       id="g3106"
       transform="translate(441.46094,402.5854)"
       style="stroke:#ffffff;stroke-opacity:0.49019607999999998;stroke-width:0.3;stroke-miterlimit:4;stroke-dasharray:none" />
    <g
       id="g3108"
       transform="translate(441.46094,402.5854)"
       style="stroke:#ffffff;stroke-opacity:0.49019607999999998;stroke-width:0.3;stroke-miterlimit:4;stroke-dasharray:none" />
    <g
       id="g3110"
       transform="translate(441.46094,402.5854)"
       style="stroke:#ffffff;stroke-opacity:0.49019607999999998;stroke-width:0.3;stroke-miterlimit:4;stroke-dasharray:none" />
    <g
       id="g3112"
       transform="translate(441.46094,402.5854)"
       style="stroke:#ffffff;stroke-opacity:0.49019607999999998;stroke-width:0.3;stroke-miterlimit:4;stroke-dasharray:none" />
    <g
       id="g3114"
       transform="translate(441.46094,402.5854)"
       style="stroke:#ffffff;stroke-opacity:0.49019607999999998;stroke-width:0.3;stroke-miterlimit:4;stroke-dasharray:none" />
    <g
       id="g3116"
       transform="translate(441.46094,402.5854)"
       style="stroke:#ffffff;stroke-opacity:0.49019607999999998;stroke-width:0.3;stroke-miterlimit:4;stroke-dasharray:none" />
    <g
       id="g3118"
       transform="translate(441.46094,402.5854)"
       style="stroke:#ffffff;stroke-opacity:0.49019607999999998;stroke-width:0.3;stroke-miterlimit:4;stroke-dasharray:none" />
    <g
       id="g3120"
       transform="translate(441.46094,402.5854)"
       style="stroke:#ffffff;stroke-opacity:0.49019607999999998;stroke-width:0.3;stroke-miterlimit:4;stroke-dasharray:none" />
    <g
       id="g3122"
       transform="translate(441.46094,402.5854)"
       style="stroke:#ffffff;stroke-opacity:0.49019607999999998;stroke-width:0.3;stroke-miterlimit:4;stroke-dasharray:none" />
    <g
       id="g3124"
       transform="translate(441.46094,402.5854)"
       style="stroke:#ffffff;stroke-opacity:0.49019607999999998;stroke-width:0.3;stroke-miterlimit:4;stroke-dasharray:none" />
    <g
       id="g3126"
       transform="translate(441.46094,402.5854)"
       style="stroke:#ffffff;stroke-opacity:0.49019607999999998;stroke-width:0.3;stroke-miterlimit:4;stroke-dasharray:none" />
    <g
       id="g3128"
       transform="translate(441.46094,402.5854)"
       style="stroke:#ffffff;stroke-opacity:0.49019607999999998;stroke-width:0.3;stroke-miterlimit:4;stroke-dasharray:none" />
    <g
       id="g3130"
       transform="translate(441.46094,402.5854)"
       style="stroke:#ffffff;stroke-opacity:0.49019607999999998;stroke-width:0.3;stroke-miterlimit:4;stroke-dasharray:none" />
    <g
       id="g4959"
       transform="translate(440.1576,402.1669)"
       style="fill:#333333;stroke:#ffffff;stroke-width:0.30000001;stroke-miterlimit:4;stroke-opacity:0.49019608;stroke-dasharray:none">
      <path
         id="path4921"
         d="m 8.918,12 c -3.361,0 -6.084,0.672 -6.084,1.5 0,0.828 2.723,1.5 6.084,1.5 C 12.277,15 15,14.328 15,13.5 15,12.672 12.277,12 8.918,12 z m 0.088,2.189 c -1.793,0 -3.246,-0.359 -3.246,-0.801 0,-0.443 1.453,-0.801 3.246,-0.801 1.793,0 3.246,0.357 3.246,0.801 0,0.442 -1.453,0.801 -3.246,0.801 z m 5.925,-7.613 c -0.094,-0.089 -0.241,-0.089 -0.336,0 L 13.766,7.422 H 11.537 V 6.406 h 1.894 c 0.181,0 0.359,-0.016 0.53,-0.048 0.173,-0.034 0.317,-0.123 0.433,-0.272 0.1,-0.116 0.15,-0.278 0.15,-0.496 0,-0.15 -0.045,-0.336 -0.126,-0.567 L 13.7,3.313 C 13.471,2.788 13.17,2.42 12.797,2.215 12.427,2.005 12.035,1.905 11.623,1.905 H 8.754 v -1.36 h 0.84 c 0.05,0.084 0.11,0.137 0.176,0.16 0.063,0.027 0.121,0.038 0.17,0.038 h 4.035 c 0.131,0 0.229,-0.037 0.294,-0.11 0.065,-0.073 0.107,-0.16 0.123,-0.26 0,-0.084 -0.031,-0.166 -0.097,-0.247 C 14.228,0.042 14.122,0 13.976,0 H 10.09 C 9.908,0 9.791,0.023 9.732,0.062 9.675,0.105 9.628,0.157 9.594,0.226 h -2.3 C 7.263,0.191 7.226,0.149 7.184,0.1 7.145,0.05 7.065,0.026 6.95,0.026 H 2.867 c -0.065,0 -0.142,0.028 -0.236,0.087 -0.089,0.06 -0.134,0.152 -0.134,0.286 0,0.128 0.045,0.23 0.134,0.294 0.095,0.068 0.166,0.1 0.213,0.1 H 6.95 C 6.981,0.793 7.034,0.779 7.11,0.756 7.184,0.732 7.244,0.67 7.294,0.569 H 8.16 V 1.906 H 2.993 C 2.878,1.625 2.691,1.389 2.437,1.2 2.18,1.011 1.888,0.916 1.558,0.916 1.129,0.916 0.765,1.068 0.457,1.373 0.15,1.678 0,2.045 0,2.476 c 0,0.428 0.15,0.79 0.457,1.087 0.308,0.3 0.672,0.446 1.101,0.446 0.493,0 0.882,-0.181 1.16,-0.546 l 3.365,1.263 0.444,1.11 C 6.592,5.97 6.679,6.096 6.787,6.223 6.895,6.346 7.123,6.406 7.47,6.406 H 8.966 V 7.422 H 6.527 c -0.132,0 -0.239,0.105 -0.239,0.236 0,0.131 0.107,0.236 0.239,0.236 h 7.351 c 0.074,0 0.135,-0.039 0.174,-0.095 l 0.879,-0.887 c 0.092,-0.092 0.092,-0.241 0,-0.336 z M 12.192,2.6 c 0.213,0.062 0.399,0.168 0.555,0.307 0.157,0.142 0.302,0.359 0.436,0.656 0.031,0.1 0.073,0.208 0.123,0.323 0.048,0.112 0.098,0.236 0.147,0.37 H 12.192 V 2.6 z M 1.273,2.872 c 0.121,0.081 0.25,0.147 0.384,0.194 L 2.153,3.265 C 1.97,3.397 1.77,3.463 1.558,3.463 1.277,3.463 1.037,3.368 0.838,3.18 0.641,2.99 0.544,2.757 0.544,2.476 0.544,2.193 0.641,1.959 0.838,1.77 1.037,1.581 1.276,1.487 1.558,1.487 c 0.346,0 0.616,0.139 0.816,0.42 H 1.681 c -0.163,0 -0.305,0.047 -0.42,0.149 -0.115,0.096 -0.171,0.236 -0.171,0.42 0,0.181 0.06,0.312 0.183,0.396 z M 10.46,2.525 h 1.113 V 4.232 H 10.46 V 2.525 z M 8.754,2.549 H 9.843 V 4.256 H 8.754 V 2.549 z m 0.603,3.857 h 1.785 V 7.422 H 9.357 V 6.406 z"
         style="fill:#333333;stroke:#ffffff;stroke-width:0.30000001;stroke-miterlimit:4;stroke-opacity:0.49019608;stroke-dasharray:none"
         inkscape:connector-curvature="0" />
      <g
         id="g4923"
         style="fill:#333333;stroke:#ffffff;stroke-width:0.30000001;stroke-miterlimit:4;stroke-opacity:0.49019608;stroke-dasharray:none" />
      <g
         id="g4925"
         style="fill:#333333;stroke:#ffffff;stroke-width:0.30000001;stroke-miterlimit:4;stroke-opacity:0.49019608;stroke-dasharray:none" />
      <g
         id="g4927"
         style="fill:#333333;stroke:#ffffff;stroke-width:0.30000001;stroke-miterlimit:4;stroke-opacity:0.49019608;stroke-dasharray:none" />
      <g
         id="g4929"
         style="fill:#333333;stroke:#ffffff;stroke-width:0.30000001;stroke-miterlimit:4;stroke-opacity:0.49019608;stroke-dasharray:none" />
      <g
         id="g4931"
         style="fill:#333333;stroke:#ffffff;stroke-width:0.30000001;stroke-miterlimit:4;stroke-opacity:0.49019608;stroke-dasharray:none" />
      <g
         id="g4933"
         style="fill:#333333;stroke:#ffffff;stroke-width:0.30000001;stroke-miterlimit:4;stroke-opacity:0.49019608;stroke-dasharray:none" />
      <g
         id="g4935"
         style="fill:#333333;stroke:#ffffff;stroke-width:0.30000001;stroke-miterlimit:4;stroke-opacity:0.49019608;stroke-dasharray:none" />
      <g
         id="g4937"
         style="fill:#333333;stroke:#ffffff;stroke-width:0.30000001;stroke-miterlimit:4;stroke-opacity:0.49019608;stroke-dasharray:none" />
      <g
         id="g4939"
         style="fill:#333333;stroke:#ffffff;stroke-width:0.30000001;stroke-miterlimit:4;stroke-opacity:0.49019608;stroke-dasharray:none" />
      <g
         id="g4941"
         style="fill:#333333;stroke:#ffffff;stroke-width:0.30000001;stroke-miterlimit:4;stroke-opacity:0.49019608;stroke-dasharray:none" />
      <g
         id="g4943"
         style="fill:#333333;stroke:#ffffff;stroke-width:0.30000001;stroke-miterlimit:4;stroke-opacity:0.49019608;stroke-dasharray:none" />
      <g
         id="g4945"
         style="fill:#333333;stroke:#ffffff;stroke-width:0.30000001;stroke-miterlimit:4;stroke-opacity:0.49019608;stroke-dasharray:none" />
      <g
         id="g4947"
         style="fill:#333333;stroke:#ffffff;stroke-width:0.30000001;stroke-miterlimit:4;stroke-opacity:0.49019608;stroke-dasharray:none" />
      <g
         id="g4949"
         style="fill:#333333;stroke:#ffffff;stroke-width:0.30000001;stroke-miterlimit:4;stroke-opacity:0.49019608;stroke-dasharray:none" />
      <g
         id="g4951"
         style="fill:#333333;stroke:#ffffff;stroke-width:0.30000001;stroke-miterlimit:4;stroke-opacity:0.49019608;stroke-dasharray:none" />
    </g>
  </g>
</svg>
