<?xml version="1.0" encoding="UTF-8" standalone="no"?>
<!-- Created with Inkscape (http://www.inkscape.org/) -->

<svg
   xmlns:dc="http://purl.org/dc/elements/1.1/"
   xmlns:cc="http://creativecommons.org/ns#"
   xmlns:rdf="http://www.w3.org/1999/02/22-rdf-syntax-ns#"
   xmlns:svg="http://www.w3.org/2000/svg"
   xmlns="http://www.w3.org/2000/svg"
   xmlns:sodipodi="http://sodipodi.sourceforge.net/DTD/sodipodi-0.dtd"
   xmlns:inkscape="http://www.inkscape.org/namespaces/inkscape"
   width="20"
   height="20"
   id="svg2"
   version="1.1"
   inkscape:version="0.48.5 r10040"
   sodipodi:docname="hindu_operational.svg">
  <defs
     id="defs4" />
  <sodipodi:namedview
     id="base"
     pagecolor="#ffffff"
     bordercolor="#666666"
     borderopacity="1.0"
     inkscape:pageopacity="0.0"
     inkscape:pageshadow="2"
     inkscape:zoom="11.2"
     inkscape:cx="-1.5415753"
     inkscape:cy="9.3698836"
     inkscape:document-units="px"
     inkscape:current-layer="layer1"
     showgrid="false"
     fit-margin-top="0"
     fit-margin-left="0"
     fit-margin-right="0"
     fit-margin-bottom="0"
     inkscape:window-width="1920"
     inkscape:window-height="1018"
     inkscape:window-x="-8"
     inkscape:window-y="-8"
     inkscape:window-maximized="1" />
  <metadata
     id="metadata7">
    <rdf:RDF>
      <cc:Work
         rdf:about="">
        <dc:format>image/svg+xml</dc:format>
        <dc:type
           rdf:resource="http://purl.org/dc/dcmitype/StillImage" />
        <dc:title />
      </cc:Work>
    </rdf:RDF>
  </metadata>
  <g
     inkscape:label="Layer 1"
     inkscape:groupmode="layer"
     id="layer1"
     transform="translate(-438.02958,-399.32648)">
    <g
       id="g3102"
       transform="translate(441.46094,402.5854)"
       style="stroke:#ffffff;stroke-opacity:0.49019607999999998;stroke-width:0.3;stroke-miterlimit:4;stroke-dasharray:none" />
    <g
       id="g3104"
       transform="translate(441.46094,402.5854)"
       style="stroke:#ffffff;stroke-opacity:0.49019607999999998;stroke-width:0.3;stroke-miterlimit:4;stroke-dasharray:none" />
    <g
       id="g3106"
       transform="translate(441.46094,402.5854)"
       style="stroke:#ffffff;stroke-opacity:0.49019607999999998;stroke-width:0.3;stroke-miterlimit:4;stroke-dasharray:none" />
    <g
       id="g3108"
       transform="translate(441.46094,402.5854)"
       style="stroke:#ffffff;stroke-opacity:0.49019607999999998;stroke-width:0.3;stroke-miterlimit:4;stroke-dasharray:none" />
    <g
       id="g3110"
       transform="translate(441.46094,402.5854)"
       style="stroke:#ffffff;stroke-opacity:0.49019607999999998;stroke-width:0.3;stroke-miterlimit:4;stroke-dasharray:none" />
    <g
       id="g3112"
       transform="translate(441.46094,402.5854)"
       style="stroke:#ffffff;stroke-opacity:0.49019607999999998;stroke-width:0.3;stroke-miterlimit:4;stroke-dasharray:none" />
    <g
       id="g3114"
       transform="translate(441.46094,402.5854)"
       style="stroke:#ffffff;stroke-opacity:0.49019607999999998;stroke-width:0.3;stroke-miterlimit:4;stroke-dasharray:none" />
    <g
       id="g3116"
       transform="translate(441.46094,402.5854)"
       style="stroke:#ffffff;stroke-opacity:0.49019607999999998;stroke-width:0.3;stroke-miterlimit:4;stroke-dasharray:none" />
    <g
       id="g3118"
       transform="translate(441.46094,402.5854)"
       style="stroke:#ffffff;stroke-opacity:0.49019607999999998;stroke-width:0.3;stroke-miterlimit:4;stroke-dasharray:none" />
    <g
       id="g3120"
       transform="translate(441.46094,402.5854)"
       style="stroke:#ffffff;stroke-opacity:0.49019607999999998;stroke-width:0.3;stroke-miterlimit:4;stroke-dasharray:none" />
    <g
       id="g3122"
       transform="translate(441.46094,402.5854)"
       style="stroke:#ffffff;stroke-opacity:0.49019607999999998;stroke-width:0.3;stroke-miterlimit:4;stroke-dasharray:none" />
    <g
       id="g3124"
       transform="translate(441.46094,402.5854)"
       style="stroke:#ffffff;stroke-opacity:0.49019607999999998;stroke-width:0.3;stroke-miterlimit:4;stroke-dasharray:none" />
    <g
       id="g3126"
       transform="translate(441.46094,402.5854)"
       style="stroke:#ffffff;stroke-opacity:0.49019607999999998;stroke-width:0.3;stroke-miterlimit:4;stroke-dasharray:none" />
    <g
       id="g3128"
       transform="translate(441.46094,402.5854)"
       style="stroke:#ffffff;stroke-opacity:0.49019607999999998;stroke-width:0.3;stroke-miterlimit:4;stroke-dasharray:none" />
    <g
       id="g3130"
       transform="translate(441.46094,402.5854)"
       style="stroke:#ffffff;stroke-opacity:0.49019607999999998;stroke-width:0.3;stroke-miterlimit:4;stroke-dasharray:none" />
    <g
       id="g3004"
       transform="translate(443.75494,401.43757)">
      <path
         id="path3006"
         d="M 3.4015749,9.7795277 C 2.3031497,9.6377954 1.3818898,8.8937009 0.77952758,7.6181103 0.63779529,7.3346457 0.46062993,6.9094489 0.38976379,6.6968505 0.28346457,6.3070867 0.10629922,5.3503938 0.14173229,5.2795276 c 0.0354331,0 0.10629921,0 0.17716536,-0.035433 L 0.42519686,5.2086615 0.53149608,5.6338583 C 0.95669294,7.7598426 2.1259843,9.0354332 3.5787402,8.964567 4.1102363,8.9291339 4.5354332,8.6811024 4.7834647,8.1850394 5.0314962,7.7598426 4.925197,6.980315 4.6417324,6.3779528 4.464567,6.0944882 4.0039371,5.492126 3.933071,5.492126 c 0,0 -0.035433,0.070866 -0.070866,0.1062992 C 3.7559056,5.7755906 3.3661418,6.1299213 3.1181103,6.2716536 L 2.8700788,6.4133859 2.7992127,6.2362205 C 2.7637796,6.1653544 2.6929135,5.952756 2.6220473,5.7755906 L 2.480315,5.4212599 2.7637796,5.3503938 C 3.5433072,5.0669292 3.968504,4.5708662 3.933071,3.9330709 3.8976379,3.472441 3.6496064,3.2598426 3.1181103,3.2244095 c -0.3543307,0 -0.6732283,0.070866 -1.1692914,0.2834645 L 1.6299213,3.6496063 1.4527559,3.1535433 1.2401575,2.6574803 1.488189,2.5157481 c 0.5314961,-0.2125985 1.2401575,-0.2125985 1.7716536,0 C 4.0393702,2.8700788 4.464567,3.8622048 4.2165355,4.7834646 4.1811025,5.0314961 4.1811025,5.0314961 4.2519686,5.1023623 4.3582678,5.2086615 4.3582678,5.2086615 4.5354332,5.0669292 5.0669293,4.6771654 5.5275592,4.464567 5.9527561,4.464567 l 0.2834645,0 0.070866,-0.2480315 C 6.4488191,3.6496063 6.7322836,3.2244095 7.1220474,3.0472441 7.2992128,2.9409449 7.3700789,2.9409449 7.7244096,2.9409449 c 0.3897638,0 0.46063,0 0.6732284,0.1062992 0.2834646,0.1771654 0.4251969,0.3188977 0.6023622,0.6732284 0.2480315,0.496063 0.3543307,1.3818898 0.2834646,2.3385827 -0.1062992,1.523622 -0.7440945,2.4448819 -1.7362205,2.4448819 -0.5669292,0 -0.8503937,-0.2125984 -0.992126,-0.7086614 C 6.5196852,7.6535434 6.4842521,7.2637796 6.4488191,6.7322835 6.413386,5.8110237 6.3425198,5.6338583 6.1299214,5.5275591 c -0.1771653,-0.070866 -0.496063,0 -0.8149606,0.1417323 -0.46063,0.2480315 -0.46063,0.2125984 -0.1771654,0.6023622 C 6.1299214,7.7244095 5.8464568,9.2834647 4.5000001,9.6732284 4.1102363,9.8149607 3.7913387,9.8149607 3.4015749,9.7795277 l 0,0 z M 8.0433073,7.476378 C 8.6811026,7.1220473 9.0354333,6.2007875 8.893701,5.2440945 8.7874018,4.6062993 8.5748034,4.1456693 8.1496065,3.8976378 7.9724411,3.7913386 7.901575,3.7913386 7.6181104,3.7913386 c -0.4251968,0 -0.7440945,0.1417323 -0.992126,0.4606299 C 6.4488191,4.5 6.4488191,4.5354331 6.5905513,4.6062993 6.8031498,4.8188977 6.8031498,4.96063 6.8385829,6.0236221 c 0.035433,0.9566929 0.035433,1.0275591 0.1417322,1.2047244 0.1062993,0.2834646 0.2834646,0.3897638 0.6377953,0.3543307 0.1417323,0 0.3188977,-0.070866 0.4251969,-0.1062992 l 0,0 z"
         style="fill:#000000;fill-opacity:1;fill-rule:nonzero;stroke:#ffffff;stroke-width:0.28346458px;stroke-linecap:square;stroke-linejoin:round;stroke-opacity:1;stroke-dasharray:none"
         inkscape:connector-curvature="0" />
      <path
         id="path3008"
         d="M 4.8188978,2.6220473 C 4.464567,2.5511811 4.0039371,2.2677166 3.6496064,1.9133858 3.1535434,1.4173228 3.1535434,1.3818898 3.3307087,1.2755906 L 3.472441,1.1692913 3.6850395,1.3818898 C 3.968504,1.6653543 4.2519686,1.8070866 4.6062993,1.8779528 5.1732285,1.984252 5.5984253,1.8070866 6.0236222,1.3818898 L 6.2362206,1.1692913 6.5905513,1.488189 c 0.2125985,0.2125984 0.3543308,0.3897638 0.3543308,0.3897638 0,0.1062992 -0.496063,0.4606299 -0.8149607,0.6377953 C 5.8818899,2.6574803 5.8110238,2.6574803 5.42126,2.6574803 c -0.2480315,0.035433 -0.496063,0 -0.6023622,-0.035433 z"
         style="fill:#000000;fill-opacity:1;fill-rule:nonzero;stroke:#ffffff;stroke-width:0.28346458px;stroke-linecap:square;stroke-linejoin:round;stroke-opacity:1;stroke-dasharray:none"
         inkscape:connector-curvature="0" />
      <path
         id="path3010"
         d="M 4.6417324,1.0275591 4.3228348,0.7440945 4.5708663,0.496063 C 5.0314962,0.10629921 4.9960631,0.10629921 5.2086615,0.35433071 5.3149608,0.46062993 5.4566931,0.63779528 5.4921261,0.70866142 L 5.5984253,0.81496064 5.3503938,1.0629921 C 5.2086615,1.1692913 5.0669293,1.2755906 5.0314962,1.3110236 c -0.035433,0 -0.1771654,-0.1062992 -0.3897638,-0.2834645 l 0,0 z"
         style="fill:#000000;fill-opacity:1;fill-rule:nonzero;stroke:#ffffff;stroke-width:0.28346458px;stroke-linecap:square;stroke-linejoin:round;stroke-opacity:1;stroke-dasharray:none"
         inkscape:connector-curvature="0" />
      <path
         id="path3012"
         d="m 0.74409451,13.110236 0,-1.948819 3.96850399,0 3.9685041,0 0,1.948819 0,1.948819 -3.9685041,0 -3.96850399,0 0,-1.948819 z"
         style="fill:#000000;fill-opacity:1;fill-rule:nonzero;stroke:#ffffff;stroke-width:0.28346458px;stroke-linecap:square;stroke-linejoin:round;stroke-opacity:1;stroke-dasharray:none"
         inkscape:connector-curvature="0" />
    </g>
  </g>
</svg>
