<?xml version="1.0" encoding="UTF-8" standalone="no"?>
<!-- Created with Inkscape (http://www.inkscape.org/) -->

<svg
   xmlns:dc="http://purl.org/dc/elements/1.1/"
   xmlns:cc="http://creativecommons.org/ns#"
   xmlns:rdf="http://www.w3.org/1999/02/22-rdf-syntax-ns#"
   xmlns:svg="http://www.w3.org/2000/svg"
   xmlns="http://www.w3.org/2000/svg"
   xmlns:sodipodi="http://sodipodi.sourceforge.net/DTD/sodipodi-0.dtd"
   xmlns:inkscape="http://www.inkscape.org/namespaces/inkscape"
   width="20"
   height="20"
   id="svg2"
   version="1.1"
   inkscape:version="0.48.5 r10040"
   sodipodi:docname="kindergarden_operational.svg">
  <defs
     id="defs4" />
  <sodipodi:namedview
     id="base"
     pagecolor="#ffffff"
     bordercolor="#666666"
     borderopacity="1.0"
     inkscape:pageopacity="0.0"
     inkscape:pageshadow="2"
     inkscape:zoom="11.2"
     inkscape:cx="-1.5415753"
     inkscape:cy="9.3698836"
     inkscape:document-units="px"
     inkscape:current-layer="layer1"
     showgrid="false"
     fit-margin-top="0"
     fit-margin-left="0"
     fit-margin-right="0"
     fit-margin-bottom="0"
     inkscape:window-width="1920"
     inkscape:window-height="1018"
     inkscape:window-x="-8"
     inkscape:window-y="-8"
     inkscape:window-maximized="1" />
  <metadata
     id="metadata7">
    <rdf:RDF>
      <cc:Work
         rdf:about="">
        <dc:format>image/svg+xml</dc:format>
        <dc:type
           rdf:resource="http://purl.org/dc/dcmitype/StillImage" />
        <dc:title />
      </cc:Work>
    </rdf:RDF>
  </metadata>
  <g
     inkscape:label="Layer 1"
     inkscape:groupmode="layer"
     id="layer1"
     transform="translate(-438.02958,-399.32648)">
    <g
       id="g3102"
       transform="translate(441.46094,402.5854)"
       style="stroke:#ffffff;stroke-opacity:0.49019607999999998;stroke-width:0.3;stroke-miterlimit:4;stroke-dasharray:none" />
    <g
       id="g3104"
       transform="translate(441.46094,402.5854)"
       style="stroke:#ffffff;stroke-opacity:0.49019607999999998;stroke-width:0.3;stroke-miterlimit:4;stroke-dasharray:none" />
    <g
       id="g3106"
       transform="translate(441.46094,402.5854)"
       style="stroke:#ffffff;stroke-opacity:0.49019607999999998;stroke-width:0.3;stroke-miterlimit:4;stroke-dasharray:none" />
    <g
       id="g3108"
       transform="translate(441.46094,402.5854)"
       style="stroke:#ffffff;stroke-opacity:0.49019607999999998;stroke-width:0.3;stroke-miterlimit:4;stroke-dasharray:none" />
    <g
       id="g3110"
       transform="translate(441.46094,402.5854)"
       style="stroke:#ffffff;stroke-opacity:0.49019607999999998;stroke-width:0.3;stroke-miterlimit:4;stroke-dasharray:none" />
    <g
       id="g3112"
       transform="translate(441.46094,402.5854)"
       style="stroke:#ffffff;stroke-opacity:0.49019607999999998;stroke-width:0.3;stroke-miterlimit:4;stroke-dasharray:none" />
    <g
       id="g3114"
       transform="translate(441.46094,402.5854)"
       style="stroke:#ffffff;stroke-opacity:0.49019607999999998;stroke-width:0.3;stroke-miterlimit:4;stroke-dasharray:none" />
    <g
       id="g3116"
       transform="translate(441.46094,402.5854)"
       style="stroke:#ffffff;stroke-opacity:0.49019607999999998;stroke-width:0.3;stroke-miterlimit:4;stroke-dasharray:none" />
    <g
       id="g3118"
       transform="translate(441.46094,402.5854)"
       style="stroke:#ffffff;stroke-opacity:0.49019607999999998;stroke-width:0.3;stroke-miterlimit:4;stroke-dasharray:none" />
    <g
       id="g3120"
       transform="translate(441.46094,402.5854)"
       style="stroke:#ffffff;stroke-opacity:0.49019607999999998;stroke-width:0.3;stroke-miterlimit:4;stroke-dasharray:none" />
    <g
       id="g3122"
       transform="translate(441.46094,402.5854)"
       style="stroke:#ffffff;stroke-opacity:0.49019607999999998;stroke-width:0.3;stroke-miterlimit:4;stroke-dasharray:none" />
    <g
       id="g3124"
       transform="translate(441.46094,402.5854)"
       style="stroke:#ffffff;stroke-opacity:0.49019607999999998;stroke-width:0.3;stroke-miterlimit:4;stroke-dasharray:none" />
    <g
       id="g3126"
       transform="translate(441.46094,402.5854)"
       style="stroke:#ffffff;stroke-opacity:0.49019607999999998;stroke-width:0.3;stroke-miterlimit:4;stroke-dasharray:none" />
    <g
       id="g3128"
       transform="translate(441.46094,402.5854)"
       style="stroke:#ffffff;stroke-opacity:0.49019607999999998;stroke-width:0.3;stroke-miterlimit:4;stroke-dasharray:none" />
    <g
       id="g3130"
       transform="translate(441.46094,402.5854)"
       style="stroke:#ffffff;stroke-opacity:0.49019607999999998;stroke-width:0.3;stroke-miterlimit:4;stroke-dasharray:none" />
    <g
       id="g5904"
       transform="translate(442.25198,401.82951)"
       style="stroke:#ffffff;stroke-width:0;stroke-miterlimit:4;stroke-opacity:0.49019608;stroke-dasharray:none">
      <path
         id="path5866"
         d="m 9.88,2.266 c -0.735,0 -1.33,0.594 -1.33,1.326 0,0.734 0.595,1.328 1.33,1.328 0.731,0 1.326,-0.594 1.326,-1.328 0,-0.733 -0.595,-1.326 -1.326,-1.326 z m 2.402,7.562 C 12.132,9.892 11.957,9.818 11.892,9.67 L 11.273,7.086 11.188,9.832 h -0.002 l 0.246,4.541 c 0.016,0.273 -0.188,0.51 -0.461,0.529 -0.013,0.002 -0.024,0.002 -0.037,0.002 -0.258,0 -0.478,-0.199 -0.492,-0.461 L 9.877,10.158 9.316,14.443 c -0.021,0.262 -0.238,0.461 -0.497,0.461 -0.011,0 -0.022,0 -0.036,-0.002 -0.271,-0.02 -0.478,-0.256 -0.46,-0.529 L 8.565,9.832 8.482,7.086 c 0,0 -1.649,1.662 -1.752,1.707 C 6.55,8.869 6.343,8.785 6.266,8.605 L 4.926,5.689 5.942,10.615 H 4.962 L 4.659,14.646 C 4.659,14.84 4.5,15 4.308,15 4.109,15 3.953,14.84 3.953,14.646 L 3.65,10.615 H 3.473 3.294 L 2.992,14.646 C 2.992,14.84 2.835,15 2.637,15 2.444,15 2.285,14.84 2.285,14.646 L 1.981,10.615 H 1.002 L 2.017,5.689 0.678,8.605 C 0.602,8.785 0.393,8.869 0.213,8.793 0.035,8.717 -0.049,8.51 0.029,8.328 c 0,0 0.796,-2.895 1.164,-3.648 C 1.56,3.927 1.927,3.469 3.328,3.469 h 0.145 0.144 c 1.399,0 1.768,0.458 2.135,1.211 0.27,0.551 0.764,2.24 1.012,3.111 C 7.12,7.305 7.604,6.619 7.788,6.236 8.099,5.599 8.579,5.216 9.759,5.216 h 0.24 c 1.181,0 1.658,0.383 1.971,1.02 0.311,0.633 0.472,3.201 0.472,3.201 0.064,0.155 -0.008,0.327 -0.16,0.391 z M 5.729,2.465 C 5.729,2.846 5.407,3.154 5.006,3.154 4.727,3.154 4.492,2.999 4.372,2.777 4.1,3.002 3.765,3.154 3.384,3.154 3.001,3.154 2.667,3.002 2.394,2.777 2.273,2.999 2.038,3.154 1.76,3.154 1.36,3.154 1.037,2.845 1.037,2.465 1.037,2.085 1.359,1.776 1.76,1.776 1.79,1.776 1.818,1.79 1.848,1.794 1.837,1.72 1.804,1.654 1.804,1.577 1.804,0.706 2.511,0 3.384,0 4.256,0 4.962,0.706 4.962,1.577 4.962,1.654 4.93,1.72 4.919,1.793 4.948,1.789 4.976,1.775 5.007,1.775 c 0.4,0 0.722,0.31 0.722,0.69 z"
         style="fill:#010002;stroke:#ffffff;stroke-width:0;stroke-miterlimit:4;stroke-opacity:0.49019608;stroke-dasharray:none"
         inkscape:connector-curvature="0" />
      <g
         id="g5868"
         style="stroke:#ffffff;stroke-width:0;stroke-miterlimit:4;stroke-opacity:0.49019608;stroke-dasharray:none" />
      <g
         id="g5870"
         style="stroke:#ffffff;stroke-width:0;stroke-miterlimit:4;stroke-opacity:0.49019608;stroke-dasharray:none" />
      <g
         id="g5872"
         style="stroke:#ffffff;stroke-width:0;stroke-miterlimit:4;stroke-opacity:0.49019608;stroke-dasharray:none" />
      <g
         id="g5874"
         style="stroke:#ffffff;stroke-width:0;stroke-miterlimit:4;stroke-opacity:0.49019608;stroke-dasharray:none" />
      <g
         id="g5876"
         style="stroke:#ffffff;stroke-width:0;stroke-miterlimit:4;stroke-opacity:0.49019608;stroke-dasharray:none" />
      <g
         id="g5878"
         style="stroke:#ffffff;stroke-width:0;stroke-miterlimit:4;stroke-opacity:0.49019608;stroke-dasharray:none" />
      <g
         id="g5880"
         style="stroke:#ffffff;stroke-width:0;stroke-miterlimit:4;stroke-opacity:0.49019608;stroke-dasharray:none" />
      <g
         id="g5882"
         style="stroke:#ffffff;stroke-width:0;stroke-miterlimit:4;stroke-opacity:0.49019608;stroke-dasharray:none" />
      <g
         id="g5884"
         style="stroke:#ffffff;stroke-width:0;stroke-miterlimit:4;stroke-opacity:0.49019608;stroke-dasharray:none" />
      <g
         id="g5886"
         style="stroke:#ffffff;stroke-width:0;stroke-miterlimit:4;stroke-opacity:0.49019608;stroke-dasharray:none" />
      <g
         id="g5888"
         style="stroke:#ffffff;stroke-width:0;stroke-miterlimit:4;stroke-opacity:0.49019608;stroke-dasharray:none" />
      <g
         id="g5890"
         style="stroke:#ffffff;stroke-width:0;stroke-miterlimit:4;stroke-opacity:0.49019608;stroke-dasharray:none" />
      <g
         id="g5892"
         style="stroke:#ffffff;stroke-width:0;stroke-miterlimit:4;stroke-opacity:0.49019608;stroke-dasharray:none" />
      <g
         id="g5894"
         style="stroke:#ffffff;stroke-width:0;stroke-miterlimit:4;stroke-opacity:0.49019608;stroke-dasharray:none" />
      <g
         id="g5896"
         style="stroke:#ffffff;stroke-width:0;stroke-miterlimit:4;stroke-opacity:0.49019608;stroke-dasharray:none" />
    </g>
    <path
       style="fill:#16502d;fill-opacity:1;stroke:#ffffff;stroke-width:0.30000001;stroke-linecap:square;stroke-linejoin:round;stroke-miterlimit:4;stroke-opacity:0.49019608;stroke-dasharray:none"
       d="m 444.66335,416.68729 c -0.0904,-0.0962 -0.10495,-0.22108 -0.25077,-2.15013 -0.0851,-1.12638 -0.1548,-2.06483 -0.1548,-2.08545 0,-0.0206 -0.22092,-0.0375 -0.49093,-0.0375 l -0.49092,0 0.026,-0.10364 c 0.0143,-0.057 0.23574,-1.12595 0.49207,-2.37544 0.25634,-1.24949 0.47684,-2.3066 0.48999,-2.34914 0.0132,-0.0425 0.008,-0.0767 -0.0122,-0.0758 -0.0199,8.4e-4 -0.26359,0.50299 -0.5416,1.1159 -0.85131,1.87684 -0.87266,1.91845 -1.00874,1.96589 -0.15431,0.0538 -0.29409,0.002 -0.38968,-0.1436 -0.0726,-0.11078 -0.0677,-0.14018 0.15427,-0.91941 0.38153,-1.3397 0.79696,-2.59413 0.99922,-3.01727 0.24348,-0.50938 0.50798,-0.80774 0.85351,-0.96281 0.37892,-0.17005 0.65349,-0.21184 1.39949,-0.213 0.80332,-0.001 1.19297,0.0749 1.53456,0.3001 0.53687,0.35386 0.79018,0.8886 1.42976,3.01822 0.27322,0.90975 0.30963,1.01281 0.34343,0.97209 0.13628,-0.16418 0.77675,-1.12818 0.93714,-1.41053 0.2821,-0.4966 0.39643,-0.6441 0.61672,-0.79566 0.32497,-0.22359 0.68729,-0.31697 1.32847,-0.3424 0.95996,-0.0381 1.51192,0.10594 1.9023,0.49632 0.26062,0.26062 0.38885,0.48749 0.48144,0.85173 0.17125,0.67369 0.41576,2.94678 0.33351,3.10046 -0.10471,0.19566 -0.37548,0.16341 -0.46511,-0.0554 -0.0314,-0.0766 -0.18115,-0.66639 -0.33279,-1.31052 -0.15163,-0.64413 -0.29317,-1.19003 -0.31452,-1.21313 -0.0226,-0.0244 -0.0401,0.11437 -0.0418,0.33146 -0.002,0.20539 -0.0194,0.81096 -0.0394,1.34571 -0.0309,0.82713 -0.0175,1.32112 0.0897,3.30906 0.13917,2.58038 0.14021,2.55867 -0.13002,2.69842 -0.27343,0.1414 -0.57611,0.0263 -0.66229,-0.25193 -0.0244,-0.0786 -0.16899,-1.10243 -0.32144,-2.2752 -0.15244,-1.17277 -0.28989,-2.11742 -0.30544,-2.09922 -0.0155,0.0182 -0.15313,0.99762 -0.30573,2.1765 -0.1526,1.17888 -0.3048,2.19691 -0.33823,2.26227 -0.16421,0.32111 -0.59872,0.34439 -0.79642,0.0427 -0.0922,-0.14071 -0.0912,-0.19957 0.0493,-2.82557 0.0981,-1.83292 0.1057,-2.19868 0.0678,-3.25796 -0.0235,-0.65628 -0.0432,-1.27097 -0.0438,-1.36596 l -0.001,-0.17271 -0.88125,0.86878 c -0.48468,0.47782 -0.91723,0.87112 -0.96122,0.874 -0.13579,0.009 -0.20979,-0.0107 -0.2814,-0.0747 -0.0379,-0.0338 -0.37595,-0.73053 -0.7513,-1.54828 -0.37535,-0.81774 -0.68774,-1.45949 -0.6942,-1.4261 -0.006,0.0334 0.20733,1.12048 0.47509,2.41577 0.26775,1.29528 0.48683,2.37417 0.48683,2.39753 0,0.0246 -0.20135,0.0425 -0.47712,0.0425 l -0.47712,0 -0.14797,2.02188 c -0.0877,1.19843 -0.17119,2.07974 -0.20498,2.16395 -0.0911,0.22712 -0.44192,0.25684 -0.55425,0.0469 -0.0431,-0.0805 -0.34104,-3.59516 -0.34664,-4.08914 -0.002,-0.14031 -0.006,-0.14364 -0.1985,-0.14364 -0.18793,0 -0.19792,0.007 -0.21988,0.14364 -0.0127,0.079 -0.0842,0.98884 -0.15896,2.02188 -0.0748,1.03304 -0.14723,1.91803 -0.16101,1.96664 -0.0715,0.25229 -0.36107,0.32827 -0.53709,0.14091 l 0,0 z"
       id="path5922"
       inkscape:connector-curvature="0" />
    <path
       style="fill:#16502d;fill-opacity:1;stroke:#ffffff;stroke-width:0.30000001;stroke-linecap:square;stroke-linejoin:round;stroke-miterlimit:4;stroke-opacity:0.49019608;stroke-dasharray:none"
       d="m 443.68414,404.86799 c -0.24244,-0.1218 -0.36598,-0.34089 -0.34435,-0.61068 0.0101,-0.12606 0.0553,-0.27557 0.10337,-0.34186 0.10952,-0.15106 0.43251,-0.31164 0.57287,-0.2848 0.10288,0.0197 0.1069,0.0124 0.0814,-0.14677 -0.0303,-0.1898 0.0457,-0.56162 0.16246,-0.79415 0.10523,-0.20957 0.38764,-0.49488 0.6233,-0.62971 0.76934,-0.44015 1.74073,-0.1238 2.15753,0.70263 0.0853,0.16915 0.10928,0.28569 0.11036,0.5363 0.001,0.31294 0.004,0.3202 0.11354,0.32041 0.0617,1.2e-4 0.2009,0.045 0.30936,0.0996 0.24951,0.12583 0.42197,0.43363 0.37706,0.67301 -0.0576,0.30696 -0.36431,0.55338 -0.68882,0.55338 -0.21205,0 -0.32268,-0.0496 -0.51364,-0.23016 l -0.1387,-0.13117 -0.17066,0.11266 c -0.50492,0.33331 -1.11922,0.33253 -1.62605,-0.002 l -0.17377,-0.11472 -0.0736,0.0909 c -0.21123,0.26085 -0.58752,0.34499 -0.88174,0.19717 l 0,0 z"
       id="path5924"
       inkscape:connector-curvature="0" />
    <path
       style="fill:#16502d;fill-opacity:1;stroke:#ffffff;stroke-width:0.30000001;stroke-linecap:square;stroke-linejoin:round;stroke-miterlimit:4;stroke-opacity:0.49019608;stroke-dasharray:none"
       d="m 451.71325,406.64936 c -0.37643,-0.13427 -0.70348,-0.4699 -0.82926,-0.851 -0.0787,-0.23841 -0.0339,-0.70721 0.0914,-0.95592 0.38946,-0.77334 1.42452,-0.94918 2.04764,-0.34785 0.43466,0.41946 0.5256,1.06049 0.22475,1.58415 -0.29185,0.508 -0.9862,0.7662 -1.53452,0.57062 z"
       id="path5926"
       inkscape:connector-curvature="0" />
  </g>
</svg>
