<svg version="1.1" id="svg2" inkscape:version="0.48.5 r10040" sodipodi:docname="waste_disposal_operational.svg" xmlns:cc="http://creativecommons.org/ns#" xmlns:dc="http://purl.org/dc/elements/1.1/" xmlns:inkscape="http://www.inkscape.org/namespaces/inkscape" xmlns:rdf="http://www.w3.org/1999/02/22-rdf-syntax-ns#" xmlns:sodipodi="http://sodipodi.sourceforge.net/DTD/sodipodi-0.dtd" xmlns:svg="http://www.w3.org/2000/svg" xmlns="http://www.w3.org/2000/svg" xlink="http://www.w3.org/1999/xlink" x="0px" y="0px" viewBox="0 0 20 20" style="enable-background:new 0 0 20 20;" space="preserve" width="20" height="20">
<style type="text/css">
	.st0{fill:#1A1A1A;stroke:#FFFFFF;stroke-width:0.2;stroke-linecap:square;stroke-linejoin:round;stroke-opacity:0.4902;}
	
		.st1{fill-rule:evenodd;clip-rule:evenodd;fill:#1A1A1A;stroke:#A1A1A1;stroke-width:0.1;stroke-linecap:square;stroke-linejoin:round;}
</style>
<sodipodi:namedview bordercolor="#666666" borderopacity="1.0" fit-margin-bottom="0" fit-margin-left="0" fit-margin-right="0" fit-margin-top="0" id="base" inkscape:current-layer="layer1" inkscape:cx="12.386996" inkscape:cy="9.3698836" inkscape:document-units="px" inkscape:pageopacity="0.0" inkscape:pageshadow="2" inkscape:window-height="1018" inkscape:window-maximized="1" inkscape:window-width="1920" inkscape:window-x="-8" inkscape:window-y="-8" inkscape:zoom="31.678384" pagecolor="#ffffff" showgrid="false">
	</sodipodi:namedview>
<g>
	<path class="st0" d="M5.3,10.2l1.3-2L9.1,8l2.5,2l2.5-0.5l1.7,1.2l1.2-0.1l2.1,3.7L0.7,14.5l2.4-4.2L5.3,10.2L5.3,10.2z M3,12.4
		l0.6,0.1v-0.6L3,12.1L3,12.4z M4.1,13.7l-0.3-0.6L3.1,13L3,13.3l0.5,0.3H4.1z M5.2,12.5l-0.3-0.7l-0.8,0.3L4,12.6l0.6,0.1L5.2,12.5
		z M17,12.8l-0.8-0.2c-0.1,0.1-0.6,0.4-0.6,0.4l1.5,0.8L17,12.8z M15.5,11.7l0.2,0.4l0.8-0.2L15.5,11.7z M11.2,12.5l-0.3,0.3
		c0.4,0.4,1.3,0.4,1.7,0.8c0.1,0.1,0.2,0.2,0.2,0.3c0.1,0.1,0.3,0.2,0.4,0l0.9-0.9c0.2-0.2,0.2-0.5,0-0.7c-0.1-0.1-0.1-0.1-0.2-0.2
		c-0.6-0.4-1.5-0.3-1.8-0.6l-0.3,0.3c0,0,0.2,0.2,0.5,0.3c-0.3,0.3-0.6,0.6-0.6,0.6S11.5,12.7,11.2,12.5z M10.7,11.4l0.6,0.6
		l0.1-0.8L11.1,11L10.7,11.4z M9.7,13.1c-0.2-0.1-0.4-0.3-0.5-0.5C9.1,12.7,9,12.8,9,12.9c-0.1,0.1-0.1,0.3-0.1,0.4
		c0.2,0,0.4,0.1,0.6,0.2c0.2,0.1,0.4,0.3,0.5,0.5c0.1-0.1,0.2-0.2,0.3-0.3c0.1-0.1,0.1-0.2,0.1-0.3C10.1,13.3,9.9,13.2,9.7,13.1z
		 M7.9,10.8l-1,1.4c-0.1,0.1-0.1,0.3,0.1,0.5L7.5,13C7.7,13.1,7.9,13.1,8,13l1-1.4c0.1-0.2,0.1-0.5,0-0.7l0,0l0.3-0.4l0.1,0l0.2-0.2
		L9,10l-0.2,0.2l0.1,0l-0.3,0.4l0,0C8.3,10.6,8.1,10.6,7.9,10.8z M6.7,10.1l0.4,0.6L7.8,10L7.6,9.7L6.7,10.1z"/>
	<g>
		<g>
			<path class="st1" d="M8.2,5.3c0,0,0.1,0,0.1,0c0.1,0,0.1,0,0.2-0.1c0.3-0.4,0.4-0.8,0.3-1.1c0-0.2-0.1-0.3-0.2-0.4
				c-0.1-0.1-0.3-0.1-0.3,0c0,0.1,0,0.2,0,0.2c0,0,0.1,0.1,0.1,0.2c0,0.2-0.1,0.5-0.3,0.8C8.1,5.1,8.1,5.2,8.2,5.3 M11.4,6.9
				c0.1,0,0.1,0.1,0.1,0.2c0.1,0.2,0,0.5-0.1,0.8c0,0.1,0,0.2,0.1,0.3c0,0,0.1,0,0.1,0c0.1,0,0.1,0,0.2-0.1c0.2-0.4,0.3-0.8,0.1-1.1
				c-0.1-0.2-0.2-0.3-0.3-0.3c-0.1-0.1-0.3,0-0.3,0.1C11.3,6.7,11.4,6.8,11.4,6.9 M4.1,7.7C4.1,7.7,4.2,7.7,4.1,7.7
				c0.2,0,0.2,0,0.3-0.1c0.1-0.1,0-0.2-0.1-0.3c0,0-0.2-0.1-0.2-0.3c0-0.2,0-0.5,0.3-0.8c0.3-0.4,0.4-0.8,0.3-1.1
				c0-0.2-0.1-0.3-0.2-0.4c-0.1-0.1-0.3-0.1-0.3,0c0,0.1,0,0.2,0,0.2c0,0,0.1,0.1,0.1,0.2C4.3,5.5,4.3,5.8,4,6
				C3.7,6.4,3.6,6.8,3.7,7.1C3.8,7.5,4.1,7.7,4.1,7.7"/>
		</g>
	</g>
</g>
</svg>
