<svg version="1.1" id="svg2" inkscape:version="0.48.5 r10040" sodipodi:docname="clinic_operational.svg" xmlns:cc="http://creativecommons.org/ns#" xmlns:dc="http://purl.org/dc/elements/1.1/" xmlns:inkscape="http://www.inkscape.org/namespaces/inkscape" xmlns:rdf="http://www.w3.org/1999/02/22-rdf-syntax-ns#" xmlns:sodipodi="http://sodipodi.sourceforge.net/DTD/sodipodi-0.dtd" xmlns:svg="http://www.w3.org/2000/svg" xmlns="http://www.w3.org/2000/svg" xlink="http://www.w3.org/1999/xlink" x="0px" y="0px" viewBox="0 0 20 20" style="enable-background:new 0 0 20 20;" space="preserve" width="20" height="20">
<style type="text/css">
	.st0{fill:#AA0000;stroke:#FFFFFF;stroke-width:0.3;stroke-opacity:0.4902;}
</style>
<sodipodi:namedview bordercolor="#666666" borderopacity="1.0" fit-margin-bottom="0" fit-margin-left="0" fit-margin-right="0" fit-margin-top="0" id="base" inkscape:current-layer="layer1" inkscape:cx="-1.5415753" inkscape:cy="9.8392633" inkscape:document-units="px" inkscape:pageopacity="0.0" inkscape:pageshadow="2" inkscape:window-height="1018" inkscape:window-maximized="1" inkscape:window-width="1920" inkscape:window-x="-8" inkscape:window-y="-8" inkscape:zoom="31.678384" pagecolor="#ffffff" showgrid="false">
	</sodipodi:namedview>
<g id="layer1" transform="translate(-438.02958,-399.32648)" inkscape:groupmode="layer" inkscape:label="Layer 1">
	<g id="g3102" transform="translate(441.46094,402.5854)">
	</g>
	<g id="g3104" transform="translate(441.46094,402.5854)">
	</g>
	<g id="g3106" transform="translate(441.46094,402.5854)">
	</g>
	<g id="g3108" transform="translate(441.46094,402.5854)">
	</g>
	<g id="g3110" transform="translate(441.46094,402.5854)">
	</g>
	<g id="g3112" transform="translate(441.46094,402.5854)">
	</g>
	<g id="g3114" transform="translate(441.46094,402.5854)">
	</g>
	<g id="g3116" transform="translate(441.46094,402.5854)">
	</g>
	<g id="g3118" transform="translate(441.46094,402.5854)">
	</g>
	<g id="g3120" transform="translate(441.46094,402.5854)">
	</g>
	<g id="g3122" transform="translate(441.46094,402.5854)">
	</g>
	<g id="g3124" transform="translate(441.46094,402.5854)">
	</g>
	<g id="g3126" transform="translate(441.46094,402.5854)">
	</g>
	<g id="g3128" transform="translate(441.46094,402.5854)">
	</g>
	<g id="g3130" transform="translate(441.46094,402.5854)">
	</g>
	<g id="g4440" transform="translate(440.59955,401.37771)">
		<path id="path4402" inkscape:connector-curvature="0" class="st0" d="M9,12.8c-0.4,0.3-0.8,0.5-1.3,0.5c-0.7,0-1.3-0.3-1.7-0.8
			C5.5,12,5.3,11.2,5.3,9.9c0-1.2,0.2-2,0.7-2.5c0.4-0.5,1-0.8,1.7-0.8c0.5,0,1,0.1,1.3,0.4c0.4,0.3,0.6,0.7,0.7,1.2l1.9-0.5
			c-0.2-0.8-0.6-1.4-1-1.8C10,5.3,9,5,7.8,5C6.5,5,5.4,5.4,4.5,6.3s-1.2,2.1-1.2,3.8c0,1.5,0.4,2.7,1.2,3.6C5.4,14.6,6.4,15,7.7,15
			c1,0,1.9-0.3,2.6-0.8c0.7-0.5,1.2-1.3,1.4-2.4l-1.9-0.6C9.7,12,9.4,12.5,9,12.8z"/>
		<g id="g4404">
		</g>
		<g id="g4406">
		</g>
		<g id="g4408">
		</g>
		<g id="g4410">
		</g>
		<g id="g4412">
		</g>
		<g id="g4414">
		</g>
		<g id="g4416">
		</g>
		<g id="g4418">
		</g>
		<g id="g4420">
		</g>
		<g id="g4422">
		</g>
		<g id="g4424">
		</g>
		<g id="g4426">
		</g>
		<g id="g4428">
		</g>
		<g id="g4430">
		</g>
		<g id="g4432">
		</g>
	</g>
</g>
</svg>
