<?xml version="1.0" encoding="UTF-8" standalone="no"?>
<!-- Created with Inkscape (http://www.inkscape.org/) -->

<svg
   xmlns:dc="http://purl.org/dc/elements/1.1/"
   xmlns:cc="http://creativecommons.org/ns#"
   xmlns:rdf="http://www.w3.org/1999/02/22-rdf-syntax-ns#"
   xmlns:svg="http://www.w3.org/2000/svg"
   xmlns="http://www.w3.org/2000/svg"
   xmlns:sodipodi="http://sodipodi.sourceforge.net/DTD/sodipodi-0.dtd"
   xmlns:inkscape="http://www.inkscape.org/namespaces/inkscape"
   width="20"
   height="20"
   id="svg2"
   version="1.1"
   inkscape:version="0.48.5 r10040"
   sodipodi:docname="nursery_operational.svg">
  <defs
     id="defs4" />
  <sodipodi:namedview
     id="base"
     pagecolor="#ffffff"
     bordercolor="#666666"
     borderopacity="1.0"
     inkscape:pageopacity="0.0"
     inkscape:pageshadow="2"
     inkscape:zoom="11.2"
     inkscape:cx="-1.5415753"
     inkscape:cy="9.3698836"
     inkscape:document-units="px"
     inkscape:current-layer="layer1"
     showgrid="false"
     fit-margin-top="0"
     fit-margin-left="0"
     fit-margin-right="0"
     fit-margin-bottom="0"
     inkscape:window-width="1920"
     inkscape:window-height="1018"
     inkscape:window-x="-8"
     inkscape:window-y="-8"
     inkscape:window-maximized="1" />
  <metadata
     id="metadata7">
    <rdf:RDF>
      <cc:Work
         rdf:about="">
        <dc:format>image/svg+xml</dc:format>
        <dc:type
           rdf:resource="http://purl.org/dc/dcmitype/StillImage" />
        <dc:title />
      </cc:Work>
    </rdf:RDF>
  </metadata>
  <g
     inkscape:label="Layer 1"
     inkscape:groupmode="layer"
     id="layer1"
     transform="translate(-438.02958,-399.32648)">
    <g
       id="g3102"
       transform="translate(441.46094,402.5854)"
       style="stroke:#ffffff;stroke-opacity:0.49019607999999998;stroke-width:0.3;stroke-miterlimit:4;stroke-dasharray:none" />
    <g
       id="g3104"
       transform="translate(441.46094,402.5854)"
       style="stroke:#ffffff;stroke-opacity:0.49019607999999998;stroke-width:0.3;stroke-miterlimit:4;stroke-dasharray:none" />
    <g
       id="g3106"
       transform="translate(441.46094,402.5854)"
       style="stroke:#ffffff;stroke-opacity:0.49019607999999998;stroke-width:0.3;stroke-miterlimit:4;stroke-dasharray:none" />
    <g
       id="g3108"
       transform="translate(441.46094,402.5854)"
       style="stroke:#ffffff;stroke-opacity:0.49019607999999998;stroke-width:0.3;stroke-miterlimit:4;stroke-dasharray:none" />
    <g
       id="g3110"
       transform="translate(441.46094,402.5854)"
       style="stroke:#ffffff;stroke-opacity:0.49019607999999998;stroke-width:0.3;stroke-miterlimit:4;stroke-dasharray:none" />
    <g
       id="g3112"
       transform="translate(441.46094,402.5854)"
       style="stroke:#ffffff;stroke-opacity:0.49019607999999998;stroke-width:0.3;stroke-miterlimit:4;stroke-dasharray:none" />
    <g
       id="g3114"
       transform="translate(441.46094,402.5854)"
       style="stroke:#ffffff;stroke-opacity:0.49019607999999998;stroke-width:0.3;stroke-miterlimit:4;stroke-dasharray:none" />
    <g
       id="g3116"
       transform="translate(441.46094,402.5854)"
       style="stroke:#ffffff;stroke-opacity:0.49019607999999998;stroke-width:0.3;stroke-miterlimit:4;stroke-dasharray:none" />
    <g
       id="g3118"
       transform="translate(441.46094,402.5854)"
       style="stroke:#ffffff;stroke-opacity:0.49019607999999998;stroke-width:0.3;stroke-miterlimit:4;stroke-dasharray:none" />
    <g
       id="g3120"
       transform="translate(441.46094,402.5854)"
       style="stroke:#ffffff;stroke-opacity:0.49019607999999998;stroke-width:0.3;stroke-miterlimit:4;stroke-dasharray:none" />
    <g
       id="g3122"
       transform="translate(441.46094,402.5854)"
       style="stroke:#ffffff;stroke-opacity:0.49019607999999998;stroke-width:0.3;stroke-miterlimit:4;stroke-dasharray:none" />
    <g
       id="g3124"
       transform="translate(441.46094,402.5854)"
       style="stroke:#ffffff;stroke-opacity:0.49019607999999998;stroke-width:0.3;stroke-miterlimit:4;stroke-dasharray:none" />
    <g
       id="g3126"
       transform="translate(441.46094,402.5854)"
       style="stroke:#ffffff;stroke-opacity:0.49019607999999998;stroke-width:0.3;stroke-miterlimit:4;stroke-dasharray:none" />
    <g
       id="g3128"
       transform="translate(441.46094,402.5854)"
       style="stroke:#ffffff;stroke-opacity:0.49019607999999998;stroke-width:0.3;stroke-miterlimit:4;stroke-dasharray:none" />
    <g
       id="g3130"
       transform="translate(441.46094,402.5854)"
       style="stroke:#ffffff;stroke-opacity:0.49019607999999998;stroke-width:0.3;stroke-miterlimit:4;stroke-dasharray:none" />
    <path
       style="fill:#16502d;fill-opacity:1;stroke:#ffffff;stroke-width:0.30000001;stroke-linecap:square;stroke-linejoin:round;stroke-miterlimit:4;stroke-opacity:0.49019608;stroke-dasharray:none"
       d="m 447.87931,405.73436 c -0.56178,-0.11033 -1.15308,-0.57364 -1.4126,-1.10684 -0.60394,-1.24083 0.15915,-2.69603 1.52952,-2.91679 1.00847,-0.16245 1.99833,0.48443 2.27842,1.48897 0.40413,1.44938 -0.89918,2.82849 -2.39534,2.53466 z"
       id="path5857"
       inkscape:connector-curvature="0" />
    <path
       style="fill:#16502d;fill-opacity:1;stroke:#ffffff;stroke-width:0.30000001;stroke-linecap:square;stroke-linejoin:round;stroke-miterlimit:4;stroke-opacity:0.49019608;stroke-dasharray:none"
       d="m 443.5214,410.62582 c -0.19946,-0.0879 -0.36967,-0.28209 -0.42395,-0.48366 -0.0813,-0.30187 -3.5e-4,-0.46472 0.50451,-1.01511 0.98188,-1.07043 1.95531,-2.08098 2.12601,-2.20706 0.50885,-0.37584 1.1866,-0.5539 2.25704,-0.59296 1.54721,-0.0565 2.43255,0.17204 3.11128,0.80305 0.51025,0.47439 2.31203,2.4268 2.37439,2.57289 0.22777,0.53367 -0.30292,1.11748 -0.8606,0.94674 -0.11376,-0.0348 -0.43566,-0.30529 -1.08954,-0.9154 l -0.92808,-0.86597 -0.0277,0.45669 c -0.0153,0.25119 -0.0302,0.57105 -0.0332,0.71082 l -0.005,0.25412 -2.2318,0 -2.23181,0 -0.005,-0.58558 c -0.009,-0.95866 0.0836,-0.96047 -0.96563,0.0189 -0.49751,0.46442 -0.9692,0.8714 -1.04819,0.9044 -0.17857,0.0746 -0.34995,0.074 -0.52211,-0.002 z"
       id="path5859"
       inkscape:connector-curvature="0" />
    <path
       style="fill:#16502d;fill-opacity:1;stroke:#ffffff;stroke-width:0.30000001;stroke-linecap:square;stroke-linejoin:round;stroke-miterlimit:4;stroke-opacity:0.49019608;stroke-dasharray:none"
       d="m 446.96854,416.54621 c -0.12569,-0.0569 -0.54521,-0.47124 -1.86303,-1.83984 -0.47924,-0.49771 -0.59345,-0.64259 -0.67195,-0.85239 -0.11377,-0.30409 -0.12355,-0.69948 -0.0232,-0.94011 0.0459,-0.11005 0.34514,-0.44718 0.83843,-0.94453 l 0.7671,-0.77339 0.81879,0.81708 0.81879,0.81708 -0.59656,0.5977 c -0.32811,0.32874 -0.59656,0.61758 -0.59656,0.64186 0,0.0243 0.31029,0.35218 0.68954,0.72864 0.37924,0.37646 0.71733,0.74847 0.7513,0.82668 0.1423,0.32767 0.031,0.66907 -0.28833,0.88425 -0.17091,0.11518 -0.43783,0.13049 -0.64428,0.037 l 0,0 z"
       id="path5861"
       inkscape:connector-curvature="0" />
    <path
       style="fill:#16502d;fill-opacity:1;stroke:#ffffff;stroke-width:0.30000001;stroke-linecap:square;stroke-linejoin:round;stroke-miterlimit:4;stroke-opacity:0.49019608;stroke-dasharray:none"
       d="m 448.89054,416.5103 c -0.33006,-0.22464 -0.43797,-0.58007 -0.27271,-0.8982 0.0496,-0.0954 0.38985,-0.47158 0.75617,-0.83587 0.36632,-0.3643 0.66604,-0.68224 0.66604,-0.70654 0,-0.0243 -0.26845,-0.31314 -0.59656,-0.64188 l -0.59656,-0.5977 0.81751,-0.81661 0.81751,-0.81662 0.75238,0.75084 c 0.44818,0.44726 0.78833,0.82481 0.84131,0.93382 0.0604,0.12432 0.0897,0.27622 0.0912,0.47379 0.004,0.45119 -0.12279,0.67589 -0.74166,1.32008 -1.92454,2.00325 -1.84685,1.93432 -2.18023,1.93432 -0.14322,0 -0.25389,-0.0311 -0.35437,-0.0994 z"
       id="path5863"
       inkscape:connector-curvature="0" />
  </g>
</svg>
