<?xml version="1.0" encoding="UTF-8" standalone="no"?>
<!-- Created with Inkscape (http://www.inkscape.org/) -->

<svg
   xmlns:dc="http://purl.org/dc/elements/1.1/"
   xmlns:cc="http://creativecommons.org/ns#"
   xmlns:rdf="http://www.w3.org/1999/02/22-rdf-syntax-ns#"
   xmlns:svg="http://www.w3.org/2000/svg"
   xmlns="http://www.w3.org/2000/svg"
   xmlns:sodipodi="http://sodipodi.sourceforge.net/DTD/sodipodi-0.dtd"
   xmlns:inkscape="http://www.inkscape.org/namespaces/inkscape"
   width="20"
   height="20"
   id="svg2"
   version="1.1"
   inkscape:version="0.48.5 r10040"
   sodipodi:docname="playground_operational.svg">
  <defs
     id="defs4" />
  <sodipodi:namedview
     id="base"
     pagecolor="#ffffff"
     bordercolor="#666666"
     borderopacity="1.0"
     inkscape:pageopacity="0.0"
     inkscape:pageshadow="2"
     inkscape:zoom="11.2"
     inkscape:cx="-1.5415753"
     inkscape:cy="9.3698836"
     inkscape:document-units="px"
     inkscape:current-layer="layer1"
     showgrid="false"
     fit-margin-top="0"
     fit-margin-left="0"
     fit-margin-right="0"
     fit-margin-bottom="0"
     inkscape:window-width="1920"
     inkscape:window-height="1018"
     inkscape:window-x="-8"
     inkscape:window-y="-8"
     inkscape:window-maximized="1" />
  <metadata
     id="metadata7">
    <rdf:RDF>
      <cc:Work
         rdf:about="">
        <dc:format>image/svg+xml</dc:format>
        <dc:type
           rdf:resource="http://purl.org/dc/dcmitype/StillImage" />
        <dc:title />
      </cc:Work>
    </rdf:RDF>
  </metadata>
  <g
     inkscape:label="Layer 1"
     inkscape:groupmode="layer"
     id="layer1"
     transform="translate(-438.02958,-399.32648)">
    <g
       id="g3102"
       transform="translate(441.46094,402.5854)"
       style="stroke:#ffffff;stroke-opacity:0.49019607999999998;stroke-width:0.3;stroke-miterlimit:4;stroke-dasharray:none" />
    <g
       id="g3104"
       transform="translate(441.46094,402.5854)"
       style="stroke:#ffffff;stroke-opacity:0.49019607999999998;stroke-width:0.3;stroke-miterlimit:4;stroke-dasharray:none" />
    <g
       id="g3106"
       transform="translate(441.46094,402.5854)"
       style="stroke:#ffffff;stroke-opacity:0.49019607999999998;stroke-width:0.3;stroke-miterlimit:4;stroke-dasharray:none" />
    <g
       id="g3108"
       transform="translate(441.46094,402.5854)"
       style="stroke:#ffffff;stroke-opacity:0.49019607999999998;stroke-width:0.3;stroke-miterlimit:4;stroke-dasharray:none" />
    <g
       id="g3110"
       transform="translate(441.46094,402.5854)"
       style="stroke:#ffffff;stroke-opacity:0.49019607999999998;stroke-width:0.3;stroke-miterlimit:4;stroke-dasharray:none" />
    <g
       id="g3112"
       transform="translate(441.46094,402.5854)"
       style="stroke:#ffffff;stroke-opacity:0.49019607999999998;stroke-width:0.3;stroke-miterlimit:4;stroke-dasharray:none" />
    <g
       id="g3114"
       transform="translate(441.46094,402.5854)"
       style="stroke:#ffffff;stroke-opacity:0.49019607999999998;stroke-width:0.3;stroke-miterlimit:4;stroke-dasharray:none" />
    <g
       id="g3116"
       transform="translate(441.46094,402.5854)"
       style="stroke:#ffffff;stroke-opacity:0.49019607999999998;stroke-width:0.3;stroke-miterlimit:4;stroke-dasharray:none" />
    <g
       id="g3118"
       transform="translate(441.46094,402.5854)"
       style="stroke:#ffffff;stroke-opacity:0.49019607999999998;stroke-width:0.3;stroke-miterlimit:4;stroke-dasharray:none" />
    <g
       id="g3120"
       transform="translate(441.46094,402.5854)"
       style="stroke:#ffffff;stroke-opacity:0.49019607999999998;stroke-width:0.3;stroke-miterlimit:4;stroke-dasharray:none" />
    <g
       id="g3122"
       transform="translate(441.46094,402.5854)"
       style="stroke:#ffffff;stroke-opacity:0.49019607999999998;stroke-width:0.3;stroke-miterlimit:4;stroke-dasharray:none" />
    <g
       id="g3124"
       transform="translate(441.46094,402.5854)"
       style="stroke:#ffffff;stroke-opacity:0.49019607999999998;stroke-width:0.3;stroke-miterlimit:4;stroke-dasharray:none" />
    <g
       id="g3126"
       transform="translate(441.46094,402.5854)"
       style="stroke:#ffffff;stroke-opacity:0.49019607999999998;stroke-width:0.3;stroke-miterlimit:4;stroke-dasharray:none" />
    <g
       id="g3128"
       transform="translate(441.46094,402.5854)"
       style="stroke:#ffffff;stroke-opacity:0.49019607999999998;stroke-width:0.3;stroke-miterlimit:4;stroke-dasharray:none" />
    <g
       id="g3130"
       transform="translate(441.46094,402.5854)"
       style="stroke:#ffffff;stroke-opacity:0.49019607999999998;stroke-width:0.3;stroke-miterlimit:4;stroke-dasharray:none" />
    <g
       id="g3003"
       transform="translate(439.73964,402.85052)">
      <path
         id="path3005"
         d="M 2.0905512,13.6063 C 1.9133858,13.500001 1.7362205,13.251969 1.7007874,13.074804 c -0.035433,-0.212599 0,-0.389764 0.3897638,-1.417323 0.1771653,-0.531496 0.3188976,-0.956693 0.3188976,-0.956693 0,0 -0.4606299,0.106299 -1.027559,0.177165 L 0.38976378,11.090552 0.2480315,10.346457 C 0.17716535,9.9566933 0.14173228,9.6377957 0.14173228,9.6377957 c 0,0 0.28346457,-0.070866 0.56692914,-0.1062992 C 1.0275591,9.4606303 1.2755906,9.4251972 1.2755906,9.4251972 c 0.035433,0 -0.070866,-0.6023622 -0.1771654,-1.3464567 C 0.88582677,6.5905514 0.88582677,6.4488192 1.0629921,6.0590554 1.2755906,5.6338585 1.5944882,5.4212601 2.2322835,5.3503939 2.8700787,5.2795278 2.9055118,5.2795278 3.1181102,5.3149608 3.4370079,5.3503939 3.7559055,5.5629924 4.2519685,5.9881892 5.1732284,6.8031499 5.5984252,6.9803152 6.7322835,7.0511814 7.2637795,7.0866145 7.3700788,7.1220475 7.476378,7.370079 7.5826772,7.6181105 7.5472441,7.9015751 7.3700788,8.0787405 7.1929134,8.2204728 7.015748,8.2559058 6.5551181,8.2204728 5.8110236,8.1850397 5.1377953,8.0078743 4.6062992,7.6889767 4.5,7.6181105 4.3582677,7.5826775 4.3582677,7.5826775 4.3228347,7.6181105 4.5,8.822835 4.5354331,8.822835 c 0.035433,0 7.6181099,-1.4173229 7.6535429,-1.452756 0,0 -0.177165,-1.3110236 -0.212598,-1.3818898 0,0 -0.141732,0.1062992 -0.283465,0.2480315 C 11.19685,6.7322837 10.629921,7.0511814 9.8858268,7.2992129 9.6023622,7.370079 9.496063,7.4055121 9.3897638,7.370079 9.0708662,7.334646 8.8937008,7.0866145 8.8937008,6.8031499 c 0,-0.3188977 0.1771654,-0.496063 0.6377953,-0.6377953 0.6732279,-0.2125985 1.2047239,-0.5669292 1.5590549,-0.992126 0.07087,-0.1417323 0.283465,-0.4251969 0.425197,-0.6377953 0.283465,-0.4960631 0.496063,-0.7440946 0.744095,-0.956693 0.248031,-0.1771654 0.425196,-0.2125984 1.062992,-0.3188976 0.46063,-0.070866 0.531496,-0.070866 0.708661,0 0.318898,0.070866 0.425197,0.1417322 0.637795,0.3543307 0.283465,0.2834646 0.318898,0.3897638 0.531496,1.8779528 0.1063,0.6732284 0.177166,1.2755906 0.177166,1.2755906 0,0 0.248031,-0.035433 0.531496,-0.070866 0.283464,-0.070866 0.531496,-0.1062993 0.566929,-0.1062993 0.03543,0 0.07087,0.1417323 0.177165,0.7086615 0.07087,0.3897638 0.141733,0.7440945 0.141733,0.7440945 -0.03543,0 -0.531496,0.1062992 -1.133859,0.2125984 -0.637795,0.1062993 -1.133858,0.2125985 -1.169291,0.2125985 0,0.035433 0.354331,0.4251968 0.779528,0.9212599 0.460629,0.4606299 0.885826,0.9212597 0.921259,0.9921257 0.212599,0.389764 0.03543,0.885827 -0.35433,1.062992 -0.141733,0.07087 -0.425197,0.07087 -0.566929,0 -0.177166,-0.07087 -0.141733,-0.03543 -1.452756,-1.4527555 C 13.181102,9.3543311 12.685039,8.822835 12.649606,8.822835 c -0.07087,0 -3.6141729,0.6732284 -3.6141729,0.6732284 C 9,9.5314965 9.4251969,10.240158 9.9212599,11.090552 c 0.4960631,0.850393 0.9212601,1.559055 0.9212601,1.559055 -0.03543,0 -4.358268,0.141732 -4.358268,0.141732 -0.035433,0 0.2834645,-0.708661 0.7086614,-1.559055 0.3897638,-0.814961 0.7086614,-1.5236222 0.7086614,-1.5236222 0,0 -0.8503937,0.1417323 -1.8779527,0.3188972 L 4.1456693,10.38189 3.6850394,11.657481 C 3.4370079,12.366142 3.1889764,13.003938 3.1535433,13.110237 2.976378,13.570867 2.515748,13.783465 2.0905512,13.6063 z"
         style="fill:#ab38ab;fill-opacity:1;fill-rule:nonzero;stroke:#ffffff;stroke-width:0.28346458px;stroke-linecap:butt;stroke-linejoin:miter;stroke-miterlimit:4;stroke-opacity:1;stroke-dasharray:none"
         inkscape:connector-curvature="0" />
      <path
         id="path3007"
         d="M 1.7716535,4.9606301 C 1.5590551,4.9251971 1.2755906,4.7480317 1.1338583,4.5708663 1.0275591,4.5000002 0.92125984,4.3228348 0.8503937,4.1811025 0.74409449,3.9685041 0.74409449,3.897638 0.74409449,3.6141734 c 0,-0.2834646 0,-0.3543307 0.10629921,-0.5669292 0.2834646,-0.5314961 0.8149606,-0.8503937 1.3818898,-0.7795276 0.3188976,0 0.6023622,0.1417323 0.8503937,0.3897638 0.2834645,0.2834646 0.3897638,0.5314961 0.3897638,0.956693 0,0.2834646 -0.035433,0.3543307 -0.1417323,0.5669291 -0.2125985,0.496063 -0.6732284,0.7795276 -1.1692914,0.8149607 -0.1417323,0 -0.3188976,0 -0.3897638,-0.035433 l 0,0 z"
         style="fill:#ab38ab;fill-opacity:1;fill-rule:nonzero;stroke:#ffffff;stroke-width:0.28346458px;stroke-linecap:butt;stroke-linejoin:miter;stroke-miterlimit:4;stroke-opacity:1;stroke-dasharray:none"
         inkscape:connector-curvature="0" />
      <path
         id="path3009"
         d="M 12.685039,2.9055119 C 12.295276,2.8346458 11.940945,2.5157481 11.728346,2.1259843 11.622047,1.948819 11.622047,1.9133859 11.622047,1.5590552 c 0,-0.3543307 0,-0.3897638 0.106299,-0.60236225 0.212599,-0.46062994 0.637796,-0.74409452 1.133859,-0.77952759 1.062992,-0.0354331 1.771653,1.02755914 1.346456,1.94881894 -0.177165,0.3897638 -0.602362,0.7086615 -1.027559,0.7795276 -0.283464,0.035433 -0.248031,0.035433 -0.496063,0 l 0,0 z"
         style="fill:#ab38ab;fill-opacity:1;fill-rule:nonzero;stroke:#ffffff;stroke-width:0.28346458px;stroke-linecap:butt;stroke-linejoin:miter;stroke-miterlimit:4;stroke-opacity:1;stroke-dasharray:none"
         inkscape:connector-curvature="0" />
    </g>
  </g>
</svg>
