<?xml version="1.0" encoding="UTF-8" standalone="no"?>
<!-- Created with Inkscape (http://www.inkscape.org/) -->

<svg
   xmlns:dc="http://purl.org/dc/elements/1.1/"
   xmlns:cc="http://creativecommons.org/ns#"
   xmlns:rdf="http://www.w3.org/1999/02/22-rdf-syntax-ns#"
   xmlns:svg="http://www.w3.org/2000/svg"
   xmlns="http://www.w3.org/2000/svg"
   xmlns:sodipodi="http://sodipodi.sourceforge.net/DTD/sodipodi-0.dtd"
   xmlns:inkscape="http://www.inkscape.org/namespaces/inkscape"
   width="20"
   height="20"
   id="svg2"
   version="1.1"
   inkscape:version="0.48.5 r10040"
   sodipodi:docname="police_operational.svg">
  <defs
     id="defs4" />
  <sodipodi:namedview
     id="base"
     pagecolor="#ffffff"
     bordercolor="#666666"
     borderopacity="1.0"
     inkscape:pageopacity="0.0"
     inkscape:pageshadow="2"
     inkscape:zoom="31.678384"
     inkscape:cx="12.386996"
     inkscape:cy="9.3698836"
     inkscape:document-units="px"
     inkscape:current-layer="layer1"
     showgrid="false"
     fit-margin-top="0"
     fit-margin-left="0"
     fit-margin-right="0"
     fit-margin-bottom="0"
     inkscape:window-width="1920"
     inkscape:window-height="1018"
     inkscape:window-x="-8"
     inkscape:window-y="-8"
     inkscape:window-maximized="1" />
  <metadata
     id="metadata7">
    <rdf:RDF>
      <cc:Work
         rdf:about="">
        <dc:format>image/svg+xml</dc:format>
        <dc:type
           rdf:resource="http://purl.org/dc/dcmitype/StillImage" />
        <dc:title />
      </cc:Work>
    </rdf:RDF>
  </metadata>
  <g
     inkscape:label="Layer 1"
     inkscape:groupmode="layer"
     id="layer1"
     transform="translate(-438.02958,-399.32648)">
    <g
       id="g3102"
       transform="translate(441.46094,402.5854)"
       style="stroke:#ffffff;stroke-opacity:0.49019607999999998;stroke-width:0.3;stroke-miterlimit:4;stroke-dasharray:none" />
    <g
       id="g3104"
       transform="translate(441.46094,402.5854)"
       style="stroke:#ffffff;stroke-opacity:0.49019607999999998;stroke-width:0.3;stroke-miterlimit:4;stroke-dasharray:none" />
    <g
       id="g3106"
       transform="translate(441.46094,402.5854)"
       style="stroke:#ffffff;stroke-opacity:0.49019607999999998;stroke-width:0.3;stroke-miterlimit:4;stroke-dasharray:none" />
    <g
       id="g3108"
       transform="translate(441.46094,402.5854)"
       style="stroke:#ffffff;stroke-opacity:0.49019607999999998;stroke-width:0.3;stroke-miterlimit:4;stroke-dasharray:none" />
    <g
       id="g3110"
       transform="translate(441.46094,402.5854)"
       style="stroke:#ffffff;stroke-opacity:0.49019607999999998;stroke-width:0.3;stroke-miterlimit:4;stroke-dasharray:none" />
    <g
       id="g3112"
       transform="translate(441.46094,402.5854)"
       style="stroke:#ffffff;stroke-opacity:0.49019607999999998;stroke-width:0.3;stroke-miterlimit:4;stroke-dasharray:none" />
    <g
       id="g3114"
       transform="translate(441.46094,402.5854)"
       style="stroke:#ffffff;stroke-opacity:0.49019607999999998;stroke-width:0.3;stroke-miterlimit:4;stroke-dasharray:none" />
    <g
       id="g3116"
       transform="translate(441.46094,402.5854)"
       style="stroke:#ffffff;stroke-opacity:0.49019607999999998;stroke-width:0.3;stroke-miterlimit:4;stroke-dasharray:none" />
    <g
       id="g3118"
       transform="translate(441.46094,402.5854)"
       style="stroke:#ffffff;stroke-opacity:0.49019607999999998;stroke-width:0.3;stroke-miterlimit:4;stroke-dasharray:none" />
    <g
       id="g3120"
       transform="translate(441.46094,402.5854)"
       style="stroke:#ffffff;stroke-opacity:0.49019607999999998;stroke-width:0.3;stroke-miterlimit:4;stroke-dasharray:none" />
    <g
       id="g3122"
       transform="translate(441.46094,402.5854)"
       style="stroke:#ffffff;stroke-opacity:0.49019607999999998;stroke-width:0.3;stroke-miterlimit:4;stroke-dasharray:none" />
    <g
       id="g3124"
       transform="translate(441.46094,402.5854)"
       style="stroke:#ffffff;stroke-opacity:0.49019607999999998;stroke-width:0.3;stroke-miterlimit:4;stroke-dasharray:none" />
    <g
       id="g3126"
       transform="translate(441.46094,402.5854)"
       style="stroke:#ffffff;stroke-opacity:0.49019607999999998;stroke-width:0.3;stroke-miterlimit:4;stroke-dasharray:none" />
    <g
       id="g3128"
       transform="translate(441.46094,402.5854)"
       style="stroke:#ffffff;stroke-opacity:0.49019607999999998;stroke-width:0.3;stroke-miterlimit:4;stroke-dasharray:none" />
    <g
       id="g3130"
       transform="translate(441.46094,402.5854)"
       style="stroke:#ffffff;stroke-opacity:0.49019607999999998;stroke-width:0.3;stroke-miterlimit:4;stroke-dasharray:none" />
    <path
       style="fill:#333333;fill-opacity:1;stroke:#ffffff;stroke-width:0.30000001;stroke-linecap:square;stroke-linejoin:round;stroke-miterlimit:4;stroke-opacity:0.49019608;stroke-dasharray:none"
       d="m 448.16572,416.86872 c -0.0694,-0.10489 -0.2667,-0.28026 -0.46943,-0.41726 -0.16729,-0.11306 -1.02469,-0.50063 -1.27213,-0.57504 -0.41768,-0.12561 -0.98078,-0.35932 -1.75139,-0.7269 -0.71773,-0.34235 -1.95322,-1.34916 -2.34912,-1.91429 -0.46762,-0.66752 -0.69494,-1.36884 -0.69465,-2.14308 2e-4,-0.52717 0.089,-0.91653 0.49203,-2.15615 0.2287,-0.70352 0.28591,-0.9092 0.34163,-1.22835 0.1556,-0.89119 -0.13628,-2.23691 -0.71982,-3.31876 l -0.10182,-0.18877 1.05582,-1.03616 c 0.5807,-0.56988 1.06118,-1.03615 1.06774,-1.03615 0.007,0 0.11076,0.0666 0.23155,0.1479 0.4108,0.27665 0.97174,0.50906 1.5133,0.62698 0.342,0.0745 1.29979,0.0683 1.65327,-0.0106 0.29313,-0.0655 0.65452,-0.18258 0.91167,-0.29545 l 0.17804,-0.0781 0.15088,0.0761 c 0.20075,0.10123 0.65006,0.25172 0.90723,0.30387 0.3738,0.0758 0.75046,0.098 1.14128,0.0673 0.63723,-0.0501 1.07973,-0.16372 1.5499,-0.39808 0.25054,-0.12489 0.6845,-0.40354 0.74844,-0.48058 0.065,-0.0783 -0.007,-0.14143 1.31435,1.15776 l 0.88439,0.86975 -0.11867,0.20243 c -0.43417,0.74057 -0.73141,1.6942 -0.82685,2.65272 -0.0555,0.55708 0.0348,1.02609 0.43122,2.2407 0.39734,1.21742 0.4755,1.57243 0.44774,2.03373 -0.0405,0.67286 -0.24613,1.28693 -0.62623,1.87005 -0.36938,0.56668 -1.69431,1.68945 -2.40889,2.04135 -0.15812,0.0779 -0.58979,0.25435 -0.95927,0.3922 -0.7643,0.28514 -1.77373,0.72007 -2.04571,0.88143 -0.10093,0.0599 -0.27993,0.20518 -0.39777,0.3229 l -0.21427,0.21404 -0.0645,-0.0974 0,0 z m -0.64388,-5.2408 0,-1.34596 0.65061,0 c 0.35783,0 0.76916,-0.0122 0.91407,-0.027 0.83127,-0.0853 1.31973,-0.40121 1.63523,-1.05757 0.13352,-0.27778 0.18516,-0.46017 0.22566,-0.79712 0.127,-1.05651 -0.37149,-1.89074 -1.30863,-2.19001 -0.43037,-0.13744 -0.78305,-0.16165 -2.35869,-0.16192 l -1.30022,-2.3e-4 0,3.46291 0,3.4629 0.77098,0 0.77099,0 0,-1.34596 z"
       id="path5148"
       inkscape:connector-curvature="0" />
    <path
       style="fill:#333333;fill-opacity:1;stroke:#ffffff;stroke-width:0.30000001;stroke-linecap:square;stroke-linejoin:round;stroke-miterlimit:4;stroke-opacity:0.49019608;stroke-dasharray:none"
       d="m 447.4173,408.20181 0,-0.98248 0.62071,0.0112 c 0.55849,0.0101 0.63676,0.017 0.78091,0.0691 0.20795,0.0752 0.35447,0.20306 0.44584,0.38913 0.0681,0.13876 0.0735,0.17235 0.0735,0.46323 0,0.29114 -0.005,0.32543 -0.076,0.47828 -0.13847,0.29989 -0.39543,0.4663 -0.81327,0.52669 -0.10023,0.0145 -0.37335,0.0266 -0.60693,0.0268 l -0.4247,5.2e-4 0,-0.98248 z"
       id="path5150"
       inkscape:connector-curvature="0" />
  </g>
</svg>
