<svg version="1.1" id="svg2" inkscape:version="0.48.5 r10040" sodipodi:docname="primary_school_operational.svg" xmlns:cc="http://creativecommons.org/ns#" xmlns:dc="http://purl.org/dc/elements/1.1/" xmlns:inkscape="http://www.inkscape.org/namespaces/inkscape" xmlns:rdf="http://www.w3.org/1999/02/22-rdf-syntax-ns#" xmlns:sodipodi="http://sodipodi.sourceforge.net/DTD/sodipodi-0.dtd" xmlns:svg="http://www.w3.org/2000/svg" xmlns="http://www.w3.org/2000/svg" xlink="http://www.w3.org/1999/xlink" x="0px" y="0px" viewBox="0 0 20 20" style="enable-background:new 0 0 20 20;" space="preserve" width="20" height="20">
<style type="text/css">
	.st0{fill:#010002;stroke:#FFFFFF;stroke-width:3.000000e-03;stroke-opacity:0.4902;}
	.st1{fill:#16502D;stroke:#FFFFFF;stroke-width:0.3;stroke-linecap:square;stroke-linejoin:round;stroke-opacity:0.4902;}
</style>
<sodipodi:namedview bordercolor="#666666" borderopacity="1.0" fit-margin-bottom="0" fit-margin-left="0" fit-margin-right="0" fit-margin-top="0" id="base" inkscape:current-layer="layer1" inkscape:cx="-1.5415753" inkscape:cy="9.3698836" inkscape:document-units="px" inkscape:pageopacity="0.0" inkscape:pageshadow="2" inkscape:window-height="1018" inkscape:window-maximized="1" inkscape:window-width="1920" inkscape:window-x="-8" inkscape:window-y="-8" inkscape:zoom="11.2" pagecolor="#ffffff" showgrid="false">
	</sodipodi:namedview>
<g>
	<g id="layer1" transform="translate(-438.02958,-399.32648)" inkscape:groupmode="layer" inkscape:label="Layer 1">
		<g id="g3102" transform="translate(441.46094,402.5854)">
		</g>
		<g id="g3104" transform="translate(441.46094,402.5854)">
		</g>
		<g id="g3106" transform="translate(441.46094,402.5854)">
		</g>
		<g id="g3108" transform="translate(441.46094,402.5854)">
		</g>
		<g id="g3110" transform="translate(441.46094,402.5854)">
		</g>
		<g id="g3112" transform="translate(441.46094,402.5854)">
		</g>
		<g id="g3114" transform="translate(441.46094,402.5854)">
		</g>
		<g id="g3116" transform="translate(441.46094,402.5854)">
		</g>
		<g id="g3118" transform="translate(441.46094,402.5854)">
		</g>
		<g id="g3120" transform="translate(441.46094,402.5854)">
		</g>
		<g id="g3122" transform="translate(441.46094,402.5854)">
		</g>
		<g id="g3124" transform="translate(441.46094,402.5854)">
		</g>
		<g id="g3126" transform="translate(441.46094,402.5854)">
		</g>
		<g id="g3128" transform="translate(441.46094,402.5854)">
		</g>
		<g id="g3130" transform="translate(441.46094,402.5854)">
		</g>
		<g id="g5967" transform="translate(441.76651,402.11736)">
			<path id="path5929" inkscape:connector-curvature="0" class="st0" d="M5.2,9.3l-0.6,1.2c0,0.1-0.1,0.2-0.3,0.2
				c-0.3,0-0.7-0.2-1-0.3l-0.1,0.1l-0.4-0.2l0.1-0.1C2.4,10,1.9,9.7,1.8,9.5l0-0.1l0-0.1L2.3,8c-0.5,0.3-0.9,1-1.5,2.1l-0.6,1.3
				c-0.1,0.1-0.1,0.2-0.2,0.4l3.7,1.7c0.1-0.1,0.1-0.2,0.2-0.4l0.6-1.3C5,10.7,5.3,9.9,5.2,9.3z M4,12.2l-0.5,1l-3.1-1.4l0.5-1
				c0.1-0.3,0.5-0.4,0.9-0.4c0.3,0,0.7,0.1,1.1,0.3C3.7,11,4.2,11.7,4,12.2z M3.7,11.8c0,0.1,0,0.2,0,0.3l-0.4,0.8l-2.6-1.2l0.4-0.8
				c0.1-0.2,0.3-0.3,0.7-0.3c0.3,0,0.6,0.1,1,0.2C3.2,11.1,3.6,11.4,3.7,11.8z M4.4,8.1c0.1,0,0.2,0.1,0.3,0.1c0,0.1,0,0.2,0,0.3
				C5,8.6,5.2,8.8,5.1,8.8l-0.9,1.6c0,0.1-0.6,0-1.2-0.3C2.5,9.8,2,9.5,2,9.4l0.6-1.7c0-0.1,0.2,0,0.5,0.1c0.2-0.2,0.4-0.3,0.7-0.3
				c0,0.1,0,0.2,0.1,0.3c-0.2,0-0.3,0-0.5,0.1C3.7,7.9,3.8,8,4,8.1c0.2,0.1,0.3,0.2,0.5,0.2C4.5,8.2,4.5,8.2,4.4,8.1
				C4.4,8.1,4.4,8.1,4.4,8.1z M10.8,8.4c0,0.2,0,0.6,0.1,0.8l2.2,4.8c0.1,0.2,0.2,0.5,0,0.8C13,14.9,12.8,15,12.6,15l0,0
				c-0.4,0-0.5-0.3-0.7-0.5L9.3,9.9l-0.7,1.5c-0.2,0.4-0.5,0.8-0.8,1.1l-1.5,1.6c-0.2,0.2-0.3,0.4-0.6,0.4c-0.2,0-0.5-0.1-0.6-0.3
				c-0.2-0.4,0-0.6,0.2-0.9l1.5-1.8c0.2-0.2,0.4-0.6,0.4-0.8l0.5-1.9C7.8,8.5,7.9,8,7.9,7.7l0.2-2.9C7,5.2,5.8,6.7,5.4,7.4
				C5.3,7.7,5.1,7.9,4.8,7.9h0c-0.2,0-0.4-0.1-0.5-0.3C4.1,7.3,4.2,7,4.4,6.8c0.1-0.2,2.3-4,5.2-3.8c1.3,0.1,1.7,1.1,1.9,1.7
				c0.1,0.1,0.1,0.3,0.2,0.4l1.7,3c0.2,0.3,0.1,0.7-0.2,0.8c-0.3,0.2-0.6,0.1-0.8-0.2l-1.3-2L10.8,8.4z M11.5,1.2
				c0.1,0.8-0.4,1.5-1.2,1.6C9.6,2.9,8.9,2.4,8.8,1.6C8.6,0.9,9.2,0.1,9.9,0C10.7-0.1,11.4,0.4,11.5,1.2z"/>
			<g id="g5931">
			</g>
			<g id="g5933">
			</g>
			<g id="g5935">
			</g>
			<g id="g5937">
			</g>
			<g id="g5939">
			</g>
			<g id="g5941">
			</g>
			<g id="g5943">
			</g>
			<g id="g5945">
			</g>
			<g id="g5947">
			</g>
			<g id="g5949">
			</g>
			<g id="g5951">
			</g>
			<g id="g5953">
			</g>
			<g id="g5955">
			</g>
			<g id="g5957">
			</g>
			<g id="g5959">
			</g>
		</g>
		<path id="path5987" inkscape:connector-curvature="0" class="st1" d="M454,416.9c-0.1-0.1-0.7-1.1-1.6-2.5
			c-0.8-1.3-1.4-2.3-1.4-2.3c0,0-0.2,0.4-0.5,0.9c-0.2,0.5-0.5,1-0.7,1.2c-0.2,0.3-1.7,2-2.1,2.3c-0.3,0.3-0.9,0.1-1-0.3
			c0-0.1,0-0.2,0-0.3c0-0.1,0.5-0.7,0.9-1.3c0.5-0.6,0.9-1.2,1-1.3c0.1-0.2,0.7-2,0.8-2.7c0-0.2,0.1-0.5,0.1-0.7
			c0.1-0.8,0.2-2.9,0.2-2.9c0,0-0.4,0.1-0.7,0.3c-0.6,0.4-1.3,1.1-1.9,2c-0.5,0.7-0.6,0.8-0.9,0.7c-0.3-0.1-0.5-0.3-0.5-0.6
			c0-0.4,0.9-1.8,1.8-2.6c1-1,1.9-1.5,3-1.6c0.4,0,0.5,0,0.8,0c0.5,0.1,0.7,0.2,1.1,0.6c0.3,0.3,0.3,0.4,0.6,1
			c0.2,0.4,0.7,1.4,1.2,2.2c0.7,1.3,0.8,1.5,0.8,1.7c0,0.2-0.1,0.4-0.3,0.5c-0.2,0.1-0.4,0.1-0.6,0c-0.1-0.1-0.3-0.4-0.8-1.1
			c-0.3-0.5-0.6-1-0.7-1.1c-0.1-0.1-0.1-0.1-0.2,0.9c-0.1,0.7-0.1,0.8-0.1,1.1c0,0.2,0.4,0.9,1.2,2.8c1.3,2.9,1.3,2.9,1,3.2
			c-0.2,0.2-0.2,0.2-0.4,0.2C454.2,417.1,454.2,417.1,454,416.9L454,416.9L454,416.9z"/>
		<path id="path5989" inkscape:connector-curvature="0" class="st1" d="M445.6,412.5c-0.5-0.1-1.7-0.8-1.8-0.9
			c0-0.1,0.6-1.6,0.6-1.7c0,0,0.1,0,0.3,0c0.2,0,0.3,0,0.4-0.1c0.2-0.1,0.5-0.2,0.5-0.2c0,0,0,0.1,0,0.1c0,0.1,0,0.1-0.1,0.1
			c-0.1,0-0.3,0.1-0.3,0.1c0,0,0.9,0.4,0.9,0.4c0,0,0,0,0-0.1c0-0.1,0-0.1,0.1-0.1c0.1,0,0.1,0.1,0.1,0.2c0,0.1,0.1,0.2,0.1,0.2
			c0.1,0,0.2,0.1,0.2,0.2c0.1,0.1,0.1,0.1-0.4,0.9c-0.3,0.6-0.5,0.8-0.5,0.8C445.9,412.5,445.7,412.5,445.6,412.5L445.6,412.5
			L445.6,412.5z"/>
		<path id="path5991" inkscape:connector-curvature="0" class="st1" d="M443.7,414.8c-1-0.5-1.8-0.8-1.8-0.8c0,0,0.6-1.5,1-2.2
			c0.1-0.2,0.3-0.6,0.5-0.8c0.2-0.4,0.6-0.8,0.7-0.8c0,0-0.1,0.3-0.2,0.6c-0.2,0.5-0.2,0.6-0.2,0.7c0.1,0.2,0.3,0.4,0.7,0.6
			c0.2,0.1,0.3,0.2,0.3,0.2c0,0.1,0.4,0.3,0.5,0.2c0,0,0.2,0,0.5,0.1c0.5,0.2,0.7,0.2,0.8,0.1c0,0,0.2-0.3,0.3-0.6
			c0.4-0.7,0.4-0.7,0.4-0.3c0,0.4-0.2,0.9-0.4,1.6c-0.3,0.7-1,2.2-1,2.2C445.5,415.6,444.6,415.2,443.7,414.8L443.7,414.8z
			 M445.5,414.8c0.2-0.4,0.2-0.6,0.2-0.7c0-0.6-0.6-1.2-1.5-1.5c-0.5-0.2-1.1-0.2-1.4,0c-0.2,0.1-0.2,0.1-0.5,0.6
			c-0.1,0.3-0.3,0.6-0.3,0.6c0,0.1,0,0.1,1.5,0.8c0.8,0.4,1.6,0.7,1.6,0.7S445.4,415.1,445.5,414.8L445.5,414.8L445.5,414.8z"/>
		<path id="path5993" inkscape:connector-curvature="0" class="st1" d="M443.8,414.4c-0.7-0.3-1.3-0.6-1.3-0.6
			c0-0.1,0.4-0.8,0.5-0.9c0.2-0.1,0.6-0.1,0.9-0.1c0.8,0.2,1.5,0.8,1.5,1.2c0,0.1-0.3,0.9-0.4,0.9
			C445.1,415,444.5,414.7,443.8,414.4L443.8,414.4z"/>
		<path id="path5995" inkscape:connector-curvature="0" class="st1" d="M451.5,404.9c-0.3-0.1-0.4-0.2-0.6-0.4
			c-0.2-0.2-0.3-0.4-0.4-0.7c-0.1-0.4,0-0.8,0.4-1.2c0.3-0.3,0.6-0.4,1-0.4c0.3,0,0.4,0,0.6,0.1c0.5,0.2,0.7,0.6,0.8,1.2
			c0,0.3,0,0.4-0.1,0.6c-0.1,0.3-0.4,0.6-0.7,0.7C452.2,404.9,451.8,404.9,451.5,404.9L451.5,404.9z"/>
	</g>
	<path class="st1" d="M6.3,5.1H5.8V4c0-0.1,0-0.1,0-0.2c-0.1-1-0.9-1.7-1.9-1.7S2.1,2.8,2,3.8C2,3.9,2,3.9,2,4v1.1H1.5
		c-0.2,0-0.4,0.2-0.4,0.4v3.6c0,0.2,0.2,0.4,0.4,0.4h4.8c0.2,0,0.4-0.2,0.4-0.4V5.5C6.7,5.3,6.5,5.1,6.3,5.1z M4.1,7.6v0.5
		c0,0.1-0.1,0.2-0.2,0.2c-0.1,0-0.2-0.1-0.2-0.2V7.6C3.4,7.5,3.3,7.3,3.3,7c0-0.3,0.3-0.6,0.6-0.6S4.5,6.7,4.5,7
		C4.5,7.3,4.3,7.5,4.1,7.6z M5.2,5.1H2.6V4c0-0.1,0-0.1,0-0.2c0.1-0.7,0.7-1.2,1.3-1.2s1.2,0.5,1.3,1.2c0,0.1,0,0.1,0,0.2V5.1z"/>
</g>
</svg>
