<svg version="1.1" id="svg2" inkscape:version="0.48.5 r10040" sodipodi:docname="eating_operational.svg" xmlns:cc="http://creativecommons.org/ns#" xmlns:dc="http://purl.org/dc/elements/1.1/" xmlns:inkscape="http://www.inkscape.org/namespaces/inkscape" xmlns:rdf="http://www.w3.org/1999/02/22-rdf-syntax-ns#" xmlns:sodipodi="http://sodipodi.sourceforge.net/DTD/sodipodi-0.dtd" xmlns:svg="http://www.w3.org/2000/svg" xmlns="http://www.w3.org/2000/svg" xlink="http://www.w3.org/1999/xlink" x="0px" y="0px" viewBox="0 0 20 20" style="enable-background:new 0 0 20 20;" space="preserve" width="20" height="20">
<style type="text/css">
	.st0{fill:#AB38AB;stroke:#FFFFFF;stroke-width:0.2126;stroke-linecap:round;stroke-linejoin:round;}
</style>
<sodipodi:namedview bordercolor="#666666" borderopacity="1.0" fit-margin-bottom="0" fit-margin-left="0" fit-margin-right="0" fit-margin-top="0" id="base" inkscape:current-layer="layer1" inkscape:cx="-1.5415753" inkscape:cy="5.798455" inkscape:document-units="px" inkscape:pageopacity="0.0" inkscape:pageshadow="2" inkscape:window-height="1018" inkscape:window-maximized="1" inkscape:window-width="1920" inkscape:window-x="-8" inkscape:window-y="-8" inkscape:zoom="11.2" pagecolor="#ffffff" showgrid="false">
	</sodipodi:namedview>
<path class="st0" d="M4.8,9.2l3.9,4v5.4h0v0H5.5v-2.3L2.3,12C2.1,11.8,2,11.6,2,11.4V4.8C2,4.3,2.5,3.8,3,3.8c0.5,0,0.9,0.4,0.9,0.9
	v3.8c-0.2,0-0.4,0.1-0.6,0.3c-0.5,0.5-0.5,1.3,0,1.8l1.8,1.8l0.2-0.2l-1.8-1.8c-0.4-0.4-0.3-1,0-1.3C3.6,9,3.8,9,3.9,8.9
	c0.2,0,0.3,0,0.5,0C4.6,8.9,4.7,9,4.8,9.2z"/>
<path class="st0" d="M16.2,9.2l-3.9,4v5.4h0v0h3.2v-2.3l3.3-4.3c0.1-0.2,0.2-0.4,0.2-0.6V4.8c0-0.5-0.4-0.9-0.9-0.9
	c-0.5,0-0.9,0.4-0.9,0.9v3.8c0.2,0,0.4,0.1,0.6,0.3c0.5,0.5,0.5,1.3,0,1.8l-1.8,1.8l-0.2-0.2l1.8-1.8c0.4-0.4,0.3-1,0-1.3
	C17.4,9,17.2,9,17.1,8.9c-0.2,0-0.3,0-0.5,0C16.4,8.9,16.3,9,16.2,9.2z"/>
<path class="st0" d="M10.5,10.6c1,0,1.9-0.4,2.6-1.1C13.8,8.8,14.2,8,14.2,7c0-1-0.4-1.9-1.1-2.6c-0.7-0.7-1.6-1.1-2.6-1.1
	c-1,0-1.9,0.4-2.6,1.1C7.2,5.1,6.8,5.9,6.8,7c0,1,0.4,1.9,1.1,2.6C8.6,10.3,9.5,10.6,10.5,10.6z"/>
</svg>
