<svg version="1.1" id="svg2" xmlns:cc="http://creativecommons.org/ns#" xmlns:dc="http://purl.org/dc/elements/1.1/" xmlns:inkscape="http://www.inkscape.org/namespaces/inkscape" xmlns:rdf="http://www.w3.org/1999/02/22-rdf-syntax-ns#" xmlns:sodipodi="http://sodipodi.sourceforge.net/DTD/sodipodi-0.dtd" xmlns:svg="http://www.w3.org/2000/svg" xmlns="http://www.w3.org/2000/svg" xlink="http://www.w3.org/1999/xlink" x="0px" y="0px" viewBox="0 0 20 20" style="enable-background:new 0 0 20 20;" space="preserve" width="20" height="20">
<style type="text/css">
	.st0{fill:#333333;stroke:#FFFFFF;stroke-width:0.2835;stroke-linecap:square;stroke-linejoin:round;}
</style>
<sodipodi:namedview bordercolor="#666666" borderopacity="1.0" fit-margin-bottom="0" fit-margin-left="0" fit-margin-right="0" fit-margin-top="0" id="base" inkscape:current-layer="layer1" inkscape:cx="12.386996" inkscape:cy="13.699433" inkscape:document-units="px" inkscape:pageopacity="0.0" inkscape:pageshadow="2" inkscape:window-height="1018" inkscape:window-maximized="1" inkscape:window-width="1920" inkscape:window-x="-8" inkscape:window-y="-8" inkscape:zoom="15.839192" pagecolor="#ffffff" showgrid="false">
	</sodipodi:namedview>
<polygon class="st0" points="16.1,5.5 10,2.5 3.9,5.5 3.4,4.4 10,1.1 10,1.1 10,1.1 10,1.1 10,1.1 16.6,4.4 "/>
<path class="st0" d="M6.7,7.8c0,0.8-0.7,1.5-1.5,1.5c-0.8,0-1.5-0.7-1.5-1.5c0-0.8,0.7-1.5,1.5-1.5C6,6.3,6.7,7,6.7,7.8z M13.3,7.8
	c0,0.8,0.7,1.5,1.5,1.5c0.8,0,1.5-0.7,1.5-1.5c0-0.8-0.7-1.5-1.5-1.5C14,6.3,13.3,7,13.3,7.8z M9.2,13c0-0.3,0.1-0.6,0.3-0.8
	c-1.3-0.2-1.8-0.9-2.3-1.4C7,10.5,6.8,10.2,6.5,10c0,0,0,0,0,0C6.2,9.8,5.9,9.7,5.6,9.7H4.8c-0.8,0-1.4,0.6-1.4,1.4v3.8H7v-2.5
	c0.5,0.5,1.3,0.9,2.4,1.1C9.3,13.4,9.2,13.2,9.2,13z M15.2,9.7h-0.8c-0.3,0-0.6,0.1-0.9,0.3c0,0,0,0,0,0c-0.3,0.2-0.5,0.4-0.7,0.7
	c-0.5,0.6-1.1,1.3-2.7,1.5c-0.4,0-0.6,0.4-0.6,0.7c0,0.3,0.3,0.6,0.7,0.6c0,0,0,0,0.1,0c1.4-0.2,2.2-0.6,2.8-1.1v2.5h3.6v-3.8
	C16.6,10.3,16,9.7,15.2,9.7z"/>
</svg>
