<?xml version="1.0" encoding="UTF-8" standalone="no"?>
<!-- Created with Inkscape (http://www.inkscape.org/) -->

<svg
   xmlns:dc="http://purl.org/dc/elements/1.1/"
   xmlns:cc="http://creativecommons.org/ns#"
   xmlns:rdf="http://www.w3.org/1999/02/22-rdf-syntax-ns#"
   xmlns:svg="http://www.w3.org/2000/svg"
   xmlns="http://www.w3.org/2000/svg"
   xmlns:sodipodi="http://sodipodi.sourceforge.net/DTD/sodipodi-0.dtd"
   xmlns:inkscape="http://www.inkscape.org/namespaces/inkscape"
   width="20"
   height="20"
   id="svg2"
   version="1.1"
   inkscape:version="0.48.5 r10040"
   sodipodi:docname="treatment_unit_operational.svg">
  <defs
     id="defs4" />
  <sodipodi:namedview
     id="base"
     pagecolor="#ffffff"
     bordercolor="#666666"
     borderopacity="1.0"
     inkscape:pageopacity="0.0"
     inkscape:pageshadow="2"
     inkscape:zoom="31.678384"
     inkscape:cx="-1.5415753"
     inkscape:cy="9.8392633"
     inkscape:document-units="px"
     inkscape:current-layer="layer1"
     showgrid="false"
     fit-margin-top="0"
     fit-margin-left="0"
     fit-margin-right="0"
     fit-margin-bottom="0"
     inkscape:window-width="1920"
     inkscape:window-height="1018"
     inkscape:window-x="-8"
     inkscape:window-y="-8"
     inkscape:window-maximized="1" />
  <metadata
     id="metadata7">
    <rdf:RDF>
      <cc:Work
         rdf:about="">
        <dc:format>image/svg+xml</dc:format>
        <dc:type
           rdf:resource="http://purl.org/dc/dcmitype/StillImage" />
        <dc:title />
      </cc:Work>
    </rdf:RDF>
  </metadata>
  <g
     inkscape:label="Layer 1"
     inkscape:groupmode="layer"
     id="layer1"
     transform="translate(-438.02958,-399.32648)">
    <g
       id="g3102"
       transform="translate(441.46094,402.5854)"
       style="stroke:#ffffff;stroke-opacity:0.49019607999999998;stroke-width:0.3;stroke-miterlimit:4;stroke-dasharray:none" />
    <g
       id="g3104"
       transform="translate(441.46094,402.5854)"
       style="stroke:#ffffff;stroke-opacity:0.49019607999999998;stroke-width:0.3;stroke-miterlimit:4;stroke-dasharray:none" />
    <g
       id="g3106"
       transform="translate(441.46094,402.5854)"
       style="stroke:#ffffff;stroke-opacity:0.49019607999999998;stroke-width:0.3;stroke-miterlimit:4;stroke-dasharray:none" />
    <g
       id="g3108"
       transform="translate(441.46094,402.5854)"
       style="stroke:#ffffff;stroke-opacity:0.49019607999999998;stroke-width:0.3;stroke-miterlimit:4;stroke-dasharray:none" />
    <g
       id="g3110"
       transform="translate(441.46094,402.5854)"
       style="stroke:#ffffff;stroke-opacity:0.49019607999999998;stroke-width:0.3;stroke-miterlimit:4;stroke-dasharray:none" />
    <g
       id="g3112"
       transform="translate(441.46094,402.5854)"
       style="stroke:#ffffff;stroke-opacity:0.49019607999999998;stroke-width:0.3;stroke-miterlimit:4;stroke-dasharray:none" />
    <g
       id="g3114"
       transform="translate(441.46094,402.5854)"
       style="stroke:#ffffff;stroke-opacity:0.49019607999999998;stroke-width:0.3;stroke-miterlimit:4;stroke-dasharray:none" />
    <g
       id="g3116"
       transform="translate(441.46094,402.5854)"
       style="stroke:#ffffff;stroke-opacity:0.49019607999999998;stroke-width:0.3;stroke-miterlimit:4;stroke-dasharray:none" />
    <g
       id="g3118"
       transform="translate(441.46094,402.5854)"
       style="stroke:#ffffff;stroke-opacity:0.49019607999999998;stroke-width:0.3;stroke-miterlimit:4;stroke-dasharray:none" />
    <g
       id="g3120"
       transform="translate(441.46094,402.5854)"
       style="stroke:#ffffff;stroke-opacity:0.49019607999999998;stroke-width:0.3;stroke-miterlimit:4;stroke-dasharray:none" />
    <g
       id="g3122"
       transform="translate(441.46094,402.5854)"
       style="stroke:#ffffff;stroke-opacity:0.49019607999999998;stroke-width:0.3;stroke-miterlimit:4;stroke-dasharray:none" />
    <g
       id="g3124"
       transform="translate(441.46094,402.5854)"
       style="stroke:#ffffff;stroke-opacity:0.49019607999999998;stroke-width:0.3;stroke-miterlimit:4;stroke-dasharray:none" />
    <g
       id="g3126"
       transform="translate(441.46094,402.5854)"
       style="stroke:#ffffff;stroke-opacity:0.49019607999999998;stroke-width:0.3;stroke-miterlimit:4;stroke-dasharray:none" />
    <g
       id="g3128"
       transform="translate(441.46094,402.5854)"
       style="stroke:#ffffff;stroke-opacity:0.49019607999999998;stroke-width:0.3;stroke-miterlimit:4;stroke-dasharray:none" />
    <g
       id="g3130"
       transform="translate(441.46094,402.5854)"
       style="stroke:#ffffff;stroke-opacity:0.49019607999999998;stroke-width:0.3;stroke-miterlimit:4;stroke-dasharray:none" />
    <g
       id="g4117"
       transform="matrix(0.84598214,0,0,0.84598214,439.45031,400.95454)"
       style="stroke:#ffffff;stroke-width:0.35461742;stroke-miterlimit:4;stroke-opacity:0.49019608;stroke-dasharray:none">
      <path
         id="path4079"
         d="M 16,0 4,0 C 1.8,0 0,1.8 0,4 l 0,12 c 0,2.2 1.8,4 4,4 l 12,0 c 2.2,0 4,-1.8 4,-4 L 20,4 C 20,1.8 18.2,0 16,0 z"
         style="fill:#2c5aa0;stroke:#ffffff;stroke-width:0.35461742;stroke-miterlimit:4;stroke-opacity:0.49019608;stroke-dasharray:none"
         inkscape:connector-curvature="0"
         sodipodi:nodetypes="sssssssss" />
      <g
         id="g4081"
         style="stroke:#ffffff;stroke-width:0.35461742;stroke-miterlimit:4;stroke-opacity:0.49019608;stroke-dasharray:none" />
      <g
         id="g4083"
         style="stroke:#ffffff;stroke-width:0.35461742;stroke-miterlimit:4;stroke-opacity:0.49019608;stroke-dasharray:none" />
      <g
         id="g4085"
         style="stroke:#ffffff;stroke-width:0.35461742;stroke-miterlimit:4;stroke-opacity:0.49019608;stroke-dasharray:none" />
      <g
         id="g4087"
         style="stroke:#ffffff;stroke-width:0.35461742;stroke-miterlimit:4;stroke-opacity:0.49019608;stroke-dasharray:none" />
      <g
         id="g4089"
         style="stroke:#ffffff;stroke-width:0.35461742;stroke-miterlimit:4;stroke-opacity:0.49019608;stroke-dasharray:none" />
      <g
         id="g4091"
         style="stroke:#ffffff;stroke-width:0.35461742;stroke-miterlimit:4;stroke-opacity:0.49019608;stroke-dasharray:none" />
      <g
         id="g4093"
         style="stroke:#ffffff;stroke-width:0.35461742;stroke-miterlimit:4;stroke-opacity:0.49019608;stroke-dasharray:none" />
      <g
         id="g4095"
         style="stroke:#ffffff;stroke-width:0.35461742;stroke-miterlimit:4;stroke-opacity:0.49019608;stroke-dasharray:none" />
      <g
         id="g4097"
         style="stroke:#ffffff;stroke-width:0.35461742;stroke-miterlimit:4;stroke-opacity:0.49019608;stroke-dasharray:none" />
      <g
         id="g4099"
         style="stroke:#ffffff;stroke-width:0.35461742;stroke-miterlimit:4;stroke-opacity:0.49019608;stroke-dasharray:none" />
      <g
         id="g4101"
         style="stroke:#ffffff;stroke-width:0.35461742;stroke-miterlimit:4;stroke-opacity:0.49019608;stroke-dasharray:none" />
      <g
         id="g4103"
         style="stroke:#ffffff;stroke-width:0.35461742;stroke-miterlimit:4;stroke-opacity:0.49019608;stroke-dasharray:none" />
      <g
         id="g4105"
         style="stroke:#ffffff;stroke-width:0.35461742;stroke-miterlimit:4;stroke-opacity:0.49019608;stroke-dasharray:none" />
      <g
         id="g4107"
         style="stroke:#ffffff;stroke-width:0.35461742;stroke-miterlimit:4;stroke-opacity:0.49019608;stroke-dasharray:none" />
      <g
         id="g4109"
         style="stroke:#ffffff;stroke-width:0.35461742;stroke-miterlimit:4;stroke-opacity:0.49019608;stroke-dasharray:none" />
    </g>
    <path
       style="fill:#ffffff"
       d="m 449.11632,414.44915 c -0.39176,-0.65494 -0.71229,-1.20801 -0.71229,-1.22904 0,-0.021 0.32647,-0.58595 0.72548,-1.25537 l 0.72548,-1.21713 7.7e-4,0.49177 7.8e-4,0.49176 1.7458,-0.0169 c 1.6903,-0.0164 1.7525,-0.0209 1.95669,-0.14154 l 0.21089,-0.12464 -0.0652,0.12464 c -0.35627,0.68122 -1.64395,2.8432 -1.75645,2.94901 -0.13945,0.13116 -0.18262,0.13759 -1.10447,0.16443 l -0.95935,0.0279 -0.0279,0.46295 -0.0279,0.46296 -0.71229,-1.19082 z m -4.51114,0.16394 c -0.2742,-0.0864 -0.74183,-0.57065 -0.82591,-0.85522 -0.15165,-0.51328 -0.077,-0.87881 0.32728,-1.60158 l 0.24106,-0.43103 1.60922,0 1.60922,0 0,1.48043 0,1.48044 -1.38267,-0.006 c -0.83596,-0.003 -1.45998,-0.0301 -1.5782,-0.0673 z m -2.07776,-2.66819 c -0.45143,-0.78142 -0.84841,-1.49425 -0.88218,-1.58409 -0.0918,-0.24416 -0.0273,-0.4307 0.42496,-1.22857 0.22665,-0.39988 0.41192,-0.7405 0.41172,-0.75695 -2.2e-4,-0.0164 -0.18247,-0.13045 -0.40503,-0.25336 l -0.40465,-0.22346 0.58659,-0.0351 c 0.32262,-0.0193 0.96784,-0.0381 1.43381,-0.0419 l 0.84723,-0.007 0.68065,1.23281 c 0.37436,0.67804 0.67188,1.2415 0.66115,1.25214 -0.0107,0.0106 -0.18292,-0.0781 -0.38264,-0.19719 -0.19972,-0.11908 -0.38827,-0.21708 -0.41899,-0.21779 -0.0515,-10e-4 -1.52197,2.50887 -1.61835,2.7624 -0.0234,0.0614 -0.0584,0.24827 -0.078,0.41516 l -0.0355,0.30344 -0.82079,-1.42074 z m 8.55816,-1.87009 c -0.4148,-0.72576 -0.76021,-1.34893 -0.76758,-1.38483 -0.0101,-0.0493 2.25698,-1.39215 2.49487,-1.47782 0.0728,-0.0262 1.35057,2.24904 1.40894,2.50881 0.0988,0.43972 -0.0512,0.91003 -0.40446,1.2681 -0.32389,0.3283 -0.45341,0.36844 -1.25134,0.38773 l -0.72625,0.0176 -0.75418,-1.31955 z m -6.09917,-3.03125 c -0.66601,-0.39069 -1.22825,-0.72768 -1.24943,-0.74885 -0.0626,-0.0626 1.20703,-2.23153 1.43963,-2.45919 0.39011,-0.38185 1.04492,-0.46918 1.55743,-0.20771 0.2825,0.14412 0.51022,0.40033 0.83285,0.93704 l 0.27569,0.45862 -0.78208,1.3537 c -0.43015,0.74454 -0.80032,1.35889 -0.82262,1.36522 -0.0223,0.006 -0.58545,-0.30814 -1.25147,-0.69883 z m 3.71058,0.0488 -0.40536,-0.0318 0.39139,-0.21988 c 0.21527,-0.12094 0.3914,-0.24187 0.3914,-0.26874 0,-0.0598 -1.29689,-2.32205 -1.52316,-2.65699 -0.0894,-0.13234 -0.26611,-0.31563 -0.3927,-0.40733 l -0.23015,-0.16672 1.76733,0.0163 c 1.69283,0.0156 1.77397,0.0212 1.92495,0.13323 0.0867,0.0643 0.34617,0.43321 0.57662,0.81973 0.23044,0.38652 0.43654,0.72015 0.458,0.74141 0.0215,0.0213 0.21,-0.0585 0.41899,-0.17728 0.20899,-0.11875 0.39795,-0.224 0.41992,-0.23389 0.022,-0.01 -0.27677,0.54947 -0.66387,1.24301 l -0.70382,1.26098 -1.01209,-0.0101 c -0.55665,-0.006 -1.1945,-0.0244 -1.41745,-0.0419 z"
       id="path3058"
       inkscape:connector-curvature="0" />
  </g>
</svg>
