<?xml version="1.0" encoding="UTF-8" standalone="no"?>
<!-- Created with Inkscape (http://www.inkscape.org/) -->

<svg
   xmlns:dc="http://purl.org/dc/elements/1.1/"
   xmlns:cc="http://creativecommons.org/ns#"
   xmlns:rdf="http://www.w3.org/1999/02/22-rdf-syntax-ns#"
   xmlns:svg="http://www.w3.org/2000/svg"
   xmlns="http://www.w3.org/2000/svg"
   xmlns:sodipodi="http://sodipodi.sourceforge.net/DTD/sodipodi-0.dtd"
   xmlns:inkscape="http://www.inkscape.org/namespaces/inkscape"
   width="20"
   height="20"
   id="svg2"
   version="1.1"
   inkscape:version="0.48.5 r10040"
   sodipodi:docname="secondary_school_operational.svg">
  <defs
     id="defs4" />
  <sodipodi:namedview
     id="base"
     pagecolor="#ffffff"
     bordercolor="#666666"
     borderopacity="1.0"
     inkscape:pageopacity="0.0"
     inkscape:pageshadow="2"
     inkscape:zoom="44.8"
     inkscape:cx="-1.5415753"
     inkscape:cy="9.3698836"
     inkscape:document-units="px"
     inkscape:current-layer="layer1"
     showgrid="false"
     fit-margin-top="0"
     fit-margin-left="0"
     fit-margin-right="0"
     fit-margin-bottom="0"
     inkscape:window-width="1920"
     inkscape:window-height="1018"
     inkscape:window-x="-8"
     inkscape:window-y="-8"
     inkscape:window-maximized="1" />
  <metadata
     id="metadata7">
    <rdf:RDF>
      <cc:Work
         rdf:about="">
        <dc:format>image/svg+xml</dc:format>
        <dc:type
           rdf:resource="http://purl.org/dc/dcmitype/StillImage" />
        <dc:title />
      </cc:Work>
    </rdf:RDF>
  </metadata>
  <g
     inkscape:label="Layer 1"
     inkscape:groupmode="layer"
     id="layer1"
     transform="translate(-438.02958,-399.32648)">
    <g
       id="g3102"
       transform="translate(441.46094,402.5854)"
       style="stroke:#ffffff;stroke-opacity:0.49019607999999998;stroke-width:0.3;stroke-miterlimit:4;stroke-dasharray:none" />
    <g
       id="g3104"
       transform="translate(441.46094,402.5854)"
       style="stroke:#ffffff;stroke-opacity:0.49019607999999998;stroke-width:0.3;stroke-miterlimit:4;stroke-dasharray:none" />
    <g
       id="g3106"
       transform="translate(441.46094,402.5854)"
       style="stroke:#ffffff;stroke-opacity:0.49019607999999998;stroke-width:0.3;stroke-miterlimit:4;stroke-dasharray:none" />
    <g
       id="g3108"
       transform="translate(441.46094,402.5854)"
       style="stroke:#ffffff;stroke-opacity:0.49019607999999998;stroke-width:0.3;stroke-miterlimit:4;stroke-dasharray:none" />
    <g
       id="g3110"
       transform="translate(441.46094,402.5854)"
       style="stroke:#ffffff;stroke-opacity:0.49019607999999998;stroke-width:0.3;stroke-miterlimit:4;stroke-dasharray:none" />
    <g
       id="g3112"
       transform="translate(441.46094,402.5854)"
       style="stroke:#ffffff;stroke-opacity:0.49019607999999998;stroke-width:0.3;stroke-miterlimit:4;stroke-dasharray:none" />
    <g
       id="g3114"
       transform="translate(441.46094,402.5854)"
       style="stroke:#ffffff;stroke-opacity:0.49019607999999998;stroke-width:0.3;stroke-miterlimit:4;stroke-dasharray:none" />
    <g
       id="g3116"
       transform="translate(441.46094,402.5854)"
       style="stroke:#ffffff;stroke-opacity:0.49019607999999998;stroke-width:0.3;stroke-miterlimit:4;stroke-dasharray:none" />
    <g
       id="g3118"
       transform="translate(441.46094,402.5854)"
       style="stroke:#ffffff;stroke-opacity:0.49019607999999998;stroke-width:0.3;stroke-miterlimit:4;stroke-dasharray:none" />
    <g
       id="g3120"
       transform="translate(441.46094,402.5854)"
       style="stroke:#ffffff;stroke-opacity:0.49019607999999998;stroke-width:0.3;stroke-miterlimit:4;stroke-dasharray:none" />
    <g
       id="g3122"
       transform="translate(441.46094,402.5854)"
       style="stroke:#ffffff;stroke-opacity:0.49019607999999998;stroke-width:0.3;stroke-miterlimit:4;stroke-dasharray:none" />
    <g
       id="g3124"
       transform="translate(441.46094,402.5854)"
       style="stroke:#ffffff;stroke-opacity:0.49019607999999998;stroke-width:0.3;stroke-miterlimit:4;stroke-dasharray:none" />
    <g
       id="g3126"
       transform="translate(441.46094,402.5854)"
       style="stroke:#ffffff;stroke-opacity:0.49019607999999998;stroke-width:0.3;stroke-miterlimit:4;stroke-dasharray:none" />
    <g
       id="g3128"
       transform="translate(441.46094,402.5854)"
       style="stroke:#ffffff;stroke-opacity:0.49019607999999998;stroke-width:0.3;stroke-miterlimit:4;stroke-dasharray:none" />
    <g
       id="g3130"
       transform="translate(441.46094,402.5854)"
       style="stroke:#ffffff;stroke-opacity:0.49019607999999998;stroke-width:0.3;stroke-miterlimit:4;stroke-dasharray:none" />
    <g
       id="g5967"
       transform="translate(441.76651,402.11736)"
       style="stroke:#ffffff;stroke-width:0.003;stroke-miterlimit:4;stroke-opacity:0.49019608;stroke-dasharray:none">
      <path
         id="path5929"
         d="m 5.166,9.328 -0.645,1.184 c -0.031,0.069 -0.119,0.186 -0.338,0.186 -0.268,0 -0.717,-0.169 -1.006,-0.292 L 3.12,10.528 2.682,10.326 2.739,10.204 C 2.355,10.011 1.879,9.73 1.791,9.489 L 1.756,9.356 1.791,9.262 2.283,7.992 C 1.777,8.312 1.34,9.012 0.789,10.132 L 0.164,11.448 C 0.111,11.565 0.059,11.683 0,11.804 l 3.738,1.729 c 0.057,-0.121 0.109,-0.239 0.164,-0.354 l 0.6,-1.326 C 5,10.706 5.25,9.922 5.166,9.328 z m -1.199,2.886 -0.465,1.008 -3.113,-1.44 0.467,-1.008 c 0.133,-0.283 0.477,-0.43 0.908,-0.43 0.322,0 0.695,0.083 1.064,0.253 0.86,0.398 1.371,1.121 1.139,1.617 z M 3.721,11.763 c 0.047,0.131 0.049,0.245 0.006,0.34 L 3.373,12.87 0.742,11.652 1.097,10.886 c 0.08,-0.173 0.328,-0.276 0.666,-0.276 0.295,0 0.633,0.081 0.953,0.229 0.495,0.228 0.88,0.582 1.005,0.924 z M 4.43,8.084 c 0.092,0.039 0.188,0.064 0.287,0.072 0.016,0.095 0.021,0.191 0.012,0.29 0.275,0.17 0.441,0.312 0.412,0.372 L 4.282,10.397 C 4.233,10.501 3.694,10.354 3.073,10.068 2.455,9.781 1.99,9.465 2.039,9.358 L 2.687,7.682 C 2.717,7.622 2.93,7.656 3.234,7.755 3.424,7.561 3.674,7.457 3.92,7.457 3.938,7.544 3.965,7.634 4.02,7.728 3.852,7.698 3.678,7.749 3.528,7.859 3.678,7.917 3.839,7.984 4.003,8.061 4.169,8.138 4.323,8.215 4.462,8.291 4.457,8.222 4.455,8.152 4.432,8.088 c 0,-0.002 0,-0.003 -0.002,-0.004 z m 6.386,0.272 c -0.037,0.202 0.01,0.585 0.096,0.771 l 2.197,4.768 c 0.111,0.243 0.24,0.52 0.049,0.82 C 13.045,14.892 12.848,15 12.639,15 l 0,0 c -0.369,0 -0.535,-0.28 -0.67,-0.504 L 9.254,9.933 8.518,11.427 c -0.172,0.35 -0.514,0.847 -0.777,1.13 l -1.48,1.596 c -0.193,0.207 -0.344,0.369 -0.627,0.369 -0.236,0 -0.451,-0.136 -0.555,-0.349 -0.172,-0.36 0.037,-0.621 0.223,-0.851 L 6.763,11.511 C 6.919,11.317 7.126,10.92 7.195,10.679 L 7.738,8.783 C 7.816,8.505 7.908,8.01 7.931,7.722 L 8.171,4.81 C 6.988,5.202 5.83,6.747 5.438,7.394 5.271,7.664 5.131,7.897 4.779,7.898 H 4.777 C 4.562,7.898 4.359,7.783 4.25,7.595 4.068,7.287 4.201,7.045 4.355,6.767 4.445,6.606 6.63,2.752 9.578,2.984 c 1.273,0.109 1.68,1.066 1.949,1.699 0.062,0.147 0.123,0.291 0.193,0.419 l 1.682,3.04 c 0.16,0.291 0.064,0.668 -0.221,0.836 -0.287,0.169 -0.648,0.09 -0.824,-0.191 L 11.105,6.789 10.816,8.356 z m 0.731,-7.17 C 11.674,1.957 11.151,2.684 10.381,2.81 9.609,2.937 8.883,2.413 8.758,1.643 8.631,0.872 9.152,0.145 9.922,0.019 c 0.771,-0.127 1.498,0.396 1.625,1.167 z"
         style="fill:#010002;stroke:#ffffff;stroke-width:0.003;stroke-miterlimit:4;stroke-opacity:0.49019608;stroke-dasharray:none"
         inkscape:connector-curvature="0" />
      <g
         id="g5931"
         style="stroke:#ffffff;stroke-width:0.003;stroke-miterlimit:4;stroke-opacity:0.49019608;stroke-dasharray:none" />
      <g
         id="g5933"
         style="stroke:#ffffff;stroke-width:0.003;stroke-miterlimit:4;stroke-opacity:0.49019608;stroke-dasharray:none" />
      <g
         id="g5935"
         style="stroke:#ffffff;stroke-width:0.003;stroke-miterlimit:4;stroke-opacity:0.49019608;stroke-dasharray:none" />
      <g
         id="g5937"
         style="stroke:#ffffff;stroke-width:0.003;stroke-miterlimit:4;stroke-opacity:0.49019608;stroke-dasharray:none" />
      <g
         id="g5939"
         style="stroke:#ffffff;stroke-width:0.003;stroke-miterlimit:4;stroke-opacity:0.49019608;stroke-dasharray:none" />
      <g
         id="g5941"
         style="stroke:#ffffff;stroke-width:0.003;stroke-miterlimit:4;stroke-opacity:0.49019608;stroke-dasharray:none" />
      <g
         id="g5943"
         style="stroke:#ffffff;stroke-width:0.003;stroke-miterlimit:4;stroke-opacity:0.49019608;stroke-dasharray:none" />
      <g
         id="g5945"
         style="stroke:#ffffff;stroke-width:0.003;stroke-miterlimit:4;stroke-opacity:0.49019608;stroke-dasharray:none" />
      <g
         id="g5947"
         style="stroke:#ffffff;stroke-width:0.003;stroke-miterlimit:4;stroke-opacity:0.49019608;stroke-dasharray:none" />
      <g
         id="g5949"
         style="stroke:#ffffff;stroke-width:0.003;stroke-miterlimit:4;stroke-opacity:0.49019608;stroke-dasharray:none" />
      <g
         id="g5951"
         style="stroke:#ffffff;stroke-width:0.003;stroke-miterlimit:4;stroke-opacity:0.49019608;stroke-dasharray:none" />
      <g
         id="g5953"
         style="stroke:#ffffff;stroke-width:0.003;stroke-miterlimit:4;stroke-opacity:0.49019608;stroke-dasharray:none" />
      <g
         id="g5955"
         style="stroke:#ffffff;stroke-width:0.003;stroke-miterlimit:4;stroke-opacity:0.49019608;stroke-dasharray:none" />
      <g
         id="g5957"
         style="stroke:#ffffff;stroke-width:0.003;stroke-miterlimit:4;stroke-opacity:0.49019608;stroke-dasharray:none" />
      <g
         id="g5959"
         style="stroke:#ffffff;stroke-width:0.003;stroke-miterlimit:4;stroke-opacity:0.49019608;stroke-dasharray:none" />
    </g>
    <rect
       style="fill:#16502d;fill-opacity:1;stroke:#ffffff;stroke-width:0.30000001;stroke-linecap:square;stroke-linejoin:round;stroke-miterlimit:4;stroke-opacity:0.49019608;stroke-dasharray:none"
       id="rect5985"
       width="1.4142135"
       height="7.5572038"
       x="441.21405"
       y="401.39722" />
    <path
       style="fill:#16502d;fill-opacity:1;stroke:#ffffff;stroke-width:0.30000001;stroke-linecap:square;stroke-linejoin:round;stroke-miterlimit:4;stroke-opacity:0.49019608;stroke-dasharray:none"
       d="m 453.98981,416.88607 c -0.11719,-0.12005 -0.69588,-1.0505 -1.55493,-2.50011 -0.75255,-1.26989 -1.38363,-2.31838 -1.40241,-2.32999 -0.0188,-0.0116 -0.23417,0.38053 -0.47867,0.87141 -0.24449,0.49087 -0.54451,1.03712 -0.66671,1.21389 -0.18988,0.27467 -1.74781,2.00161 -2.08389,2.30994 -0.32239,0.29579 -0.891,0.11566 -0.98493,-0.31202 -0.0148,-0.0672 -0.003,-0.19385 0.0256,-0.28135 0.0289,-0.0875 0.45305,-0.65933 0.94261,-1.27074 0.48955,-0.6114 0.9448,-1.21378 1.01166,-1.33864 0.12194,-0.22771 0.66618,-2.04664 0.79821,-2.66771 0.0387,-0.18231 0.0903,-0.51045 0.11449,-0.72921 0.0834,-0.75304 0.24368,-2.89104 0.21865,-2.91607 -0.0399,-0.0399 -0.41301,0.13549 -0.6943,0.32651 -0.62021,0.42118 -1.25795,1.09609 -1.89106,2.0013 -0.46017,0.65795 -0.60157,0.77513 -0.86829,0.71956 -0.29071,-0.0606 -0.51713,-0.31181 -0.51661,-0.57324 7.9e-4,-0.39307 0.94502,-1.76082 1.81883,-2.63463 0.97675,-0.97675 1.94541,-1.50655 2.98852,-1.63454 0.36654,-0.045 0.47856,-0.0423 0.76871,0.0185 0.48499,0.10162 0.72473,0.22832 1.05817,0.55922 0.25961,0.25764 0.33135,0.37031 0.63022,0.98976 0.18548,0.38447 0.70741,1.36715 1.15983,2.18374 0.73427,1.32531 0.82216,1.50575 0.81865,1.68074 -0.005,0.22943 -0.0894,0.3768 -0.28556,0.49642 -0.17539,0.10694 -0.39622,0.11048 -0.568,0.009 -0.0889,-0.0525 -0.33114,-0.39688 -0.75373,-1.07171 -0.34247,-0.54691 -0.64747,-1.02145 -0.67777,-1.05454 -0.0705,-0.077 -0.066,-0.0937 -0.24537,0.89638 -0.12621,0.6965 -0.13796,0.82451 -0.0974,1.06142 0.0339,0.19807 0.35379,0.93605 1.20826,2.7877 1.34482,2.91426 1.33743,2.89116 1.02536,3.20322 -0.16053,0.16053 -0.1979,0.17689 -0.40422,0.17689 -0.20986,0 -0.24168,-0.0147 -0.41399,-0.19122 l 0,0 z"
       id="path5987"
       inkscape:connector-curvature="0" />
    <path
       style="fill:#16502d;fill-opacity:1;stroke:#ffffff;stroke-width:0.30000001;stroke-linecap:square;stroke-linejoin:round;stroke-miterlimit:4;stroke-opacity:0.49019608;stroke-dasharray:none"
       d="m 445.62146,412.45915 c -0.54673,-0.14933 -1.70071,-0.75258 -1.76622,-0.9233 -0.0221,-0.0577 0.56856,-1.64641 0.63839,-1.71706 0.0178,-0.018 0.14093,-0.0101 0.27362,0.0176 0.22884,0.0478 0.25002,0.0444 0.41143,-0.0655 0.15212,-0.10356 0.45133,-0.19935 0.48931,-0.15664 0.008,0.009 0.0283,0.0611 0.0451,0.11579 0.0261,0.0849 0.0143,0.0994 -0.0808,0.0994 -0.13561,0 -0.34347,0.0896 -0.32643,0.14075 0.0118,0.0354 0.85995,0.43377 0.92349,0.43377 0.0167,0 0.0207,-0.0373 0.009,-0.083 -0.018,-0.069 -0.002,-0.0793 0.0928,-0.0611 0.0923,0.0176 0.11965,0.0539 0.14088,0.18663 0.0184,0.11527 0.0618,0.18568 0.14451,0.23453 0.065,0.0384 0.15246,0.1077 0.19438,0.15402 0.073,0.0807 0.0582,0.11737 -0.3554,0.87616 -0.31961,0.58641 -0.4544,0.79426 -0.51935,0.80089 -0.0482,0.005 -0.18976,-0.0189 -0.31447,-0.053 l 0,0 z"
       id="path5989"
       inkscape:connector-curvature="0" />
    <path
       style="fill:#16502d;fill-opacity:1;stroke:#ffffff;stroke-width:0.30000001;stroke-linecap:square;stroke-linejoin:round;stroke-miterlimit:4;stroke-opacity:0.49019608;stroke-dasharray:none"
       d="m 443.66059,414.77504 c -0.98443,-0.45914 -1.80724,-0.84075 -1.82847,-0.84804 -0.0415,-0.0142 0.63021,-1.46348 0.99793,-2.15301 0.12314,-0.23092 0.32845,-0.58137 0.45624,-0.77878 0.22733,-0.35119 0.6186,-0.80361 0.65957,-0.76264 0.0113,0.0113 -0.0858,0.29645 -0.2159,0.63355 -0.20072,0.52012 -0.22989,0.63196 -0.19269,0.73866 0.054,0.15483 0.29772,0.36772 0.65163,0.56913 0.18357,0.10447 0.26271,0.17487 0.25127,0.22352 -0.0219,0.0932 0.40124,0.28157 0.48194,0.2146 0.0371,-0.0308 0.17624,-0.003 0.45215,0.0891 0.46167,0.15467 0.72371,0.17103 0.84218,0.0526 0.0445,-0.0445 0.1968,-0.29811 0.33835,-0.56348 0.3812,-0.71463 0.39114,-0.72417 0.35903,-0.34457 -0.0324,0.38353 -0.18431,0.92038 -0.43921,1.55258 -0.26479,0.65671 -0.97113,2.22167 -1.00027,2.21616 -0.0131,-0.002 -0.82933,-0.38018 -1.81375,-0.83932 z m 1.88531,0.0257 c 0.19686,-0.42234 0.24634,-0.57301 0.24392,-0.74284 -0.008,-0.56328 -0.62008,-1.17626 -1.47362,-1.47589 -0.47014,-0.16504 -1.07383,-0.16994 -1.38594,-0.0113 -0.20939,0.10647 -0.23186,0.13629 -0.47245,0.62708 -0.13893,0.28341 -0.26452,0.5628 -0.27909,0.62086 -0.0253,0.10075 0.0436,0.13807 1.51213,0.81966 0.84625,0.39276 1.55426,0.70918 1.57336,0.70315 0.0191,-0.006 0.14586,-0.24938 0.28169,-0.54077 l 0,0 z"
       id="path5991"
       inkscape:connector-curvature="0" />
    <path
       style="fill:#16502d;fill-opacity:1;stroke:#ffffff;stroke-width:0.30000001;stroke-linecap:square;stroke-linejoin:round;stroke-miterlimit:4;stroke-opacity:0.49019608;stroke-dasharray:none"
       d="m 443.83962,414.36248 c -0.69151,-0.32243 -1.26203,-0.6042 -1.26783,-0.62614 -0.0218,-0.0827 0.36442,-0.79169 0.47436,-0.87063 0.16694,-0.11987 0.57738,-0.14538 0.92132,-0.0573 0.76851,0.19688 1.51392,0.80372 1.51392,1.23249 0,0.1192 -0.32676,0.92282 -0.37059,0.9114 -0.008,-0.002 -0.57968,-0.26743 -1.27118,-0.58986 z"
       id="path5993"
       inkscape:connector-curvature="0" />
    <path
       style="fill:#16502d;fill-opacity:1;stroke:#ffffff;stroke-width:0.30000001;stroke-linecap:square;stroke-linejoin:round;stroke-miterlimit:4;stroke-opacity:0.49019608;stroke-dasharray:none"
       d="m 451.54925,404.86474 c -0.28138,-0.0932 -0.42909,-0.18549 -0.62496,-0.39029 -0.23054,-0.24105 -0.31222,-0.40354 -0.3618,-0.71972 -0.0704,-0.44864 0.0486,-0.82706 0.36699,-1.16744 0.28092,-0.30032 0.57055,-0.42333 0.99676,-0.42332 0.27349,10e-6 0.37713,0.0217 0.58162,0.12175 0.47332,0.23157 0.74542,0.64606 0.77759,1.1845 0.0177,0.29682 0.006,0.36796 -0.10169,0.60756 -0.14046,0.31297 -0.41442,0.58891 -0.71806,0.72323 -0.25295,0.11188 -0.68125,0.14167 -0.91645,0.0637 z"
       id="path5995"
       inkscape:connector-curvature="0" />
    <rect
       style="fill:#16502d;fill-opacity:1;stroke:#ffffff;stroke-width:0.30000001;stroke-linecap:square;stroke-linejoin:round;stroke-miterlimit:4;stroke-opacity:0.49019608;stroke-dasharray:none"
       id="rect5985-1"
       width="1.4142135"
       height="7.5572038"
       x="443.43854"
       y="401.39609" />
  </g>
</svg>
