<?xml version="1.0" encoding="UTF-8" standalone="no"?>
<!-- Created with Inkscape (http://www.inkscape.org/) -->

<svg
   xmlns:dc="http://purl.org/dc/elements/1.1/"
   xmlns:cc="http://creativecommons.org/ns#"
   xmlns:rdf="http://www.w3.org/1999/02/22-rdf-syntax-ns#"
   xmlns:svg="http://www.w3.org/2000/svg"
   xmlns="http://www.w3.org/2000/svg"
   xmlns:sodipodi="http://sodipodi.sourceforge.net/DTD/sodipodi-0.dtd"
   xmlns:inkscape="http://www.inkscape.org/namespaces/inkscape"
   width="20"
   height="20"
   id="svg2"
   version="1.1"
   inkscape:version="0.48.5 r10040"
   sodipodi:docname="security_operational.svg">
  <defs
     id="defs4" />
  <sodipodi:namedview
     id="base"
     pagecolor="#ffffff"
     bordercolor="#666666"
     borderopacity="1.0"
     inkscape:pageopacity="0.0"
     inkscape:pageshadow="2"
     inkscape:zoom="31.678384"
     inkscape:cx="12.386996"
     inkscape:cy="9.3698836"
     inkscape:document-units="px"
     inkscape:current-layer="layer1"
     showgrid="false"
     fit-margin-top="0"
     fit-margin-left="0"
     fit-margin-right="0"
     fit-margin-bottom="0"
     inkscape:window-width="1920"
     inkscape:window-height="1018"
     inkscape:window-x="-8"
     inkscape:window-y="-8"
     inkscape:window-maximized="1" />
  <metadata
     id="metadata7">
    <rdf:RDF>
      <cc:Work
         rdf:about="">
        <dc:format>image/svg+xml</dc:format>
        <dc:type
           rdf:resource="http://purl.org/dc/dcmitype/StillImage" />
        <dc:title />
      </cc:Work>
    </rdf:RDF>
  </metadata>
  <g
     inkscape:label="Layer 1"
     inkscape:groupmode="layer"
     id="layer1"
     transform="translate(-438.02958,-399.32648)">
    <g
       id="g3102"
       transform="translate(441.46094,402.5854)"
       style="stroke:#ffffff;stroke-opacity:0.49019607999999998;stroke-width:0.3;stroke-miterlimit:4;stroke-dasharray:none" />
    <g
       id="g3104"
       transform="translate(441.46094,402.5854)"
       style="stroke:#ffffff;stroke-opacity:0.49019607999999998;stroke-width:0.3;stroke-miterlimit:4;stroke-dasharray:none" />
    <g
       id="g3106"
       transform="translate(441.46094,402.5854)"
       style="stroke:#ffffff;stroke-opacity:0.49019607999999998;stroke-width:0.3;stroke-miterlimit:4;stroke-dasharray:none" />
    <g
       id="g3108"
       transform="translate(441.46094,402.5854)"
       style="stroke:#ffffff;stroke-opacity:0.49019607999999998;stroke-width:0.3;stroke-miterlimit:4;stroke-dasharray:none" />
    <g
       id="g3110"
       transform="translate(441.46094,402.5854)"
       style="stroke:#ffffff;stroke-opacity:0.49019607999999998;stroke-width:0.3;stroke-miterlimit:4;stroke-dasharray:none" />
    <g
       id="g3112"
       transform="translate(441.46094,402.5854)"
       style="stroke:#ffffff;stroke-opacity:0.49019607999999998;stroke-width:0.3;stroke-miterlimit:4;stroke-dasharray:none" />
    <g
       id="g3114"
       transform="translate(441.46094,402.5854)"
       style="stroke:#ffffff;stroke-opacity:0.49019607999999998;stroke-width:0.3;stroke-miterlimit:4;stroke-dasharray:none" />
    <g
       id="g3116"
       transform="translate(441.46094,402.5854)"
       style="stroke:#ffffff;stroke-opacity:0.49019607999999998;stroke-width:0.3;stroke-miterlimit:4;stroke-dasharray:none" />
    <g
       id="g3118"
       transform="translate(441.46094,402.5854)"
       style="stroke:#ffffff;stroke-opacity:0.49019607999999998;stroke-width:0.3;stroke-miterlimit:4;stroke-dasharray:none" />
    <g
       id="g3120"
       transform="translate(441.46094,402.5854)"
       style="stroke:#ffffff;stroke-opacity:0.49019607999999998;stroke-width:0.3;stroke-miterlimit:4;stroke-dasharray:none" />
    <g
       id="g3122"
       transform="translate(441.46094,402.5854)"
       style="stroke:#ffffff;stroke-opacity:0.49019607999999998;stroke-width:0.3;stroke-miterlimit:4;stroke-dasharray:none" />
    <g
       id="g3124"
       transform="translate(441.46094,402.5854)"
       style="stroke:#ffffff;stroke-opacity:0.49019607999999998;stroke-width:0.3;stroke-miterlimit:4;stroke-dasharray:none" />
    <g
       id="g3126"
       transform="translate(441.46094,402.5854)"
       style="stroke:#ffffff;stroke-opacity:0.49019607999999998;stroke-width:0.3;stroke-miterlimit:4;stroke-dasharray:none" />
    <g
       id="g3128"
       transform="translate(441.46094,402.5854)"
       style="stroke:#ffffff;stroke-opacity:0.49019607999999998;stroke-width:0.3;stroke-miterlimit:4;stroke-dasharray:none" />
    <g
       id="g3130"
       transform="translate(441.46094,402.5854)"
       style="stroke:#ffffff;stroke-opacity:0.49019607999999998;stroke-width:0.3;stroke-miterlimit:4;stroke-dasharray:none" />
    <path
       style="fill:#333333;fill-opacity:1;stroke:#ffffff;stroke-width:0.30000001;stroke-linecap:square;stroke-linejoin:round;stroke-miterlimit:4;stroke-opacity:0.49019608;stroke-dasharray:none"
       d="m 446.73626,404.01107 c 0,-0.0108 0.0958,-0.49885 0.21294,-1.0846 l 0.21295,-1.06501 2.00805,0 2.00804,0 0.0141,0.0588 c 0.008,0.0324 0.10623,0.52042 0.21886,1.08461 l 0.20479,1.0258 -2.43985,0 c -1.34191,0 -2.43985,-0.009 -2.43985,-0.0196 z"
       id="path5587"
       inkscape:connector-curvature="0" />
    <path
       style="fill:#333333;fill-opacity:1;stroke:#ffffff;stroke-width:0.30000001;stroke-linecap:square;stroke-linejoin:round;stroke-miterlimit:4;stroke-opacity:0.49019608;stroke-dasharray:none"
       d="m 446.43874,416.09856 c -0.007,-0.0611 -0.038,-0.95197 -0.0682,-1.97973 -0.0495,-1.68437 -0.0694,-2.03471 -0.14578,-2.56456 l -0.0174,-0.12092 -2.31638,0.19091 c -2.35087,0.19375 -2.56334,-0.0303 -2.73264,-0.12951 -0.24158,-0.14158 -0.3811,-0.38611 -0.38061,-0.66707 3.1e-4,-0.17733 0.0746,-0.34796 0.2398,-0.55071 0.6439,-0.66908 1.85941,-0.71423 2.73281,-0.92993 0.0252,-0.006 0.65142,-0.093 1.3917,-0.19404 0.99006,-0.13516 1.65028,-0.41295 1.84253,-0.46893 0.68482,-0.19944 1.16491,-0.24584 2.37385,-0.22943 0.99967,0.0136 1.21519,0.0335 1.76118,0.16323 0.49442,0.11745 0.96383,0.33227 1.31552,0.60204 0.36004,0.27617 0.75116,0.76915 0.96309,1.2139 0.11864,0.24898 0.1859,0.57021 0.30353,1.44972 0.1095,0.81859 0.45691,4.06849 0.45691,4.27412 0,0.0509 -0.019,0.052 -0.87552,0.052 -0.68336,0 -0.87538,-0.007 -0.87485,-0.0327 0.002,-0.11598 -0.3488,-3.67565 -0.3668,-3.71772 -0.0157,-0.0366 -0.023,-10e-4 -0.0245,0.1176 -10e-4,0.0934 -0.0253,0.88141 -0.0537,1.75106 -0.0284,0.86964 -0.0518,1.6488 -0.0519,1.73145 l -3.4e-4,0.15028 -1.94706,0 c -1.07089,0 -1.94707,-0.006 -1.94707,-0.0125 0,-0.007 0.88206,-1.5899 1.96013,-3.51787 1.07808,-1.92797 1.96014,-3.51575 1.96014,-3.52841 0,-0.0853 -1.02752,-0.43732 -1.06902,-0.36623 -0.009,0.0147 -0.94469,1.691 -2.08026,3.72514 l -2.06468,3.69845 -0.13561,6.9e-4 -0.1356,6.9e-4 -0.0132,-0.11108 0,0 z"
       id="path5589"
       inkscape:connector-curvature="0"
       sodipodi:nodetypes="csscsssccsssssssssccccccsssscscccccc" />
    <path
       style="fill:#333333;fill-opacity:1;stroke:#ffffff;stroke-width:0.30000001;stroke-linecap:square;stroke-linejoin:round;stroke-miterlimit:4;stroke-opacity:0.49019608;stroke-dasharray:none"
       d="m 448.64414,407.74292 c -0.73975,-0.15826 -1.36111,-0.62695 -1.73416,-1.30805 -0.0513,-0.0936 -0.11125,-0.22135 -0.13334,-0.28396 -0.12119,-0.6108 -0.10303,-1.01424 -0.0852,-1.53873 l 0.0233,-0.16334 2.45341,0 2.4534,0 0.0388,0.13053 c 0.0682,0.22959 0.10202,0.54645 0.0849,0.79514 -0.0816,1.18658 -0.91515,2.13628 -2.08722,2.37806 -0.26983,0.0557 -0.72899,0.0513 -1.01383,-0.01 z"
       id="path5591"
       inkscape:connector-curvature="0"
       sodipodi:nodetypes="cscccccccscc" />
  </g>
</svg>
