<svg version="1.1" id="svg2" inkscape:version="0.48.5 r10040" sodipodi:docname="mass_shelter_operational.svg" xmlns:cc="http://creativecommons.org/ns#" xmlns:dc="http://purl.org/dc/elements/1.1/" xmlns:inkscape="http://www.inkscape.org/namespaces/inkscape" xmlns:rdf="http://www.w3.org/1999/02/22-rdf-syntax-ns#" xmlns:sodipodi="http://sodipodi.sourceforge.net/DTD/sodipodi-0.dtd" xmlns:svg="http://www.w3.org/2000/svg" xmlns="http://www.w3.org/2000/svg" xlink="http://www.w3.org/1999/xlink" x="0px" y="0px" viewBox="0 0 20 20" style="enable-background:new 0 0 20 20;" space="preserve" width="20" height="20">
<style type="text/css">
	.st0{fill:#CCCCCC;stroke:#000000;stroke-width:0.6;stroke-linecap:round;stroke-linejoin:round;stroke-opacity:0.7176;}
</style>
<sodipodi:namedview bordercolor="#666666" borderopacity="1.0" fit-margin-bottom="0" fit-margin-left="0" fit-margin-right="0" fit-margin-top="0" id="base" inkscape:current-layer="layer1" inkscape:cx="7.4625024" inkscape:cy="9.3698836" inkscape:document-units="px" inkscape:pageopacity="0.0" inkscape:pageshadow="2" inkscape:window-height="1018" inkscape:window-maximized="1" inkscape:window-width="1920" inkscape:window-x="-8" inkscape:window-y="-8" inkscape:zoom="31.678384" pagecolor="#ffffff" showgrid="false">
	<inkscape:grid id="grid3003" type="xygrid"/>
</sodipodi:namedview>
<g id="layer1" transform="translate(-438.02958,-399.32648)" inkscape:groupmode="layer" inkscape:label="Layer 1">
	<g id="g3102" transform="translate(441.46094,402.5854)">
	</g>
	<g id="g3104" transform="translate(441.46094,402.5854)">
	</g>
	<g id="g3106" transform="translate(441.46094,402.5854)">
	</g>
	<g id="g3108" transform="translate(441.46094,402.5854)">
	</g>
	<g id="g3110" transform="translate(441.46094,402.5854)">
	</g>
	<g id="g3112" transform="translate(441.46094,402.5854)">
	</g>
	<g id="g3114" transform="translate(441.46094,402.5854)">
	</g>
	<g id="g3116" transform="translate(441.46094,402.5854)">
	</g>
	<g id="g3118" transform="translate(441.46094,402.5854)">
	</g>
	<g id="g3120" transform="translate(441.46094,402.5854)">
	</g>
	<g id="g3122" transform="translate(441.46094,402.5854)">
	</g>
	<g id="g3124" transform="translate(441.46094,402.5854)">
	</g>
	<g id="g3126" transform="translate(441.46094,402.5854)">
	</g>
	<g id="g3128" transform="translate(441.46094,402.5854)">
	</g>
	<g id="g3130" transform="translate(441.46094,402.5854)">
	</g>
	<path id="rect3001" class="st0" d="M441.3,400.4h13.6c1.2,0,2.1,1,2.1,2.1V416c0,1.2-0.9,2.1-2.1,2.1h-13.6c-1.2,0-2.1-1-2.1-2.1
		v-13.4C439.2,401.4,440.1,400.4,441.3,400.4z"/>
</g>
</svg>
