<?xml version="1.0" encoding="UTF-8" standalone="no"?>
<!-- Created with Inkscape (http://www.inkscape.org/) -->

<svg
   xmlns:dc="http://purl.org/dc/elements/1.1/"
   xmlns:cc="http://creativecommons.org/ns#"
   xmlns:rdf="http://www.w3.org/1999/02/22-rdf-syntax-ns#"
   xmlns:svg="http://www.w3.org/2000/svg"
   xmlns="http://www.w3.org/2000/svg"
   xmlns:sodipodi="http://sodipodi.sourceforge.net/DTD/sodipodi-0.dtd"
   xmlns:inkscape="http://www.inkscape.org/namespaces/inkscape"
   width="20"
   height="20"
   id="svg2"
   version="1.1"
   inkscape:version="0.48.5 r10040"
   sodipodi:docname="shops_operational.svg">
  <defs
     id="defs4" />
  <sodipodi:namedview
     id="base"
     pagecolor="#ffffff"
     bordercolor="#666666"
     borderopacity="1.0"
     inkscape:pageopacity="0.0"
     inkscape:pageshadow="2"
     inkscape:zoom="11.2"
     inkscape:cx="-1.5415753"
     inkscape:cy="9.3698836"
     inkscape:document-units="px"
     inkscape:current-layer="layer1"
     showgrid="false"
     fit-margin-top="0"
     fit-margin-left="0"
     fit-margin-right="0"
     fit-margin-bottom="0"
     inkscape:window-width="1920"
     inkscape:window-height="1018"
     inkscape:window-x="-8"
     inkscape:window-y="-8"
     inkscape:window-maximized="1" />
  <metadata
     id="metadata7">
    <rdf:RDF>
      <cc:Work
         rdf:about="">
        <dc:format>image/svg+xml</dc:format>
        <dc:type
           rdf:resource="http://purl.org/dc/dcmitype/StillImage" />
        <dc:title />
      </cc:Work>
    </rdf:RDF>
  </metadata>
  <g
     inkscape:label="Layer 1"
     inkscape:groupmode="layer"
     id="layer1"
     transform="translate(-438.02958,-399.32648)">
    <g
       id="g3102"
       transform="translate(441.46094,402.5854)"
       style="stroke:#ffffff;stroke-opacity:0.49019607999999998;stroke-width:0.3;stroke-miterlimit:4;stroke-dasharray:none" />
    <g
       id="g3104"
       transform="translate(441.46094,402.5854)"
       style="stroke:#ffffff;stroke-opacity:0.49019607999999998;stroke-width:0.3;stroke-miterlimit:4;stroke-dasharray:none" />
    <g
       id="g3106"
       transform="translate(441.46094,402.5854)"
       style="stroke:#ffffff;stroke-opacity:0.49019607999999998;stroke-width:0.3;stroke-miterlimit:4;stroke-dasharray:none" />
    <g
       id="g3108"
       transform="translate(441.46094,402.5854)"
       style="stroke:#ffffff;stroke-opacity:0.49019607999999998;stroke-width:0.3;stroke-miterlimit:4;stroke-dasharray:none" />
    <g
       id="g3110"
       transform="translate(441.46094,402.5854)"
       style="stroke:#ffffff;stroke-opacity:0.49019607999999998;stroke-width:0.3;stroke-miterlimit:4;stroke-dasharray:none" />
    <g
       id="g3112"
       transform="translate(441.46094,402.5854)"
       style="stroke:#ffffff;stroke-opacity:0.49019607999999998;stroke-width:0.3;stroke-miterlimit:4;stroke-dasharray:none" />
    <g
       id="g3114"
       transform="translate(441.46094,402.5854)"
       style="stroke:#ffffff;stroke-opacity:0.49019607999999998;stroke-width:0.3;stroke-miterlimit:4;stroke-dasharray:none" />
    <g
       id="g3116"
       transform="translate(441.46094,402.5854)"
       style="stroke:#ffffff;stroke-opacity:0.49019607999999998;stroke-width:0.3;stroke-miterlimit:4;stroke-dasharray:none" />
    <g
       id="g3118"
       transform="translate(441.46094,402.5854)"
       style="stroke:#ffffff;stroke-opacity:0.49019607999999998;stroke-width:0.3;stroke-miterlimit:4;stroke-dasharray:none" />
    <g
       id="g3120"
       transform="translate(441.46094,402.5854)"
       style="stroke:#ffffff;stroke-opacity:0.49019607999999998;stroke-width:0.3;stroke-miterlimit:4;stroke-dasharray:none" />
    <g
       id="g3122"
       transform="translate(441.46094,402.5854)"
       style="stroke:#ffffff;stroke-opacity:0.49019607999999998;stroke-width:0.3;stroke-miterlimit:4;stroke-dasharray:none" />
    <g
       id="g3124"
       transform="translate(441.46094,402.5854)"
       style="stroke:#ffffff;stroke-opacity:0.49019607999999998;stroke-width:0.3;stroke-miterlimit:4;stroke-dasharray:none" />
    <g
       id="g3126"
       transform="translate(441.46094,402.5854)"
       style="stroke:#ffffff;stroke-opacity:0.49019607999999998;stroke-width:0.3;stroke-miterlimit:4;stroke-dasharray:none" />
    <g
       id="g3128"
       transform="translate(441.46094,402.5854)"
       style="stroke:#ffffff;stroke-opacity:0.49019607999999998;stroke-width:0.3;stroke-miterlimit:4;stroke-dasharray:none" />
    <g
       id="g3130"
       transform="translate(441.46094,402.5854)"
       style="stroke:#ffffff;stroke-opacity:0.49019607999999998;stroke-width:0.3;stroke-miterlimit:4;stroke-dasharray:none" />
    <g
       transform="translate(0.06925436,0.11483674)"
       id="g5831"
       style="fill:#ab38ab;fill-opacity:1;stroke:#ffffff;stroke-width:0.30000001;stroke-miterlimit:4;stroke-opacity:1;stroke-dasharray:none">
      <path
         inkscape:connector-curvature="0"
         id="path5828"
         transform="translate(438.02958,399.32648)"
         d="M 9.78125,4.21875 C 9.5520063,4.227275 9.30148,4.25065 9.15625,4.28125 7.67481,4.59338 6.64332,5.72155 6.21875,7.4375 6.10026,7.91639 6.0297,8.4082 6,9 L 5.96875,9.28125 5.5625,9.3125 c -0.2285,0.0076 -0.50428,-4e-5 -0.625,0 -0.12266,0 -0.22275,0.01985 -0.21875,0.03125 C 4.72284,9.35494 5.18527,10.72182 5.75,12.375 l 1.03125,3 0.59375,0 c 0.32533,-0.007 1.91742,-0.0488 3.5625,-0.0625 1.64509,-0.0137 2.998,0.002 3,0 C 13.94285,15.30749 15.5,9.29675 15.5,9.28125 15.5,9.27315 15.1944,9.25 14.8125,9.25 14.18831,9.25 14.1128,9.25055 14.125,9.21875 14.1325,9.19932 14.1677,9.05562 14.1875,8.90625 14.2382,8.52327 14.23225,7.95111 14.15625,7.59375 13.98396,6.78311 13.60233,6.09892 13,5.5 12.2935,4.79749 11.35553,4.37191 10.375,4.25 10.218985,4.2306 10.010494,4.210225 9.78125,4.21875 z M 10.0625,5.1875 c 0.209606,0.00859 0.409575,0.03255 0.53125,0.0625 0.65396,0.16095 1.19684,0.46943 1.65625,0.90625 0.53911,0.5126 0.86833,1.1052 0.96875,1.8125 0.0354,0.24919 0.02205,0.85615 -0.03125,1.09375 L 13.125,9.25 l -0.3125,0 C 12.64064,9.2577 11.24602,9.27325 9.71875,9.28125 l -2.75,0.03125 0,-0.34375 C 7.01865,7.90821 7.26034,7.01977 7.6875,6.375 7.82749,6.1637 8.14639,5.8353 8.34375,5.6875 8.66104,5.44989 9.10699,5.27115 9.5,5.21875 9.64321,5.19965 9.8528937,5.1789125 10.0625,5.1875 z"
         style="fill:#ab38ab;fill-opacity:1;stroke:#ffffff;stroke-width:0.30000001;stroke-miterlimit:4;stroke-opacity:0.49019608;stroke-dasharray:none" />
    </g>
  </g>
</svg>
