<?xml version="1.0" encoding="UTF-8" standalone="no"?>
<!-- Created with Inkscape (http://www.inkscape.org/) -->

<svg
   xmlns:dc="http://purl.org/dc/elements/1.1/"
   xmlns:cc="http://creativecommons.org/ns#"
   xmlns:rdf="http://www.w3.org/1999/02/22-rdf-syntax-ns#"
   xmlns:svg="http://www.w3.org/2000/svg"
   xmlns="http://www.w3.org/2000/svg"
   xmlns:sodipodi="http://sodipodi.sourceforge.net/DTD/sodipodi-0.dtd"
   xmlns:inkscape="http://www.inkscape.org/namespaces/inkscape"
   width="20"
   height="20"
   id="svg2"
   version="1.1"
   inkscape:version="0.48.5 r10040"
   sodipodi:docname="shower_operational.svg">
  <defs
     id="defs4" />
  <sodipodi:namedview
     id="base"
     pagecolor="#ffffff"
     bordercolor="#666666"
     borderopacity="1.0"
     inkscape:pageopacity="0.0"
     inkscape:pageshadow="2"
     inkscape:zoom="31.678384"
     inkscape:cx="12.386996"
     inkscape:cy="9.3698836"
     inkscape:document-units="px"
     inkscape:current-layer="layer1"
     showgrid="false"
     fit-margin-top="0"
     fit-margin-left="0"
     fit-margin-right="0"
     fit-margin-bottom="0"
     inkscape:window-width="1920"
     inkscape:window-height="1018"
     inkscape:window-x="-8"
     inkscape:window-y="-8"
     inkscape:window-maximized="1" />
  <metadata
     id="metadata7">
    <rdf:RDF>
      <cc:Work
         rdf:about="">
        <dc:format>image/svg+xml</dc:format>
        <dc:type
           rdf:resource="http://purl.org/dc/dcmitype/StillImage" />
        <dc:title />
      </cc:Work>
    </rdf:RDF>
  </metadata>
  <g
     inkscape:label="Layer 1"
     inkscape:groupmode="layer"
     id="layer1"
     transform="translate(-438.02958,-399.32648)">
    <g
       id="g3102"
       transform="translate(441.46094,402.5854)"
       style="stroke:#ffffff;stroke-opacity:0.49019607999999998;stroke-width:0.3;stroke-miterlimit:4;stroke-dasharray:none" />
    <g
       id="g3104"
       transform="translate(441.46094,402.5854)"
       style="stroke:#ffffff;stroke-opacity:0.49019607999999998;stroke-width:0.3;stroke-miterlimit:4;stroke-dasharray:none" />
    <g
       id="g3106"
       transform="translate(441.46094,402.5854)"
       style="stroke:#ffffff;stroke-opacity:0.49019607999999998;stroke-width:0.3;stroke-miterlimit:4;stroke-dasharray:none" />
    <g
       id="g3108"
       transform="translate(441.46094,402.5854)"
       style="stroke:#ffffff;stroke-opacity:0.49019607999999998;stroke-width:0.3;stroke-miterlimit:4;stroke-dasharray:none" />
    <g
       id="g3110"
       transform="translate(441.46094,402.5854)"
       style="stroke:#ffffff;stroke-opacity:0.49019607999999998;stroke-width:0.3;stroke-miterlimit:4;stroke-dasharray:none" />
    <g
       id="g3112"
       transform="translate(441.46094,402.5854)"
       style="stroke:#ffffff;stroke-opacity:0.49019607999999998;stroke-width:0.3;stroke-miterlimit:4;stroke-dasharray:none" />
    <g
       id="g3114"
       transform="translate(441.46094,402.5854)"
       style="stroke:#ffffff;stroke-opacity:0.49019607999999998;stroke-width:0.3;stroke-miterlimit:4;stroke-dasharray:none" />
    <g
       id="g3116"
       transform="translate(441.46094,402.5854)"
       style="stroke:#ffffff;stroke-opacity:0.49019607999999998;stroke-width:0.3;stroke-miterlimit:4;stroke-dasharray:none" />
    <g
       id="g3118"
       transform="translate(441.46094,402.5854)"
       style="stroke:#ffffff;stroke-opacity:0.49019607999999998;stroke-width:0.3;stroke-miterlimit:4;stroke-dasharray:none" />
    <g
       id="g3120"
       transform="translate(441.46094,402.5854)"
       style="stroke:#ffffff;stroke-opacity:0.49019607999999998;stroke-width:0.3;stroke-miterlimit:4;stroke-dasharray:none" />
    <g
       id="g3122"
       transform="translate(441.46094,402.5854)"
       style="stroke:#ffffff;stroke-opacity:0.49019607999999998;stroke-width:0.3;stroke-miterlimit:4;stroke-dasharray:none" />
    <g
       id="g3124"
       transform="translate(441.46094,402.5854)"
       style="stroke:#ffffff;stroke-opacity:0.49019607999999998;stroke-width:0.3;stroke-miterlimit:4;stroke-dasharray:none" />
    <g
       id="g3126"
       transform="translate(441.46094,402.5854)"
       style="stroke:#ffffff;stroke-opacity:0.49019607999999998;stroke-width:0.3;stroke-miterlimit:4;stroke-dasharray:none" />
    <g
       id="g3128"
       transform="translate(441.46094,402.5854)"
       style="stroke:#ffffff;stroke-opacity:0.49019607999999998;stroke-width:0.3;stroke-miterlimit:4;stroke-dasharray:none" />
    <g
       id="g3130"
       transform="translate(441.46094,402.5854)"
       style="stroke:#ffffff;stroke-opacity:0.49019607999999998;stroke-width:0.3;stroke-miterlimit:4;stroke-dasharray:none" />
    <path
       style="fill:#1a1a1a;fill-opacity:1;stroke:#ffffff;stroke-width:0.30000001;stroke-linecap:square;stroke-linejoin:round;stroke-miterlimit:4;stroke-opacity:0.49019608;stroke-dasharray:none"
       d="m 443.11743,408.77016 c 0.15113,-1.30471 1.05228,-2.33342 2.33727,-2.66812 0.20072,-0.0523 0.63532,-0.094 0.97903,-0.094 l 0.61808,0 0,-1.92561 0,-1.9256 1.04172,0 1.04172,0 0,1.9256 0,1.92561 0.61692,0 c 1.03823,0 1.74412,0.26966 2.38594,0.91147 0.1758,0.17581 0.39733,0.45228 0.49228,0.6144 0.18835,0.32158 0.4192,1.05441 0.4192,1.33076 l 0,0.17382 -4.98162,0 -4.98162,0 0.0311,-0.26832 0,0 z"
       id="path5181"
       inkscape:connector-curvature="0" />
    <path
       style="fill:#1a1a1a;fill-opacity:1;stroke:#ffffff;stroke-width:0.30000001;stroke-linecap:square;stroke-linejoin:round;stroke-miterlimit:4;stroke-opacity:0.49019608;stroke-dasharray:none"
       d="m 445.81781,410.58815 c -0.1975,-0.1975 -0.1975,-0.43958 0,-0.63709 0.19751,-0.1975 0.43959,-0.1975 0.63709,0 0.1975,0.19751 0.1975,0.43959 0,0.63709 -0.1975,0.1975 -0.43958,0.1975 -0.63709,0 z"
       id="path5185"
       inkscape:connector-curvature="0" />
    <path
       style="fill:#1a1a1a;fill-opacity:1;stroke:#ffffff;stroke-width:0.30000001;stroke-linecap:square;stroke-linejoin:round;stroke-miterlimit:4;stroke-opacity:0.49019608;stroke-dasharray:none"
       d="m 445.47803,412.59707 c -0.17542,-0.223 -0.16489,-0.4367 0.0312,-0.63276 0.13069,-0.13069 0.20089,-0.15451 0.36302,-0.12321 0.40566,0.0783 0.54773,0.48663 0.26701,0.76735 -0.21089,0.21089 -0.49015,0.20608 -0.6612,-0.0114 l 0,0 z"
       id="path5187"
       inkscape:connector-curvature="0" />
    <path
       style="fill:#1a1a1a;fill-opacity:1;stroke:#ffffff;stroke-width:0.30000001;stroke-linecap:square;stroke-linejoin:round;stroke-miterlimit:4;stroke-opacity:0.49019608;stroke-dasharray:none"
       d="m 445.16967,414.655 c -0.23312,-0.21719 -0.17467,-0.57412 0.11888,-0.72593 0.23861,-0.12338 0.26995,-0.11889 0.49572,0.0711 0.22805,0.19189 0.24767,0.38294 0.0634,0.61721 -0.16317,0.20744 -0.47703,0.22485 -0.67799,0.0376 z"
       id="path5189"
       inkscape:connector-curvature="0" />
    <path
       style="fill:#1a1a1a;fill-opacity:1;stroke:#ffffff;stroke-width:0.30000001;stroke-linecap:square;stroke-linejoin:round;stroke-miterlimit:4;stroke-opacity:0.49019608;stroke-dasharray:none"
       d="m 447.78637,410.61226 c -0.43188,-0.33971 0.0369,-1.01595 0.52362,-0.75544 0.18373,0.0983 0.2831,0.40383 0.18888,0.58068 -0.17291,0.32455 -0.43908,0.38984 -0.7125,0.17476 l 0,0 z"
       id="path5193"
       inkscape:connector-curvature="0" />
    <path
       style="fill:#1a1a1a;fill-opacity:1;stroke:#ffffff;stroke-width:0.30000001;stroke-linecap:square;stroke-linejoin:round;stroke-miterlimit:4;stroke-opacity:0.49019608;stroke-dasharray:none"
       d="m 447.74629,414.84686 c -0.22841,-0.22841 -0.13344,-0.64687 0.17328,-0.76349 0.36163,-0.13749 0.7277,0.22857 0.5902,0.59021 -0.11661,0.30671 -0.53507,0.40169 -0.76348,0.17328 z"
       id="path5199"
       inkscape:connector-curvature="0" />
    <path
       style="fill:#1a1a1a;fill-opacity:1;stroke:#ffffff;stroke-width:0.30000001;stroke-linecap:square;stroke-linejoin:round;stroke-miterlimit:4;stroke-opacity:0.49019608;stroke-dasharray:none"
       d="m 447.89247,412.82553 c -0.28148,-0.11221 -0.36391,-0.53886 -0.14618,-0.75659 0.39778,-0.39779 1.06039,0.17026 0.68331,0.58579 -0.17347,0.19115 -0.34737,0.24644 -0.53713,0.1708 z"
       id="path5203"
       inkscape:connector-curvature="0" />
    <path
       style="fill:#1a1a1a;fill-opacity:1;stroke:#ffffff;stroke-width:0.30000001;stroke-linecap:square;stroke-linejoin:round;stroke-miterlimit:4;stroke-opacity:0.49019608;stroke-dasharray:none"
       d="m 447.8495,416.67318 c -0.43188,-0.33971 0.0369,-1.01596 0.52362,-0.75544 0.18373,0.0983 0.2831,0.40383 0.18888,0.58068 -0.17291,0.32455 -0.43908,0.38984 -0.7125,0.17476 l 0,0 z"
       id="path5205"
       inkscape:connector-curvature="0" />
    <path
       style="fill:#1a1a1a;fill-opacity:1;stroke:#ffffff;stroke-width:0.30000001;stroke-linecap:square;stroke-linejoin:round;stroke-miterlimit:4;stroke-opacity:0.49019608;stroke-dasharray:none"
       d="m 450.01913,412.63715 c -0.18799,-0.18799 -0.16836,-0.52594 0.0401,-0.6899 0.20985,-0.16507 0.34133,-0.16507 0.55118,0 0.33358,0.26239 0.14659,0.81617 -0.27559,0.81617 -0.10522,0 -0.24552,-0.0561 -0.31567,-0.12627 z"
       id="path5207"
       inkscape:connector-curvature="0" />
    <path
       style="fill:#1a1a1a;fill-opacity:1;stroke:#ffffff;stroke-width:0.30000001;stroke-linecap:square;stroke-linejoin:round;stroke-miterlimit:4;stroke-opacity:0.49019608;stroke-dasharray:none"
       d="m 449.71446,410.59699 c -0.19424,-0.20676 -0.18132,-0.50454 0.0291,-0.67004 0.20986,-0.16507 0.34133,-0.16507 0.55118,0 0.21745,0.17104 0.2268,0.48483 0.0202,0.67889 -0.18957,0.17809 -0.42817,0.17458 -0.60048,-0.009 l 0,0 z"
       id="path5209"
       inkscape:connector-curvature="0" />
    <path
       style="fill:#1a1a1a;fill-opacity:1;stroke:#ffffff;stroke-width:0.30000001;stroke-linecap:square;stroke-linejoin:round;stroke-miterlimit:4;stroke-opacity:0.49019608;stroke-dasharray:none"
       d="m 450.47947,414.75093 c -0.28745,-0.12087 -0.37912,-0.54462 -0.16045,-0.74168 0.20473,-0.1845 0.4237,-0.19575 0.61457,-0.0316 0.1993,0.17143 0.22745,0.40781 0.0761,0.63883 -0.12598,0.19227 -0.29233,0.23445 -0.5302,0.13443 l 0,0 z"
       id="path5211"
       inkscape:connector-curvature="0" />
  </g>
</svg>
