<?xml version="1.0" encoding="UTF-8" standalone="no"?>
<!-- Created with Inkscape (http://www.inkscape.org/) -->

<svg
   xmlns:dc="http://purl.org/dc/elements/1.1/"
   xmlns:cc="http://creativecommons.org/ns#"
   xmlns:rdf="http://www.w3.org/1999/02/22-rdf-syntax-ns#"
   xmlns:svg="http://www.w3.org/2000/svg"
   xmlns="http://www.w3.org/2000/svg"
   xmlns:sodipodi="http://sodipodi.sourceforge.net/DTD/sodipodi-0.dtd"
   xmlns:inkscape="http://www.inkscape.org/namespaces/inkscape"
   width="20"
   height="20"
   id="svg2"
   version="1.1"
   inkscape:version="0.48.5 r10040"
   sodipodi:docname="slaughterhouse_operational.svg">
  <defs
     id="defs4" />
  <sodipodi:namedview
     id="base"
     pagecolor="#ffffff"
     bordercolor="#666666"
     borderopacity="1.0"
     inkscape:pageopacity="0.0"
     inkscape:pageshadow="2"
     inkscape:zoom="11.2"
     inkscape:cx="-1.5415753"
     inkscape:cy="9.3698836"
     inkscape:document-units="px"
     inkscape:current-layer="layer1"
     showgrid="false"
     fit-margin-top="0"
     fit-margin-left="0"
     fit-margin-right="0"
     fit-margin-bottom="0"
     inkscape:window-width="1920"
     inkscape:window-height="1018"
     inkscape:window-x="-8"
     inkscape:window-y="-8"
     inkscape:window-maximized="1" />
  <metadata
     id="metadata7">
    <rdf:RDF>
      <cc:Work
         rdf:about="">
        <dc:format>image/svg+xml</dc:format>
        <dc:type
           rdf:resource="http://purl.org/dc/dcmitype/StillImage" />
        <dc:title />
      </cc:Work>
    </rdf:RDF>
  </metadata>
  <g
     inkscape:label="Layer 1"
     inkscape:groupmode="layer"
     id="layer1"
     transform="translate(-438.02958,-399.32648)">
    <g
       id="g3102"
       transform="translate(441.46094,402.5854)"
       style="stroke:#ffffff;stroke-opacity:0.49019607999999998;stroke-width:0.3;stroke-miterlimit:4;stroke-dasharray:none" />
    <g
       id="g3104"
       transform="translate(441.46094,402.5854)"
       style="stroke:#ffffff;stroke-opacity:0.49019607999999998;stroke-width:0.3;stroke-miterlimit:4;stroke-dasharray:none" />
    <g
       id="g3106"
       transform="translate(441.46094,402.5854)"
       style="stroke:#ffffff;stroke-opacity:0.49019607999999998;stroke-width:0.3;stroke-miterlimit:4;stroke-dasharray:none" />
    <g
       id="g3108"
       transform="translate(441.46094,402.5854)"
       style="stroke:#ffffff;stroke-opacity:0.49019607999999998;stroke-width:0.3;stroke-miterlimit:4;stroke-dasharray:none" />
    <g
       id="g3110"
       transform="translate(441.46094,402.5854)"
       style="stroke:#ffffff;stroke-opacity:0.49019607999999998;stroke-width:0.3;stroke-miterlimit:4;stroke-dasharray:none" />
    <g
       id="g3112"
       transform="translate(441.46094,402.5854)"
       style="stroke:#ffffff;stroke-opacity:0.49019607999999998;stroke-width:0.3;stroke-miterlimit:4;stroke-dasharray:none" />
    <g
       id="g3114"
       transform="translate(441.46094,402.5854)"
       style="stroke:#ffffff;stroke-opacity:0.49019607999999998;stroke-width:0.3;stroke-miterlimit:4;stroke-dasharray:none" />
    <g
       id="g3116"
       transform="translate(441.46094,402.5854)"
       style="stroke:#ffffff;stroke-opacity:0.49019607999999998;stroke-width:0.3;stroke-miterlimit:4;stroke-dasharray:none" />
    <g
       id="g3118"
       transform="translate(441.46094,402.5854)"
       style="stroke:#ffffff;stroke-opacity:0.49019607999999998;stroke-width:0.3;stroke-miterlimit:4;stroke-dasharray:none" />
    <g
       id="g3120"
       transform="translate(441.46094,402.5854)"
       style="stroke:#ffffff;stroke-opacity:0.49019607999999998;stroke-width:0.3;stroke-miterlimit:4;stroke-dasharray:none" />
    <g
       id="g3122"
       transform="translate(441.46094,402.5854)"
       style="stroke:#ffffff;stroke-opacity:0.49019607999999998;stroke-width:0.3;stroke-miterlimit:4;stroke-dasharray:none" />
    <g
       id="g3124"
       transform="translate(441.46094,402.5854)"
       style="stroke:#ffffff;stroke-opacity:0.49019607999999998;stroke-width:0.3;stroke-miterlimit:4;stroke-dasharray:none" />
    <g
       id="g3126"
       transform="translate(441.46094,402.5854)"
       style="stroke:#ffffff;stroke-opacity:0.49019607999999998;stroke-width:0.3;stroke-miterlimit:4;stroke-dasharray:none" />
    <g
       id="g3128"
       transform="translate(441.46094,402.5854)"
       style="stroke:#ffffff;stroke-opacity:0.49019607999999998;stroke-width:0.3;stroke-miterlimit:4;stroke-dasharray:none" />
    <g
       id="g3130"
       transform="translate(441.46094,402.5854)"
       style="stroke:#ffffff;stroke-opacity:0.49019607999999998;stroke-width:0.3;stroke-miterlimit:4;stroke-dasharray:none" />
    <g
       id="g6215"
       transform="matrix(1.2363358,0,0,1.2363358,438.93529,401.74005)"
       style="fill:#552200;stroke:#ffffff;stroke-width:0.30000001;stroke-miterlimit:4;stroke-opacity:0.49019608;stroke-dasharray:none">
      <path
         id="path6177"
         d="M 1.842,1.939 C 2.195,1.976 2.609,2.215 2.897,2.217 3.084,2.218 3.337,2.077 3.543,2.062 3.748,2.048 3.959,2.054 4.162,2.099 5.107,2.304 5.98,2.469 7.017,2.417 7.539,2.391 7.953,2.292 8.448,2.13 8.962,1.962 9.331,1.821 9.709,2.291 c 0.11,0.138 0.209,0.46 0.345,0.547 0.191,0.121 0.569,-0.025 0.771,-0.042 0.36,-0.031 1.211,0.107 1.44,-0.212 0.127,-0.182 -0.06,-0.525 -0.011,-0.74 0.047,-0.217 0.215,-0.368 0.342,-0.547 0.244,-0.35 0.568,-0.812 0.612,-1.233 0.201,0.354 -0.346,1.225 -0.393,1.617 C 13.179,1.16 13.452,0.516 13.651,0 c 0.002,0.509 -0.052,0.895 -0.278,1.347 -0.178,0.359 -0.381,0.942 -0.155,1.317 0.195,0.323 0.573,0.414 0.658,0.831 0.106,0.515 0.311,0.802 0.601,1.238 0.179,0.27 0.687,0.786 0.471,1.104 C 14.89,5.924 14.52,6.172 14.416,6.195 14.175,6.244 14.073,6.013 13.844,5.916 13.631,5.824 13.453,5.785 13.233,5.661 13.014,5.539 12.833,5.464 12.574,5.464 c -0.248,0 -0.521,0.055 -0.756,0.134 -0.307,0.103 -0.276,0.194 -0.427,0.43 C 10.936,6.745 9.891,7.024 9.344,7.695 8.96,8.164 9.17,9.42 9.208,10.037 c 0.022,0.359 0.131,0.762 0.309,1.086 0.142,0.258 0.554,0.579 0.543,0.876 C 9.852,12.026 9.304,11.662 9.201,11.497 9.024,11.214 9.058,10.662 8.993,10.346 8.923,10.005 8.801,9.682 8.677,9.361 8.542,9.017 8.48,8.54 8.276,8.241 8.313,8.577 8.321,8.915 8.252,9.242 8.188,9.543 8.014,9.802 7.97,10.101 c -0.051,0.341 0,0.731 0,1.077 0,0.213 -10e-4,0.33 0.094,0.511 0.086,0.156 0.258,0.216 0.25,0.407 C 7.347,11.836 7.616,10.684 7.651,9.912 7.674,9.468 7.638,9.026 7.588,8.588 7.548,8.243 7.596,7.558 7.429,7.26 7.249,6.938 6.69,7.138 6.377,7.182 5.883,7.248 5.387,7.325 4.889,7.274 4.493,7.234 4.105,7.084 3.779,6.854 3.494,6.655 3.199,6.197 2.895,6.102 2.879,6.654 2.602,6.828 2.405,7.305 2.236,7.711 2.141,8.253 2.061,8.67 1.846,9.781 2.417,10.58 2.825,11.531 2.899,11.704 3.054,11.956 2.977,12.127 2.64,11.998 2.499,12.009 2.34,11.631 2.203,11.311 2.152,10.966 2.038,10.633 1.932,10.324 1.831,9.981 1.723,9.656 1.668,9.497 1.492,8.701 1.235,8.99 c 0.108,0.22 0.098,0.549 0.136,0.792 0.045,0.29 0.136,0.577 0.218,0.856 0.071,0.246 0.134,0.517 0.22,0.761 0.081,0.225 0.27,0.486 0.248,0.729 C 1.161,11.929 1.054,10.282 0.897,9.616 0.799,9.212 0.538,8.704 0.54,8.291 0.54,7.819 0.893,7.362 1.046,6.928 1.241,6.382 1.117,5.93 0.896,5.426 0.708,5 0.604,4.369 0.315,4.016 c -0.066,0.986 0,1.984 0,3.005 0,0.542 0.006,1.028 0.035,1.555 0.015,0.351 0.095,1.188 -0.193,1.4 -0.264,-0.311 -0.042,-1.15 0,-1.527 C 0.216,7.919 0.249,7.455 0.197,6.926 0.098,5.913 0,4.85 0,3.814 0,2.997 0.188,2.575 0.888,2.187 1.214,2.006 1.475,1.903 1.842,1.939 z"
         style="fill:#552200;stroke:#ffffff;stroke-width:0.30000001;stroke-miterlimit:4;stroke-opacity:0.49019608;stroke-dasharray:none"
         inkscape:connector-curvature="0" />
      <g
         id="g6179"
         style="fill:#552200;stroke:#ffffff;stroke-width:0.30000001;stroke-miterlimit:4;stroke-opacity:0.49019608;stroke-dasharray:none" />
      <g
         id="g6181"
         style="fill:#552200;stroke:#ffffff;stroke-width:0.30000001;stroke-miterlimit:4;stroke-opacity:0.49019608;stroke-dasharray:none" />
      <g
         id="g6183"
         style="fill:#552200;stroke:#ffffff;stroke-width:0.30000001;stroke-miterlimit:4;stroke-opacity:0.49019608;stroke-dasharray:none" />
      <g
         id="g6185"
         style="fill:#552200;stroke:#ffffff;stroke-width:0.30000001;stroke-miterlimit:4;stroke-opacity:0.49019608;stroke-dasharray:none" />
      <g
         id="g6187"
         style="fill:#552200;stroke:#ffffff;stroke-width:0.30000001;stroke-miterlimit:4;stroke-opacity:0.49019608;stroke-dasharray:none" />
      <g
         id="g6189"
         style="fill:#552200;stroke:#ffffff;stroke-width:0.30000001;stroke-miterlimit:4;stroke-opacity:0.49019608;stroke-dasharray:none" />
      <g
         id="g6191"
         style="fill:#552200;stroke:#ffffff;stroke-width:0.30000001;stroke-miterlimit:4;stroke-opacity:0.49019608;stroke-dasharray:none" />
      <g
         id="g6193"
         style="fill:#552200;stroke:#ffffff;stroke-width:0.30000001;stroke-miterlimit:4;stroke-opacity:0.49019608;stroke-dasharray:none" />
      <g
         id="g6195"
         style="fill:#552200;stroke:#ffffff;stroke-width:0.30000001;stroke-miterlimit:4;stroke-opacity:0.49019608;stroke-dasharray:none" />
      <g
         id="g6197"
         style="fill:#552200;stroke:#ffffff;stroke-width:0.30000001;stroke-miterlimit:4;stroke-opacity:0.49019608;stroke-dasharray:none" />
      <g
         id="g6199"
         style="fill:#552200;stroke:#ffffff;stroke-width:0.30000001;stroke-miterlimit:4;stroke-opacity:0.49019608;stroke-dasharray:none" />
      <g
         id="g6201"
         style="fill:#552200;stroke:#ffffff;stroke-width:0.30000001;stroke-miterlimit:4;stroke-opacity:0.49019608;stroke-dasharray:none" />
      <g
         id="g6203"
         style="fill:#552200;stroke:#ffffff;stroke-width:0.30000001;stroke-miterlimit:4;stroke-opacity:0.49019608;stroke-dasharray:none" />
      <g
         id="g6205"
         style="fill:#552200;stroke:#ffffff;stroke-width:0.30000001;stroke-miterlimit:4;stroke-opacity:0.49019608;stroke-dasharray:none" />
      <g
         id="g6207"
         style="fill:#552200;stroke:#ffffff;stroke-width:0.30000001;stroke-miterlimit:4;stroke-opacity:0.49019608;stroke-dasharray:none" />
    </g>
  </g>
</svg>
