<svg version="1.1" id="svg2" inkscape:version="0.48.5 r10040" sodipodi:docname="airport_operational.svg" xmlns:cc="http://creativecommons.org/ns#" xmlns:dc="http://purl.org/dc/elements/1.1/" xmlns:inkscape="http://www.inkscape.org/namespaces/inkscape" xmlns:rdf="http://www.w3.org/1999/02/22-rdf-syntax-ns#" xmlns:sodipodi="http://sodipodi.sourceforge.net/DTD/sodipodi-0.dtd" xmlns:svg="http://www.w3.org/2000/svg" xmlns="http://www.w3.org/2000/svg" xlink="http://www.w3.org/1999/xlink" x="0px" y="0px" viewBox="0 0 20 20" style="enable-background:new 0 0 20 20;" space="preserve" width="20" height="20">
<style type="text/css">
	.st0{fill:#333333;stroke:#FFFFFF;stroke-width:0.2835;stroke-linecap:square;stroke-linejoin:round;}
</style>
<sodipodi:namedview bordercolor="#666666" borderopacity="1.0" fit-margin-bottom="0" fit-margin-left="0" fit-margin-right="0" fit-margin-top="0" id="base" inkscape:current-layer="layer1" inkscape:cx="12.386996" inkscape:cy="9.3698836" inkscape:document-units="px" inkscape:pageopacity="0.0" inkscape:pageshadow="2" inkscape:window-height="1018" inkscape:window-maximized="1" inkscape:window-width="1920" inkscape:window-x="-8" inkscape:window-y="-8" inkscape:zoom="31.678384" pagecolor="#ffffff" showgrid="false">
	</sodipodi:namedview>
<g>
	<path class="st0" d="M15.9,5.4C15.9,5.4,15.9,5.4,15.9,5.4C15.9,5.4,15.9,5.4,15.9,5.4L15.9,5.4z"/>
	<path class="st0" d="M14.3,4.3h-1.8c-0.5,0-1,0.2-1.3,0.5H9.5c-0.2,0-0.3,0-0.5,0l2.4-1.6l-0.5-0.8L4.1,6.9l0.5,0.8L7.3,6
		c0,0.1-0.1,0.3-0.1,0.5v10.8H8V6.5c0-0.6,0.9-0.9,1.5-0.9h1.6C11.9,6,15.9,6,15.9,5.4C15.9,4.8,15.2,4.3,14.3,4.3z"/>
</g>
</svg>
