<?xml version="1.0" encoding="UTF-8" standalone="no"?>
<!-- Created with Inkscape (http://www.inkscape.org/) -->

<svg
   xmlns:dc="http://purl.org/dc/elements/1.1/"
   xmlns:cc="http://creativecommons.org/ns#"
   xmlns:rdf="http://www.w3.org/1999/02/22-rdf-syntax-ns#"
   xmlns:svg="http://www.w3.org/2000/svg"
   xmlns="http://www.w3.org/2000/svg"
   xmlns:sodipodi="http://sodipodi.sourceforge.net/DTD/sodipodi-0.dtd"
   xmlns:inkscape="http://www.inkscape.org/namespaces/inkscape"
   width="20"
   height="20"
   id="svg2"
   version="1.1"
   inkscape:version="0.48.5 r10040"
   sodipodi:docname="sport_center_operational.svg">
  <defs
     id="defs4" />
  <sodipodi:namedview
     id="base"
     pagecolor="#ffffff"
     bordercolor="#666666"
     borderopacity="1.0"
     inkscape:pageopacity="0.0"
     inkscape:pageshadow="2"
     inkscape:zoom="11.2"
     inkscape:cx="-1.5415753"
     inkscape:cy="9.3698836"
     inkscape:document-units="px"
     inkscape:current-layer="layer1"
     showgrid="false"
     fit-margin-top="0"
     fit-margin-left="0"
     fit-margin-right="0"
     fit-margin-bottom="0"
     inkscape:window-width="1920"
     inkscape:window-height="1018"
     inkscape:window-x="-8"
     inkscape:window-y="-8"
     inkscape:window-maximized="1" />
  <metadata
     id="metadata7">
    <rdf:RDF>
      <cc:Work
         rdf:about="">
        <dc:format>image/svg+xml</dc:format>
        <dc:type
           rdf:resource="http://purl.org/dc/dcmitype/StillImage" />
        <dc:title />
      </cc:Work>
    </rdf:RDF>
  </metadata>
  <g
     inkscape:label="Layer 1"
     inkscape:groupmode="layer"
     id="layer1"
     transform="translate(-438.02958,-399.32648)">
    <g
       id="g3102"
       transform="translate(441.46094,402.5854)"
       style="stroke:#ffffff;stroke-opacity:0.49019607999999998;stroke-width:0.3;stroke-miterlimit:4;stroke-dasharray:none" />
    <g
       id="g3104"
       transform="translate(441.46094,402.5854)"
       style="stroke:#ffffff;stroke-opacity:0.49019607999999998;stroke-width:0.3;stroke-miterlimit:4;stroke-dasharray:none" />
    <g
       id="g3106"
       transform="translate(441.46094,402.5854)"
       style="stroke:#ffffff;stroke-opacity:0.49019607999999998;stroke-width:0.3;stroke-miterlimit:4;stroke-dasharray:none" />
    <g
       id="g3108"
       transform="translate(441.46094,402.5854)"
       style="stroke:#ffffff;stroke-opacity:0.49019607999999998;stroke-width:0.3;stroke-miterlimit:4;stroke-dasharray:none" />
    <g
       id="g3110"
       transform="translate(441.46094,402.5854)"
       style="stroke:#ffffff;stroke-opacity:0.49019607999999998;stroke-width:0.3;stroke-miterlimit:4;stroke-dasharray:none" />
    <g
       id="g3112"
       transform="translate(441.46094,402.5854)"
       style="stroke:#ffffff;stroke-opacity:0.49019607999999998;stroke-width:0.3;stroke-miterlimit:4;stroke-dasharray:none" />
    <g
       id="g3114"
       transform="translate(441.46094,402.5854)"
       style="stroke:#ffffff;stroke-opacity:0.49019607999999998;stroke-width:0.3;stroke-miterlimit:4;stroke-dasharray:none" />
    <g
       id="g3116"
       transform="translate(441.46094,402.5854)"
       style="stroke:#ffffff;stroke-opacity:0.49019607999999998;stroke-width:0.3;stroke-miterlimit:4;stroke-dasharray:none" />
    <g
       id="g3118"
       transform="translate(441.46094,402.5854)"
       style="stroke:#ffffff;stroke-opacity:0.49019607999999998;stroke-width:0.3;stroke-miterlimit:4;stroke-dasharray:none" />
    <g
       id="g3120"
       transform="translate(441.46094,402.5854)"
       style="stroke:#ffffff;stroke-opacity:0.49019607999999998;stroke-width:0.3;stroke-miterlimit:4;stroke-dasharray:none" />
    <g
       id="g3122"
       transform="translate(441.46094,402.5854)"
       style="stroke:#ffffff;stroke-opacity:0.49019607999999998;stroke-width:0.3;stroke-miterlimit:4;stroke-dasharray:none" />
    <g
       id="g3124"
       transform="translate(441.46094,402.5854)"
       style="stroke:#ffffff;stroke-opacity:0.49019607999999998;stroke-width:0.3;stroke-miterlimit:4;stroke-dasharray:none" />
    <g
       id="g3126"
       transform="translate(441.46094,402.5854)"
       style="stroke:#ffffff;stroke-opacity:0.49019607999999998;stroke-width:0.3;stroke-miterlimit:4;stroke-dasharray:none" />
    <g
       id="g3128"
       transform="translate(441.46094,402.5854)"
       style="stroke:#ffffff;stroke-opacity:0.49019607999999998;stroke-width:0.3;stroke-miterlimit:4;stroke-dasharray:none" />
    <g
       id="g3130"
       transform="translate(441.46094,402.5854)"
       style="stroke:#ffffff;stroke-opacity:0.49019607999999998;stroke-width:0.3;stroke-miterlimit:4;stroke-dasharray:none" />
    <g
       id="g3018"
       transform="translate(440.69704,402.1567)">
      <path
         id="path3020"
         d="m 7.015748,15.059056 c -0.070866,0 -0.3188977,-0.03543 -0.496063,-0.03543 C 4.996063,14.811024 3.4724409,14.031497 2.3385827,12.897639 0.92125984,11.480316 0.14173228,9.6377958 0.14173228,7.6181107 c 0,-1.9842521 0.74409449,-3.7913388 2.16141732,-5.2440948 1.1692913,-1.1692914 2.5866141,-1.87795288 4.2165354,-2.16141746 0.496063,-0.0708661 1.7007874,-0.0708661 2.1968504,0 3.0118106,0.49606302 5.4212596,2.69291356 6.1299216,5.59842546 0.177165,0.6377954 0.212598,1.0984253 0.212598,1.8070868 0,1.1692914 -0.248031,2.3031497 -0.744094,3.2952753 -1.098426,2.196851 -3.047245,3.649607 -5.4921264,4.074804 -0.3543307,0.07087 -1.5590551,0.106299 -1.8070866,0.07087 z"
         style="fill:#ab38ab;fill-opacity:1;fill-rule:nonzero;stroke:#ffffff;stroke-width:0.28346455px;stroke-linecap:round;stroke-linejoin:round;stroke-opacity:1;stroke-dasharray:none"
         inkscape:connector-curvature="0" />
      <path
         id="path3022"
         d="m 7.1220472,14.137796 c -0.070866,0 -0.2834646,-0.03543 -0.4251969,-0.03543 C 5.3503937,13.925198 4.03937,13.251969 3.0826771,12.259843 1.8425197,11.019686 1.1692913,9.4251974 1.1692913,7.6889768 1.1692913,5.9527562 1.8070866,4.393701 3.0472441,3.1535435 4.03937,2.1259844 5.2795275,1.4881891 6.6968503,1.2755906 c 0.4251969,-0.070866 1.488189,-0.070866 1.8779528,0 2.6220469,0.4251969 4.7125979,2.3031498 5.3503939,4.854331 0.141732,0.5314961 0.177165,0.956693 0.177165,1.5590552 0,1.0275591 -0.212598,1.9842521 -0.637795,2.8346462 -0.956693,1.913386 -2.65748,3.188976 -4.7834647,3.543307 -0.2834646,0.07087 -1.3464567,0.106299 -1.5590551,0.07087 z"
         style="fill:#ffffff;fill-opacity:1;fill-rule:nonzero;stroke:#ffffff;stroke-width:0.03543307px;stroke-linecap:round;stroke-linejoin:round;stroke-opacity:1;stroke-dasharray:none"
         inkscape:connector-curvature="0" />
      <path
         id="path3024"
         d="M 1.8425197,10.736221 4.2519685,9.8503942 6.9448818,11.940946 7.3346456,14.350394 C 3.4015748,14.102363 2.6574803,12.401575 1.8425197,10.736221 z"
         style="fill:#ab38ab;fill-opacity:1;fill-rule:nonzero;stroke:none"
         inkscape:connector-curvature="0" />
      <path
         id="path3026"
         d="m 12.153543,12.68504 -1.488189,-2.125984 1.38189,-3.1181107 2.232283,-0.992126 c 0.708662,3.8976377 -0.744094,5.0314967 -2.125984,6.2362207 z"
         style="fill:#ab38ab;fill-opacity:1;fill-rule:nonzero;stroke:none"
         inkscape:connector-curvature="0" />
      <path
         id="path3028"
         d="m 4.3937008,7.1929138 3.543307,3.1181102 2.4094492,-2.9409449 0,-2.9763781 -4.4645673,-1.1338583 z"
         style="fill:#ab38ab;fill-opacity:1;fill-rule:nonzero;stroke:none"
         inkscape:connector-curvature="0" />
    </g>
  </g>
</svg>
