<?xml version="1.0" encoding="UTF-8" standalone="no"?>
<!-- Created with Inkscape (http://www.inkscape.org/) -->

<svg
   xmlns:dc="http://purl.org/dc/elements/1.1/"
   xmlns:cc="http://creativecommons.org/ns#"
   xmlns:rdf="http://www.w3.org/1999/02/22-rdf-syntax-ns#"
   xmlns:svg="http://www.w3.org/2000/svg"
   xmlns="http://www.w3.org/2000/svg"
   xmlns:sodipodi="http://sodipodi.sourceforge.net/DTD/sodipodi-0.dtd"
   xmlns:inkscape="http://www.inkscape.org/namespaces/inkscape"
   width="20"
   height="20"
   id="svg2"
   version="1.1"
   inkscape:version="0.48.5 r10040"
   sodipodi:docname="tank_operational.svg">
  <defs
     id="defs4" />
  <sodipodi:namedview
     id="base"
     pagecolor="#ffffff"
     bordercolor="#666666"
     borderopacity="1.0"
     inkscape:pageopacity="0.0"
     inkscape:pageshadow="2"
     inkscape:zoom="31.678384"
     inkscape:cx="-1.5415753"
     inkscape:cy="9.8392633"
     inkscape:document-units="px"
     inkscape:current-layer="layer1"
     showgrid="false"
     fit-margin-top="0"
     fit-margin-left="0"
     fit-margin-right="0"
     fit-margin-bottom="0"
     inkscape:window-width="1920"
     inkscape:window-height="1018"
     inkscape:window-x="-8"
     inkscape:window-y="-8"
     inkscape:window-maximized="1" />
  <metadata
     id="metadata7">
    <rdf:RDF>
      <cc:Work
         rdf:about="">
        <dc:format>image/svg+xml</dc:format>
        <dc:type
           rdf:resource="http://purl.org/dc/dcmitype/StillImage" />
        <dc:title />
      </cc:Work>
    </rdf:RDF>
  </metadata>
  <g
     inkscape:label="Layer 1"
     inkscape:groupmode="layer"
     id="layer1"
     transform="translate(-438.02958,-399.32648)">
    <g
       id="g3102"
       transform="translate(441.46094,402.5854)"
       style="stroke:#ffffff;stroke-opacity:0.49019607999999998;stroke-width:0.3;stroke-miterlimit:4;stroke-dasharray:none" />
    <g
       id="g3104"
       transform="translate(441.46094,402.5854)"
       style="stroke:#ffffff;stroke-opacity:0.49019607999999998;stroke-width:0.3;stroke-miterlimit:4;stroke-dasharray:none" />
    <g
       id="g3106"
       transform="translate(441.46094,402.5854)"
       style="stroke:#ffffff;stroke-opacity:0.49019607999999998;stroke-width:0.3;stroke-miterlimit:4;stroke-dasharray:none" />
    <g
       id="g3108"
       transform="translate(441.46094,402.5854)"
       style="stroke:#ffffff;stroke-opacity:0.49019607999999998;stroke-width:0.3;stroke-miterlimit:4;stroke-dasharray:none" />
    <g
       id="g3110"
       transform="translate(441.46094,402.5854)"
       style="stroke:#ffffff;stroke-opacity:0.49019607999999998;stroke-width:0.3;stroke-miterlimit:4;stroke-dasharray:none" />
    <g
       id="g3112"
       transform="translate(441.46094,402.5854)"
       style="stroke:#ffffff;stroke-opacity:0.49019607999999998;stroke-width:0.3;stroke-miterlimit:4;stroke-dasharray:none" />
    <g
       id="g3114"
       transform="translate(441.46094,402.5854)"
       style="stroke:#ffffff;stroke-opacity:0.49019607999999998;stroke-width:0.3;stroke-miterlimit:4;stroke-dasharray:none" />
    <g
       id="g3116"
       transform="translate(441.46094,402.5854)"
       style="stroke:#ffffff;stroke-opacity:0.49019607999999998;stroke-width:0.3;stroke-miterlimit:4;stroke-dasharray:none" />
    <g
       id="g3118"
       transform="translate(441.46094,402.5854)"
       style="stroke:#ffffff;stroke-opacity:0.49019607999999998;stroke-width:0.3;stroke-miterlimit:4;stroke-dasharray:none" />
    <g
       id="g3120"
       transform="translate(441.46094,402.5854)"
       style="stroke:#ffffff;stroke-opacity:0.49019607999999998;stroke-width:0.3;stroke-miterlimit:4;stroke-dasharray:none" />
    <g
       id="g3122"
       transform="translate(441.46094,402.5854)"
       style="stroke:#ffffff;stroke-opacity:0.49019607999999998;stroke-width:0.3;stroke-miterlimit:4;stroke-dasharray:none" />
    <g
       id="g3124"
       transform="translate(441.46094,402.5854)"
       style="stroke:#ffffff;stroke-opacity:0.49019607999999998;stroke-width:0.3;stroke-miterlimit:4;stroke-dasharray:none" />
    <g
       id="g3126"
       transform="translate(441.46094,402.5854)"
       style="stroke:#ffffff;stroke-opacity:0.49019607999999998;stroke-width:0.3;stroke-miterlimit:4;stroke-dasharray:none" />
    <g
       id="g3128"
       transform="translate(441.46094,402.5854)"
       style="stroke:#ffffff;stroke-opacity:0.49019607999999998;stroke-width:0.3;stroke-miterlimit:4;stroke-dasharray:none" />
    <g
       id="g3130"
       transform="translate(441.46094,402.5854)"
       style="stroke:#ffffff;stroke-opacity:0.49019607999999998;stroke-width:0.3;stroke-miterlimit:4;stroke-dasharray:none" />
    <g
       id="g4117"
       transform="matrix(0.84598214,0,0,0.84598214,439.54501,401.0808)"
       style="stroke:#ffffff;stroke-width:0.35461742;stroke-miterlimit:4;stroke-opacity:0.49019608;stroke-dasharray:none">
      <path
         id="path4079"
         d="M 16,0 4,0 C 1.8,0 0,1.8 0,4 l 0,12 c 0,2.2 1.8,4 4,4 l 12,0 c 2.2,0 4,-1.8 4,-4 L 20,4 C 20,1.8 18.2,0 16,0 z"
         style="fill:#2c5aa0;stroke:#ffffff;stroke-width:0.35461742;stroke-miterlimit:4;stroke-opacity:0.49019608;stroke-dasharray:none"
         inkscape:connector-curvature="0"
         sodipodi:nodetypes="sssssssss" />
      <g
         id="g4081"
         style="stroke:#ffffff;stroke-width:0.35461742;stroke-miterlimit:4;stroke-opacity:0.49019608;stroke-dasharray:none" />
      <g
         id="g4083"
         style="stroke:#ffffff;stroke-width:0.35461742;stroke-miterlimit:4;stroke-opacity:0.49019608;stroke-dasharray:none" />
      <g
         id="g4085"
         style="stroke:#ffffff;stroke-width:0.35461742;stroke-miterlimit:4;stroke-opacity:0.49019608;stroke-dasharray:none" />
      <g
         id="g4087"
         style="stroke:#ffffff;stroke-width:0.35461742;stroke-miterlimit:4;stroke-opacity:0.49019608;stroke-dasharray:none" />
      <g
         id="g4089"
         style="stroke:#ffffff;stroke-width:0.35461742;stroke-miterlimit:4;stroke-opacity:0.49019608;stroke-dasharray:none" />
      <g
         id="g4091"
         style="stroke:#ffffff;stroke-width:0.35461742;stroke-miterlimit:4;stroke-opacity:0.49019608;stroke-dasharray:none" />
      <g
         id="g4093"
         style="stroke:#ffffff;stroke-width:0.35461742;stroke-miterlimit:4;stroke-opacity:0.49019608;stroke-dasharray:none" />
      <g
         id="g4095"
         style="stroke:#ffffff;stroke-width:0.35461742;stroke-miterlimit:4;stroke-opacity:0.49019608;stroke-dasharray:none" />
      <g
         id="g4097"
         style="stroke:#ffffff;stroke-width:0.35461742;stroke-miterlimit:4;stroke-opacity:0.49019608;stroke-dasharray:none" />
      <g
         id="g4099"
         style="stroke:#ffffff;stroke-width:0.35461742;stroke-miterlimit:4;stroke-opacity:0.49019608;stroke-dasharray:none" />
      <g
         id="g4101"
         style="stroke:#ffffff;stroke-width:0.35461742;stroke-miterlimit:4;stroke-opacity:0.49019608;stroke-dasharray:none" />
      <g
         id="g4103"
         style="stroke:#ffffff;stroke-width:0.35461742;stroke-miterlimit:4;stroke-opacity:0.49019608;stroke-dasharray:none" />
      <g
         id="g4105"
         style="stroke:#ffffff;stroke-width:0.35461742;stroke-miterlimit:4;stroke-opacity:0.49019608;stroke-dasharray:none" />
      <g
         id="g4107"
         style="stroke:#ffffff;stroke-width:0.35461742;stroke-miterlimit:4;stroke-opacity:0.49019608;stroke-dasharray:none" />
      <g
         id="g4109"
         style="stroke:#ffffff;stroke-width:0.35461742;stroke-miterlimit:4;stroke-opacity:0.49019608;stroke-dasharray:none" />
    </g>
    <path
       style="fill:#ffffff"
       d="m 442.98487,416.45456 c -0.0895,-0.0895 -0.11839,-1.34408 -0.11839,-5.13532 l 0,-5.01693 0.45357,-0.39925 c 0.24946,-0.21958 0.93229,-0.71924 1.51741,-1.11035 l 1.06384,-0.71111 7.9e-4,-0.71019 8e-4,-0.7102 2.39997,0 2.39997,0 0,0.72031 0,0.72032 0.7102,0.47017 c 0.39061,0.2586 1.05222,0.73373 1.47023,1.05584 l 0.76004,0.58566 -0.0254,5.15439 -0.0254,5.15438 -5.24482,0.0253 c -3.99783,0.0193 -5.27297,-0.003 -5.36321,-0.0931 z m 9.85374,-0.58859 c 0.0864,-0.0864 0.11756,-0.92483 0.11756,-3.16252 l 0,-3.04497 -0.29389,-0.17361 c -0.26808,-0.15836 -0.313,-0.16021 -0.51158,-0.0211 -0.28055,0.1965 -0.80167,0.1951 -1.10395,-0.003 -0.21665,-0.14196 -0.2565,-0.14196 -0.45916,0 -0.28319,0.19834 -0.85503,0.19983 -1.13612,0.003 -0.19705,-0.13802 -0.23838,-0.13802 -0.43542,0 -0.2801,0.19618 -0.89865,0.19575 -1.19867,-7.9e-4 -0.21231,-0.13911 -0.26144,-0.13911 -0.53045,0 -0.37739,0.19516 -0.88697,0.19628 -1.16354,0.002 -0.19372,-0.13569 -0.24433,-0.13569 -0.50672,0 -0.37287,0.19282 -0.88328,0.19282 -1.15857,0 -0.19391,-0.13582 -0.24455,-0.13558 -0.51158,0.002 l -0.29638,0.15326 0,3.06357 c 0,2.25218 0.0312,3.09471 0.11755,3.18113 0.088,0.0879 1.22992,0.11755 4.53546,0.11755 3.30554,0 4.44752,-0.0296 4.53546,-0.11755 z"
       id="path3110"
       inkscape:connector-curvature="0" />
  </g>
</svg>
