<svg xmlns="http://www.w3.org/2000/svg" width="20" height="20" version="1.1">
<style>
* {
  fill:#1a1a1a;
  stroke:#ffffff;
  stroke-width:0.274;
  stroke-linecap:square;
  stroke-linejoin:round;
  stroke-miterlimit:4;
  stroke-opacity:0.490;
}
</style>
<g transform="translate(-438.02958,-399.32648)">
  <path d="m 444.43517,414.62223 -0.1519,-0.11948 0,-1.78298 0,-1.78297 -0.60532,0 c -0.41355,0 -0.60533,-0.0207 -0.60533,-0.0655 0,-0.0361 0.2724,-0.98368 0.60533,-2.10586 0.33292,-1.12219 0.60532,-2.08033 0.60532,-2.12921 0,-0.0585 -0.0429,-0.0825 -0.12596,-0.0704 -0.11147,0.0163 -0.16991,0.16758 -0.5082,1.31556 -0.21023,0.71342 -0.41389,1.3555 -0.45257,1.42684 -0.13476,0.24855 -0.59992,0.12198 -0.59917,-0.16303 2e-4,-0.0768 0.12165,-0.55471 0.2699,-1.06204 0.63902,-2.18695 0.73123,-2.39139 1.18233,-2.62152 0.20365,-0.10389 0.33845,-0.11687 1.21429,-0.11687 0.74324,0 1.02452,0.0204 1.14523,0.0827 0.23955,0.12388 0.55552,0.50101 0.65983,0.78757 0.094,0.25822 0.78163,2.62404 0.83259,2.86457 0.0607,0.28658 -0.38062,0.48515 -0.5721,0.2574 -0.0467,-0.0555 -0.26279,-0.70405 -0.48032,-1.44125 -0.37557,-1.27287 -0.40255,-1.34037 -0.53569,-1.34037 -0.12408,0 -0.13565,0.0183 -0.1007,0.15853 0.0498,0.19971 1.18419,4.04188 1.22414,4.14599 0.0235,0.0611 -0.096,0.0769 -0.58199,0.0769 l -0.61149,0 0,1.76096 0,1.76096 -0.14151,0.1415 c -0.16972,0.16972 -0.37324,0.18115 -0.55833,0.0314 l -0.13609,-0.11015 -0.0168,-1.79601 -0.0168,-1.79601 -0.12734,0.0181 -0.12734,0.0181 -0.0289,1.79916 c -0.0275,1.71381 -0.0343,1.80328 -0.14412,1.88621 -0.16051,0.1212 -0.33278,0.1115 -0.51108,-0.0288 l 0,0 z" />
  <path d="m 449.91615,414.68343 c -0.0864,-0.0469 -0.18368,-0.13495 -0.21619,-0.19569 -0.0386,-0.0722 -0.0591,-1.41883 -0.0591,-3.89031 l 0,-3.77988 -0.14412,0 -0.14413,0 0,1.3874 c 0,0.87143 -0.0228,1.43007 -0.0614,1.50215 -0.1475,0.27561 -0.57776,0.22687 -0.68386,-0.0774 -0.0834,-0.23912 -0.0817,-2.94427 0.002,-3.33472 0.0493,-0.22996 0.12476,-0.36058 0.33149,-0.57397 0.37406,-0.3861 0.51752,-0.41396 2.01804,-0.39185 1.20676,0.0178 1.25579,0.0231 1.50429,0.1625 0.14127,0.0793 0.33584,0.25655 0.43237,0.39397 l 0.17551,0.24985 0.0175,1.72258 c 0.0185,1.81046 0.005,1.92015 -0.23751,2.01092 -0.13676,0.051 -0.38565,-0.0195 -0.45538,-0.12922 -0.0239,-0.0376 -0.0439,-0.71054 -0.0444,-1.4953 l -8.8e-4,-1.42684 -0.14413,0 -0.14413,0 0,3.70983 c 0,2.56646 -0.0197,3.76634 -0.0639,3.89315 -0.066,0.18937 -0.30169,0.35275 -0.50882,0.35275 -0.0645,0 -0.20198,-0.0757 -0.30553,-0.16816 l -0.18828,-0.16816 -0.017,-2.25315 -0.017,-2.25315 -0.14158,0 -0.14159,0 0,2.25279 0,2.25281 -0.16852,0.16851 c -0.18567,0.18567 -0.35529,0.20814 -0.5939,0.0786 z" />
  <path d="m 450.47393,404.9493 c -0.53674,-0.23379 -0.71027,-0.97088 -0.33388,-1.41819 0.4007,-0.4762 1.0621,-0.46102 1.43891,0.033 0.22367,0.29325 0.23602,0.76296 0.0277,1.05502 -0.24773,0.34734 -0.75431,0.49499 -1.13274,0.33015 l 0,0 z" />
  <path d="m 444.88575,404.92093 c -0.20975,-0.0952 -0.47312,-0.39369 -0.52313,-0.59296 -0.0563,-0.22433 0.01,-0.62697 0.12899,-0.78849 0.27105,-0.36657 0.85054,-0.49515 1.21904,-0.27048 0.76109,0.46405 0.50091,1.64244 -0.37769,1.71063 -0.15372,0.012 -0.34763,-0.0135 -0.44721,-0.0587 l 0,0 z" />
</g>
</svg>
