<?xml version="1.0" encoding="UTF-8" standalone="no"?>
<!-- Created with Inkscape (http://www.inkscape.org/) -->

<svg
   xmlns:dc="http://purl.org/dc/elements/1.1/"
   xmlns:cc="http://creativecommons.org/ns#"
   xmlns:rdf="http://www.w3.org/1999/02/22-rdf-syntax-ns#"
   xmlns:svg="http://www.w3.org/2000/svg"
   xmlns="http://www.w3.org/2000/svg"
   xmlns:sodipodi="http://sodipodi.sourceforge.net/DTD/sodipodi-0.dtd"
   xmlns:inkscape="http://www.inkscape.org/namespaces/inkscape"
   width="20"
   height="20"
   id="svg2"
   version="1.1"
   inkscape:version="0.48.5 r10040"
   sodipodi:docname="waste_disposal_operational.svg">
  <defs
     id="defs4" />
  <sodipodi:namedview
     id="base"
     pagecolor="#ffffff"
     bordercolor="#666666"
     borderopacity="1.0"
     inkscape:pageopacity="0.0"
     inkscape:pageshadow="2"
     inkscape:zoom="31.678384"
     inkscape:cx="12.386996"
     inkscape:cy="9.3698836"
     inkscape:document-units="px"
     inkscape:current-layer="layer1"
     showgrid="false"
     fit-margin-top="0"
     fit-margin-left="0"
     fit-margin-right="0"
     fit-margin-bottom="0"
     inkscape:window-width="1920"
     inkscape:window-height="1018"
     inkscape:window-x="-8"
     inkscape:window-y="-8"
     inkscape:window-maximized="1" />
  <metadata
     id="metadata7">
    <rdf:RDF>
      <cc:Work
         rdf:about="">
        <dc:format>image/svg+xml</dc:format>
        <dc:type
           rdf:resource="http://purl.org/dc/dcmitype/StillImage" />
        <dc:title />
      </cc:Work>
    </rdf:RDF>
  </metadata>
  <g
     inkscape:label="Layer 1"
     inkscape:groupmode="layer"
     id="layer1"
     transform="translate(-438.02958,-399.32648)">
    <g
       id="g3102"
       transform="translate(441.46094,402.5854)"
       style="stroke:#ffffff;stroke-opacity:0.49019607999999998;stroke-width:0.3;stroke-miterlimit:4;stroke-dasharray:none" />
    <g
       id="g3104"
       transform="translate(441.46094,402.5854)"
       style="stroke:#ffffff;stroke-opacity:0.49019607999999998;stroke-width:0.3;stroke-miterlimit:4;stroke-dasharray:none" />
    <g
       id="g3106"
       transform="translate(441.46094,402.5854)"
       style="stroke:#ffffff;stroke-opacity:0.49019607999999998;stroke-width:0.3;stroke-miterlimit:4;stroke-dasharray:none" />
    <g
       id="g3108"
       transform="translate(441.46094,402.5854)"
       style="stroke:#ffffff;stroke-opacity:0.49019607999999998;stroke-width:0.3;stroke-miterlimit:4;stroke-dasharray:none" />
    <g
       id="g3110"
       transform="translate(441.46094,402.5854)"
       style="stroke:#ffffff;stroke-opacity:0.49019607999999998;stroke-width:0.3;stroke-miterlimit:4;stroke-dasharray:none" />
    <g
       id="g3112"
       transform="translate(441.46094,402.5854)"
       style="stroke:#ffffff;stroke-opacity:0.49019607999999998;stroke-width:0.3;stroke-miterlimit:4;stroke-dasharray:none" />
    <g
       id="g3114"
       transform="translate(441.46094,402.5854)"
       style="stroke:#ffffff;stroke-opacity:0.49019607999999998;stroke-width:0.3;stroke-miterlimit:4;stroke-dasharray:none" />
    <g
       id="g3116"
       transform="translate(441.46094,402.5854)"
       style="stroke:#ffffff;stroke-opacity:0.49019607999999998;stroke-width:0.3;stroke-miterlimit:4;stroke-dasharray:none" />
    <g
       id="g3118"
       transform="translate(441.46094,402.5854)"
       style="stroke:#ffffff;stroke-opacity:0.49019607999999998;stroke-width:0.3;stroke-miterlimit:4;stroke-dasharray:none" />
    <g
       id="g3120"
       transform="translate(441.46094,402.5854)"
       style="stroke:#ffffff;stroke-opacity:0.49019607999999998;stroke-width:0.3;stroke-miterlimit:4;stroke-dasharray:none" />
    <g
       id="g3122"
       transform="translate(441.46094,402.5854)"
       style="stroke:#ffffff;stroke-opacity:0.49019607999999998;stroke-width:0.3;stroke-miterlimit:4;stroke-dasharray:none" />
    <g
       id="g3124"
       transform="translate(441.46094,402.5854)"
       style="stroke:#ffffff;stroke-opacity:0.49019607999999998;stroke-width:0.3;stroke-miterlimit:4;stroke-dasharray:none" />
    <g
       id="g3126"
       transform="translate(441.46094,402.5854)"
       style="stroke:#ffffff;stroke-opacity:0.49019607999999998;stroke-width:0.3;stroke-miterlimit:4;stroke-dasharray:none" />
    <g
       id="g3128"
       transform="translate(441.46094,402.5854)"
       style="stroke:#ffffff;stroke-opacity:0.49019607999999998;stroke-width:0.3;stroke-miterlimit:4;stroke-dasharray:none" />
    <g
       id="g3130"
       transform="translate(441.46094,402.5854)"
       style="stroke:#ffffff;stroke-opacity:0.49019607999999998;stroke-width:0.3;stroke-miterlimit:4;stroke-dasharray:none" />
    <path
       style="fill:#1a1a1a;fill-opacity:1;stroke:#ffffff;stroke-width:0.30000001;stroke-linecap:square;stroke-linejoin:round;stroke-miterlimit:4;stroke-opacity:0.49019608;stroke-dasharray:none"
       d="m 443.89056,404.7419 c 0.0428,-0.25489 0.35287,-0.65642 0.6825,-0.88389 0.52114,-0.35963 1.15179,-0.49992 2.54672,-0.56653 0.10762,-0.005 0.15787,-0.0682 0.22952,-0.28785 0.12448,-0.38163 0.52884,-0.69663 0.90113,-0.702 0.48078,-0.007 0.90661,0.33049 0.98937,0.78397 0.0345,0.18927 0.0646,0.22115 0.20388,0.21646 1.37759,-0.0465 2.57622,0.34154 3.01391,0.97561 0.20616,0.29867 0.29302,0.55559 0.2065,0.61084 -0.0367,0.0234 -1.95234,0.0348 -4.25705,0.0254 -2.30471,-0.009 -4.26995,-0.0151 -4.36721,-0.0125 -0.15692,0.004 -0.17373,-0.0139 -0.14927,-0.15947 z m 4.43054,-1.44178 c 0.40401,0.017 0.51337,-0.0683 0.37159,-0.28991 -0.11614,-0.18155 -0.50481,-0.25484 -0.66254,-0.12493 -0.16415,0.13519 -0.28621,0.44253 -0.16608,0.41819 0.0508,-0.0103 0.25648,-0.0118 0.45703,-0.003 l 0,0 z"
       id="path5329"
       inkscape:connector-curvature="0" />
    <path
       inkscape:connector-curvature="0"
       style="fill:#1a1a1a;fill-opacity:1;stroke:#ffffff;stroke-width:0.30000001;stroke-linecap:square;stroke-linejoin:round;stroke-miterlimit:4;stroke-opacity:0.49019608;stroke-dasharray:none"
       d="m 448.25489,405.18812 c -2.43068,0 -4.43739,0.0365 -4.4375,0.0625 -1.1e-4,0.026 0.19483,2.21862 0.40625,4.875 0.36475,4.58286 0.37032,4.82603 0.5,4.96875 0.27559,0.3033 1.02117,0.54352 2.0625,0.6875 0.71045,0.0982 2.91,0.0473 3.5625,-0.0937 0.69105,-0.14942 1.15822,-0.33623 1.375,-0.5625 l 0.1875,-0.1875 0.375,-4.78125 c 0.21012,-2.63391 0.375,-4.8265 0.375,-4.875 0,-0.0745 -0.66647,-0.0937 -4.40625,-0.0937 z m -2.6875,0.96875 c 0.31509,-0.0485 0.29994,-0.0883 0.53125,5.15625 0.0798,1.80866 0.12475,2.63461 0.125,2.9375 2.4e-4,0.29507 -0.002,0.28639 -0.0625,0.34375 -0.0622,0.0584 -0.19701,0.125 -0.25,0.125 -0.0159,0 -0.051,-0.009 -0.0937,-0.0312 -0.0449,-0.0239 -0.0934,-0.0997 -0.125,-0.15625 -0.0539,-0.0964 -0.076,-0.11947 -0.125,-1.21875 -0.0274,-0.61404 -0.0733,-2.05859 -0.125,-3.21875 -0.0652,-1.46193 -0.0922,-2.35706 -0.0937,-2.90625 -0.003,-0.97447 -0.008,-0.99643 0.21875,-1.03125 z m 2.625,0 c 0.0885,2.2e-4 0.17844,0.0223 0.21875,0.0625 0.0664,0.0664 0.0928,0.75556 0.0937,4.3125 9.6e-4,3.6055 -0.0129,3.9399 -0.0937,4.0625 -0.0344,0.0525 -0.15865,0.12607 -0.21875,0.125 -0.0157,-2.7e-4 -0.0528,-0.0111 -0.0937,-0.0312 -0.12094,-0.0596 -0.13145,-0.13119 -0.15625,-0.46875 -0.0304,-0.41367 -0.0305,-6.93905 0,-7.53125 0.017,-0.33127 0.007,-0.44494 0.0312,-0.46875 0.0401,-0.0401 0.1302,-0.0627 0.21875,-0.0625 z m 2.625,0 c 0.12733,0 0.22476,0.0586 0.25,0.125 0.029,0.0764 0.0382,0.52871 0,1.53125 -0.0638,1.67192 -0.20231,4.72135 -0.25,5.59375 -0.0619,1.13187 -0.081,1.24429 -0.25,1.28125 -0.0334,0.007 -0.0807,-0.004 -0.0937,0 -0.0129,0.004 -0.0263,0.0151 -0.0625,0 -0.21383,-0.0911 -0.24145,-0.12737 -0.125,-3 0.14103,-3.47991 0.25324,-5.15404 0.3125,-5.375 0.0281,-0.10472 0.0931,-0.15625 0.21875,-0.15625 z"
       id="path5331" />
  </g>
</svg>
