<svg version="1.1" id="svg2" inkscape:version="0.48.5 r10040" sodipodi:docname="bladder_operational.svg" xmlns:cc="http://creativecommons.org/ns#" xmlns:dc="http://purl.org/dc/elements/1.1/" xmlns:inkscape="http://www.inkscape.org/namespaces/inkscape" xmlns:rdf="http://www.w3.org/1999/02/22-rdf-syntax-ns#" xmlns:sodipodi="http://sodipodi.sourceforge.net/DTD/sodipodi-0.dtd" xmlns:svg="http://www.w3.org/2000/svg" xmlns="http://www.w3.org/2000/svg" xlink="http://www.w3.org/1999/xlink" x="0px" y="0px" viewBox="0 0 20 20" style="enable-background:new 0 0 20 20;" space="preserve" width="20" height="20">
<style type="text/css">
	.st0{fill:#2C5AA0;stroke:#FFFFFF;stroke-width:0.3546;stroke-opacity:0.4902;}
</style>
<sodipodi:namedview bordercolor="#666666" borderopacity="1.0" fit-margin-bottom="0" fit-margin-left="0" fit-margin-right="0" fit-margin-top="0" id="base" inkscape:current-layer="layer1" inkscape:cx="-1.5415753" inkscape:cy="9.8392633" inkscape:document-units="px" inkscape:pageopacity="0.0" inkscape:pageshadow="2" inkscape:window-height="1018" inkscape:window-maximized="1" inkscape:window-width="1920" inkscape:window-x="-8" inkscape:window-y="-8" inkscape:zoom="31.678384" pagecolor="#ffffff" showgrid="false">
	</sodipodi:namedview>
<path class="st0" d="M14.9,1.7H4.8c-1.9,0-3.4,1.5-3.4,3.4v10.2c0,1.9,1.5,3.4,3.4,3.4H15c1.9,0,3.4-1.5,3.4-3.4V5.1
	C18.3,3.2,16.8,1.7,14.9,1.7z M14.1,8.9c0.2,0.1,0.4,0.2,0.5,0.3s0.3,0.3,0.3,0.5C15,9.9,15,10.1,15,10.3c0,0.2,0,0.4-0.1,0.6
	c-0.1,0.2-0.2,0.4-0.3,0.5s-0.3,0.3-0.5,0.3c-0.2,0.1-0.4,0.1-0.6,0.1h-0.2v0.4c0,0.2-0.1,0.4-0.2,0.6C12.9,13,12.8,13,12.5,13H8.9
	c-0.2,0-0.4-0.1-0.6-0.2c-0.2,0-0.3-0.2-0.3-0.4V8.8h5.4C13.7,8.8,13.9,8.8,14.1,8.9z M4.7,6.7c0-1.9,1.5-3.5,3.3-3.5
	s3.3,1.6,3.3,3.5h1l-1.5,1.5L9.2,6.6h0.9c0-1.3-1-2.3-2.1-2.3s-2.1,1-2.1,2.3v6.5H4.7C4.7,13.1,4.7,6.7,4.7,6.7z M14.9,17.2H4.8
	c-1.4,0-2.5-1.1-2.5-2.5c0.2-0.2,0.3-0.4,0.4-0.7c0,0,0,0,0-0.1l0.1-0.1c0.1,0,0.1,0,0.1,0.1l0,0l0,0l0,0C3.2,14.6,3.6,15,4.2,15
	l0,0c0.6,0,1-0.3,1.3-1.1c0,0,0,0,0-0.1l0,0l0.1-0.1c0.1,0,0.1,0,0.1,0.1l0,0l0,0l0,0c0.3,0.7,0.7,1.1,1.2,1.1
	c0.6,0,0.9-0.3,1.2-1.1c0,0,0,0,0-0.1l0.1-0.1c0.1,0,0.1,0,0.1,0.1l0,0l0,0l0,0c0.3,0.7,0.7,1.1,1.3,1.1l0,0c0.6,0,1-0.3,1.3-1.1
	c0,0,0,0,0-0.1l0.1-0.1c0.1,0,0.1,0,0.1,0.1l0,0l0,0l0,0c0.3,0.7,0.7,1.1,1.2,1.1c0.6,0,0.9-0.3,1.2-1.1c0,0,0,0,0-0.1l0.1-0.1
	c0.1,0,0.1,0,0.1,0.1l0,0l0,0l0,0c0.3,0.7,0.7,1.1,1.3,1.1l0,0c0.6,0,1-0.3,1.3-1.1c0,0,0,0,0-0.1l0.1-0.1c0.1,0,0.1,0,0.1,0.1l0,0
	l0,0l0,0c0.1,0.3,0.3,0.5,0.4,0.7C17.4,16.1,16.3,17.2,14.9,17.2z M13.5,11.4h-0.2V9.5h0.2c0.3,0,0.5,0.1,0.7,0.3s0.3,0.4,0.3,0.7
	s-0.1,0.5-0.3,0.7C14,11.3,13.7,11.4,13.5,11.4z"/>
</svg>
