<svg version="1.1" id="svg2" inkscape:version="0.48.5 r10040" sodipodi:docname="airport_operational.svg" xmlns:cc="http://creativecommons.org/ns#" xmlns:dc="http://purl.org/dc/elements/1.1/" xmlns:inkscape="http://www.inkscape.org/namespaces/inkscape" xmlns:rdf="http://www.w3.org/1999/02/22-rdf-syntax-ns#" xmlns:sodipodi="http://sodipodi.sourceforge.net/DTD/sodipodi-0.dtd" xmlns:svg="http://www.w3.org/2000/svg" xmlns="http://www.w3.org/2000/svg" xlink="http://www.w3.org/1999/xlink" x="0px" y="0px" viewBox="0 0 20 20" style="enable-background:new 0 0 20 20;" space="preserve" width="20" height="20">
<style type="text/css">
	
		.st0{fill-rule:evenodd;clip-rule:evenodd;fill:#333333;stroke:#FFFFFF;stroke-width:0.2835;stroke-linecap:square;stroke-linejoin:round;}
</style>
<sodipodi:namedview bordercolor="#666666" borderopacity="1.0" fit-margin-bottom="0" fit-margin-left="0" fit-margin-right="0" fit-margin-top="0" id="base" inkscape:current-layer="layer1" inkscape:cx="12.386996" inkscape:cy="9.3698836" inkscape:document-units="px" inkscape:pageopacity="0.0" inkscape:pageshadow="2" inkscape:window-height="1018" inkscape:window-maximized="1" inkscape:window-width="1920" inkscape:window-x="-8" inkscape:window-y="-8" inkscape:zoom="31.678384" pagecolor="#ffffff" showgrid="false">
	</sodipodi:namedview>
<path class="st0" d="M13.9,9c0.8,2.3-1.5,4-3.4,3.2c-0.6,1.6-1,3.4-0.2,5.1H8.3C9,16,9,14.4,8.2,12.5C5.8,13.6,3.5,10.8,5,8.7
	C3.6,7.2,4.5,4.7,6.6,4.8c0.1-3.2,4.9-3.2,5.1,0C14.1,4.4,15.6,7.3,13.9,9z M10.2,12c-0.1-0.1-0.3-0.2-0.4-0.4l0.1,1.2L10.2,12z
	 M9.1,11.8C9,12,8.8,12.2,8.6,12.3c0.1,0.3,0.3,0.6,0.4,0.9L9.1,11.8z"/>
</svg>
