<svg version="1.1" id="svg2" inkscape:version="0.48.5 r10040" sodipodi:docname="waste_disposal_operational.svg" xmlns:cc="http://creativecommons.org/ns#" xmlns:dc="http://purl.org/dc/elements/1.1/" xmlns:inkscape="http://www.inkscape.org/namespaces/inkscape" xmlns:rdf="http://www.w3.org/1999/02/22-rdf-syntax-ns#" xmlns:sodipodi="http://sodipodi.sourceforge.net/DTD/sodipodi-0.dtd" xmlns:svg="http://www.w3.org/2000/svg" xmlns="http://www.w3.org/2000/svg" xlink="http://www.w3.org/1999/xlink" x="0px" y="0px" viewBox="0 0 20 20" style="enable-background:new 0 0 20 20;" space="preserve" width="20" height="20">
<style type="text/css">
	.st0{fill:#1A1A1A;stroke:#A1A1A1;stroke-width:0.1;stroke-linecap:square;stroke-linejoin:round;}
	.st1{fill:#1A1A1A;stroke:#A1A1A1;stroke-width:0.2;stroke-linecap:square;stroke-linejoin:round;}
</style>
<sodipodi:namedview bordercolor="#666666" borderopacity="1.0" fit-margin-bottom="0" fit-margin-left="0" fit-margin-right="0" fit-margin-top="0" id="base" inkscape:current-layer="layer1" inkscape:cx="12.386996" inkscape:cy="9.3698836" inkscape:document-units="px" inkscape:pageopacity="0.0" inkscape:pageshadow="2" inkscape:window-height="1018" inkscape:window-maximized="1" inkscape:window-width="1920" inkscape:window-x="-8" inkscape:window-y="-8" inkscape:zoom="31.678384" pagecolor="#ffffff" showgrid="false">
	</sodipodi:namedview>
<g>
	<g>
		<path class="st0" d="M9.8,12.7C9.8,12.7,9.8,12.7,9.8,12.7c0.1,0,0.1,0,0.1,0c0,0,0.1,0,0.1,0c0,0,0,0,0,0c0,0,0,0,0,0
			c0,0,0.1,0,0.1,0c0,0,0,0,0,0c0,0,0.1,0,0.1,0c0,0,0,0,0,0c0,0,0,0,0.1,0c0,0,0,0,0,0c0,0,0,0,0.1,0c0,0,0,0,0,0l1.3-1.1
			c0.2-0.2,0.2-0.5,0-0.7c-0.2-0.2-0.6-0.2-0.9,0l-0.3,0.2V6c0-0.3-0.3-0.5-0.6-0.5C9.7,5.5,9.4,5.7,9.4,6v4.9l-0.3-0.2
			c-0.2-0.2-0.6-0.2-0.9,0c-0.2,0.2-0.2,0.5,0,0.7l1.3,1.1c0,0,0.1,0,0.1,0.1C9.7,12.6,9.7,12.6,9.8,12.7
			C9.7,12.6,9.7,12.7,9.8,12.7z"/>
	</g>
</g>
<g>
	<g>
		<path class="st1" d="M13.7,16.4H6.3c-0.4,0-0.7-0.3-0.7-0.6L3.3,3.9c0-0.2,0-0.4,0.2-0.6C3.6,3.1,3.8,3,4.1,3H7
			c0.4,0,0.7,0.3,0.7,0.7S7.4,4.5,7,4.5H5l1.9,10.4h6.2L15,4.5H13c-0.4,0-0.7-0.3-0.7-0.7S12.6,3,13,3h2.9c0.2,0,0.4,0.1,0.6,0.3
			c0.1,0.2,0.2,0.4,0.2,0.6l-2.2,11.9C14.4,16.1,14.1,16.4,13.7,16.4z"/>
	</g>
</g>
</svg>
