<?xml version="1.0" encoding="UTF-8" standalone="no"?>
<!-- Created with Inkscape (http://www.inkscape.org/) -->

<svg
   xmlns:dc="http://purl.org/dc/elements/1.1/"
   xmlns:cc="http://creativecommons.org/ns#"
   xmlns:rdf="http://www.w3.org/1999/02/22-rdf-syntax-ns#"
   xmlns:svg="http://www.w3.org/2000/svg"
   xmlns="http://www.w3.org/2000/svg"
   xmlns:sodipodi="http://sodipodi.sourceforge.net/DTD/sodipodi-0.dtd"
   xmlns:inkscape="http://www.inkscape.org/namespaces/inkscape"
   width="20"
   height="20"
   id="svg2"
   version="1.1"
   inkscape:version="0.48.5 r10040"
   sodipodi:docname="water_truck_operational.svg">
  <defs
     id="defs4" />
  <sodipodi:namedview
     id="base"
     pagecolor="#ffffff"
     bordercolor="#666666"
     borderopacity="1.0"
     inkscape:pageopacity="0.0"
     inkscape:pageshadow="2"
     inkscape:zoom="31.678384"
     inkscape:cx="12.386996"
     inkscape:cy="9.3698836"
     inkscape:document-units="px"
     inkscape:current-layer="layer1"
     showgrid="false"
     fit-margin-top="0"
     fit-margin-left="0"
     fit-margin-right="0"
     fit-margin-bottom="0"
     inkscape:window-width="1920"
     inkscape:window-height="1018"
     inkscape:window-x="-8"
     inkscape:window-y="-8"
     inkscape:window-maximized="1" />
  <metadata
     id="metadata7">
    <rdf:RDF>
      <cc:Work
         rdf:about="">
        <dc:format>image/svg+xml</dc:format>
        <dc:type
           rdf:resource="http://purl.org/dc/dcmitype/StillImage" />
        <dc:title />
      </cc:Work>
    </rdf:RDF>
  </metadata>
  <g
     inkscape:label="Layer 1"
     inkscape:groupmode="layer"
     id="layer1"
     transform="translate(-438.02958,-399.32648)">
    <g
       id="g3102"
       transform="translate(441.46094,402.5854)"
       style="stroke:#ffffff;stroke-opacity:0.49019607999999998;stroke-width:0.3;stroke-miterlimit:4;stroke-dasharray:none" />
    <g
       id="g3104"
       transform="translate(441.46094,402.5854)"
       style="stroke:#ffffff;stroke-opacity:0.49019607999999998;stroke-width:0.3;stroke-miterlimit:4;stroke-dasharray:none" />
    <g
       id="g3106"
       transform="translate(441.46094,402.5854)"
       style="stroke:#ffffff;stroke-opacity:0.49019607999999998;stroke-width:0.3;stroke-miterlimit:4;stroke-dasharray:none" />
    <g
       id="g3108"
       transform="translate(441.46094,402.5854)"
       style="stroke:#ffffff;stroke-opacity:0.49019607999999998;stroke-width:0.3;stroke-miterlimit:4;stroke-dasharray:none" />
    <g
       id="g3110"
       transform="translate(441.46094,402.5854)"
       style="stroke:#ffffff;stroke-opacity:0.49019607999999998;stroke-width:0.3;stroke-miterlimit:4;stroke-dasharray:none" />
    <g
       id="g3112"
       transform="translate(441.46094,402.5854)"
       style="stroke:#ffffff;stroke-opacity:0.49019607999999998;stroke-width:0.3;stroke-miterlimit:4;stroke-dasharray:none" />
    <g
       id="g3114"
       transform="translate(441.46094,402.5854)"
       style="stroke:#ffffff;stroke-opacity:0.49019607999999998;stroke-width:0.3;stroke-miterlimit:4;stroke-dasharray:none" />
    <g
       id="g3116"
       transform="translate(441.46094,402.5854)"
       style="stroke:#ffffff;stroke-opacity:0.49019607999999998;stroke-width:0.3;stroke-miterlimit:4;stroke-dasharray:none" />
    <g
       id="g3118"
       transform="translate(441.46094,402.5854)"
       style="stroke:#ffffff;stroke-opacity:0.49019607999999998;stroke-width:0.3;stroke-miterlimit:4;stroke-dasharray:none" />
    <g
       id="g3120"
       transform="translate(441.46094,402.5854)"
       style="stroke:#ffffff;stroke-opacity:0.49019607999999998;stroke-width:0.3;stroke-miterlimit:4;stroke-dasharray:none" />
    <g
       id="g3122"
       transform="translate(441.46094,402.5854)"
       style="stroke:#ffffff;stroke-opacity:0.49019607999999998;stroke-width:0.3;stroke-miterlimit:4;stroke-dasharray:none" />
    <g
       id="g3124"
       transform="translate(441.46094,402.5854)"
       style="stroke:#ffffff;stroke-opacity:0.49019607999999998;stroke-width:0.3;stroke-miterlimit:4;stroke-dasharray:none" />
    <g
       id="g3126"
       transform="translate(441.46094,402.5854)"
       style="stroke:#ffffff;stroke-opacity:0.49019607999999998;stroke-width:0.3;stroke-miterlimit:4;stroke-dasharray:none" />
    <g
       id="g3128"
       transform="translate(441.46094,402.5854)"
       style="stroke:#ffffff;stroke-opacity:0.49019607999999998;stroke-width:0.3;stroke-miterlimit:4;stroke-dasharray:none" />
    <g
       id="g3130"
       transform="translate(441.46094,402.5854)"
       style="stroke:#ffffff;stroke-opacity:0.49019607999999998;stroke-width:0.3;stroke-miterlimit:4;stroke-dasharray:none" />
    <g
       id="g5782"
       transform="matrix(1.2542722,0,0,1.2542722,438.53466,399.97763)"
       style="fill:#2c5aa0;fill-opacity:1;stroke:#ffffff;stroke-width:0.30000001;stroke-miterlimit:4;stroke-opacity:0.49019608;stroke-dasharray:none">
      <path
         id="path5744"
         d="M 0,5.418 H 2.945 C 2.748,5.68 2.631,6 2.631,6.354 H 1.18 L 0,6.055 V 5.418 z M 15,3.75 V 6.354 H 13.751 C 13.751,6.317 13.745,6.28 13.743,6.245 13.73,6.03 13.671,5.827 13.577,5.647 13.318,5.141 12.795,4.793 12.188,4.793 c -0.863,0 -1.563,0.699 -1.563,1.561 H 9.523 C 9.611,6.944 9.638,7.538 9.51,7.999 9.322,8.673 8.729,9.239 8.155,9.788 7.652,10.268 7.132,10.765 6.967,11.27 L 6.42,11.092 C 6.63,10.447 7.203,9.9 7.758,9.371 8.276,8.875 8.811,8.363 8.956,7.844 9.067,7.445 9.034,6.9 8.945,6.354 H 5.755 C 5.755,6 5.638,5.68 5.44,5.418 H 8.746 C 8.679,5.158 8.609,4.92 8.549,4.729 8.221,4.934 7.836,5.059 7.423,5.059 H 2.136 C 0.961,5.059 0,4.098 0,2.922 V 2.137 C 0,0.961 0.961,0 2.136,0 h 5.287 c 1.175,0 2.136,0.961 2.136,2.137 v 0.785 c 0,0.537 -0.207,1.023 -0.536,1.398 0.082,0.248 0.205,0.645 0.316,1.098 h 0.758 V 0 h 2.612 V 0.625 L 13.54,3.125 15,3.75 z M 12.916,3.125 12.293,1.25 h -1.46 v 1.875 h 2.083 z M 5.339,6.354 C 5.339,6.989 4.826,7.5 4.194,7.5 3.56,7.5 3.046,6.988 3.046,6.354 c 0,-0.631 0.515,-1.145 1.148,-1.145 0.632,0 1.145,0.514 1.145,1.145 z m -0.52,0 c 0,-0.344 -0.281,-0.623 -0.625,-0.623 -0.347,0 -0.628,0.279 -0.628,0.623 0,0.346 0.281,0.625 0.628,0.625 0.344,0 0.625,-0.28 0.625,-0.625 z m 8.516,0 c 0,0.635 -0.515,1.146 -1.146,1.146 -0.634,0 -1.148,-0.512 -1.148,-1.146 0,-0.631 0.515,-1.145 1.148,-1.145 0.631,0 1.146,0.514 1.146,1.145 z m -0.522,0 c 0,-0.344 -0.28,-0.623 -0.625,-0.623 -0.345,0 -0.626,0.279 -0.626,0.623 0,0.346 0.281,0.625 0.626,0.625 0.345,0 0.625,-0.28 0.625,-0.625 z m -7.341,8.357 0.007,-0.02 C 5.519,14.584 5.465,14.464 5.358,14.425 5.252,14.384 5.131,14.439 5.091,14.546 l -0.007,0.02 c -0.041,0.107 0.014,0.227 0.121,0.266 0.023,0.01 0.048,0.014 0.072,0.014 0.084,0 0.163,-0.051 0.195,-0.135 z m 0.225,-0.602 0.008,-0.02 C 5.744,13.982 5.689,13.862 5.582,13.823 5.476,13.784 5.355,13.839 5.316,13.946 l -0.008,0.02 c -0.039,0.107 0.016,0.227 0.123,0.266 0.023,0.01 0.048,0.014 0.071,0.014 0.085,0 0.164,-0.053 0.195,-0.137 z M 5.923,13.51 5.93,13.49 C 5.97,13.385 5.916,13.263 5.809,13.224 5.703,13.183 5.582,13.238 5.542,13.345 l -0.007,0.02 c -0.041,0.107 0.014,0.227 0.121,0.266 0.023,0.01 0.048,0.014 0.072,0.014 0.084,0 0.164,-0.051 0.195,-0.135 z m 0.225,-0.6 0.008,-0.02 C 6.195,12.783 6.14,12.663 6.033,12.622 5.927,12.583 5.807,12.638 5.767,12.745 l -0.008,0.02 c -0.039,0.107 0.016,0.227 0.123,0.266 0.023,0.01 0.048,0.014 0.071,0.014 0.085,0 0.164,-0.053 0.195,-0.135 z m 0.226,-0.599 0.007,-0.02 C 6.421,12.184 6.367,12.064 6.26,12.023 6.154,11.984 6.033,12.037 5.993,12.144 l -0.007,0.02 C 5.945,12.271 6,12.391 6.107,12.432 6.13,12.44 6.155,12.446 6.179,12.446 6.264,12.445 6.343,12.393 6.374,12.311 z m 0.229,-0.61 C 6.644,11.594 6.59,11.474 6.483,11.433 6.377,11.392 6.256,11.447 6.216,11.552 l -0.004,0.01 c -0.041,0.107 0.015,0.223 0.122,0.264 0.022,0.008 0.047,0.012 0.07,0.012 0.085,0 0.167,-0.053 0.199,-0.137 z m 0.365,2.86 V 14.54 c 0,-0.113 -0.093,-0.207 -0.207,-0.207 -0.114,0 -0.207,0.094 -0.207,0.207 v 0.021 c 0,0.115 0.093,0.207 0.207,0.207 0.114,0 0.207,-0.092 0.207,-0.207 z m 0,-0.678 V 13.86 c 0,-0.113 -0.093,-0.207 -0.207,-0.207 -0.114,0 -0.207,0.094 -0.207,0.207 v 0.023 c 0,0.113 0.093,0.207 0.207,0.207 0.114,0 0.207,-0.094 0.207,-0.207 z m 0,-0.68 v -0.021 c 0,-0.115 -0.093,-0.209 -0.207,-0.209 -0.114,0 -0.207,0.094 -0.207,0.209 v 0.021 c 0,0.113 0.093,0.207 0.207,0.207 0.114,0 0.207,-0.094 0.207,-0.207 z m 0,-0.689 c 0,-0.115 -0.093,-0.207 -0.207,-0.207 -0.114,0 -0.207,0.092 -0.207,0.207 v 0.01 c 0,0.115 0.093,0.201 0.207,0.201 0.114,0 0.207,-0.098 0.207,-0.211 z M 4.103,13.867 C 4.181,13.783 4.177,13.652 4.094,13.574 4.011,13.496 3.879,13.5 3.801,13.582 l -0.013,0.014 c -0.079,0.084 -0.068,0.207 0.015,0.287 0.038,0.035 0.088,0.053 0.139,0.053 0.058,0 0.118,-0.024 0.161,-0.069 z M 4.508,13.438 C 4.587,13.354 4.583,13.223 4.5,13.145 4.416,13.065 4.285,13.069 4.207,13.153 l -0.014,0.014 c -0.078,0.084 -0.067,0.207 0.016,0.285 0.038,0.037 0.088,0.055 0.138,0.055 0.059,-10e-4 0.119,-0.025 0.161,-0.069 z M 4.914,13.006 C 4.992,12.924 4.988,12.793 4.905,12.713 4.822,12.635 4.691,12.639 4.612,12.723 L 4.6,12.736 c -0.078,0.082 -0.068,0.207 0.015,0.285 0.038,0.037 0.088,0.055 0.139,0.055 0.058,0 0.117,-0.025 0.16,-0.07 z m 0.405,-0.43 C 5.398,12.494 5.394,12.361 5.311,12.283 5.227,12.205 5.096,12.209 5.018,12.293 l -0.014,0.014 c -0.078,0.082 -0.067,0.207 0.016,0.285 0.038,0.037 0.088,0.053 0.138,0.053 0.06,0 0.119,-0.024 0.161,-0.069 z M 5.721,12.15 C 5.799,12.066 5.794,11.935 5.709,11.857 5.626,11.781 5.494,11.785 5.417,11.869 L 5.41,11.877 c -0.078,0.084 -0.069,0.213 0.015,0.289 0.039,0.037 0.089,0.053 0.139,0.053 0.057,0 0.116,-0.024 0.157,-0.069 z"
         style="fill:#2c5aa0;fill-opacity:1;stroke:#ffffff;stroke-width:0.30000001;stroke-miterlimit:4;stroke-opacity:0.49019608;stroke-dasharray:none"
         inkscape:connector-curvature="0" />
      <g
         id="g5746"
         style="fill:#2c5aa0;fill-opacity:1;stroke:#ffffff;stroke-width:0.30000001;stroke-miterlimit:4;stroke-opacity:0.49019608;stroke-dasharray:none" />
      <g
         id="g5748"
         style="fill:#2c5aa0;fill-opacity:1;stroke:#ffffff;stroke-width:0.30000001;stroke-miterlimit:4;stroke-opacity:0.49019608;stroke-dasharray:none" />
      <g
         id="g5750"
         style="fill:#2c5aa0;fill-opacity:1;stroke:#ffffff;stroke-width:0.30000001;stroke-miterlimit:4;stroke-opacity:0.49019608;stroke-dasharray:none" />
      <g
         id="g5752"
         style="fill:#2c5aa0;fill-opacity:1;stroke:#ffffff;stroke-width:0.30000001;stroke-miterlimit:4;stroke-opacity:0.49019608;stroke-dasharray:none" />
      <g
         id="g5754"
         style="fill:#2c5aa0;fill-opacity:1;stroke:#ffffff;stroke-width:0.30000001;stroke-miterlimit:4;stroke-opacity:0.49019608;stroke-dasharray:none" />
      <g
         id="g5756"
         style="fill:#2c5aa0;fill-opacity:1;stroke:#ffffff;stroke-width:0.30000001;stroke-miterlimit:4;stroke-opacity:0.49019608;stroke-dasharray:none" />
      <g
         id="g5758"
         style="fill:#2c5aa0;fill-opacity:1;stroke:#ffffff;stroke-width:0.30000001;stroke-miterlimit:4;stroke-opacity:0.49019608;stroke-dasharray:none" />
      <g
         id="g5760"
         style="fill:#2c5aa0;fill-opacity:1;stroke:#ffffff;stroke-width:0.30000001;stroke-miterlimit:4;stroke-opacity:0.49019608;stroke-dasharray:none" />
      <g
         id="g5762"
         style="fill:#2c5aa0;fill-opacity:1;stroke:#ffffff;stroke-width:0.30000001;stroke-miterlimit:4;stroke-opacity:0.49019608;stroke-dasharray:none" />
      <g
         id="g5764"
         style="fill:#2c5aa0;fill-opacity:1;stroke:#ffffff;stroke-width:0.30000001;stroke-miterlimit:4;stroke-opacity:0.49019608;stroke-dasharray:none" />
      <g
         id="g5766"
         style="fill:#2c5aa0;fill-opacity:1;stroke:#ffffff;stroke-width:0.30000001;stroke-miterlimit:4;stroke-opacity:0.49019608;stroke-dasharray:none" />
      <g
         id="g5768"
         style="fill:#2c5aa0;fill-opacity:1;stroke:#ffffff;stroke-width:0.30000001;stroke-miterlimit:4;stroke-opacity:0.49019608;stroke-dasharray:none" />
      <g
         id="g5770"
         style="fill:#2c5aa0;fill-opacity:1;stroke:#ffffff;stroke-width:0.30000001;stroke-miterlimit:4;stroke-opacity:0.49019608;stroke-dasharray:none" />
      <g
         id="g5772"
         style="fill:#2c5aa0;fill-opacity:1;stroke:#ffffff;stroke-width:0.30000001;stroke-miterlimit:4;stroke-opacity:0.49019608;stroke-dasharray:none" />
      <g
         id="g5774"
         style="fill:#2c5aa0;fill-opacity:1;stroke:#ffffff;stroke-width:0.30000001;stroke-miterlimit:4;stroke-opacity:0.49019608;stroke-dasharray:none" />
    </g>
  </g>
</svg>
